%TF.GenerationSoftware,KiCad,Pcbnew,(6.0.2-0)*%
%TF.CreationDate,2022-04-19T15:29:27+02:00*%
%TF.ProjectId,blindeTaube,626c696e-6465-4546-9175-62652e6b6963,rev?*%
%TF.SameCoordinates,Original*%
%TF.FileFunction,Paste,Bot*%
%TF.FilePolarity,Positive*%
%FSLAX46Y46*%
G04 Gerber Fmt 4.6, Leading zero omitted, Abs format (unit mm)*
G04 Created by KiCad (PCBNEW (6.0.2-0)) date 2022-04-19 15:29:27*
%MOMM*%
%LPD*%
G01*
G04 APERTURE LIST*
G04 Aperture macros list*
%AMRoundRect*
0 Rectangle with rounded corners*
0 $1 Rounding radius*
0 $2 $3 $4 $5 $6 $7 $8 $9 X,Y pos of 4 corners*
0 Add a 4 corners polygon primitive as box body*
4,1,4,$2,$3,$4,$5,$6,$7,$8,$9,$2,$3,0*
0 Add four circle primitives for the rounded corners*
1,1,$1+$1,$2,$3*
1,1,$1+$1,$4,$5*
1,1,$1+$1,$6,$7*
1,1,$1+$1,$8,$9*
0 Add four rect primitives between the rounded corners*
20,1,$1+$1,$2,$3,$4,$5,0*
20,1,$1+$1,$4,$5,$6,$7,0*
20,1,$1+$1,$6,$7,$8,$9,0*
20,1,$1+$1,$8,$9,$2,$3,0*%
G04 Aperture macros list end*
%ADD10RoundRect,0.250000X-0.475000X0.337500X-0.475000X-0.337500X0.475000X-0.337500X0.475000X0.337500X0*%
%ADD11RoundRect,0.250000X0.475000X-0.337500X0.475000X0.337500X-0.475000X0.337500X-0.475000X-0.337500X0*%
%ADD12RoundRect,0.250000X-0.450000X0.350000X-0.450000X-0.350000X0.450000X-0.350000X0.450000X0.350000X0*%
%ADD13RoundRect,0.250000X0.350000X0.450000X-0.350000X0.450000X-0.350000X-0.450000X0.350000X-0.450000X0*%
%ADD14R,1.500000X1.100000*%
%ADD15RoundRect,0.250000X-0.350000X-0.450000X0.350000X-0.450000X0.350000X0.450000X-0.350000X0.450000X0*%
%ADD16RoundRect,0.250000X0.337500X0.475000X-0.337500X0.475000X-0.337500X-0.475000X0.337500X-0.475000X0*%
%ADD17RoundRect,0.100000X-0.100000X0.637500X-0.100000X-0.637500X0.100000X-0.637500X0.100000X0.637500X0*%
%ADD18RoundRect,0.250000X0.450000X-0.350000X0.450000X0.350000X-0.450000X0.350000X-0.450000X-0.350000X0*%
%ADD19RoundRect,0.250000X-0.337500X-0.475000X0.337500X-0.475000X0.337500X0.475000X-0.337500X0.475000X0*%
%ADD20RoundRect,0.100000X0.637500X0.100000X-0.637500X0.100000X-0.637500X-0.100000X0.637500X-0.100000X0*%
%ADD21R,1.900000X0.800000*%
%ADD22R,0.800000X1.900000*%
G04 APERTURE END LIST*
D10*
%TO.C,C41*%
X86436200Y-97594600D03*
X86436200Y-99669600D03*
%TD*%
D11*
%TO.C,C44*%
X53050000Y-109050000D03*
X53050000Y-106975000D03*
%TD*%
D12*
%TO.C,R8*%
X82067400Y-46514000D03*
X82067400Y-48514000D03*
%TD*%
D13*
%TO.C,R46*%
X60369200Y-53492400D03*
X58369200Y-53492400D03*
%TD*%
D14*
%TO.C,D4*%
X66931800Y-75766800D03*
X63931800Y-75766800D03*
X63931800Y-77266800D03*
X66931800Y-77266800D03*
%TD*%
D15*
%TO.C,R28*%
X51689000Y-45085000D03*
X53689000Y-45085000D03*
%TD*%
D16*
%TO.C,C3*%
X64262000Y-51435000D03*
X62187000Y-51435000D03*
%TD*%
D17*
%TO.C,U10*%
X83350000Y-128475000D03*
X84000000Y-128475000D03*
X84650000Y-128475000D03*
X85300000Y-128475000D03*
X85950000Y-128475000D03*
X86600000Y-128475000D03*
X87250000Y-128475000D03*
X87250000Y-134200000D03*
X86600000Y-134200000D03*
X85950000Y-134200000D03*
X85300000Y-134200000D03*
X84650000Y-134200000D03*
X84000000Y-134200000D03*
X83350000Y-134200000D03*
%TD*%
D12*
%TO.C,R68*%
X55071100Y-105765600D03*
X55071100Y-107765600D03*
%TD*%
D13*
%TO.C,R60*%
X83762600Y-97536000D03*
X81762600Y-97536000D03*
%TD*%
D15*
%TO.C,R70*%
X59024100Y-107518200D03*
X61024100Y-107518200D03*
%TD*%
D12*
%TO.C,R23*%
X53771800Y-38938200D03*
X53771800Y-40938200D03*
%TD*%
D15*
%TO.C,R54*%
X55422800Y-75996800D03*
X57422800Y-75996800D03*
%TD*%
D14*
%TO.C,D3*%
X66778000Y-45986000D03*
X63778000Y-45986000D03*
X63778000Y-47486000D03*
X66778000Y-47486000D03*
%TD*%
D13*
%TO.C,R87*%
X83350000Y-124237500D03*
X81350000Y-124237500D03*
%TD*%
D15*
%TO.C,R59*%
X81762600Y-99517200D03*
X83762600Y-99517200D03*
%TD*%
D18*
%TO.C,R95*%
X89800000Y-130350000D03*
X89800000Y-128350000D03*
%TD*%
%TO.C,R14*%
X90043000Y-45983400D03*
X90043000Y-43983400D03*
%TD*%
D16*
%TO.C,C19*%
X64887500Y-109500000D03*
X62812500Y-109500000D03*
%TD*%
D18*
%TO.C,R77*%
X89535000Y-107451400D03*
X89535000Y-105451400D03*
%TD*%
%TO.C,R64*%
X61899800Y-101771200D03*
X61899800Y-99771200D03*
%TD*%
D10*
%TO.C,C30*%
X63627000Y-40546200D03*
X63627000Y-42621200D03*
%TD*%
%TO.C,C25*%
X80472000Y-139657000D03*
X80472000Y-141732000D03*
%TD*%
D12*
%TO.C,R104*%
X53695600Y-125831600D03*
X53695600Y-127831600D03*
%TD*%
D19*
%TO.C,C32*%
X63906400Y-69750000D03*
X65981400Y-69750000D03*
%TD*%
D18*
%TO.C,R44*%
X89932000Y-74777600D03*
X89932000Y-72777600D03*
%TD*%
D16*
%TO.C,C13*%
X64766100Y-111506000D03*
X62691100Y-111506000D03*
%TD*%
%TO.C,C7*%
X90362500Y-97550000D03*
X88287500Y-97550000D03*
%TD*%
%TO.C,C37*%
X53670200Y-72567800D03*
X51595200Y-72567800D03*
%TD*%
D17*
%TO.C,U7*%
X83775000Y-101650800D03*
X84425000Y-101650800D03*
X85075000Y-101650800D03*
X85725000Y-101650800D03*
X86375000Y-101650800D03*
X87025000Y-101650800D03*
X87675000Y-101650800D03*
X87675000Y-107375800D03*
X87025000Y-107375800D03*
X86375000Y-107375800D03*
X85725000Y-107375800D03*
X85075000Y-107375800D03*
X84425000Y-107375800D03*
X83775000Y-107375800D03*
%TD*%
D13*
%TO.C,R16*%
X59734200Y-49276000D03*
X57734200Y-49276000D03*
%TD*%
D14*
%TO.C,D7*%
X67541400Y-101600000D03*
X64541400Y-101600000D03*
X64541400Y-103100000D03*
X67541400Y-103100000D03*
%TD*%
D18*
%TO.C,R22*%
X89966800Y-53943000D03*
X89966800Y-51943000D03*
%TD*%
%TO.C,R108*%
X76504800Y-141730000D03*
X76504800Y-139730000D03*
%TD*%
D17*
%TO.C,U5*%
X84187000Y-72771000D03*
X84837000Y-72771000D03*
X85487000Y-72771000D03*
X86137000Y-72771000D03*
X86787000Y-72771000D03*
X87437000Y-72771000D03*
X88087000Y-72771000D03*
X88087000Y-78496000D03*
X87437000Y-78496000D03*
X86787000Y-78496000D03*
X86137000Y-78496000D03*
X85487000Y-78496000D03*
X84837000Y-78496000D03*
X84187000Y-78496000D03*
%TD*%
D20*
%TO.C,U1*%
X61478000Y-40457600D03*
X61478000Y-41107600D03*
X61478000Y-41757600D03*
X61478000Y-42407600D03*
X61478000Y-43057600D03*
X61478000Y-43707600D03*
X61478000Y-44357600D03*
X55753000Y-44357600D03*
X55753000Y-43707600D03*
X55753000Y-43057600D03*
X55753000Y-42407600D03*
X55753000Y-41757600D03*
X55753000Y-41107600D03*
X55753000Y-40457600D03*
%TD*%
D13*
%TO.C,R97*%
X61024100Y-109499400D03*
X59024100Y-109499400D03*
%TD*%
%TO.C,R90*%
X89700000Y-126500000D03*
X87700000Y-126500000D03*
%TD*%
D18*
%TO.C,R21*%
X65608200Y-44221400D03*
X65608200Y-42221400D03*
%TD*%
D11*
%TO.C,C23*%
X78486000Y-141173200D03*
X78486000Y-139098200D03*
%TD*%
D10*
%TO.C,C1*%
X64871600Y-36449000D03*
X64871600Y-38524000D03*
%TD*%
D18*
%TO.C,R109*%
X52140000Y-140630000D03*
X52140000Y-138630000D03*
%TD*%
D13*
%TO.C,R39*%
X89875000Y-70775000D03*
X87875000Y-70775000D03*
%TD*%
%TO.C,R47*%
X79647800Y-68808600D03*
X77647800Y-68808600D03*
%TD*%
D16*
%TO.C,C2*%
X90213000Y-39954200D03*
X88138000Y-39954200D03*
%TD*%
D21*
%TO.C,D11*%
X86688800Y-141716800D03*
X86688800Y-139816800D03*
X89688800Y-140766800D03*
%TD*%
D11*
%TO.C,C18*%
X66141600Y-73931600D03*
X66141600Y-71856600D03*
%TD*%
D10*
%TO.C,C11*%
X63957200Y-123274000D03*
X63957200Y-125349000D03*
%TD*%
D16*
%TO.C,C4*%
X64262000Y-49428400D03*
X62187000Y-49428400D03*
%TD*%
D12*
%TO.C,R103*%
X89814400Y-135800000D03*
X89814400Y-137800000D03*
%TD*%
%TO.C,R17*%
X80060800Y-38582600D03*
X80060800Y-40582600D03*
%TD*%
%TO.C,R26*%
X57077700Y-105772200D03*
X57077700Y-107772200D03*
%TD*%
D13*
%TO.C,R34*%
X83489800Y-68757800D03*
X81489800Y-68757800D03*
%TD*%
D15*
%TO.C,R55*%
X51670200Y-76479400D03*
X53670200Y-76479400D03*
%TD*%
%TO.C,R45*%
X58347700Y-55448200D03*
X60347700Y-55448200D03*
%TD*%
D16*
%TO.C,C48*%
X86275000Y-136200000D03*
X84200000Y-136200000D03*
%TD*%
%TO.C,C38*%
X86020400Y-80619600D03*
X83945400Y-80619600D03*
%TD*%
D18*
%TO.C,R76*%
X64211200Y-99485200D03*
X64211200Y-97485200D03*
%TD*%
D10*
%TO.C,C33*%
X85944200Y-68740200D03*
X85944200Y-70815200D03*
%TD*%
D16*
%TO.C,C15*%
X89925000Y-68775000D03*
X87850000Y-68775000D03*
%TD*%
D20*
%TO.C,U4*%
X61427200Y-69855800D03*
X61427200Y-70505800D03*
X61427200Y-71155800D03*
X61427200Y-71805800D03*
X61427200Y-72455800D03*
X61427200Y-73105800D03*
X61427200Y-73755800D03*
X55702200Y-73755800D03*
X55702200Y-73105800D03*
X55702200Y-72455800D03*
X55702200Y-71805800D03*
X55702200Y-71155800D03*
X55702200Y-70505800D03*
X55702200Y-69855800D03*
%TD*%
D10*
%TO.C,C24*%
X82453200Y-139663800D03*
X82453200Y-141738800D03*
%TD*%
D12*
%TO.C,R13*%
X53898800Y-49149000D03*
X53898800Y-51149000D03*
%TD*%
D18*
%TO.C,R19*%
X87960200Y-53943000D03*
X87960200Y-51943000D03*
%TD*%
D14*
%TO.C,D8*%
X67211200Y-133451600D03*
X64211200Y-133451600D03*
X64211200Y-134951600D03*
X67211200Y-134951600D03*
%TD*%
D13*
%TO.C,R72*%
X79495400Y-96100000D03*
X77495400Y-96100000D03*
%TD*%
%TO.C,R5*%
X83940400Y-39903400D03*
X81940400Y-39903400D03*
%TD*%
D12*
%TO.C,R78*%
X54025800Y-92437200D03*
X54025800Y-94437200D03*
%TD*%
D18*
%TO.C,R30*%
X55829200Y-55543200D03*
X55829200Y-53543200D03*
%TD*%
%TO.C,R52*%
X89957400Y-78631800D03*
X89957400Y-76631800D03*
%TD*%
D15*
%TO.C,R79*%
X55921400Y-100634800D03*
X57921400Y-100634800D03*
%TD*%
%TO.C,R4*%
X81915000Y-41859200D03*
X83915000Y-41859200D03*
%TD*%
D18*
%TO.C,R11*%
X66827400Y-40436800D03*
X66827400Y-38436800D03*
%TD*%
D15*
%TO.C,R24*%
X56115200Y-46177200D03*
X58115200Y-46177200D03*
%TD*%
D13*
%TO.C,R49*%
X89849200Y-80619600D03*
X87849200Y-80619600D03*
%TD*%
D16*
%TO.C,C45*%
X54123500Y-96774000D03*
X52048500Y-96774000D03*
%TD*%
D13*
%TO.C,R10*%
X90163400Y-41986200D03*
X88163400Y-41986200D03*
%TD*%
D10*
%TO.C,C31*%
X86258400Y-39987400D03*
X86258400Y-42062400D03*
%TD*%
D18*
%TO.C,R73*%
X52095400Y-94456000D03*
X52095400Y-92456000D03*
%TD*%
D20*
%TO.C,U9*%
X61401800Y-127442200D03*
X61401800Y-128092200D03*
X61401800Y-128742200D03*
X61401800Y-129392200D03*
X61401800Y-130042200D03*
X61401800Y-130692200D03*
X61401800Y-131342200D03*
X55676800Y-131342200D03*
X55676800Y-130692200D03*
X55676800Y-130042200D03*
X55676800Y-129392200D03*
X55676800Y-128742200D03*
X55676800Y-128092200D03*
X55676800Y-127442200D03*
%TD*%
D15*
%TO.C,R33*%
X81499200Y-70739000D03*
X83499200Y-70739000D03*
%TD*%
D18*
%TO.C,R69*%
X89484200Y-103428800D03*
X89484200Y-101428800D03*
%TD*%
D19*
%TO.C,C40*%
X64058800Y-94970600D03*
X66133800Y-94970600D03*
%TD*%
D17*
%TO.C,U2*%
X84200200Y-43992800D03*
X84850200Y-43992800D03*
X85500200Y-43992800D03*
X86150200Y-43992800D03*
X86800200Y-43992800D03*
X87450200Y-43992800D03*
X88100200Y-43992800D03*
X88100200Y-49717800D03*
X87450200Y-49717800D03*
X86800200Y-49717800D03*
X86150200Y-49717800D03*
X85500200Y-49717800D03*
X84850200Y-49717800D03*
X84200200Y-49717800D03*
%TD*%
D19*
%TO.C,C42*%
X63990400Y-127279400D03*
X66065400Y-127279400D03*
%TD*%
D10*
%TO.C,C6*%
X64389000Y-90609600D03*
X64389000Y-92684600D03*
%TD*%
D11*
%TO.C,C20*%
X65750000Y-131572000D03*
X65750000Y-129497000D03*
%TD*%
D12*
%TO.C,R53*%
X53670200Y-68180200D03*
X53670200Y-70180200D03*
%TD*%
D15*
%TO.C,R80*%
X52143400Y-100736400D03*
X54143400Y-100736400D03*
%TD*%
D14*
%TO.C,D2*%
X67183000Y-60299600D03*
X64183000Y-60299600D03*
X64183000Y-61799600D03*
X67183000Y-61799600D03*
%TD*%
D18*
%TO.C,R29*%
X82118200Y-52368200D03*
X82118200Y-50368200D03*
%TD*%
D15*
%TO.C,R96*%
X58922500Y-111455200D03*
X60922500Y-111455200D03*
%TD*%
D18*
%TO.C,R18*%
X51816000Y-40938200D03*
X51816000Y-38938200D03*
%TD*%
D15*
%TO.C,R106*%
X54965400Y-134100000D03*
X56965400Y-134100000D03*
%TD*%
D16*
%TO.C,C28*%
X56167500Y-138660000D03*
X54092500Y-138660000D03*
%TD*%
%TO.C,C46*%
X85140800Y-109651800D03*
X83065800Y-109651800D03*
%TD*%
D18*
%TO.C,R51*%
X64135000Y-73939400D03*
X64135000Y-71939400D03*
%TD*%
D14*
%TO.C,D6*%
X67109600Y-115112800D03*
X64109600Y-115112800D03*
X64109600Y-116612800D03*
X67109600Y-116612800D03*
%TD*%
D13*
%TO.C,R74*%
X88934800Y-109651800D03*
X86934800Y-109651800D03*
%TD*%
D18*
%TO.C,R43*%
X53771800Y-55473600D03*
X53771800Y-53473600D03*
%TD*%
D10*
%TO.C,C14*%
X64947800Y-64396800D03*
X64947800Y-66471800D03*
%TD*%
D16*
%TO.C,C35*%
X53695600Y-43129200D03*
X51620600Y-43129200D03*
%TD*%
D12*
%TO.C,R1*%
X55854600Y-49174400D03*
X55854600Y-51174400D03*
%TD*%
D14*
%TO.C,D1*%
X67056000Y-32282000D03*
X64056000Y-32282000D03*
X64056000Y-33782000D03*
X67056000Y-33782000D03*
%TD*%
D18*
%TO.C,R83*%
X57052300Y-111524800D03*
X57052300Y-109524800D03*
%TD*%
D15*
%TO.C,R86*%
X81350000Y-126237500D03*
X83350000Y-126237500D03*
%TD*%
D10*
%TO.C,C36*%
X85928200Y-51917600D03*
X85928200Y-53992600D03*
%TD*%
D15*
%TO.C,R82*%
X87800000Y-122550000D03*
X89800000Y-122550000D03*
%TD*%
%TO.C,R56*%
X51670200Y-74549000D03*
X53670200Y-74549000D03*
%TD*%
D16*
%TO.C,C12*%
X89737500Y-124550000D03*
X87662500Y-124550000D03*
%TD*%
D13*
%TO.C,R98*%
X79550000Y-125725000D03*
X77550000Y-125725000D03*
%TD*%
D11*
%TO.C,C10*%
X66243200Y-99509400D03*
X66243200Y-97434400D03*
%TD*%
D16*
%TO.C,C17*%
X64279600Y-53644800D03*
X62204600Y-53644800D03*
%TD*%
D14*
%TO.C,D5*%
X67490600Y-87147400D03*
X64490600Y-87147400D03*
X64490600Y-88647400D03*
X67490600Y-88647400D03*
%TD*%
D18*
%TO.C,R100*%
X89800000Y-134050000D03*
X89800000Y-132050000D03*
%TD*%
%TO.C,R94*%
X55096500Y-111524800D03*
X55096500Y-109524800D03*
%TD*%
D15*
%TO.C,R105*%
X58750000Y-134100000D03*
X60750000Y-134100000D03*
%TD*%
%TO.C,R15*%
X57734200Y-51231800D03*
X59734200Y-51231800D03*
%TD*%
D16*
%TO.C,C8*%
X64887500Y-107500000D03*
X62812500Y-107500000D03*
%TD*%
D18*
%TO.C,R102*%
X63800000Y-131521200D03*
X63800000Y-129521200D03*
%TD*%
D22*
%TO.C,D12*%
X60080000Y-140430000D03*
X58180000Y-140430000D03*
X59130000Y-137430000D03*
%TD*%
D15*
%TO.C,R107*%
X51700000Y-132000000D03*
X53700000Y-132000000D03*
%TD*%
D11*
%TO.C,C5*%
X67564000Y-44237500D03*
X67564000Y-42162500D03*
%TD*%
D16*
%TO.C,C47*%
X53738600Y-130022600D03*
X51663600Y-130022600D03*
%TD*%
D20*
%TO.C,U6*%
X61757400Y-94142800D03*
X61757400Y-94792800D03*
X61757400Y-95442800D03*
X61757400Y-96092800D03*
X61757400Y-96742800D03*
X61757400Y-97392800D03*
X61757400Y-98042800D03*
X56032400Y-98042800D03*
X56032400Y-97392800D03*
X56032400Y-96742800D03*
X56032400Y-96092800D03*
X56032400Y-95442800D03*
X56032400Y-94792800D03*
X56032400Y-94142800D03*
%TD*%
D12*
%TO.C,R63*%
X81915000Y-105359200D03*
X81915000Y-107359200D03*
%TD*%
D10*
%TO.C,C26*%
X84434400Y-139663800D03*
X84434400Y-141738800D03*
%TD*%
D15*
%TO.C,R81*%
X52143400Y-98780600D03*
X54143400Y-98780600D03*
%TD*%
%TO.C,R25*%
X88000000Y-94200000D03*
X90000000Y-94200000D03*
%TD*%
D13*
%TO.C,R65*%
X90322400Y-99542600D03*
X88322400Y-99542600D03*
%TD*%
%TO.C,R71*%
X60998700Y-105587800D03*
X58998700Y-105587800D03*
%TD*%
D16*
%TO.C,C16*%
X64287400Y-55651400D03*
X62212400Y-55651400D03*
%TD*%
D15*
%TO.C,R9*%
X59867800Y-46177200D03*
X61867800Y-46177200D03*
%TD*%
D12*
%TO.C,R37*%
X82296000Y-76587600D03*
X82296000Y-78587600D03*
%TD*%
D10*
%TO.C,C43*%
X85800000Y-124200000D03*
X85800000Y-126275000D03*
%TD*%
D15*
%TO.C,R27*%
X51695600Y-47015400D03*
X53695600Y-47015400D03*
%TD*%
D16*
%TO.C,C27*%
X56227500Y-140660000D03*
X54152500Y-140660000D03*
%TD*%
D18*
%TO.C,R99*%
X51765200Y-127857000D03*
X51765200Y-125857000D03*
%TD*%
D16*
%TO.C,C9*%
X64897000Y-105511600D03*
X62822000Y-105511600D03*
%TD*%
D18*
%TO.C,R48*%
X51714400Y-70148200D03*
X51714400Y-68148200D03*
%TD*%
M02*
