%TF.GenerationSoftware,KiCad,Pcbnew,(6.0.2-0)*%
%TF.CreationDate,2022-04-19T15:29:28+02:00*%
%TF.ProjectId,blindeTaube,626c696e-6465-4546-9175-62652e6b6963,rev?*%
%TF.SameCoordinates,Original*%
%TF.FileFunction,Soldermask,Top*%
%TF.FilePolarity,Negative*%
%FSLAX46Y46*%
G04 Gerber Fmt 4.6, Leading zero omitted, Abs format (unit mm)*
G04 Created by KiCad (PCBNEW (6.0.2-0)) date 2022-04-19 15:29:28*
%MOMM*%
%LPD*%
G01*
G04 APERTURE LIST*
G04 Aperture macros list*
%AMRoundRect*
0 Rectangle with rounded corners*
0 $1 Rounding radius*
0 $2 $3 $4 $5 $6 $7 $8 $9 X,Y pos of 4 corners*
0 Add a 4 corners polygon primitive as box body*
4,1,4,$2,$3,$4,$5,$6,$7,$8,$9,$2,$3,0*
0 Add four circle primitives for the rounded corners*
1,1,$1+$1,$2,$3*
1,1,$1+$1,$4,$5*
1,1,$1+$1,$6,$7*
1,1,$1+$1,$8,$9*
0 Add four rect primitives between the rounded corners*
20,1,$1+$1,$2,$3,$4,$5,0*
20,1,$1+$1,$4,$5,$6,$7,0*
20,1,$1+$1,$6,$7,$8,$9,0*
20,1,$1+$1,$8,$9,$2,$3,0*%
G04 Aperture macros list end*
%ADD10RoundRect,0.250000X0.450000X-0.350000X0.450000X0.350000X-0.450000X0.350000X-0.450000X-0.350000X0*%
%ADD11RoundRect,0.250000X-0.350000X-0.450000X0.350000X-0.450000X0.350000X0.450000X-0.350000X0.450000X0*%
%ADD12C,8.400000*%
%ADD13R,1.000000X3.000000*%
%ADD14RoundRect,0.250000X0.475000X-0.337500X0.475000X0.337500X-0.475000X0.337500X-0.475000X-0.337500X0*%
%ADD15RoundRect,0.250000X-0.475000X0.337500X-0.475000X-0.337500X0.475000X-0.337500X0.475000X0.337500X0*%
%ADD16R,1.600000X1.600000*%
%ADD17C,1.600000*%
%ADD18RoundRect,0.250000X0.350000X0.450000X-0.350000X0.450000X-0.350000X-0.450000X0.350000X-0.450000X0*%
%ADD19C,2.000000*%
%ADD20RoundRect,0.250000X-0.450000X0.350000X-0.450000X-0.350000X0.450000X-0.350000X0.450000X0.350000X0*%
%ADD21C,7.000000*%
%ADD22R,3.000000X1.830000*%
%ADD23O,3.000000X1.800000*%
%ADD24R,1.830000X3.000000*%
%ADD25O,1.800000X3.000000*%
%ADD26RoundRect,0.150000X-0.150000X0.825000X-0.150000X-0.825000X0.150000X-0.825000X0.150000X0.825000X0*%
%ADD27RoundRect,0.237500X0.237500X-0.287500X0.237500X0.287500X-0.237500X0.287500X-0.237500X-0.287500X0*%
%ADD28C,3.200000*%
%ADD29R,3.500000X1.800000*%
%ADD30R,1.700000X1.700000*%
%ADD31O,1.700000X1.700000*%
G04 APERTURE END LIST*
%TO.C,april22-xl*%
G36*
X84646273Y-25282384D02*
G01*
X84690039Y-25321205D01*
X84700531Y-25335657D01*
X84709202Y-25352477D01*
X84716223Y-25375573D01*
X84721767Y-25408853D01*
X84726005Y-25456226D01*
X84729110Y-25521598D01*
X84731253Y-25608878D01*
X84732606Y-25721975D01*
X84733342Y-25864794D01*
X84733633Y-26041246D01*
X84733650Y-26255237D01*
X84733633Y-26311572D01*
X84733231Y-26553199D01*
X84732152Y-26755301D01*
X84730318Y-26920716D01*
X84727653Y-27052284D01*
X84724081Y-27152843D01*
X84719526Y-27225232D01*
X84713911Y-27272290D01*
X84707160Y-27296857D01*
X84707152Y-27296872D01*
X84658915Y-27351047D01*
X84593801Y-27369280D01*
X84548274Y-27360448D01*
X84504606Y-27327710D01*
X84479425Y-27287680D01*
X84474400Y-27253121D01*
X84469943Y-27179379D01*
X84466123Y-27069636D01*
X84463006Y-26927075D01*
X84460661Y-26754878D01*
X84459155Y-26556228D01*
X84458556Y-26334307D01*
X84458549Y-26304897D01*
X84458602Y-26082350D01*
X84458879Y-25898247D01*
X84459554Y-25748666D01*
X84460802Y-25629683D01*
X84462799Y-25537374D01*
X84465721Y-25467815D01*
X84469741Y-25417083D01*
X84475035Y-25381254D01*
X84481778Y-25356405D01*
X84490146Y-25338612D01*
X84500313Y-25323951D01*
X84502455Y-25321205D01*
X84549908Y-25280190D01*
X84596247Y-25265388D01*
X84646273Y-25282384D01*
G37*
G36*
X81581349Y-26310343D02*
G01*
X81583121Y-26177458D01*
X81586601Y-26072937D01*
X81592142Y-25993278D01*
X81600098Y-25934980D01*
X81610822Y-25894543D01*
X81624668Y-25868464D01*
X81641989Y-25853244D01*
X81663138Y-25845381D01*
X81688469Y-25841375D01*
X81691063Y-25841072D01*
X81760299Y-25851745D01*
X81812405Y-25898782D01*
X81843309Y-25978241D01*
X81845531Y-25990584D01*
X81858726Y-26073103D01*
X81896632Y-26015317D01*
X81937465Y-25968474D01*
X81996600Y-25917228D01*
X82024002Y-25897448D01*
X82129800Y-25849035D01*
X82239268Y-25839294D01*
X82347268Y-25865452D01*
X82448662Y-25924740D01*
X82538314Y-26014384D01*
X82611085Y-26131615D01*
X82651497Y-26235978D01*
X82677466Y-26361529D01*
X82690045Y-26511251D01*
X82689479Y-26670128D01*
X82676010Y-26823143D01*
X82649881Y-26955281D01*
X82639288Y-26989544D01*
X82573104Y-27135579D01*
X82488090Y-27247926D01*
X82386635Y-27324466D01*
X82271129Y-27363080D01*
X82213011Y-27367524D01*
X82099304Y-27351841D01*
X82002576Y-27301974D01*
X81919906Y-27220527D01*
X81854298Y-27140200D01*
X81853555Y-27457965D01*
X81852355Y-27589190D01*
X81848967Y-27685779D01*
X81842647Y-27755437D01*
X81832654Y-27805871D01*
X81818244Y-27844788D01*
X81815772Y-27849875D01*
X81768416Y-27909913D01*
X81709035Y-27932178D01*
X81644392Y-27914643D01*
X81630423Y-27905453D01*
X81620420Y-27896890D01*
X81612099Y-27884641D01*
X81605281Y-27864957D01*
X81599784Y-27834085D01*
X81595429Y-27788276D01*
X81592036Y-27723780D01*
X81589423Y-27636844D01*
X81587411Y-27523720D01*
X81585818Y-27380656D01*
X81584466Y-27203902D01*
X81583172Y-26989707D01*
X81582750Y-26914188D01*
X81581517Y-26675207D01*
X81581236Y-26578815D01*
X81874387Y-26578815D01*
X81879382Y-26719343D01*
X81896124Y-26827157D01*
X81927011Y-26910868D01*
X81974442Y-26979087D01*
X81990641Y-26996212D01*
X82069128Y-27050828D01*
X82152655Y-27066999D01*
X82233783Y-27043677D01*
X82250949Y-27032878D01*
X82289967Y-26993709D01*
X82331627Y-26934793D01*
X82345157Y-26911069D01*
X82367208Y-26862840D01*
X82381245Y-26811407D01*
X82388985Y-26745473D01*
X82392147Y-26653739D01*
X82392538Y-26599504D01*
X82391664Y-26494431D01*
X82387140Y-26419735D01*
X82377020Y-26363458D01*
X82359354Y-26313643D01*
X82339117Y-26271647D01*
X82294853Y-26199686D01*
X82246609Y-26156172D01*
X82205491Y-26136400D01*
X82116485Y-26121112D01*
X82037900Y-26144288D01*
X81972077Y-26202804D01*
X81921354Y-26293532D01*
X81888071Y-26413348D01*
X81874567Y-26559125D01*
X81874387Y-26578815D01*
X81581236Y-26578815D01*
X81580933Y-26475092D01*
X81581349Y-26310343D01*
G37*
G36*
X86261770Y-25319249D02*
G01*
X86376097Y-25380979D01*
X86469054Y-25474273D01*
X86537887Y-25592633D01*
X86579839Y-25729561D01*
X86592154Y-25878560D01*
X86572077Y-26033133D01*
X86569299Y-26044338D01*
X86542768Y-26136263D01*
X86511282Y-26216419D01*
X86469649Y-26293316D01*
X86412679Y-26375461D01*
X86335181Y-26471364D01*
X86246911Y-26572731D01*
X86150418Y-26683436D01*
X86066069Y-26784160D01*
X85997592Y-26870153D01*
X85948714Y-26936669D01*
X85923162Y-26978957D01*
X85920267Y-26988868D01*
X85940212Y-26993015D01*
X85995097Y-26997365D01*
X86077498Y-27001500D01*
X86179992Y-27005005D01*
X86229360Y-27006235D01*
X86350148Y-27009252D01*
X86435859Y-27012848D01*
X86493775Y-27018208D01*
X86531185Y-27026516D01*
X86555372Y-27038959D01*
X86573624Y-27056722D01*
X86578901Y-27063106D01*
X86612851Y-27132910D01*
X86616506Y-27209954D01*
X86590266Y-27278297D01*
X86572986Y-27298257D01*
X86554889Y-27312880D01*
X86532360Y-27323778D01*
X86499375Y-27331495D01*
X86449910Y-27336575D01*
X86377940Y-27339563D01*
X86277442Y-27341001D01*
X86142391Y-27341435D01*
X86094709Y-27341451D01*
X85662796Y-27341451D01*
X85600872Y-27279527D01*
X85554025Y-27213155D01*
X85540249Y-27136657D01*
X85559301Y-27043574D01*
X85589362Y-26970725D01*
X85635875Y-26888674D01*
X85707828Y-26783154D01*
X85800466Y-26660418D01*
X85909034Y-26526718D01*
X86028775Y-26388307D01*
X86051903Y-26362540D01*
X86174370Y-26209335D01*
X86255858Y-26066279D01*
X86296456Y-25933106D01*
X86296253Y-25809548D01*
X86267046Y-25718023D01*
X86213354Y-25637879D01*
X86142720Y-25594459D01*
X86062214Y-25583152D01*
X85975700Y-25603080D01*
X85903579Y-25662740D01*
X85846035Y-25761951D01*
X85825897Y-25816487D01*
X85790490Y-25915452D01*
X85757681Y-25979250D01*
X85722540Y-26014405D01*
X85680139Y-26027446D01*
X85666111Y-26028023D01*
X85605788Y-26009450D01*
X85564680Y-25957801D01*
X85545873Y-25879180D01*
X85549460Y-25797501D01*
X85590091Y-25642058D01*
X85659615Y-25510846D01*
X85753445Y-25406944D01*
X85866995Y-25333434D01*
X85995677Y-25293393D01*
X86134905Y-25289902D01*
X86261770Y-25319249D01*
G37*
G36*
X88659691Y-25291507D02*
G01*
X88811057Y-25321323D01*
X88935574Y-25383458D01*
X89032076Y-25476535D01*
X89099397Y-25599176D01*
X89136370Y-25750004D01*
X89143579Y-25863159D01*
X89137002Y-25984963D01*
X89114141Y-26096801D01*
X89071508Y-26205871D01*
X89005614Y-26319376D01*
X88912972Y-26444514D01*
X88794667Y-26583357D01*
X88715143Y-26674183D01*
X88639903Y-26762935D01*
X88576524Y-26840491D01*
X88532580Y-26897728D01*
X88526692Y-26906077D01*
X88460350Y-27002502D01*
X88746359Y-27002502D01*
X88884443Y-27004189D01*
X88986587Y-27010260D01*
X89059123Y-27022228D01*
X89108380Y-27041606D01*
X89140691Y-27069908D01*
X89159132Y-27101164D01*
X89180961Y-27179496D01*
X89165357Y-27245136D01*
X89130654Y-27289453D01*
X89111926Y-27307183D01*
X89092113Y-27320321D01*
X89065031Y-27329531D01*
X89024496Y-27335479D01*
X88964326Y-27338829D01*
X88878335Y-27340245D01*
X88760341Y-27340392D01*
X88659303Y-27340108D01*
X88527438Y-27338777D01*
X88407777Y-27335860D01*
X88307667Y-27331674D01*
X88234456Y-27326534D01*
X88195488Y-27320754D01*
X88193670Y-27320119D01*
X88139654Y-27277147D01*
X88108802Y-27206576D01*
X88102705Y-27117271D01*
X88122954Y-27018096D01*
X88134141Y-26988372D01*
X88173387Y-26914613D01*
X88238402Y-26816563D01*
X88324976Y-26699870D01*
X88428898Y-26570183D01*
X88545959Y-26433148D01*
X88559358Y-26417981D01*
X88630997Y-26335335D01*
X88696235Y-26256792D01*
X88747456Y-26191723D01*
X88775373Y-26152266D01*
X88826921Y-26042421D01*
X88850932Y-25930767D01*
X88849247Y-25824097D01*
X88823705Y-25729207D01*
X88776146Y-25652890D01*
X88708410Y-25601941D01*
X88622337Y-25583155D01*
X88621268Y-25583152D01*
X88538309Y-25599489D01*
X88469822Y-25650316D01*
X88413031Y-25738358D01*
X88379942Y-25820105D01*
X88345760Y-25914677D01*
X88318063Y-25975626D01*
X88291710Y-26010073D01*
X88261560Y-26025138D01*
X88229814Y-26028023D01*
X88165307Y-26010374D01*
X88123256Y-25959914D01*
X88104678Y-25880376D01*
X88110587Y-25775494D01*
X88133819Y-25675201D01*
X88194639Y-25533735D01*
X88284465Y-25422807D01*
X88404382Y-25341093D01*
X88408610Y-25339003D01*
X88485382Y-25305296D01*
X88549430Y-25290071D01*
X88623498Y-25289026D01*
X88659691Y-25291507D01*
G37*
G36*
X84094219Y-25877877D02*
G01*
X84124863Y-25922101D01*
X84135828Y-25948153D01*
X84144423Y-25980705D01*
X84150929Y-26024879D01*
X84155624Y-26085797D01*
X84158790Y-26168579D01*
X84160705Y-26278346D01*
X84161649Y-26420220D01*
X84161902Y-26599323D01*
X84161902Y-26600000D01*
X84161651Y-26779237D01*
X84160709Y-26921229D01*
X84158798Y-27031097D01*
X84155638Y-27113961D01*
X84150948Y-27174944D01*
X84144449Y-27219167D01*
X84135861Y-27251750D01*
X84124904Y-27277815D01*
X84124863Y-27277898D01*
X84077546Y-27337103D01*
X84017986Y-27361631D01*
X83956027Y-27349530D01*
X83917266Y-27319070D01*
X83905797Y-27304416D01*
X83896670Y-27285491D01*
X83889619Y-27257658D01*
X83884376Y-27216281D01*
X83880677Y-27156723D01*
X83878254Y-27074347D01*
X83876842Y-26964516D01*
X83876174Y-26822594D01*
X83875984Y-26643944D01*
X83875980Y-26600000D01*
X83876101Y-26412791D01*
X83876643Y-26263314D01*
X83877872Y-26146932D01*
X83880053Y-26059008D01*
X83883454Y-25994905D01*
X83888340Y-25949987D01*
X83894978Y-25919617D01*
X83903633Y-25899157D01*
X83914572Y-25883972D01*
X83917266Y-25880929D01*
X83975183Y-25842595D01*
X84037449Y-25842228D01*
X84094219Y-25877877D01*
G37*
G36*
X83543609Y-25851765D02*
G01*
X83623258Y-25890448D01*
X83681111Y-25946631D01*
X83712618Y-26013532D01*
X83713227Y-26084369D01*
X83678386Y-26152360D01*
X83666675Y-26165108D01*
X83635125Y-26193794D01*
X83606650Y-26204786D01*
X83566095Y-26199899D01*
X83508817Y-26184036D01*
X83420837Y-26166370D01*
X83357702Y-26176518D01*
X83309539Y-26218004D01*
X83280460Y-26265611D01*
X83260493Y-26326396D01*
X83243007Y-26423444D01*
X83228590Y-26550695D01*
X83217829Y-26702086D01*
X83211312Y-26871556D01*
X83209597Y-26996209D01*
X83207166Y-27097461D01*
X83201301Y-27187394D01*
X83192943Y-27254899D01*
X83185153Y-27285157D01*
X83140732Y-27341056D01*
X83079150Y-27366892D01*
X83024696Y-27360962D01*
X82997080Y-27348794D01*
X82974943Y-27331942D01*
X82957684Y-27305965D01*
X82944697Y-27266425D01*
X82935381Y-27208883D01*
X82929130Y-27128898D01*
X82925342Y-27022033D01*
X82923413Y-26883847D01*
X82922740Y-26709902D01*
X82922685Y-26610592D01*
X82923057Y-26411313D01*
X82924615Y-26250250D01*
X82928028Y-26123256D01*
X82933963Y-26026181D01*
X82943088Y-25954876D01*
X82956071Y-25905194D01*
X82973580Y-25872984D01*
X82996282Y-25854099D01*
X83024844Y-25844389D01*
X83046525Y-25841072D01*
X83116110Y-25851792D01*
X83168210Y-25898724D01*
X83196604Y-25970849D01*
X83207364Y-26014360D01*
X83217838Y-26020654D01*
X83233648Y-25996247D01*
X83300371Y-25903865D01*
X83377870Y-25850715D01*
X83446717Y-25837364D01*
X83543609Y-25851765D01*
G37*
G36*
X84080140Y-25305158D02*
G01*
X84127543Y-25357414D01*
X84150074Y-25438091D01*
X84151376Y-25466639D01*
X84137214Y-25550203D01*
X84099990Y-25610602D01*
X84047595Y-25643784D01*
X83987919Y-25645700D01*
X83928856Y-25612298D01*
X83909294Y-25590888D01*
X83875009Y-25521044D01*
X83869378Y-25445263D01*
X83888810Y-25374199D01*
X83929710Y-25318505D01*
X83988484Y-25288837D01*
X84011932Y-25286572D01*
X84080140Y-25305158D01*
G37*
G36*
X80203442Y-26254603D02*
G01*
X80271095Y-26028386D01*
X80328428Y-25839500D01*
X80376939Y-25684590D01*
X80418123Y-25560299D01*
X80453478Y-25463273D01*
X80484501Y-25390154D01*
X80512688Y-25337587D01*
X80539536Y-25302216D01*
X80566543Y-25280686D01*
X80595205Y-25269640D01*
X80627018Y-25265722D01*
X80644671Y-25265388D01*
X80727475Y-25277753D01*
X80788350Y-25319415D01*
X80833245Y-25387906D01*
X80850166Y-25429585D01*
X80876859Y-25505489D01*
X80911691Y-25610230D01*
X80953026Y-25738424D01*
X80999229Y-25884685D01*
X81048665Y-26043627D01*
X81099700Y-26209864D01*
X81150698Y-26378011D01*
X81200024Y-26542683D01*
X81246044Y-26698493D01*
X81287123Y-26840055D01*
X81321626Y-26961985D01*
X81347917Y-27058897D01*
X81364363Y-27125404D01*
X81369379Y-27154004D01*
X81366611Y-27219322D01*
X81356718Y-27272834D01*
X81321363Y-27324216D01*
X81263439Y-27358246D01*
X81200569Y-27366023D01*
X81181660Y-27361280D01*
X81149032Y-27343039D01*
X81120765Y-27310922D01*
X81093409Y-27258192D01*
X81063513Y-27178109D01*
X81027628Y-27063934D01*
X81025093Y-27055463D01*
X80968153Y-26864804D01*
X80343751Y-26864804D01*
X80281086Y-27076647D01*
X80251611Y-27169206D01*
X80222312Y-27249152D01*
X80197284Y-27305880D01*
X80184993Y-27325563D01*
X80131632Y-27359028D01*
X80071960Y-27358513D01*
X80015217Y-27329453D01*
X79970638Y-27277281D01*
X79947460Y-27207430D01*
X79946063Y-27185008D01*
X79951947Y-27151025D01*
X79968857Y-27081086D01*
X79995522Y-26979782D01*
X80030671Y-26851703D01*
X80073036Y-26701439D01*
X80121345Y-26533580D01*
X80123168Y-26527357D01*
X80433528Y-26527357D01*
X80453260Y-26531071D01*
X80506651Y-26534052D01*
X80584994Y-26535948D01*
X80658230Y-26536447D01*
X80762529Y-26535215D01*
X80829724Y-26531093D01*
X80865022Y-26523439D01*
X80873628Y-26511612D01*
X80873145Y-26509966D01*
X80864662Y-26481843D01*
X80847050Y-26419827D01*
X80822262Y-26330919D01*
X80792250Y-26222122D01*
X80761000Y-26107891D01*
X80728246Y-25989681D01*
X80698936Y-25887632D01*
X80674940Y-25807955D01*
X80658129Y-25756862D01*
X80650402Y-25740534D01*
X80643081Y-25761894D01*
X80626914Y-25816443D01*
X80604032Y-25896447D01*
X80576567Y-25994176D01*
X80546651Y-26101895D01*
X80516413Y-26211873D01*
X80487987Y-26316375D01*
X80463503Y-26407670D01*
X80445093Y-26478025D01*
X80434887Y-26519706D01*
X80433528Y-26527357D01*
X80123168Y-26527357D01*
X80174330Y-26352716D01*
X80203442Y-26254603D01*
G37*
G36*
X86813671Y-26137925D02*
G01*
X86821075Y-25996431D01*
X86832747Y-25878436D01*
X86840361Y-25830740D01*
X86887029Y-25658827D01*
X86954776Y-25515574D01*
X87041137Y-25406123D01*
X87046440Y-25401127D01*
X87144628Y-25329152D01*
X87249394Y-25293931D01*
X87370225Y-25290891D01*
X87500723Y-25321397D01*
X87612087Y-25389477D01*
X87704110Y-25494796D01*
X87776589Y-25637024D01*
X87829318Y-25815829D01*
X87862091Y-26030878D01*
X87867582Y-26096377D01*
X87877539Y-26370005D01*
X87866866Y-26612588D01*
X87835992Y-26823109D01*
X87785346Y-27000547D01*
X87715355Y-27143884D01*
X87626450Y-27252100D01*
X87519057Y-27324177D01*
X87393607Y-27359096D01*
X87335164Y-27362435D01*
X87229980Y-27350678D01*
X87139454Y-27312024D01*
X87138365Y-27311372D01*
X87033282Y-27224505D01*
X86945391Y-27102254D01*
X86877336Y-26949025D01*
X86840576Y-26814893D01*
X86826679Y-26720040D01*
X86817038Y-26593974D01*
X86811655Y-26447638D01*
X86811198Y-26384247D01*
X87102861Y-26384247D01*
X87106237Y-26533812D01*
X87108395Y-26578815D01*
X87125508Y-26757249D01*
X87155013Y-26895809D01*
X87196837Y-26994283D01*
X87250907Y-27052457D01*
X87272926Y-27063337D01*
X87324808Y-27080741D01*
X87358667Y-27083033D01*
X87396072Y-27070178D01*
X87411744Y-27063119D01*
X87463131Y-27025447D01*
X87504168Y-26962159D01*
X87535529Y-26870226D01*
X87557891Y-26746616D01*
X87571930Y-26588299D01*
X87578322Y-26392245D01*
X87578878Y-26314011D01*
X87575606Y-26105557D01*
X87564312Y-25936165D01*
X87543946Y-25803105D01*
X87513456Y-25703649D01*
X87471792Y-25635067D01*
X87417904Y-25594630D01*
X87350740Y-25579608D01*
X87297248Y-25582478D01*
X87242754Y-25609070D01*
X87191849Y-25667309D01*
X87153263Y-25746786D01*
X87149443Y-25758678D01*
X87133218Y-25836451D01*
X87119981Y-25947207D01*
X87110199Y-26081632D01*
X87104336Y-26230416D01*
X87102861Y-26384247D01*
X86811198Y-26384247D01*
X86810532Y-26291974D01*
X86813671Y-26137925D01*
G37*
G36*
X90096132Y-25319249D02*
G01*
X90210459Y-25380979D01*
X90303416Y-25474273D01*
X90372249Y-25592633D01*
X90414201Y-25729561D01*
X90426516Y-25878560D01*
X90406439Y-26033133D01*
X90403661Y-26044338D01*
X90378586Y-26132175D01*
X90349423Y-26208229D01*
X90311111Y-26280798D01*
X90258585Y-26358177D01*
X90186781Y-26448662D01*
X90090635Y-26560550D01*
X90083896Y-26568223D01*
X89985876Y-26681642D01*
X89900676Y-26783987D01*
X89831845Y-26870725D01*
X89782931Y-26937323D01*
X89757481Y-26979248D01*
X89754629Y-26988868D01*
X89774574Y-26993015D01*
X89829459Y-26997365D01*
X89911860Y-27001500D01*
X90014354Y-27005005D01*
X90063722Y-27006235D01*
X90184510Y-27009252D01*
X90270220Y-27012848D01*
X90328137Y-27018208D01*
X90365547Y-27026516D01*
X90389734Y-27038959D01*
X90407986Y-27056722D01*
X90413263Y-27063106D01*
X90447213Y-27132910D01*
X90450868Y-27209954D01*
X90424628Y-27278297D01*
X90407348Y-27298257D01*
X90389251Y-27312880D01*
X90366722Y-27323778D01*
X90333737Y-27331495D01*
X90284272Y-27336575D01*
X90212302Y-27339563D01*
X90111804Y-27341001D01*
X89976753Y-27341435D01*
X89929071Y-27341451D01*
X89497158Y-27341451D01*
X89435234Y-27279527D01*
X89389411Y-27215180D01*
X89373392Y-27140741D01*
X89388039Y-27052796D01*
X89434215Y-26947932D01*
X89512782Y-26822737D01*
X89570674Y-26743234D01*
X89650624Y-26640806D01*
X89742138Y-26528561D01*
X89830841Y-26423954D01*
X89871812Y-26377564D01*
X89940827Y-26297300D01*
X90003372Y-26218002D01*
X90050803Y-26150958D01*
X90069079Y-26120000D01*
X90118607Y-25988922D01*
X90133660Y-25864073D01*
X90114453Y-25751647D01*
X90061202Y-25657836D01*
X90052627Y-25648223D01*
X89999900Y-25602875D01*
X89942783Y-25585003D01*
X89903382Y-25583152D01*
X89821509Y-25598069D01*
X89753935Y-25645089D01*
X89697332Y-25727616D01*
X89650915Y-25841322D01*
X89616857Y-25933307D01*
X89585055Y-25990308D01*
X89549583Y-26018911D01*
X89504514Y-26025705D01*
X89486301Y-26024258D01*
X89425789Y-25998791D01*
X89390457Y-25940188D01*
X89380963Y-25849862D01*
X89384497Y-25805588D01*
X89420950Y-25650195D01*
X89487121Y-25518268D01*
X89578386Y-25412970D01*
X89690117Y-25337461D01*
X89817687Y-25294905D01*
X89956471Y-25288462D01*
X90096132Y-25319249D01*
G37*
%TO.C,taubexyz-xl*%
G36*
X72921766Y-26362002D02*
G01*
X72923263Y-26137724D01*
X72924783Y-25951966D01*
X72926505Y-25800879D01*
X72928613Y-25680615D01*
X72931286Y-25587325D01*
X72934706Y-25517161D01*
X72939055Y-25466273D01*
X72944515Y-25430814D01*
X72951265Y-25406935D01*
X72959489Y-25390786D01*
X72968046Y-25379962D01*
X73026244Y-25341487D01*
X73088652Y-25343206D01*
X73141546Y-25379917D01*
X73156862Y-25401104D01*
X73168085Y-25430283D01*
X73176036Y-25474266D01*
X73181536Y-25539860D01*
X73185405Y-25633878D01*
X73188463Y-25763127D01*
X73188604Y-25770331D01*
X73195306Y-26116216D01*
X73269443Y-26034156D01*
X73358165Y-25958678D01*
X73459917Y-25918406D01*
X73583116Y-25910284D01*
X73606434Y-25911850D01*
X73727442Y-25941807D01*
X73830375Y-26009304D01*
X73914081Y-26113040D01*
X73977406Y-26251710D01*
X74008325Y-26365717D01*
X74034616Y-26550861D01*
X74036930Y-26735437D01*
X74016665Y-26911771D01*
X73975216Y-27072191D01*
X73913981Y-27209023D01*
X73835890Y-27313070D01*
X73730746Y-27392076D01*
X73616734Y-27432319D01*
X73500455Y-27434166D01*
X73388507Y-27397986D01*
X73287492Y-27324146D01*
X73248631Y-27280362D01*
X73198138Y-27215843D01*
X73184309Y-27289554D01*
X73148651Y-27375303D01*
X73078899Y-27435933D01*
X73075980Y-27437518D01*
X73041396Y-27439533D01*
X73006823Y-27430717D01*
X72963575Y-27397927D01*
X72937346Y-27356028D01*
X72931807Y-27319163D01*
X72927348Y-27241614D01*
X72923996Y-27125051D01*
X72921775Y-26971144D01*
X72920714Y-26781566D01*
X72920734Y-26744572D01*
X73214768Y-26744572D01*
X73218477Y-26826668D01*
X73230160Y-26891426D01*
X73244139Y-26934308D01*
X73297541Y-27032790D01*
X73366948Y-27099411D01*
X73446335Y-27131780D01*
X73529677Y-27127505D01*
X73610948Y-27084195D01*
X73614496Y-27081260D01*
X73679008Y-26999848D01*
X73720886Y-26884208D01*
X73739635Y-26736240D01*
X73738337Y-26607239D01*
X73725698Y-26480515D01*
X73703007Y-26385196D01*
X73682466Y-26336406D01*
X73621968Y-26251994D01*
X73548691Y-26203354D01*
X73469089Y-26191846D01*
X73389616Y-26218833D01*
X73335758Y-26263231D01*
X73288235Y-26320594D01*
X73256040Y-26379136D01*
X73235651Y-26449900D01*
X73223550Y-26543931D01*
X73217964Y-26632826D01*
X73214768Y-26744572D01*
X72920734Y-26744572D01*
X72920837Y-26557987D01*
X72921766Y-26362002D01*
G37*
G36*
X71827282Y-25933962D02*
G01*
X71856344Y-25963182D01*
X71871799Y-25985500D01*
X71883143Y-26011727D01*
X71891005Y-26048361D01*
X71896017Y-26101900D01*
X71898808Y-26178841D01*
X71900008Y-26285683D01*
X71900250Y-26415753D01*
X71901901Y-26604042D01*
X71907263Y-26754728D01*
X71916951Y-26872465D01*
X71931580Y-26961905D01*
X71951763Y-27027703D01*
X71978115Y-27074511D01*
X71988927Y-27087288D01*
X72053469Y-27129987D01*
X72125778Y-27134308D01*
X72199908Y-27101963D01*
X72269912Y-27034660D01*
X72294808Y-26999311D01*
X72308247Y-26973742D01*
X72318666Y-26940785D01*
X72326642Y-26894485D01*
X72332751Y-26828884D01*
X72337569Y-26738027D01*
X72341673Y-26615956D01*
X72345121Y-26479281D01*
X72349137Y-26324157D01*
X72353428Y-26205590D01*
X72358537Y-26117772D01*
X72365007Y-26054891D01*
X72373383Y-26011139D01*
X72384207Y-25980705D01*
X72393274Y-25964607D01*
X72445001Y-25918619D01*
X72508471Y-25908036D01*
X72570955Y-25933675D01*
X72590754Y-25951925D01*
X72602158Y-25966947D01*
X72611279Y-25987206D01*
X72618429Y-26017400D01*
X72623921Y-26062226D01*
X72628067Y-26126382D01*
X72631181Y-26214567D01*
X72633575Y-26331478D01*
X72635563Y-26481812D01*
X72637270Y-26650388D01*
X72638767Y-26840033D01*
X72639190Y-26991931D01*
X72638374Y-27110696D01*
X72636154Y-27200939D01*
X72632363Y-27267273D01*
X72626838Y-27314312D01*
X72619413Y-27346666D01*
X72611638Y-27365770D01*
X72565330Y-27423060D01*
X72506864Y-27439861D01*
X72458451Y-27427188D01*
X72408649Y-27384253D01*
X72375478Y-27315124D01*
X72366305Y-27251511D01*
X72364284Y-27224139D01*
X72353726Y-27220291D01*
X72327888Y-27242923D01*
X72288456Y-27285655D01*
X72204568Y-27365735D01*
X72123489Y-27412261D01*
X72033085Y-27431323D01*
X71995580Y-27432635D01*
X71878831Y-27415981D01*
X71782043Y-27363645D01*
X71724527Y-27306828D01*
X71692741Y-27265976D01*
X71667733Y-27223974D01*
X71648696Y-27175282D01*
X71634823Y-27114361D01*
X71625309Y-27035672D01*
X71619345Y-26933675D01*
X71616126Y-26802831D01*
X71614845Y-26637600D01*
X71614687Y-26552640D01*
X71614825Y-26386515D01*
X71615762Y-26257362D01*
X71617841Y-26159789D01*
X71621402Y-26088403D01*
X71626785Y-26037810D01*
X71634331Y-26002617D01*
X71644381Y-25977431D01*
X71651823Y-25964775D01*
X71703518Y-25917409D01*
X71765474Y-25907111D01*
X71827282Y-25933962D01*
G37*
G36*
X70333465Y-26792609D02*
G01*
X70366402Y-26739620D01*
X70406428Y-26695744D01*
X70458315Y-26657182D01*
X70528681Y-26620750D01*
X70624144Y-26583261D01*
X70751322Y-26541532D01*
X70823358Y-26519720D01*
X71049301Y-26452532D01*
X71037889Y-26375903D01*
X71015738Y-26280123D01*
X70980355Y-26218480D01*
X70926829Y-26183570D01*
X70905962Y-26177064D01*
X70803159Y-26167104D01*
X70711852Y-26194564D01*
X70629454Y-26260959D01*
X70553377Y-26367807D01*
X70540143Y-26391474D01*
X70495425Y-26444363D01*
X70442824Y-26455906D01*
X70385486Y-26425638D01*
X70374979Y-26415788D01*
X70337228Y-26350782D01*
X70331999Y-26271177D01*
X70355598Y-26184368D01*
X70404334Y-26097747D01*
X70474514Y-26018708D01*
X70562444Y-25954645D01*
X70618693Y-25927820D01*
X70701562Y-25908572D01*
X70808381Y-25901628D01*
X70922732Y-25906425D01*
X71028198Y-25922400D01*
X71098434Y-25944275D01*
X71168849Y-25982017D01*
X71223744Y-26029088D01*
X71264897Y-26090786D01*
X71294085Y-26172406D01*
X71313085Y-26279245D01*
X71323676Y-26416599D01*
X71327635Y-26589766D01*
X71327785Y-26627631D01*
X71330546Y-26780676D01*
X71337788Y-26927082D01*
X71348712Y-27054187D01*
X71359814Y-27134882D01*
X71375088Y-27243045D01*
X71374890Y-27319578D01*
X71357151Y-27373045D01*
X71319803Y-27412006D01*
X71288169Y-27431424D01*
X71240888Y-27434655D01*
X71186214Y-27405072D01*
X71133087Y-27348958D01*
X71104022Y-27302018D01*
X71071277Y-27238694D01*
X71003820Y-27293425D01*
X70869696Y-27382771D01*
X70738412Y-27431353D01*
X70611479Y-27438686D01*
X70571465Y-27432118D01*
X70464529Y-27389948D01*
X70381451Y-27314123D01*
X70356023Y-27277358D01*
X70306130Y-27162311D01*
X70285896Y-27035023D01*
X70289385Y-26986694D01*
X70581045Y-26986694D01*
X70597903Y-27075568D01*
X70643850Y-27138917D01*
X70711944Y-27173507D01*
X70795245Y-27176106D01*
X70886812Y-27143482D01*
X70900566Y-27135512D01*
X70955667Y-27088240D01*
X70996314Y-27030109D01*
X70998852Y-27024373D01*
X71014906Y-26972432D01*
X71029374Y-26903716D01*
X71040788Y-26829733D01*
X71047678Y-26761990D01*
X71048574Y-26711992D01*
X71042009Y-26691248D01*
X71041395Y-26691184D01*
X71015333Y-26697328D01*
X70959413Y-26713706D01*
X70883998Y-26737237D01*
X70853952Y-26746904D01*
X70737573Y-26789572D01*
X70657721Y-26832292D01*
X70608835Y-26879952D01*
X70585350Y-26937441D01*
X70581045Y-26986694D01*
X70289385Y-26986694D01*
X70295087Y-26907715D01*
X70333465Y-26792609D01*
G37*
G36*
X69799318Y-25386072D02*
G01*
X69852714Y-25425592D01*
X69856926Y-25429754D01*
X69880249Y-25455957D01*
X69895323Y-25484785D01*
X69903934Y-25525694D01*
X69907867Y-25588136D01*
X69908906Y-25681568D01*
X69908924Y-25705150D01*
X69908924Y-25928548D01*
X69990378Y-25928548D01*
X70071033Y-25943950D01*
X70122125Y-25988986D01*
X70141786Y-26061905D01*
X70141952Y-26070617D01*
X70128417Y-26134491D01*
X70084552Y-26176571D01*
X70005465Y-26201337D01*
X69997847Y-26202643D01*
X69919516Y-26215494D01*
X69920416Y-26617518D01*
X69921530Y-26747963D01*
X69924083Y-26867411D01*
X69927786Y-26967971D01*
X69932351Y-27041754D01*
X69937359Y-27080392D01*
X69949742Y-27116555D01*
X69970175Y-27132963D01*
X70011446Y-27135099D01*
X70056219Y-27131363D01*
X70141811Y-27129216D01*
X70195805Y-27145141D01*
X70226403Y-27182677D01*
X70234951Y-27208459D01*
X70235766Y-27285746D01*
X70200878Y-27351103D01*
X70136101Y-27401050D01*
X70047250Y-27432109D01*
X69940140Y-27440800D01*
X69860799Y-27432331D01*
X69765407Y-27395506D01*
X69695031Y-27325184D01*
X69657839Y-27244060D01*
X69649096Y-27191588D01*
X69642129Y-27100714D01*
X69637111Y-26975374D01*
X69634210Y-26819505D01*
X69633528Y-26683430D01*
X69633528Y-26203945D01*
X69583851Y-26203945D01*
X69523948Y-26184942D01*
X69480475Y-26135866D01*
X69464054Y-26069875D01*
X69480571Y-26009343D01*
X69521576Y-25957940D01*
X69574246Y-25930135D01*
X69589285Y-25928548D01*
X69607101Y-25925137D01*
X69619216Y-25910082D01*
X69627099Y-25876150D01*
X69632216Y-25816109D01*
X69636035Y-25722726D01*
X69636950Y-25693608D01*
X69640780Y-25589763D01*
X69645934Y-25519571D01*
X69654220Y-25474321D01*
X69667447Y-25445300D01*
X69687425Y-25423796D01*
X69694132Y-25418212D01*
X69750631Y-25383908D01*
X69799318Y-25386072D01*
G37*
G36*
X74253509Y-26348463D02*
G01*
X74261295Y-26322087D01*
X74326290Y-26175967D01*
X74413740Y-26058398D01*
X74518562Y-25971176D01*
X74635673Y-25916098D01*
X74759992Y-25894961D01*
X74886437Y-25909562D01*
X75009924Y-25961699D01*
X75097451Y-26026434D01*
X75195546Y-26138614D01*
X75260085Y-26270486D01*
X75292911Y-26426545D01*
X75298016Y-26515544D01*
X75296099Y-26596657D01*
X75284360Y-26658970D01*
X75257976Y-26704935D01*
X75212123Y-26737008D01*
X75141979Y-26757640D01*
X75042720Y-26769285D01*
X74909523Y-26774398D01*
X74787144Y-26775416D01*
X74506981Y-26775921D01*
X74518580Y-26844770D01*
X74554512Y-26984807D01*
X74608810Y-27086793D01*
X74681653Y-27150943D01*
X74773217Y-27177473D01*
X74795180Y-27178284D01*
X74876019Y-27165700D01*
X74953087Y-27125043D01*
X75034321Y-27051515D01*
X75068956Y-27012763D01*
X75135879Y-26949629D01*
X75194772Y-26924028D01*
X75242671Y-26936503D01*
X75271673Y-26975551D01*
X75286055Y-27056641D01*
X75262859Y-27148211D01*
X75203748Y-27244758D01*
X75182922Y-27269745D01*
X75073714Y-27363542D01*
X74944714Y-27420344D01*
X74797875Y-27439516D01*
X74687252Y-27430487D01*
X74558187Y-27389094D01*
X74444151Y-27310344D01*
X74348601Y-27197634D01*
X74274991Y-27054363D01*
X74258689Y-27008949D01*
X74233809Y-26897167D01*
X74220908Y-26759996D01*
X74219930Y-26612666D01*
X74225269Y-26542894D01*
X74511392Y-26542894D01*
X75014345Y-26542894D01*
X75014345Y-26478660D01*
X75001685Y-26398455D01*
X74969522Y-26309585D01*
X74926586Y-26234756D01*
X74915300Y-26221022D01*
X74870669Y-26190608D01*
X74811988Y-26170563D01*
X74721438Y-26172576D01*
X74644155Y-26213066D01*
X74582744Y-26289504D01*
X74539813Y-26399363D01*
X74529817Y-26444266D01*
X74511392Y-26542894D01*
X74225269Y-26542894D01*
X74230816Y-26470411D01*
X74253509Y-26348463D01*
G37*
G36*
X77359231Y-25936893D02*
G01*
X77375935Y-25956647D01*
X77390174Y-25990459D01*
X77412879Y-26059042D01*
X77442180Y-26156074D01*
X77476210Y-26275237D01*
X77513100Y-26410211D01*
X77538785Y-26507490D01*
X77575007Y-26645692D01*
X77607769Y-26768884D01*
X77635576Y-26871592D01*
X77656932Y-26948339D01*
X77670343Y-26993649D01*
X77674290Y-27003704D01*
X77680899Y-26982615D01*
X77696785Y-26926296D01*
X77720382Y-26840475D01*
X77750122Y-26730880D01*
X77784438Y-26603238D01*
X77807971Y-26515122D01*
X77853892Y-26343518D01*
X77890925Y-26208445D01*
X77920916Y-26105451D01*
X77945705Y-26030078D01*
X77967137Y-25977873D01*
X77987055Y-25944380D01*
X78007302Y-25925144D01*
X78029720Y-25915710D01*
X78056153Y-25911623D01*
X78057704Y-25911470D01*
X78123239Y-25923224D01*
X78169223Y-25969150D01*
X78190916Y-26043726D01*
X78191993Y-26067921D01*
X78185946Y-26107419D01*
X78168884Y-26181812D01*
X78142427Y-26285558D01*
X78108194Y-26413110D01*
X78067807Y-26558924D01*
X78022883Y-26717456D01*
X77975043Y-26883160D01*
X77925907Y-27050492D01*
X77877095Y-27213907D01*
X77830226Y-27367861D01*
X77786920Y-27506809D01*
X77748797Y-27625205D01*
X77717477Y-27717506D01*
X77694579Y-27778166D01*
X77688395Y-27791822D01*
X77630925Y-27888505D01*
X77567936Y-27950282D01*
X77488773Y-27984301D01*
X77382782Y-27997712D01*
X77381465Y-27997770D01*
X77306453Y-27998846D01*
X77245869Y-27995824D01*
X77217515Y-27990699D01*
X77150068Y-27943619D01*
X77114861Y-27875455D01*
X77115382Y-27796240D01*
X77133523Y-27749007D01*
X77156446Y-27723760D01*
X77197947Y-27711304D01*
X77267938Y-27708031D01*
X77348863Y-27702338D01*
X77398264Y-27683631D01*
X77412196Y-27670959D01*
X77444182Y-27620064D01*
X77476611Y-27548174D01*
X77502277Y-27473712D01*
X77513971Y-27415097D01*
X77514095Y-27410534D01*
X77508086Y-27380037D01*
X77491096Y-27314534D01*
X77464681Y-27219493D01*
X77430398Y-27100379D01*
X77389802Y-26962658D01*
X77344449Y-26811797D01*
X77331779Y-26770137D01*
X77272670Y-26574305D01*
X77226087Y-26414480D01*
X77191263Y-26286436D01*
X77167436Y-26185948D01*
X77153841Y-26108792D01*
X77149712Y-26050742D01*
X77154287Y-26007575D01*
X77166799Y-25975066D01*
X77183725Y-25951966D01*
X77240436Y-25914642D01*
X77303785Y-25909735D01*
X77359231Y-25936893D01*
G37*
G36*
X76221842Y-25914926D02*
G01*
X76259027Y-25940803D01*
X76300836Y-25989782D01*
X76351181Y-26066650D01*
X76413975Y-26176193D01*
X76432074Y-26209241D01*
X76472655Y-26282344D01*
X76505474Y-26338698D01*
X76525544Y-26369862D01*
X76529065Y-26373419D01*
X76541484Y-26355929D01*
X76568914Y-26308730D01*
X76606867Y-26239729D01*
X76637299Y-26182680D01*
X76684131Y-26096994D01*
X76728213Y-26021826D01*
X76763238Y-25967672D01*
X76777265Y-25949653D01*
X76835313Y-25913234D01*
X76900408Y-25909917D01*
X76957761Y-25938914D01*
X76975782Y-25960231D01*
X76995130Y-26001488D01*
X76999414Y-26049055D01*
X76986850Y-26108978D01*
X76955651Y-26187305D01*
X76904032Y-26290080D01*
X76848684Y-26390684D01*
X76713786Y-26630384D01*
X76870321Y-26933128D01*
X76929704Y-27052025D01*
X76977284Y-27155442D01*
X77010291Y-27236900D01*
X77025953Y-27289919D01*
X77026856Y-27299194D01*
X77008329Y-27369206D01*
X76958892Y-27416727D01*
X76893864Y-27432635D01*
X76854986Y-27423978D01*
X76815456Y-27395035D01*
X76771846Y-27341352D01*
X76720725Y-27258475D01*
X76658664Y-27141949D01*
X76637010Y-27098982D01*
X76595723Y-27017821D01*
X76561305Y-26953054D01*
X76538065Y-26912619D01*
X76530640Y-26903027D01*
X76517832Y-26920508D01*
X76489636Y-26967913D01*
X76450416Y-27037684D01*
X76411327Y-27109574D01*
X76340003Y-27239559D01*
X76282914Y-27334583D01*
X76236327Y-27398056D01*
X76196505Y-27433384D01*
X76159714Y-27443976D01*
X76122217Y-27433240D01*
X76084405Y-27407864D01*
X76050331Y-27372920D01*
X76032965Y-27330752D01*
X76033396Y-27276089D01*
X76052713Y-27203660D01*
X76092004Y-27108194D01*
X76152356Y-26984419D01*
X76184779Y-26921706D01*
X76338365Y-26628028D01*
X76298703Y-26558981D01*
X76213345Y-26406287D01*
X76144239Y-26274123D01*
X76093187Y-26166277D01*
X76061991Y-26086536D01*
X76052377Y-26041287D01*
X76070824Y-25971023D01*
X76120122Y-25923376D01*
X76185369Y-25907364D01*
X76221842Y-25914926D01*
G37*
G36*
X78934915Y-25928833D02*
G01*
X79036531Y-25930146D01*
X79109120Y-25933178D01*
X79159353Y-25938619D01*
X79193902Y-25947158D01*
X79219435Y-25959486D01*
X79240132Y-25974320D01*
X79277188Y-26009708D01*
X79291004Y-26048375D01*
X79288276Y-26109208D01*
X79288197Y-26109912D01*
X79280323Y-26146218D01*
X79262429Y-26191472D01*
X79231820Y-26250315D01*
X79185800Y-26327389D01*
X79121675Y-26427336D01*
X79036749Y-26554796D01*
X78988188Y-26626547D01*
X78906953Y-26746685D01*
X78833531Y-26856282D01*
X78771352Y-26950135D01*
X78723848Y-27023038D01*
X78694451Y-27069788D01*
X78686502Y-27084115D01*
X78687506Y-27096259D01*
X78705162Y-27104802D01*
X78745158Y-27110335D01*
X78813184Y-27113448D01*
X78914926Y-27114731D01*
X78982938Y-27114870D01*
X79103423Y-27115193D01*
X79188670Y-27116818D01*
X79245810Y-27120729D01*
X79281971Y-27127909D01*
X79304285Y-27139342D01*
X79319880Y-27156013D01*
X79324153Y-27161953D01*
X79353341Y-27234198D01*
X79349311Y-27309092D01*
X79314762Y-27369082D01*
X79298178Y-27383228D01*
X79276697Y-27393829D01*
X79244465Y-27401391D01*
X79195627Y-27406423D01*
X79124328Y-27409433D01*
X79024713Y-27410930D01*
X78890926Y-27411422D01*
X78826560Y-27411451D01*
X78380726Y-27411451D01*
X78326155Y-27356880D01*
X78298655Y-27324966D01*
X78282186Y-27291336D01*
X78278467Y-27251835D01*
X78289218Y-27202305D01*
X78316157Y-27138588D01*
X78361006Y-27056529D01*
X78425483Y-26951971D01*
X78511307Y-26820755D01*
X78606690Y-26678702D01*
X78920411Y-26214537D01*
X78646236Y-26203945D01*
X78541052Y-26198689D01*
X78450233Y-26191922D01*
X78382706Y-26184468D01*
X78347397Y-26177150D01*
X78345580Y-26176214D01*
X78328479Y-26145560D01*
X78319497Y-26091246D01*
X78319099Y-26076790D01*
X78321608Y-26028927D01*
X78332534Y-25992607D01*
X78356977Y-25966249D01*
X78400037Y-25948274D01*
X78466813Y-25937101D01*
X78562404Y-25931151D01*
X78691911Y-25928843D01*
X78797603Y-25928548D01*
X78934915Y-25928833D01*
G37*
G36*
X75682605Y-27043773D02*
G01*
X75734184Y-27084438D01*
X75769040Y-27146348D01*
X75785294Y-27219959D01*
X75781067Y-27295726D01*
X75754483Y-27364103D01*
X75703663Y-27415547D01*
X75692517Y-27421902D01*
X75648167Y-27444451D01*
X75621481Y-27449763D01*
X75591377Y-27437735D01*
X75561296Y-27421281D01*
X75508516Y-27372074D01*
X75480382Y-27302899D01*
X75475364Y-27224541D01*
X75491935Y-27147789D01*
X75528567Y-27083428D01*
X75583732Y-27042246D01*
X75616179Y-27033898D01*
X75682605Y-27043773D01*
G37*
%TD*%
D10*
%TO.C,R6*%
X80600000Y-39925000D03*
X80600000Y-37925000D03*
%TD*%
D11*
%TO.C,R32*%
X81350000Y-56250000D03*
X83350000Y-56250000D03*
%TD*%
D12*
%TO.C,RV1*%
X55950000Y-33472500D03*
D13*
X58490000Y-41132500D03*
X55950000Y-41132500D03*
X53410000Y-41132500D03*
X58490000Y-46172500D03*
X55950000Y-46172500D03*
X53410000Y-46172500D03*
%TD*%
D14*
%TO.C,C34*%
X53924200Y-54246600D03*
X53924200Y-52171600D03*
%TD*%
D15*
%TO.C,C29*%
X66573400Y-52941400D03*
X66573400Y-55016400D03*
%TD*%
D16*
%TO.C,C22*%
X52896888Y-136753600D03*
D17*
X55396888Y-136753600D03*
%TD*%
D18*
%TO.C,R88*%
X82700000Y-126300000D03*
X80700000Y-126300000D03*
%TD*%
D19*
%TO.C,fid6*%
X58900000Y-24700000D03*
%TD*%
D10*
%TO.C,R50*%
X79222600Y-66414400D03*
X79222600Y-64414400D03*
%TD*%
D20*
%TO.C,R89*%
X65250000Y-113450000D03*
X65250000Y-115450000D03*
%TD*%
D21*
%TO.C,J4*%
X85952501Y-88628000D03*
D22*
X88492501Y-94348000D03*
D23*
X85952501Y-82918000D03*
X83412501Y-94348000D03*
%TD*%
D20*
%TO.C,TH1*%
X60756800Y-136363200D03*
X60756800Y-138363200D03*
%TD*%
D10*
%TO.C,R75*%
X79750000Y-93400000D03*
X79750000Y-91400000D03*
%TD*%
D20*
%TO.C,R38*%
X64236600Y-57099200D03*
X64236600Y-59099200D03*
%TD*%
D21*
%TO.C,J12*%
X73233200Y-131038600D03*
D24*
X67513200Y-133578600D03*
D25*
X78943200Y-131038600D03*
X67513200Y-128498600D03*
%TD*%
D11*
%TO.C,R2*%
X63450000Y-39300000D03*
X65450000Y-39300000D03*
%TD*%
D21*
%TO.C,J10*%
X73233200Y-117373400D03*
D24*
X67513200Y-119913400D03*
D25*
X78943200Y-117373400D03*
X67513200Y-114833400D03*
%TD*%
D12*
%TO.C,RV4*%
X56336800Y-119285700D03*
D13*
X58876800Y-126945700D03*
X56336800Y-126945700D03*
X53796800Y-126945700D03*
X58876800Y-131985700D03*
X56336800Y-131985700D03*
X53796800Y-131985700D03*
%TD*%
D12*
%TO.C,RV3*%
X56565800Y-85979000D03*
D13*
X59105800Y-93639000D03*
X56565800Y-93639000D03*
X54025800Y-93639000D03*
X59105800Y-98679000D03*
X56565800Y-98679000D03*
X54025800Y-98679000D03*
%TD*%
D21*
%TO.C,J5*%
X73182400Y-61620400D03*
D24*
X67462400Y-64160400D03*
D25*
X78892400Y-61620400D03*
X67462400Y-59080400D03*
%TD*%
D21*
%TO.C,J11*%
X73326900Y-101701600D03*
D24*
X67606900Y-104241600D03*
D25*
X79036900Y-101701600D03*
X67606900Y-99161600D03*
%TD*%
D11*
%TO.C,R66*%
X75012800Y-95351600D03*
X77012800Y-95351600D03*
%TD*%
D26*
%TO.C,U8*%
X62966600Y-106091900D03*
X61696600Y-106091900D03*
X60426600Y-106091900D03*
X59156600Y-106091900D03*
X57886600Y-106091900D03*
X56616600Y-106091900D03*
X55346600Y-106091900D03*
X54076600Y-106091900D03*
X54076600Y-111041900D03*
X55346600Y-111041900D03*
X56616600Y-111041900D03*
X57886600Y-111041900D03*
X59156600Y-111041900D03*
X60426600Y-111041900D03*
X61696600Y-111041900D03*
X62966600Y-111041900D03*
%TD*%
D11*
%TO.C,R85*%
X80850000Y-111400000D03*
X82850000Y-111400000D03*
%TD*%
D18*
%TO.C,R61*%
X81200000Y-98500000D03*
X79200000Y-98500000D03*
%TD*%
D16*
%TO.C,C21*%
X82027913Y-136601200D03*
D17*
X79527913Y-136601200D03*
%TD*%
D20*
%TO.C,R40*%
X64820800Y-60858400D03*
X64820800Y-62858400D03*
%TD*%
D11*
%TO.C,R12*%
X81203800Y-44958000D03*
X83203800Y-44958000D03*
%TD*%
D26*
%TO.C,U3*%
X64632852Y-50001400D03*
X63362852Y-50001400D03*
X62092852Y-50001400D03*
X60822852Y-50001400D03*
X59552852Y-50001400D03*
X58282852Y-50001400D03*
X57012852Y-50001400D03*
X55742852Y-50001400D03*
X55742852Y-54951400D03*
X57012852Y-54951400D03*
X58282852Y-54951400D03*
X59552852Y-54951400D03*
X60822852Y-54951400D03*
X62092852Y-54951400D03*
X63362852Y-54951400D03*
X64632852Y-54951400D03*
%TD*%
D14*
%TO.C,C39*%
X64770000Y-111523600D03*
X64770000Y-109448600D03*
%TD*%
D18*
%TO.C,R57*%
X81200000Y-96550000D03*
X79200000Y-96550000D03*
%TD*%
D21*
%TO.C,J6*%
X73072900Y-45364400D03*
D24*
X67352900Y-47904400D03*
D25*
X78782900Y-45364400D03*
X67352900Y-42824400D03*
%TD*%
D20*
%TO.C,R41*%
X68605400Y-53009800D03*
X68605400Y-55009800D03*
%TD*%
D11*
%TO.C,R36*%
X73660000Y-68351400D03*
X75660000Y-68351400D03*
%TD*%
D27*
%TO.C,L2*%
X58420000Y-138005000D03*
X58420000Y-136255000D03*
%TD*%
D10*
%TO.C,R35*%
X64770000Y-66600000D03*
X64770000Y-64600000D03*
%TD*%
D21*
%TO.C,J8*%
X73250700Y-88696800D03*
D24*
X67530700Y-91236800D03*
D25*
X78960700Y-88696800D03*
X67530700Y-86156800D03*
%TD*%
D19*
%TO.C,fid5*%
X53800000Y-147100000D03*
%TD*%
D28*
%TO.C,Mount2*%
X83616800Y-147116800D03*
%TD*%
D21*
%TO.C,J7*%
X73131600Y-74726800D03*
D24*
X67411600Y-77266800D03*
D25*
X78841600Y-74726800D03*
X67411600Y-72186800D03*
%TD*%
D29*
%TO.C,D10*%
X53800000Y-141300000D03*
X58800000Y-141300000D03*
%TD*%
D11*
%TO.C,R62*%
X67850000Y-95600000D03*
X69850000Y-95600000D03*
%TD*%
%TO.C,R20*%
X70075000Y-39350000D03*
X72075000Y-39350000D03*
%TD*%
D20*
%TO.C,R67*%
X79550000Y-104400000D03*
X79550000Y-106400000D03*
%TD*%
D21*
%TO.C,J3*%
X86075000Y-62005000D03*
D22*
X88615000Y-67725000D03*
D23*
X86075000Y-56295000D03*
X83535000Y-67725000D03*
%TD*%
D30*
%TO.C,J13*%
X73705800Y-138425000D03*
D31*
X73705800Y-140965000D03*
X71165800Y-138425000D03*
X71165800Y-140965000D03*
X68625800Y-138425000D03*
X68625800Y-140965000D03*
X66085800Y-138425000D03*
X66085800Y-140965000D03*
X63545800Y-138425000D03*
X63545800Y-140965000D03*
%TD*%
D29*
%TO.C,D9*%
X84850000Y-141200000D03*
X79850000Y-141200000D03*
%TD*%
D21*
%TO.C,J9*%
X85652501Y-117253000D03*
D22*
X88192501Y-122973000D03*
D23*
X85652501Y-111543000D03*
X83112501Y-122973000D03*
%TD*%
D11*
%TO.C,R91*%
X72650000Y-125000000D03*
X74650000Y-125000000D03*
%TD*%
%TO.C,R42*%
X80800000Y-74750000D03*
X82800000Y-74750000D03*
%TD*%
D18*
%TO.C,R31*%
X69030600Y-67600000D03*
X67030600Y-67600000D03*
%TD*%
D12*
%TO.C,RV2*%
X56295800Y-62113800D03*
D13*
X58835800Y-69773800D03*
X56295800Y-69773800D03*
X53755800Y-69773800D03*
X58835800Y-74813800D03*
X56295800Y-74813800D03*
X53755800Y-74813800D03*
%TD*%
D21*
%TO.C,J1*%
X86614000Y-34666000D03*
D22*
X89154000Y-40386000D03*
D23*
X86614000Y-28956000D03*
X84074000Y-40386000D03*
%TD*%
D11*
%TO.C,R7*%
X71958200Y-52628800D03*
X73958200Y-52628800D03*
%TD*%
D19*
%TO.C,fid4*%
X88600000Y-147100000D03*
%TD*%
D10*
%TO.C,R101*%
X79250000Y-122100000D03*
X79250000Y-120100000D03*
%TD*%
D27*
%TO.C,L1*%
X89300000Y-141515000D03*
X89300000Y-139765000D03*
%TD*%
D11*
%TO.C,R93*%
X81042000Y-132334000D03*
X83042000Y-132334000D03*
%TD*%
D20*
%TO.C,R92*%
X64795400Y-105565100D03*
X64795400Y-107565100D03*
%TD*%
D11*
%TO.C,R3*%
X78700000Y-30400000D03*
X80700000Y-30400000D03*
%TD*%
D28*
%TO.C,Mount1*%
X63652400Y-24688800D03*
%TD*%
D18*
%TO.C,R84*%
X79700000Y-124200000D03*
X77700000Y-124200000D03*
%TD*%
D11*
%TO.C,R58*%
X81102200Y-82804000D03*
X83102200Y-82804000D03*
%TD*%
D21*
%TO.C,J2*%
X73070000Y-33325000D03*
D24*
X67350000Y-35865000D03*
D25*
X78780000Y-33325000D03*
X67350000Y-30785000D03*
%TD*%
M02*
