%TF.GenerationSoftware,KiCad,Pcbnew,(6.0.2-0)*%
%TF.CreationDate,2022-07-30T10:58:11+02:00*%
%TF.ProjectId,blindeTaubeFront,626c696e-6465-4546-9175-626546726f6e,rev?*%
%TF.SameCoordinates,Original*%
%TF.FileFunction,Legend,Top*%
%TF.FilePolarity,Positive*%
%FSLAX46Y46*%
G04 Gerber Fmt 4.6, Leading zero omitted, Abs format (unit mm)*
G04 Created by KiCad (PCBNEW (6.0.2-0)) date 2022-07-30 10:58:11*
%MOMM*%
%LPD*%
G01*
G04 APERTURE LIST*
%ADD10C,0.150000*%
G04 APERTURE END LIST*
D10*
%TO.C,*%
%TO.C,G\u002A\u002A\u002A*%
G36*
X116299915Y-145365891D02*
G01*
X116572481Y-145191683D01*
X116968918Y-145129028D01*
X117013915Y-145128555D01*
X117287203Y-145148980D01*
X117476098Y-145233400D01*
X117640856Y-145390946D01*
X117838011Y-145722702D01*
X117890032Y-146086515D01*
X117797368Y-146438302D01*
X117627772Y-146673179D01*
X117425187Y-146837672D01*
X117205991Y-146908747D01*
X116984114Y-146920666D01*
X116697768Y-146897164D01*
X116491345Y-146804589D01*
X116340455Y-146673179D01*
X116159825Y-146439942D01*
X116095002Y-146178986D01*
X116092141Y-146084496D01*
X116096191Y-146050505D01*
X116431940Y-146050505D01*
X116503827Y-146220896D01*
X116677746Y-146382408D01*
X116891086Y-146484374D01*
X116984114Y-146497333D01*
X117203851Y-146438446D01*
X117366388Y-146328000D01*
X117510740Y-146132047D01*
X117509101Y-145941946D01*
X117404046Y-145754172D01*
X117209460Y-145601948D01*
X116963852Y-145567392D01*
X116718489Y-145634875D01*
X116524640Y-145788768D01*
X116433570Y-146013444D01*
X116431940Y-146050505D01*
X116096191Y-146050505D01*
X116142657Y-145660535D01*
X116299915Y-145365891D01*
G37*
G36*
X118513211Y-116391303D02*
G01*
X117791137Y-116532628D01*
X117413176Y-116605906D01*
X117056987Y-116673772D01*
X116787148Y-116723951D01*
X116741821Y-116732102D01*
X116544521Y-116776509D01*
X116450555Y-116816546D01*
X116450331Y-116825885D01*
X116543571Y-116856585D01*
X116766478Y-116910936D01*
X117081944Y-116980265D01*
X117329747Y-117031408D01*
X117708690Y-117108310D01*
X118041952Y-117177013D01*
X118283093Y-117227891D01*
X118364549Y-117245929D01*
X118479950Y-117294860D01*
X118536919Y-117402796D01*
X118554953Y-117617305D01*
X118555686Y-117712279D01*
X118555686Y-118134000D01*
X116092141Y-118134000D01*
X116092141Y-117710666D01*
X117168172Y-117710666D01*
X117568695Y-117707650D01*
X117894987Y-117699406D01*
X118116706Y-117687139D01*
X118203511Y-117672052D01*
X118202973Y-117669574D01*
X118107296Y-117636546D01*
X117882240Y-117580308D01*
X117565240Y-117509785D01*
X117318079Y-117458591D01*
X116939136Y-117381689D01*
X116605874Y-117312986D01*
X116364733Y-117262108D01*
X116283278Y-117244070D01*
X116161913Y-117189800D01*
X116105889Y-117068891D01*
X116092143Y-116830908D01*
X116092141Y-116826056D01*
X116092141Y-116452672D01*
X116580602Y-116353933D01*
X117134030Y-116241543D01*
X117543067Y-116156896D01*
X117829993Y-116094884D01*
X118017089Y-116050397D01*
X118126634Y-116018326D01*
X118180910Y-115993563D01*
X118192359Y-115984337D01*
X118132978Y-115964979D01*
X117933639Y-115948924D01*
X117624273Y-115937682D01*
X117234812Y-115932765D01*
X117168172Y-115932666D01*
X116092141Y-115932666D01*
X116092141Y-115509333D01*
X118564565Y-115509333D01*
X118513211Y-116391303D01*
G37*
G36*
X117682245Y-51423813D02*
G01*
X117936404Y-51450857D01*
X118112027Y-51506206D01*
X118244860Y-51590542D01*
X118476784Y-51871958D01*
X118596754Y-52233455D01*
X118587713Y-52614657D01*
X118561523Y-52711370D01*
X118432497Y-52996766D01*
X118245359Y-53169394D01*
X117969270Y-53276979D01*
X117788838Y-53316711D01*
X117718199Y-53270396D01*
X117706187Y-53113268D01*
X117745692Y-52921205D01*
X117891721Y-52828448D01*
X117917268Y-52821555D01*
X118107111Y-52701844D01*
X118198329Y-52497943D01*
X118191603Y-52263061D01*
X118087611Y-52050408D01*
X117905763Y-51919816D01*
X117615457Y-51855686D01*
X117273408Y-51843852D01*
X116950123Y-51881261D01*
X116716107Y-51964859D01*
X116705691Y-51971800D01*
X116555279Y-52156004D01*
X116507325Y-52388121D01*
X116552025Y-52616551D01*
X116679576Y-52789690D01*
X116873679Y-52856000D01*
X116987907Y-52905190D01*
X117026111Y-53075993D01*
X117026589Y-53110000D01*
X117008284Y-53284422D01*
X116964126Y-53352647D01*
X116962876Y-53352469D01*
X116835187Y-53328358D01*
X116714558Y-53305101D01*
X116529708Y-53221822D01*
X116327613Y-53067198D01*
X116311047Y-53051085D01*
X116173612Y-52879285D01*
X116108343Y-52678457D01*
X116092141Y-52387741D01*
X116109160Y-52091847D01*
X116178171Y-51886070D01*
X116326097Y-51693048D01*
X116338598Y-51679620D01*
X116467622Y-51551368D01*
X116589927Y-51473486D01*
X116751546Y-51433437D01*
X116998512Y-51418683D01*
X117304065Y-51416666D01*
X117682245Y-51423813D01*
G37*
G36*
X112840368Y-147383967D02*
G01*
X113048616Y-147490684D01*
X113332886Y-147644371D01*
X113658165Y-147825249D01*
X113989443Y-148013538D01*
X114291709Y-148189458D01*
X114529952Y-148333230D01*
X114669161Y-148425076D01*
X114689960Y-148443847D01*
X114643011Y-148515261D01*
X114478971Y-148638521D01*
X114232003Y-148788345D01*
X114202153Y-148804862D01*
X113836871Y-149006318D01*
X113442029Y-149225806D01*
X113182609Y-149371127D01*
X112694147Y-149646164D01*
X112694147Y-148495082D01*
X112697533Y-148075700D01*
X112706819Y-147724685D01*
X112720697Y-147472780D01*
X112737856Y-147350722D01*
X112743151Y-147344000D01*
X112840368Y-147383967D01*
G37*
G36*
X117876087Y-134305333D02*
G01*
X116092141Y-134305333D01*
X116092141Y-133882000D01*
X117876087Y-133882000D01*
X117876087Y-134305333D01*
G37*
G36*
X117522500Y-86555465D02*
G01*
X117728650Y-86568818D01*
X117833447Y-86603824D01*
X117871166Y-86670914D01*
X117876087Y-86765000D01*
X117868094Y-86872859D01*
X117820201Y-86935984D01*
X117696538Y-86966346D01*
X117461233Y-86975920D01*
X117241952Y-86976666D01*
X116906043Y-86982946D01*
X116699646Y-87007852D01*
X116582642Y-87060482D01*
X116519879Y-87140433D01*
X116439627Y-87386888D01*
X116504240Y-87565537D01*
X116718251Y-87679888D01*
X117086196Y-87733450D01*
X117293149Y-87738666D01*
X117887372Y-87738666D01*
X117860492Y-87971500D01*
X117833612Y-88204333D01*
X116962876Y-88228461D01*
X116092141Y-88252590D01*
X116092141Y-88042168D01*
X116141050Y-87852074D01*
X116224933Y-87757680D01*
X116313960Y-87686760D01*
X116262962Y-87606190D01*
X116224933Y-87573773D01*
X116111308Y-87381461D01*
X116100323Y-87124193D01*
X116186941Y-86867995D01*
X116288753Y-86737425D01*
X116412714Y-86643457D01*
X116566638Y-86587695D01*
X116795858Y-86560783D01*
X117145708Y-86553364D01*
X117180726Y-86553333D01*
X117522500Y-86555465D01*
G37*
G36*
X117876087Y-147555666D02*
G01*
X117830491Y-147727596D01*
X117743845Y-147767333D01*
X117659092Y-147782638D01*
X117679040Y-147858522D01*
X117743845Y-147955505D01*
X117865686Y-148261842D01*
X117831302Y-148576243D01*
X117667574Y-148829515D01*
X117544358Y-148934794D01*
X117405093Y-148997202D01*
X117202996Y-149027638D01*
X116891289Y-149037003D01*
X116775601Y-149037333D01*
X116437386Y-149035108D01*
X116234502Y-149021297D01*
X116132380Y-148985195D01*
X116096453Y-148916095D01*
X116092141Y-148825666D01*
X116101010Y-148714643D01*
X116152424Y-148651335D01*
X116283590Y-148622360D01*
X116531717Y-148614339D01*
X116680721Y-148614000D01*
X117102113Y-148581025D01*
X117388124Y-148487447D01*
X117530640Y-148341281D01*
X117521544Y-148150546D01*
X117366388Y-147936666D01*
X117228270Y-147838117D01*
X117032474Y-147785752D01*
X116728903Y-147767823D01*
X116644314Y-147767333D01*
X116347490Y-147763621D01*
X116182162Y-147742677D01*
X116109946Y-147689787D01*
X116092459Y-147590236D01*
X116092141Y-147555666D01*
X116092141Y-147344000D01*
X117876087Y-147344000D01*
X117876087Y-147555666D01*
G37*
G36*
X114800377Y-78266581D02*
G01*
X114809967Y-78684944D01*
X114808337Y-79148650D01*
X114800377Y-79437401D01*
X114775418Y-80026137D01*
X113798744Y-79480480D01*
X113434533Y-79273233D01*
X113128671Y-79092044D01*
X112909499Y-78954234D01*
X112805357Y-78877124D01*
X112800848Y-78870579D01*
X112862742Y-78807898D01*
X113047190Y-78680912D01*
X113327694Y-78506584D01*
X113677753Y-78301876D01*
X113777522Y-78245415D01*
X114775418Y-77684497D01*
X114800377Y-78266581D01*
G37*
G36*
X116546211Y-65067239D02*
G01*
X116694795Y-65144756D01*
X116864296Y-65310246D01*
X117035132Y-65516037D01*
X117408863Y-65984074D01*
X117451338Y-65537204D01*
X117486679Y-65270964D01*
X117541689Y-65130500D01*
X117637832Y-65072262D01*
X117684950Y-65063278D01*
X117777209Y-65058437D01*
X117833683Y-65097291D01*
X117863141Y-65211886D01*
X117874351Y-65434267D01*
X117876087Y-65761778D01*
X117876087Y-66487333D01*
X117599094Y-66487333D01*
X117431468Y-66466490D01*
X117281006Y-66384252D01*
X117106449Y-66211053D01*
X116949276Y-66021666D01*
X116754999Y-65790945D01*
X116596516Y-65624378D01*
X116506563Y-65556213D01*
X116504195Y-65556000D01*
X116464622Y-65632568D01*
X116438377Y-65830078D01*
X116431940Y-66021666D01*
X116424565Y-66290774D01*
X116392681Y-66430964D01*
X116321646Y-66482366D01*
X116262040Y-66487333D01*
X116179430Y-66473940D01*
X116128970Y-66411689D01*
X116102843Y-66267470D01*
X116093233Y-66008171D01*
X116092141Y-65767666D01*
X116092141Y-65048000D01*
X116376771Y-65048000D01*
X116546211Y-65067239D01*
G37*
G36*
X116350918Y-57766392D02*
G01*
X116674008Y-57591209D01*
X116685273Y-57587783D01*
X117090408Y-57539547D01*
X117434265Y-57638865D01*
X117693760Y-57868291D01*
X117845807Y-58210380D01*
X117876087Y-58487694D01*
X117828332Y-58845491D01*
X117670707Y-59097323D01*
X117453038Y-59247456D01*
X117058469Y-59362796D01*
X116661690Y-59314706D01*
X116497788Y-59243354D01*
X116255686Y-59055569D01*
X116127567Y-58795660D01*
X116092141Y-58446587D01*
X116093320Y-58439397D01*
X116461643Y-58439397D01*
X116496641Y-58652933D01*
X116640960Y-58833358D01*
X116896324Y-58938619D01*
X116957346Y-58946633D01*
X117073278Y-58923457D01*
X117221821Y-58873829D01*
X117419775Y-58730150D01*
X117494599Y-58528872D01*
X117458262Y-58315080D01*
X117322733Y-58133857D01*
X117099981Y-58030285D01*
X116995322Y-58020666D01*
X116712708Y-58081210D01*
X116534240Y-58234805D01*
X116461643Y-58439397D01*
X116093320Y-58439397D01*
X116156878Y-58051641D01*
X116350918Y-57766392D01*
G37*
G36*
X117380997Y-62763276D02*
G01*
X117638251Y-62771733D01*
X117786146Y-62794315D01*
X117854951Y-62837966D01*
X117874936Y-62909628D01*
X117876087Y-62966611D01*
X117837197Y-63138794D01*
X117769900Y-63210027D01*
X117706312Y-63266563D01*
X117769900Y-63361016D01*
X117875161Y-63546047D01*
X117848118Y-63699818D01*
X117700554Y-63776073D01*
X117663712Y-63778000D01*
X117500646Y-63741653D01*
X117451696Y-63604995D01*
X117451338Y-63583266D01*
X117417425Y-63390072D01*
X117297888Y-63268422D01*
X117066027Y-63204723D01*
X116695145Y-63185380D01*
X116669799Y-63185333D01*
X116364610Y-63181998D01*
X116191757Y-63162820D01*
X116113691Y-63114040D01*
X116092860Y-63021898D01*
X116092141Y-62973666D01*
X116092141Y-62762000D01*
X116984114Y-62762000D01*
X117380997Y-62763276D01*
G37*
G36*
X118555686Y-133374000D02*
G01*
X116092141Y-133374000D01*
X116092141Y-132950666D01*
X118555686Y-132950666D01*
X118555686Y-133374000D01*
G37*
G36*
X118555686Y-127193333D02*
G01*
X117380546Y-127193333D01*
X116949822Y-127189457D01*
X116581556Y-127178826D01*
X116308317Y-127162931D01*
X116162679Y-127143265D01*
X116148774Y-127136888D01*
X116104075Y-127015739D01*
X116092141Y-126882888D01*
X116092141Y-126685333D01*
X118555686Y-126685333D01*
X118555686Y-127193333D01*
G37*
G36*
X117682245Y-141932479D02*
G01*
X117936404Y-141959524D01*
X118112027Y-142014872D01*
X118244860Y-142099208D01*
X118476784Y-142380624D01*
X118596754Y-142742122D01*
X118587713Y-143123324D01*
X118561523Y-143220037D01*
X118432497Y-143505433D01*
X118245359Y-143678061D01*
X117969270Y-143785646D01*
X117788838Y-143825378D01*
X117718199Y-143779063D01*
X117706187Y-143621935D01*
X117745692Y-143429871D01*
X117891721Y-143337115D01*
X117917268Y-143330222D01*
X118107111Y-143210510D01*
X118198329Y-143006609D01*
X118191603Y-142771728D01*
X118087611Y-142559075D01*
X117905763Y-142428483D01*
X117615457Y-142364352D01*
X117273408Y-142352519D01*
X116950123Y-142389928D01*
X116716107Y-142473525D01*
X116705691Y-142480467D01*
X116555279Y-142664671D01*
X116507325Y-142896788D01*
X116552025Y-143125217D01*
X116679576Y-143298357D01*
X116873679Y-143364666D01*
X116987907Y-143413856D01*
X117026111Y-143584660D01*
X117026589Y-143618666D01*
X117008284Y-143793088D01*
X116964126Y-143861314D01*
X116962876Y-143861136D01*
X116835187Y-143837025D01*
X116714558Y-143813767D01*
X116529708Y-143730489D01*
X116327613Y-143575865D01*
X116311047Y-143559752D01*
X116173612Y-143387951D01*
X116108343Y-143187124D01*
X116092141Y-142896408D01*
X116109160Y-142600514D01*
X116178171Y-142394737D01*
X116326097Y-142201715D01*
X116338598Y-142188287D01*
X116467622Y-142060035D01*
X116589927Y-141982153D01*
X116751546Y-141942104D01*
X116998512Y-141927350D01*
X117304065Y-141925333D01*
X117682245Y-141932479D01*
G37*
G36*
X116150400Y-84741160D02*
G01*
X116280942Y-84568467D01*
X116564843Y-84441775D01*
X116809742Y-84473626D01*
X117003054Y-84655288D01*
X117132191Y-84978028D01*
X117168096Y-85183920D01*
X117204439Y-85433748D01*
X117248496Y-85547403D01*
X117320036Y-85557615D01*
X117377848Y-85531220D01*
X117499620Y-85388919D01*
X117531361Y-85190902D01*
X117468321Y-85016139D01*
X117411726Y-84968271D01*
X117342338Y-84857011D01*
X117338182Y-84693387D01*
X117390992Y-84557344D01*
X117457936Y-84521333D01*
X117616125Y-84597177D01*
X117757636Y-84790402D01*
X117852843Y-85049551D01*
X117876087Y-85247585D01*
X117837962Y-85582359D01*
X117707889Y-85807836D01*
X117462322Y-85945783D01*
X117077715Y-86017968D01*
X117038756Y-86021688D01*
X116707156Y-86069360D01*
X116505717Y-86137531D01*
X116457873Y-86184766D01*
X116344808Y-86288877D01*
X116190042Y-86274029D01*
X116148774Y-86242888D01*
X116092901Y-86083192D01*
X116139269Y-85879865D01*
X116225633Y-85755047D01*
X116314703Y-85638001D01*
X116271103Y-85536429D01*
X116225633Y-85488952D01*
X116113558Y-85276945D01*
X116108146Y-85214332D01*
X116430255Y-85214332D01*
X116493437Y-85398239D01*
X116617926Y-85519948D01*
X116695878Y-85537333D01*
X116818024Y-85489176D01*
X116856493Y-85320638D01*
X116856689Y-85300266D01*
X116811900Y-85059088D01*
X116695244Y-84922890D01*
X116549013Y-84918007D01*
X116443680Y-85032748D01*
X116430255Y-85214332D01*
X116108146Y-85214332D01*
X116089929Y-85003575D01*
X116150400Y-84741160D01*
G37*
G36*
X117825373Y-120708969D02*
G01*
X117875190Y-120846659D01*
X117876087Y-120885666D01*
X117903516Y-121036938D01*
X118020113Y-121092278D01*
X118130936Y-121097333D01*
X118313070Y-121120114D01*
X118379700Y-121216954D01*
X118385786Y-121309000D01*
X118358357Y-121460272D01*
X118241760Y-121515611D01*
X118130936Y-121520666D01*
X117950427Y-121541645D01*
X117883894Y-121640606D01*
X117876087Y-121774666D01*
X117847055Y-121963626D01*
X117744976Y-122027584D01*
X117720346Y-122028666D01*
X117558820Y-122001024D01*
X117507971Y-121972222D01*
X117463623Y-121851370D01*
X117451338Y-121713997D01*
X117440103Y-121601050D01*
X117379348Y-121543909D01*
X117228499Y-121527923D01*
X116962876Y-121537608D01*
X116683500Y-121559626D01*
X116531616Y-121600377D01*
X116464821Y-121677614D01*
X116447269Y-121753500D01*
X116363120Y-121912764D01*
X116256132Y-121944000D01*
X116136409Y-121902389D01*
X116093818Y-121749882D01*
X116092141Y-121684433D01*
X116114298Y-121403581D01*
X116200953Y-121227971D01*
X116382374Y-121134448D01*
X116688833Y-121099857D01*
X116859678Y-121097333D01*
X117169390Y-121094183D01*
X117346327Y-121075880D01*
X117427600Y-121029149D01*
X117450325Y-120940711D01*
X117451338Y-120885666D01*
X117486424Y-120724544D01*
X117624575Y-120674893D01*
X117663712Y-120674000D01*
X117825373Y-120708969D01*
G37*
G36*
X116833762Y-128152066D02*
G01*
X116793478Y-128066672D01*
X116723645Y-128053466D01*
X116709782Y-128055781D01*
X116576306Y-128149945D01*
X116481913Y-128313425D01*
X116447326Y-128522238D01*
X116536878Y-128692221D01*
X116550641Y-128707726D01*
X116650034Y-128861400D01*
X116621039Y-129017554D01*
X116596940Y-129065123D01*
X116493549Y-129257667D01*
X116292845Y-129025112D01*
X116142680Y-128740935D01*
X116090102Y-128394812D01*
X116139694Y-128060068D01*
X116222070Y-127892795D01*
X116448819Y-127704281D01*
X116765119Y-127604356D01*
X117115855Y-127593052D01*
X117445916Y-127670399D01*
X117700188Y-127836428D01*
X117745552Y-127891934D01*
X117841941Y-128138903D01*
X117872715Y-128458885D01*
X117834625Y-128767378D01*
X117784299Y-128899400D01*
X117636912Y-129049600D01*
X117395521Y-129192075D01*
X117133337Y-129289128D01*
X116986842Y-129310000D01*
X116918758Y-129278940D01*
X116878643Y-129164951D01*
X116860163Y-128936821D01*
X116856689Y-128668791D01*
X116853322Y-128421000D01*
X117196488Y-128421000D01*
X117220211Y-128680289D01*
X117284176Y-128790813D01*
X117377576Y-128745242D01*
X117461899Y-128601043D01*
X117508482Y-128370035D01*
X117457089Y-128220043D01*
X117341470Y-128064351D01*
X117255500Y-128071226D01*
X117205954Y-128235445D01*
X117196488Y-128421000D01*
X116853322Y-128421000D01*
X116852249Y-128341992D01*
X116833762Y-128152066D01*
G37*
G36*
X118555686Y-144719333D02*
G01*
X116092141Y-144719333D01*
X116092141Y-144211333D01*
X118555686Y-144211333D01*
X118555686Y-144719333D01*
G37*
G36*
X116848044Y-150223637D02*
G01*
X116825148Y-149995830D01*
X116792558Y-149887672D01*
X116784905Y-149884000D01*
X116660954Y-149950034D01*
X116527098Y-150101146D01*
X116440535Y-150266844D01*
X116431940Y-150318984D01*
X116479533Y-150483716D01*
X116551634Y-150607447D01*
X116625300Y-150798565D01*
X116586846Y-150927921D01*
X116519914Y-151026192D01*
X116443019Y-151018152D01*
X116301589Y-150897258D01*
X116297253Y-150893200D01*
X116123955Y-150624496D01*
X116079146Y-150298757D01*
X116160944Y-149967534D01*
X116340455Y-149708153D01*
X116543041Y-149543661D01*
X116762236Y-149472586D01*
X116984114Y-149460666D01*
X117270460Y-149484168D01*
X117476882Y-149576743D01*
X117627772Y-149708153D01*
X117828236Y-150009482D01*
X117885530Y-150337100D01*
X117812036Y-150652224D01*
X117620135Y-150916070D01*
X117322210Y-151089854D01*
X117175251Y-151125603D01*
X116856689Y-151176155D01*
X116856689Y-150768296D01*
X117196488Y-150768296D01*
X117377537Y-150587851D01*
X117509550Y-150383416D01*
X117505695Y-150197375D01*
X117418851Y-150018471D01*
X117324646Y-149938329D01*
X117248376Y-149939685D01*
X117209228Y-150040259D01*
X117196720Y-150271996D01*
X117196488Y-150328805D01*
X117196488Y-150768296D01*
X116856689Y-150768296D01*
X116856689Y-150530077D01*
X116848044Y-150223637D01*
G37*
G36*
X118555686Y-49385667D02*
G01*
X118554534Y-49491335D01*
X118533713Y-49568526D01*
X118467176Y-49629334D01*
X118328873Y-49685854D01*
X118092756Y-49750179D01*
X117732777Y-49834405D01*
X117451338Y-49898422D01*
X117091431Y-49983937D01*
X116787561Y-50062736D01*
X116582616Y-50123370D01*
X116526828Y-50145237D01*
X116554818Y-50188525D01*
X116731118Y-50258139D01*
X117037280Y-50347993D01*
X117454858Y-50452002D01*
X117461276Y-50453499D01*
X117895029Y-50556259D01*
X118190559Y-50633982D01*
X118375389Y-50698843D01*
X118477045Y-50763015D01*
X118523050Y-50838673D01*
X118540091Y-50930665D01*
X118550006Y-51040293D01*
X118533041Y-51109764D01*
X118464175Y-51138737D01*
X118318388Y-51126868D01*
X118070660Y-51073816D01*
X117695971Y-50979239D01*
X117451338Y-50915790D01*
X117058692Y-50814055D01*
X116704615Y-50722628D01*
X116435499Y-50653471D01*
X116321211Y-50624390D01*
X116176891Y-50574328D01*
X116111733Y-50485928D01*
X116101328Y-50306993D01*
X116108836Y-50170235D01*
X116134615Y-49775968D01*
X117345151Y-49460024D01*
X118555686Y-49144079D01*
X118555686Y-49385667D01*
G37*
G36*
X116144163Y-110316676D02*
G01*
X116247492Y-110146122D01*
X116490586Y-110024022D01*
X116757310Y-110032382D01*
X116973570Y-110163721D01*
X117067345Y-110338747D01*
X117143801Y-110605240D01*
X117168096Y-110753254D01*
X117204439Y-111003082D01*
X117248496Y-111116736D01*
X117320036Y-111126949D01*
X117377848Y-111100553D01*
X117499620Y-110958253D01*
X117531361Y-110760236D01*
X117468321Y-110585473D01*
X117411726Y-110537605D01*
X117342338Y-110426344D01*
X117338182Y-110262720D01*
X117390992Y-110126677D01*
X117457936Y-110090666D01*
X117616125Y-110166510D01*
X117757636Y-110359736D01*
X117852843Y-110618884D01*
X117876087Y-110816918D01*
X117837535Y-111152678D01*
X117706293Y-111378605D01*
X117458982Y-111516431D01*
X117072220Y-111587889D01*
X117043795Y-111590566D01*
X116759691Y-111626390D01*
X116549940Y-111671779D01*
X116466988Y-111711310D01*
X116345427Y-111785551D01*
X116194558Y-111765379D01*
X116098035Y-111668751D01*
X116092141Y-111630848D01*
X116140904Y-111440194D01*
X116209202Y-111318139D01*
X116283173Y-111177323D01*
X116233861Y-111067630D01*
X116209202Y-111041909D01*
X116115038Y-110847718D01*
X116110372Y-110787029D01*
X116438778Y-110787029D01*
X116502981Y-110967875D01*
X116533880Y-111005066D01*
X116700357Y-111104294D01*
X116817243Y-111047388D01*
X116856689Y-110869600D01*
X116811900Y-110628421D01*
X116695244Y-110492223D01*
X116549013Y-110487341D01*
X116454888Y-110600667D01*
X116438778Y-110787029D01*
X116110372Y-110787029D01*
X116094464Y-110580114D01*
X116144163Y-110316676D01*
G37*
G36*
X118427887Y-133840657D02*
G01*
X118539595Y-133914344D01*
X118631587Y-134060507D01*
X118587615Y-134201088D01*
X118423593Y-134350723D01*
X118241762Y-134350914D01*
X118134858Y-134267709D01*
X118064049Y-134088483D01*
X118118539Y-133932023D01*
X118254446Y-133836644D01*
X118427887Y-133840657D01*
G37*
G36*
X114783808Y-125410187D02*
G01*
X114800227Y-125628184D01*
X114811977Y-125953808D01*
X114817609Y-126356213D01*
X114817893Y-126473666D01*
X114813467Y-126890669D01*
X114801332Y-127238422D01*
X114783203Y-127486343D01*
X114760798Y-127603851D01*
X114754181Y-127609246D01*
X114660837Y-127566545D01*
X114449434Y-127454681D01*
X114148909Y-127289395D01*
X113788204Y-127086428D01*
X113687414Y-127029016D01*
X112684360Y-126456206D01*
X113697405Y-125893436D01*
X114071062Y-125687932D01*
X114390686Y-125516055D01*
X114627579Y-125392942D01*
X114753043Y-125333733D01*
X114764171Y-125330666D01*
X114783808Y-125410187D01*
G37*
G36*
X117541534Y-118644351D02*
G01*
X117740184Y-118658787D01*
X117838852Y-118696382D01*
X117872496Y-118768212D01*
X117876087Y-118853666D01*
X117868094Y-118961526D01*
X117820201Y-119024651D01*
X117696538Y-119055013D01*
X117461233Y-119064586D01*
X117241952Y-119065333D01*
X116908213Y-119071155D01*
X116703260Y-119095094D01*
X116586186Y-119146860D01*
X116516089Y-119236165D01*
X116515172Y-119237864D01*
X116460865Y-119473290D01*
X116535920Y-119674314D01*
X116713689Y-119784021D01*
X116903233Y-119811751D01*
X117184841Y-119836943D01*
X117366388Y-119847718D01*
X117635167Y-119866558D01*
X117778267Y-119905735D01*
X117839891Y-119988040D01*
X117860492Y-120102500D01*
X117887372Y-120335333D01*
X116989756Y-120335333D01*
X116591384Y-120334076D01*
X116332736Y-120325721D01*
X116183638Y-120303389D01*
X116113915Y-120260202D01*
X116093392Y-120189281D01*
X116092141Y-120130722D01*
X116127515Y-119961345D01*
X116189272Y-119893841D01*
X116243919Y-119827723D01*
X116189272Y-119680685D01*
X116091926Y-119357139D01*
X116137546Y-119053490D01*
X116315971Y-118817478D01*
X116467933Y-118723858D01*
X116658623Y-118669850D01*
X116936441Y-118645935D01*
X117207945Y-118642000D01*
X117541534Y-118644351D01*
G37*
G36*
X116559365Y-55988666D02*
G01*
X116292260Y-55984401D01*
X116153234Y-55956450D01*
X116100467Y-55882077D01*
X116092141Y-55738550D01*
X116092141Y-55480666D01*
X118555686Y-55480666D01*
X118555686Y-56192807D01*
X118552620Y-56543125D01*
X118535069Y-56768781D01*
X118490500Y-56914430D01*
X118406379Y-57024734D01*
X118294318Y-57124140D01*
X117996889Y-57301722D01*
X117691803Y-57321717D01*
X117481665Y-57259379D01*
X117223804Y-57068492D01*
X117069819Y-56753064D01*
X117026589Y-56393161D01*
X117026589Y-56310400D01*
X117451338Y-56310400D01*
X117495680Y-56616833D01*
X117632276Y-56784163D01*
X117866481Y-56818798D01*
X117875490Y-56817805D01*
X118006706Y-56783294D01*
X118075271Y-56688375D01*
X118107443Y-56486115D01*
X118114354Y-56390833D01*
X118140245Y-55988666D01*
X117795792Y-55988666D01*
X117576335Y-55996773D01*
X117478066Y-56051424D01*
X117452275Y-56198115D01*
X117451338Y-56310400D01*
X117026589Y-56310400D01*
X117026589Y-55988666D01*
X116559365Y-55988666D01*
G37*
G36*
X116094063Y-130869479D02*
G01*
X116106367Y-130655658D01*
X116138861Y-130544312D01*
X116201353Y-130502013D01*
X116303649Y-130495333D01*
X116304515Y-130495333D01*
X116471051Y-130535020D01*
X116516890Y-130664666D01*
X116529076Y-130743369D01*
X116586645Y-130793040D01*
X116721114Y-130820293D01*
X116963998Y-130831741D01*
X117323913Y-130834000D01*
X117699000Y-130831443D01*
X117935728Y-130819363D01*
X118065614Y-130791148D01*
X118120172Y-130740185D01*
X118130936Y-130664666D01*
X118180711Y-130531881D01*
X118343311Y-130495333D01*
X118441508Y-130500877D01*
X118503524Y-130538605D01*
X118537671Y-130640161D01*
X118552267Y-130837185D01*
X118555626Y-131161323D01*
X118555686Y-131303515D01*
X118552227Y-131685794D01*
X118536279Y-131939514D01*
X118499483Y-132105400D01*
X118433482Y-132224176D01*
X118347172Y-132319515D01*
X118103083Y-132491926D01*
X117860610Y-132502339D01*
X117590414Y-132352007D01*
X117590219Y-132351854D01*
X117366388Y-132176376D01*
X117142557Y-132351854D01*
X116833190Y-132502913D01*
X116511965Y-132491733D01*
X116451390Y-132470666D01*
X116279474Y-132311580D01*
X116162106Y-131997726D01*
X116101062Y-131535296D01*
X116100190Y-131504408D01*
X116516890Y-131504408D01*
X116543678Y-131803917D01*
X116633964Y-131963687D01*
X116802630Y-132006233D01*
X116846304Y-132002746D01*
X116989539Y-131965357D01*
X117060973Y-131863777D01*
X117092851Y-131648045D01*
X117095185Y-131617166D01*
X117100960Y-131537619D01*
X117551387Y-131537619D01*
X117577983Y-131797886D01*
X117708511Y-131963726D01*
X117911128Y-132002252D01*
X118028682Y-131952148D01*
X118090113Y-131815250D01*
X118114865Y-131611418D01*
X118141269Y-131245836D01*
X117860016Y-131272751D01*
X117660269Y-131315533D01*
X117573007Y-131423646D01*
X117551387Y-131537619D01*
X117100960Y-131537619D01*
X117121307Y-131257333D01*
X116819099Y-131257333D01*
X116617070Y-131271128D01*
X116533347Y-131340334D01*
X116516890Y-131504408D01*
X116100190Y-131504408D01*
X116092141Y-131219204D01*
X116094063Y-130869479D01*
G37*
G36*
X116232731Y-125062166D02*
G01*
X116326015Y-124947332D01*
X116300503Y-124910262D01*
X116232731Y-124907333D01*
X116117384Y-124836538D01*
X116092141Y-124695666D01*
X116092141Y-124484000D01*
X118555686Y-124484000D01*
X118555686Y-124695666D01*
X118541914Y-124821288D01*
X118471635Y-124883958D01*
X118301398Y-124905328D01*
X118130936Y-124907333D01*
X117854773Y-124928047D01*
X117716168Y-124984919D01*
X117727816Y-125070040D01*
X117791137Y-125119000D01*
X117845162Y-125229873D01*
X117874391Y-125440882D01*
X117876087Y-125509039D01*
X117809773Y-125858502D01*
X117612517Y-126101056D01*
X117286845Y-126234566D01*
X116984114Y-126262000D01*
X116676368Y-126241841D01*
X116463686Y-126166512D01*
X116316920Y-126054376D01*
X116148361Y-125802357D01*
X116088256Y-125497815D01*
X116117800Y-125337634D01*
X116446224Y-125337634D01*
X116475371Y-125548382D01*
X116572531Y-125683833D01*
X116798831Y-125821027D01*
X117068917Y-125834988D01*
X117315892Y-125730952D01*
X117423089Y-125617243D01*
X117516625Y-125441354D01*
X117505321Y-125296855D01*
X117443615Y-125172743D01*
X117259867Y-124989190D01*
X117011816Y-124910904D01*
X116760272Y-124943567D01*
X116567436Y-125090874D01*
X116446224Y-125337634D01*
X116117800Y-125337634D01*
X116142121Y-125205771D01*
X116232731Y-125062166D01*
G37*
G36*
X118555686Y-108016333D02*
G01*
X118544893Y-108133641D01*
X118485920Y-108196976D01*
X118338871Y-108222905D01*
X118063852Y-108227995D01*
X118045987Y-108228000D01*
X117536288Y-108228000D01*
X117536288Y-109159333D01*
X118555686Y-109159333D01*
X118555686Y-109667333D01*
X117380546Y-109667333D01*
X116949822Y-109663457D01*
X116581556Y-109652826D01*
X116308317Y-109636931D01*
X116162679Y-109617265D01*
X116148774Y-109610888D01*
X116104075Y-109489739D01*
X116092141Y-109356888D01*
X116104936Y-109247248D01*
X116169801Y-109188039D01*
X116326455Y-109163867D01*
X116601840Y-109159333D01*
X117111538Y-109159333D01*
X117111538Y-108228000D01*
X116601840Y-108228000D01*
X116319358Y-108223518D01*
X116166846Y-108199028D01*
X116104409Y-108137961D01*
X116092152Y-108023752D01*
X116092141Y-108016333D01*
X116092141Y-107804666D01*
X118555686Y-107804666D01*
X118555686Y-108016333D01*
G37*
G36*
X116197618Y-89360741D02*
G01*
X116258520Y-89257011D01*
X116190185Y-89186066D01*
X116113160Y-89056920D01*
X116105946Y-88914425D01*
X116122014Y-88835063D01*
X116161644Y-88779204D01*
X116251431Y-88742005D01*
X116417974Y-88718624D01*
X116687871Y-88704219D01*
X117087720Y-88693948D01*
X117345151Y-88688842D01*
X118555686Y-88665350D01*
X118555686Y-88921675D01*
X118546702Y-89073019D01*
X118490629Y-89148735D01*
X118343783Y-89175000D01*
X118127948Y-89178000D01*
X117879039Y-89183412D01*
X117766486Y-89210400D01*
X117756830Y-89275088D01*
X117788148Y-89341767D01*
X117887212Y-89679189D01*
X117838508Y-89999067D01*
X117663515Y-90269059D01*
X117383716Y-90456827D01*
X117020591Y-90530030D01*
X116998833Y-90530092D01*
X116730167Y-90505437D01*
X116509960Y-90447581D01*
X116474415Y-90430404D01*
X116288273Y-90291435D01*
X116201029Y-90200146D01*
X116122547Y-90005705D01*
X116098183Y-89746242D01*
X116114317Y-89614455D01*
X116431940Y-89614455D01*
X116505818Y-89822327D01*
X116687436Y-90003154D01*
X116916766Y-90103140D01*
X116984114Y-90109333D01*
X117203851Y-90050446D01*
X117366388Y-89940000D01*
X117516390Y-89709444D01*
X117497072Y-89481197D01*
X117395697Y-89332833D01*
X117188445Y-89206549D01*
X116936437Y-89186586D01*
X116691679Y-89257747D01*
X116506179Y-89404833D01*
X116431945Y-89612648D01*
X116431940Y-89614455D01*
X116114317Y-89614455D01*
X116128257Y-89500582D01*
X116197618Y-89360741D01*
G37*
G36*
X114753031Y-66779711D02*
G01*
X114785168Y-66890705D01*
X114805281Y-67110455D01*
X114815469Y-67460142D01*
X114817893Y-67878125D01*
X114816424Y-68296951D01*
X114812394Y-68647189D01*
X114806374Y-68898136D01*
X114798929Y-69019093D01*
X114796656Y-69025485D01*
X114719049Y-68985686D01*
X114521565Y-68878034D01*
X114232249Y-68717975D01*
X113879143Y-68520952D01*
X113798744Y-68475897D01*
X113434588Y-68267836D01*
X113128642Y-68085762D01*
X112909241Y-67947079D01*
X112804718Y-67869192D01*
X112800104Y-67862477D01*
X112861699Y-67802736D01*
X113039496Y-67682145D01*
X113300080Y-67520091D01*
X113610035Y-67335960D01*
X113935948Y-67149138D01*
X114244402Y-66979010D01*
X114501985Y-66844964D01*
X114675280Y-66766384D01*
X114706773Y-66756291D01*
X114753031Y-66779711D01*
G37*
G36*
X118555686Y-112630666D02*
G01*
X117380546Y-112630666D01*
X116949822Y-112626791D01*
X116581556Y-112616159D01*
X116308317Y-112600264D01*
X116162679Y-112580599D01*
X116148774Y-112574222D01*
X116104075Y-112453072D01*
X116092141Y-112320222D01*
X116092141Y-112122666D01*
X118555686Y-112122666D01*
X118555686Y-112630666D01*
G37*
G36*
X116831099Y-91474846D02*
G01*
X116786305Y-91400233D01*
X116709782Y-91395114D01*
X116550783Y-91499927D01*
X116466873Y-91695412D01*
X116475433Y-91912974D01*
X116545919Y-92041858D01*
X116634677Y-92216454D01*
X116619903Y-92381517D01*
X116512321Y-92475048D01*
X116470143Y-92480000D01*
X116295421Y-92405877D01*
X116172938Y-92212735D01*
X116108403Y-91944415D01*
X116107522Y-91644755D01*
X116176003Y-91357596D01*
X116297160Y-91151221D01*
X116439518Y-91011924D01*
X116596799Y-90940604D01*
X116831666Y-90915590D01*
X116984114Y-90913666D01*
X117276128Y-90924579D01*
X117461541Y-90971765D01*
X117603019Y-91076895D01*
X117671068Y-91151221D01*
X117812465Y-91410869D01*
X117875520Y-91729419D01*
X117854001Y-92036730D01*
X117767198Y-92233336D01*
X117511268Y-92444839D01*
X117182709Y-92556706D01*
X117074648Y-92564666D01*
X116961257Y-92556711D01*
X116896125Y-92508358D01*
X116865881Y-92382874D01*
X116857158Y-92143527D01*
X116856689Y-91965791D01*
X116853317Y-91753277D01*
X117196488Y-91753277D01*
X117219691Y-92017159D01*
X117283007Y-92128757D01*
X117376998Y-92082206D01*
X117469801Y-91923091D01*
X117523983Y-91688524D01*
X117483148Y-91568297D01*
X117350392Y-91413498D01*
X117255835Y-91421535D01*
X117204494Y-91589169D01*
X117196488Y-91753277D01*
X116853317Y-91753277D01*
X116851715Y-91652309D01*
X116831099Y-91474846D01*
G37*
G36*
X116193560Y-137282152D02*
G01*
X116300654Y-137137818D01*
X116461500Y-137011012D01*
X116655119Y-136948314D01*
X116945967Y-136930125D01*
X116984114Y-136930000D01*
X117288673Y-136944709D01*
X117489348Y-137001903D01*
X117650595Y-137121181D01*
X117667574Y-137137818D01*
X117824459Y-137392602D01*
X117877851Y-137699144D01*
X117823128Y-137989929D01*
X117735496Y-138129833D01*
X117666849Y-138217107D01*
X117683522Y-138263347D01*
X117814014Y-138281537D01*
X118075295Y-138284666D01*
X118347563Y-138289815D01*
X118491021Y-138317316D01*
X118546703Y-138385249D01*
X118555686Y-138496333D01*
X118555686Y-138708000D01*
X116092141Y-138708000D01*
X116092141Y-138496333D01*
X116139163Y-138322671D01*
X116232731Y-138284666D01*
X116326015Y-138272565D01*
X116300503Y-138207399D01*
X116232731Y-138129833D01*
X116110301Y-137881404D01*
X116106131Y-137770950D01*
X116431940Y-137770950D01*
X116502479Y-138024872D01*
X116681703Y-138200412D01*
X116921020Y-138283241D01*
X117171839Y-138259029D01*
X117385567Y-138113446D01*
X117423089Y-138063243D01*
X117516625Y-137887345D01*
X117505317Y-137742827D01*
X117443634Y-137618743D01*
X117271279Y-137447308D01*
X117036547Y-137373504D01*
X116788495Y-137389953D01*
X116576175Y-137489275D01*
X116448640Y-137664089D01*
X116431940Y-137770950D01*
X116106131Y-137770950D01*
X116098785Y-137576339D01*
X116193560Y-137282152D01*
G37*
G36*
X117380997Y-68943942D02*
G01*
X117638251Y-68952399D01*
X117786146Y-68974982D01*
X117854951Y-69018632D01*
X117874936Y-69090295D01*
X117876087Y-69147277D01*
X117837197Y-69319460D01*
X117769900Y-69390694D01*
X117706312Y-69447230D01*
X117769900Y-69541683D01*
X117875161Y-69726713D01*
X117848118Y-69880485D01*
X117700554Y-69956739D01*
X117663712Y-69958666D01*
X117500646Y-69922319D01*
X117451696Y-69785661D01*
X117451338Y-69763933D01*
X117417425Y-69570739D01*
X117297888Y-69449089D01*
X117066027Y-69385390D01*
X116695145Y-69366047D01*
X116669799Y-69366000D01*
X116364610Y-69362664D01*
X116191757Y-69343486D01*
X116113691Y-69294706D01*
X116092860Y-69202565D01*
X116092141Y-69154333D01*
X116092141Y-68942666D01*
X116984114Y-68942666D01*
X117380997Y-68943942D01*
G37*
G36*
X116138067Y-122674669D02*
G01*
X116251612Y-122462874D01*
X116262040Y-122452000D01*
X116502453Y-122298446D01*
X116736240Y-122299316D01*
X116941068Y-122440423D01*
X117094603Y-122707581D01*
X117168649Y-123027835D01*
X117211663Y-123294816D01*
X117267228Y-123419390D01*
X117343209Y-123430002D01*
X117472710Y-123388098D01*
X117500761Y-123383333D01*
X117541459Y-123316627D01*
X117528618Y-123161729D01*
X117474729Y-122986470D01*
X117406815Y-122873077D01*
X117328761Y-122705601D01*
X117353346Y-122543791D01*
X117465961Y-122455049D01*
X117498084Y-122452000D01*
X117654549Y-122529058D01*
X117783951Y-122729876D01*
X117862786Y-123008915D01*
X117876087Y-123184360D01*
X117818431Y-123514138D01*
X117639745Y-123737227D01*
X117331456Y-123860318D01*
X116969991Y-123891333D01*
X116667180Y-123908521D01*
X116504130Y-123964602D01*
X116462660Y-124018333D01*
X116352381Y-124138526D01*
X116210997Y-124136804D01*
X116107787Y-124027866D01*
X116092141Y-123939714D01*
X116141945Y-123726126D01*
X116217197Y-123609455D01*
X116299061Y-123497414D01*
X116245109Y-123405290D01*
X116217197Y-123381374D01*
X116117501Y-123203529D01*
X116110192Y-123128646D01*
X116436614Y-123128646D01*
X116495532Y-123318198D01*
X116533880Y-123366400D01*
X116700339Y-123465499D01*
X116817160Y-123409240D01*
X116855388Y-123235166D01*
X116815309Y-122969781D01*
X116709500Y-122824735D01*
X116567938Y-122818005D01*
X116462353Y-122936094D01*
X116436614Y-123128646D01*
X116110192Y-123128646D01*
X116092243Y-122944758D01*
X116138067Y-122674669D01*
G37*
G36*
X114783475Y-136416853D02*
G01*
X114800054Y-136634850D01*
X114811919Y-136960474D01*
X114817607Y-137362878D01*
X114817893Y-137480333D01*
X114813468Y-137897199D01*
X114801335Y-138244679D01*
X114783211Y-138492240D01*
X114760810Y-138609346D01*
X114754181Y-138614629D01*
X114660824Y-138571494D01*
X114449317Y-138459320D01*
X114148581Y-138293853D01*
X113787534Y-138090838D01*
X113685000Y-138032506D01*
X112679532Y-137459087D01*
X113694466Y-136898210D01*
X114068756Y-136693448D01*
X114388999Y-136522178D01*
X114626457Y-136399474D01*
X114752389Y-136340413D01*
X114763646Y-136337333D01*
X114783475Y-136416853D01*
G37*
G36*
X117375022Y-66894644D02*
G01*
X117665313Y-67088977D01*
X117836654Y-67391596D01*
X117876087Y-67672666D01*
X117806579Y-68012041D01*
X117621442Y-68291648D01*
X117355754Y-68472307D01*
X117118073Y-68519333D01*
X116856689Y-68519333D01*
X116856689Y-67884333D01*
X116851131Y-67651194D01*
X117196488Y-67651194D01*
X117205390Y-67909344D01*
X117239084Y-68030706D01*
X117308055Y-68047222D01*
X117324646Y-68041670D01*
X117442104Y-67928257D01*
X117505695Y-67782624D01*
X117498339Y-67562425D01*
X117377537Y-67392148D01*
X117196488Y-67211703D01*
X117196488Y-67651194D01*
X116851131Y-67651194D01*
X116848239Y-67529907D01*
X116816852Y-67328945D01*
X116753470Y-67266143D01*
X116649038Y-67326198D01*
X116572531Y-67404166D01*
X116447677Y-67613441D01*
X116472121Y-67831068D01*
X116569696Y-68000340D01*
X116658172Y-68154462D01*
X116637303Y-68258864D01*
X116580189Y-68323197D01*
X116435604Y-68381258D01*
X116292284Y-68301465D01*
X116173485Y-68113876D01*
X116102468Y-67848544D01*
X116092141Y-67692522D01*
X116162501Y-67310064D01*
X116232938Y-67211703D01*
X116363609Y-67029227D01*
X116680507Y-66864545D01*
X116984114Y-66826000D01*
X117375022Y-66894644D01*
G37*
G36*
X117887372Y-64624666D02*
G01*
X116080855Y-64624666D01*
X116134615Y-64159000D01*
X117833612Y-64159000D01*
X117887372Y-64624666D01*
G37*
G36*
X118555686Y-60222000D02*
G01*
X116092141Y-60222000D01*
X116092141Y-59798666D01*
X118555686Y-59798666D01*
X118555686Y-60222000D01*
G37*
G36*
X113711949Y-89247027D02*
G01*
X114082096Y-89455938D01*
X114392319Y-89636898D01*
X114615580Y-89773684D01*
X114724842Y-89850072D01*
X114731347Y-89858683D01*
X114663100Y-89917924D01*
X114480891Y-90033571D01*
X114220981Y-90182923D01*
X114159532Y-90216657D01*
X113800260Y-90414432D01*
X113425970Y-90623784D01*
X113140134Y-90786520D01*
X112694147Y-91044091D01*
X112694147Y-88681055D01*
X113711949Y-89247027D01*
G37*
G36*
X116602552Y-139174105D02*
G01*
X116680557Y-139306863D01*
X116658954Y-139491864D01*
X116555070Y-139642885D01*
X116468454Y-139787833D01*
X116451904Y-139972838D01*
X116500032Y-140129462D01*
X116598104Y-140189666D01*
X116699972Y-140112588D01*
X116800597Y-139908301D01*
X116829006Y-139820595D01*
X116944645Y-139494816D01*
X117074746Y-139306944D01*
X117247064Y-139226071D01*
X117371973Y-139216000D01*
X117622339Y-139291360D01*
X117795877Y-139500505D01*
X117873679Y-139818026D01*
X117876087Y-139893333D01*
X117832484Y-140173516D01*
X117720768Y-140409430D01*
X117569583Y-140550957D01*
X117488996Y-140570666D01*
X117392642Y-140503603D01*
X117372044Y-140339965D01*
X117429944Y-140136077D01*
X117464745Y-140072733D01*
X117518166Y-139894965D01*
X117488660Y-139727532D01*
X117391248Y-139640981D01*
X117372464Y-139639333D01*
X117300489Y-139712975D01*
X117217373Y-139898678D01*
X117185243Y-139999166D01*
X117092201Y-140258764D01*
X116986014Y-140466523D01*
X116956292Y-140507166D01*
X116749893Y-140634771D01*
X116500541Y-140641149D01*
X116279747Y-140530208D01*
X116224382Y-140467161D01*
X116106792Y-140174013D01*
X116094952Y-139831611D01*
X116183815Y-139510649D01*
X116305227Y-139334593D01*
X116467448Y-139207124D01*
X116589893Y-139169180D01*
X116602552Y-139174105D01*
G37*
G36*
X118545234Y-64190708D02*
G01*
X118597534Y-64340091D01*
X118598161Y-64370666D01*
X118558352Y-64536643D01*
X118407502Y-64603774D01*
X118375401Y-64608080D01*
X118174061Y-64581639D01*
X118101980Y-64502246D01*
X118083072Y-64287557D01*
X118197713Y-64155530D01*
X118375401Y-64133253D01*
X118545234Y-64190708D01*
G37*
G36*
X117876087Y-135025000D02*
G01*
X117829064Y-135198661D01*
X117735496Y-135236666D01*
X117642213Y-135248767D01*
X117667725Y-135313933D01*
X117735496Y-135391500D01*
X117853992Y-135635712D01*
X117858276Y-135933487D01*
X117750101Y-136214628D01*
X117713699Y-136264445D01*
X117614534Y-136363916D01*
X117486190Y-136427057D01*
X117286939Y-136464615D01*
X116975053Y-136487338D01*
X116821726Y-136494180D01*
X116092141Y-136524043D01*
X116092141Y-136303688D01*
X116101273Y-136183702D01*
X116154729Y-136117761D01*
X116291602Y-136089714D01*
X116550982Y-136083407D01*
X116625413Y-136083333D01*
X117046629Y-136049817D01*
X117342395Y-135955818D01*
X117501965Y-135811158D01*
X117514592Y-135625661D01*
X117369533Y-135409148D01*
X117366388Y-135406000D01*
X117228270Y-135307450D01*
X117032474Y-135255085D01*
X116728903Y-135237156D01*
X116644314Y-135236666D01*
X116347490Y-135232955D01*
X116182162Y-135212011D01*
X116109946Y-135159120D01*
X116092459Y-135059570D01*
X116092141Y-135025000D01*
X116092141Y-134813333D01*
X117876087Y-134813333D01*
X117876087Y-135025000D01*
G37*
G36*
X118500602Y-82612618D02*
G01*
X118533095Y-82704348D01*
X118549370Y-82886687D01*
X118555032Y-83187562D01*
X118555686Y-83541778D01*
X118555686Y-84521333D01*
X118343311Y-84521333D01*
X118212259Y-84505541D01*
X118150168Y-84427919D01*
X118131748Y-84243097D01*
X118130936Y-84140333D01*
X118130936Y-83759333D01*
X116092141Y-83759333D01*
X116092141Y-83336000D01*
X118121168Y-83336000D01*
X118147290Y-82976166D01*
X118179779Y-82741247D01*
X118249971Y-82627400D01*
X118364549Y-82589278D01*
X118446288Y-82583570D01*
X118500602Y-82612618D01*
G37*
G36*
X116161486Y-60907159D02*
G01*
X116247492Y-60785455D01*
X116444023Y-60683701D01*
X116669252Y-60645333D01*
X116876085Y-60681806D01*
X117017158Y-60809585D01*
X117111513Y-61056206D01*
X117167251Y-61365475D01*
X117216897Y-61612025D01*
X117286689Y-61719523D01*
X117357232Y-61727998D01*
X117470677Y-61633619D01*
X117518136Y-61454306D01*
X117491070Y-61264482D01*
X117421928Y-61164139D01*
X117345056Y-61023190D01*
X117356059Y-60858020D01*
X117441525Y-60744270D01*
X117498904Y-60730000D01*
X117655062Y-60807135D01*
X117783952Y-61008525D01*
X117862577Y-61289144D01*
X117876087Y-61468505D01*
X117834984Y-61798558D01*
X117698099Y-62014048D01*
X117445063Y-62131960D01*
X117055510Y-62169276D01*
X117035677Y-62169333D01*
X116722041Y-62183468D01*
X116546730Y-62230429D01*
X116486170Y-62296333D01*
X116370937Y-62400918D01*
X116264706Y-62423333D01*
X116127405Y-62372299D01*
X116092141Y-62222033D01*
X116143814Y-62018701D01*
X116221708Y-61913560D01*
X116306983Y-61815325D01*
X116264773Y-61713264D01*
X116221708Y-61663693D01*
X116117014Y-61444619D01*
X116114381Y-61406646D01*
X116436614Y-61406646D01*
X116495532Y-61596198D01*
X116533880Y-61644400D01*
X116700339Y-61743499D01*
X116817160Y-61687240D01*
X116855388Y-61513166D01*
X116815309Y-61247781D01*
X116709500Y-61102735D01*
X116567938Y-61096005D01*
X116462353Y-61214094D01*
X116436614Y-61406646D01*
X116114381Y-61406646D01*
X116097710Y-61166205D01*
X116161486Y-60907159D01*
G37*
G36*
X117825373Y-113004302D02*
G01*
X117875190Y-113141993D01*
X117876087Y-113181000D01*
X117906232Y-113335997D01*
X118030917Y-113389462D01*
X118113947Y-113392666D01*
X118366199Y-113440838D01*
X118507708Y-113598773D01*
X118555413Y-113886603D01*
X118555686Y-113917600D01*
X118539784Y-114132339D01*
X118476325Y-114224180D01*
X118385786Y-114239333D01*
X118252557Y-114189724D01*
X118215886Y-114027666D01*
X118176067Y-113861685D01*
X118045987Y-113816000D01*
X117912758Y-113865608D01*
X117876087Y-114027666D01*
X117841001Y-114188788D01*
X117702850Y-114238439D01*
X117663712Y-114239333D01*
X117502052Y-114204363D01*
X117452235Y-114066673D01*
X117451338Y-114027666D01*
X117444096Y-113922688D01*
X117399260Y-113859830D01*
X117282166Y-113828294D01*
X117058148Y-113817284D01*
X116771739Y-113816000D01*
X116434686Y-113813744D01*
X116232866Y-113799779D01*
X116131613Y-113763309D01*
X116096264Y-113693537D01*
X116092141Y-113604333D01*
X116099383Y-113499355D01*
X116144218Y-113436496D01*
X116261313Y-113404960D01*
X116485330Y-113393951D01*
X116771739Y-113392666D01*
X117108792Y-113390411D01*
X117310613Y-113376446D01*
X117411865Y-113339976D01*
X117447214Y-113270204D01*
X117451338Y-113181000D01*
X117486424Y-113019878D01*
X117624575Y-112970227D01*
X117663712Y-112969333D01*
X117825373Y-113004302D01*
G37*
%TD*%
M02*
