%TF.GenerationSoftware,KiCad,Pcbnew,(6.0.2-0)*%
%TF.CreationDate,2022-07-30T10:58:12+02:00*%
%TF.ProjectId,blindeTaubeFront,626c696e-6465-4546-9175-626546726f6e,rev?*%
%TF.SameCoordinates,Original*%
%TF.FileFunction,Soldermask,Top*%
%TF.FilePolarity,Negative*%
%FSLAX46Y46*%
G04 Gerber Fmt 4.6, Leading zero omitted, Abs format (unit mm)*
G04 Created by KiCad (PCBNEW (6.0.2-0)) date 2022-07-30 10:58:12*
%MOMM*%
%LPD*%
G01*
G04 APERTURE LIST*
%ADD10C,8.500000*%
%ADD11O,4.200000X3.200000*%
%ADD12C,7.000000*%
G04 APERTURE END LIST*
%TO.C,G\u002A\u002A\u002A*%
G36*
X109581416Y-68310566D02*
G01*
X109626852Y-68472901D01*
X109618999Y-68654793D01*
X109551061Y-68783699D01*
X109541054Y-68790666D01*
X109473314Y-68765707D01*
X109456104Y-68675588D01*
X109430017Y-68462435D01*
X109404540Y-68374258D01*
X109412427Y-68261060D01*
X109489490Y-68240333D01*
X109581416Y-68310566D01*
G37*
G36*
X109528838Y-103349852D02*
G01*
X109606437Y-103422083D01*
X109625845Y-103564044D01*
X109626003Y-103588666D01*
X109590340Y-103777444D01*
X109505195Y-103847001D01*
X109403336Y-103774351D01*
X109390794Y-103753651D01*
X109263936Y-103658198D01*
X109039794Y-103584937D01*
X108960824Y-103571389D01*
X108707788Y-103521822D01*
X108621764Y-103467312D01*
X108700216Y-103413841D01*
X108940610Y-103367388D01*
X109052592Y-103354858D01*
X109356429Y-103332421D01*
X109528838Y-103349852D01*
G37*
G36*
X108774217Y-149754245D02*
G01*
X108776505Y-149774333D01*
X108707359Y-149848637D01*
X108644067Y-149859000D01*
X108556139Y-149817954D01*
X108564130Y-149774333D01*
X108672735Y-149692896D01*
X108696569Y-149689666D01*
X108774217Y-149754245D01*
G37*
G36*
X108747304Y-123918203D02*
G01*
X108734030Y-123951000D01*
X108657694Y-124031770D01*
X108644067Y-124035666D01*
X108607579Y-123970160D01*
X108606605Y-123951000D01*
X108671911Y-123869586D01*
X108696569Y-123866333D01*
X108747304Y-123918203D01*
G37*
G36*
X108873648Y-43569266D02*
G01*
X108903930Y-43602333D01*
X108877919Y-43668973D01*
X108781519Y-43687000D01*
X108640778Y-43652456D01*
X108606605Y-43602333D01*
X108675048Y-43526394D01*
X108729017Y-43517666D01*
X108873648Y-43569266D01*
G37*
G36*
X108774036Y-141626095D02*
G01*
X108776505Y-141646333D01*
X108711860Y-141728539D01*
X108691555Y-141731000D01*
X108609074Y-141666570D01*
X108606605Y-141646333D01*
X108671250Y-141564126D01*
X108691555Y-141561666D01*
X108774036Y-141626095D01*
G37*
G36*
X108774036Y-62632095D02*
G01*
X108776505Y-62652333D01*
X108711860Y-62734539D01*
X108691555Y-62737000D01*
X108609074Y-62672570D01*
X108606605Y-62652333D01*
X108671250Y-62570126D01*
X108691555Y-62567666D01*
X108774036Y-62632095D01*
G37*
G36*
X109596010Y-145482653D02*
G01*
X109625766Y-145693540D01*
X109626003Y-145724444D01*
X109579185Y-145902852D01*
X109470819Y-145972589D01*
X109349041Y-145908523D01*
X109328679Y-145879666D01*
X109217297Y-145825547D01*
X109006022Y-145796546D01*
X108941391Y-145795000D01*
X108730468Y-145775959D01*
X108614394Y-145728473D01*
X108606605Y-145710333D01*
X108680926Y-145652896D01*
X108862152Y-145625951D01*
X108885028Y-145625666D01*
X109139524Y-145587678D01*
X109341093Y-145501655D01*
X109506069Y-145422562D01*
X109596010Y-145482653D01*
G37*
G36*
X108691555Y-88433333D02*
G01*
X108772596Y-88509415D01*
X108776505Y-88522996D01*
X108710780Y-88559362D01*
X108691555Y-88560333D01*
X108609870Y-88495245D01*
X108606605Y-88470669D01*
X108658649Y-88420103D01*
X108691555Y-88433333D01*
G37*
G36*
X131458110Y-35051000D02*
G01*
X131458110Y-165099000D01*
X91276840Y-165099000D01*
X91276840Y-100831480D01*
X105456553Y-100831480D01*
X105456708Y-103693409D01*
X105457043Y-106548994D01*
X105457559Y-109393215D01*
X105458254Y-112221053D01*
X105459128Y-115027488D01*
X105460183Y-117807501D01*
X105461417Y-120556073D01*
X105462832Y-123268184D01*
X105464426Y-125938815D01*
X105466199Y-128562947D01*
X105468152Y-131135559D01*
X105470285Y-133651634D01*
X105472597Y-136106151D01*
X105475089Y-138494091D01*
X105477761Y-140810435D01*
X105480612Y-143050164D01*
X105483642Y-145208257D01*
X105486852Y-147279696D01*
X105490241Y-149259462D01*
X105493810Y-151142534D01*
X105497558Y-152923894D01*
X105501485Y-154598522D01*
X105505591Y-156161399D01*
X105509877Y-157607505D01*
X105514342Y-158931821D01*
X105518986Y-160129329D01*
X105523809Y-161195007D01*
X105528811Y-162123838D01*
X105533993Y-162910801D01*
X105539353Y-163550877D01*
X105544893Y-164039048D01*
X105550611Y-164370293D01*
X105556509Y-164539593D01*
X105559354Y-164561807D01*
X105663983Y-164587925D01*
X105918677Y-164611033D01*
X106303625Y-164631101D01*
X106799019Y-164648104D01*
X107385050Y-164662013D01*
X108041909Y-164672800D01*
X108749785Y-164680437D01*
X109488871Y-164684896D01*
X110239358Y-164686150D01*
X110981435Y-164684171D01*
X111695293Y-164678930D01*
X112361125Y-164670401D01*
X112959119Y-164658554D01*
X113469469Y-164643364D01*
X113872363Y-164624800D01*
X114147993Y-164602837D01*
X114276550Y-164577445D01*
X114281254Y-164574066D01*
X114352292Y-164420512D01*
X114384482Y-164181463D01*
X114379711Y-163916981D01*
X114339868Y-163687125D01*
X114266837Y-163551956D01*
X114248821Y-163541725D01*
X114133724Y-163529256D01*
X113870023Y-163517879D01*
X113479013Y-163507971D01*
X112981990Y-163499913D01*
X112400247Y-163494082D01*
X111755081Y-163490859D01*
X111360527Y-163490333D01*
X110521763Y-163487748D01*
X109828280Y-163480096D01*
X109285127Y-163467533D01*
X108897347Y-163450214D01*
X108669988Y-163428293D01*
X108606605Y-163405666D01*
X108681995Y-163352764D01*
X108870441Y-163323228D01*
X108948226Y-163321000D01*
X109187361Y-163300614D01*
X109321278Y-163219877D01*
X109384645Y-163113633D01*
X109491945Y-162968500D01*
X109676627Y-162898318D01*
X109828403Y-162880799D01*
X110054979Y-162850664D01*
X110166153Y-162778533D01*
X110216391Y-162625602D01*
X110220681Y-162601333D01*
X110265444Y-162441452D01*
X110362438Y-162357910D01*
X110563168Y-162314807D01*
X110645837Y-162305000D01*
X111027676Y-162262666D01*
X111054000Y-161799571D01*
X111044233Y-161457821D01*
X110952706Y-161248268D01*
X110757129Y-161144485D01*
X110480503Y-161119666D01*
X110178177Y-161119666D01*
X110178177Y-160569333D01*
X110186608Y-160260984D01*
X110216831Y-160089560D01*
X110276247Y-160023258D01*
X110306214Y-160019000D01*
X110386299Y-160059407D01*
X110412912Y-160204434D01*
X110404925Y-160386500D01*
X110414879Y-160697716D01*
X110519156Y-160896275D01*
X110739797Y-161002050D01*
X111098847Y-161034912D01*
X111124278Y-161035000D01*
X111500231Y-161017848D01*
X111737864Y-160952143D01*
X111866553Y-160816510D01*
X111915674Y-160589576D01*
X111919649Y-160456287D01*
X111892435Y-160135587D01*
X111793440Y-159947987D01*
X111596635Y-159863507D01*
X111392960Y-159849666D01*
X111070151Y-159849666D01*
X111070151Y-159436700D01*
X111044814Y-159124989D01*
X110948582Y-158940978D01*
X110751121Y-158847928D01*
X110560482Y-158819417D01*
X110352909Y-158778066D01*
X110255416Y-158674657D01*
X110220616Y-158537333D01*
X110202799Y-158471714D01*
X111244388Y-158471714D01*
X111252611Y-158741267D01*
X111312626Y-158946931D01*
X111341990Y-158986066D01*
X111481307Y-159041488D01*
X111741038Y-159077654D01*
X112004599Y-159087666D01*
X112325661Y-159072497D01*
X112565865Y-159032006D01*
X112667207Y-158986066D01*
X112743702Y-158814989D01*
X112767650Y-158557302D01*
X112741497Y-158286616D01*
X112667683Y-158076540D01*
X112635655Y-158035380D01*
X112447666Y-157942834D01*
X112115650Y-157904008D01*
X112004599Y-157902333D01*
X111632977Y-157927771D01*
X111409150Y-158006135D01*
X111373543Y-158035380D01*
X111285512Y-158211882D01*
X111244388Y-158471714D01*
X110202799Y-158471714D01*
X110177536Y-158378676D01*
X110085216Y-158299042D01*
X109892000Y-158264345D01*
X109795496Y-158256821D01*
X109546141Y-158224161D01*
X109368535Y-158173203D01*
X109332926Y-158150988D01*
X109200884Y-158099077D01*
X108978485Y-158072554D01*
X108929415Y-158071666D01*
X108722996Y-158051967D01*
X108612461Y-158003046D01*
X108606605Y-157987000D01*
X108681172Y-157930576D01*
X108864054Y-157902904D01*
X108897862Y-157902333D01*
X109132454Y-157869169D01*
X109302722Y-157788816D01*
X109308376Y-157783473D01*
X109451039Y-157716085D01*
X109727277Y-157674818D01*
X110154078Y-157657217D01*
X110185180Y-157656857D01*
X110585226Y-157644598D01*
X110844716Y-157614599D01*
X110992479Y-157562288D01*
X111037041Y-157521717D01*
X111195025Y-157415469D01*
X111307597Y-157394333D01*
X111524117Y-157363945D01*
X111701744Y-157311762D01*
X111839881Y-157235643D01*
X111903486Y-157109096D01*
X111919601Y-156875194D01*
X111919649Y-156853020D01*
X111911245Y-156543024D01*
X111863837Y-156352848D01*
X111744125Y-156253268D01*
X111518814Y-156215063D01*
X111185820Y-156209000D01*
X110837328Y-156217810D01*
X110626997Y-156248103D01*
X110523819Y-156305675D01*
X110506222Y-156336000D01*
X110433150Y-156407072D01*
X110261422Y-156447179D01*
X109959962Y-156462379D01*
X109854774Y-156463000D01*
X109540499Y-156456891D01*
X109373522Y-156435553D01*
X109331582Y-156394468D01*
X109354164Y-156361399D01*
X109437246Y-156198413D01*
X109456104Y-156069934D01*
X109480803Y-155946670D01*
X109585003Y-155883788D01*
X109813755Y-155854034D01*
X110049616Y-155820790D01*
X110168919Y-155745808D01*
X110220606Y-155616333D01*
X110261586Y-155531666D01*
X112089549Y-155531666D01*
X112110514Y-155788460D01*
X112163353Y-155979511D01*
X112191488Y-156022733D01*
X112331406Y-156078149D01*
X112594053Y-156114177D01*
X112868098Y-156124333D01*
X113183107Y-156117552D01*
X113372633Y-156089262D01*
X113480822Y-156027539D01*
X113540250Y-155942794D01*
X113593850Y-155736142D01*
X113593848Y-155471044D01*
X113548073Y-155216010D01*
X113464357Y-155039550D01*
X113433950Y-155012760D01*
X113270394Y-154965759D01*
X113009189Y-154943676D01*
X112710109Y-154945170D01*
X112432928Y-154968904D01*
X112237419Y-155013537D01*
X112191488Y-155040600D01*
X112129744Y-155182239D01*
X112093522Y-155420215D01*
X112089549Y-155531666D01*
X110261586Y-155531666D01*
X110295444Y-155461715D01*
X110459749Y-155390483D01*
X110563449Y-155376582D01*
X110794539Y-155333039D01*
X110957096Y-155265434D01*
X110963622Y-155260382D01*
X111031736Y-155118030D01*
X111064331Y-154878547D01*
X111061086Y-154610460D01*
X111021682Y-154382296D01*
X110968211Y-154278600D01*
X110828294Y-154219293D01*
X110587058Y-154182689D01*
X110441522Y-154177000D01*
X110194957Y-154168392D01*
X110094388Y-154137689D01*
X110116558Y-154077571D01*
X110118712Y-154075399D01*
X110174384Y-153939673D01*
X110211411Y-153695663D01*
X110220652Y-153482733D01*
X110233944Y-153219106D01*
X110268447Y-153041109D01*
X110305602Y-152991666D01*
X110371308Y-153063596D01*
X110390552Y-153187151D01*
X110440767Y-153416886D01*
X110505537Y-153539362D01*
X110573368Y-153609630D01*
X110674080Y-153651346D01*
X110842251Y-153668142D01*
X111112459Y-153663653D01*
X111492920Y-153643118D01*
X111990487Y-153602760D01*
X112342147Y-153543385D01*
X112571779Y-153452170D01*
X112703262Y-153316291D01*
X112760474Y-153122926D01*
X112769147Y-152957748D01*
X112751911Y-152702859D01*
X112681804Y-152536082D01*
X112531228Y-152442103D01*
X112272586Y-152405611D01*
X111878281Y-152411294D01*
X111791939Y-152415553D01*
X111070151Y-152453311D01*
X111070151Y-152217467D01*
X110999852Y-151984463D01*
X110790521Y-151847005D01*
X110481086Y-151806333D01*
X110297742Y-151786182D01*
X110229113Y-151692161D01*
X110220652Y-151561391D01*
X110203953Y-151408776D01*
X110134786Y-151308266D01*
X109984546Y-151249296D01*
X109724628Y-151221299D01*
X109326428Y-151213709D01*
X109279256Y-151213666D01*
X108945211Y-151203670D01*
X108710777Y-151176416D01*
X108608528Y-151136003D01*
X108606605Y-151129000D01*
X108681995Y-151076097D01*
X108870441Y-151046562D01*
X108948226Y-151044333D01*
X109189381Y-151023128D01*
X109323693Y-150941322D01*
X109380024Y-150847074D01*
X109435536Y-150749101D01*
X109517041Y-150693515D01*
X109664197Y-150672069D01*
X109916663Y-150676517D01*
X110142173Y-150688586D01*
X110556914Y-150698341D01*
X110830946Y-150662910D01*
X110990081Y-150570705D01*
X111060134Y-150410136D01*
X111070151Y-150271966D01*
X111085758Y-150112769D01*
X111165665Y-150044073D01*
X111359495Y-150028424D01*
X111392960Y-150028333D01*
X111630806Y-150003059D01*
X111800444Y-149940831D01*
X111817709Y-149926733D01*
X111884988Y-149770455D01*
X111915064Y-149520529D01*
X111907936Y-149248528D01*
X111863605Y-149026028D01*
X111817709Y-148944599D01*
X111679922Y-148889215D01*
X111427193Y-148852709D01*
X111186653Y-148843000D01*
X110795670Y-148871030D01*
X110546339Y-148963212D01*
X110418627Y-149131683D01*
X110390552Y-149325297D01*
X110373163Y-149470974D01*
X110286727Y-149511800D01*
X110125084Y-149488583D01*
X109864864Y-149449712D01*
X109657860Y-149435666D01*
X109513110Y-149406027D01*
X109460398Y-149283728D01*
X109456104Y-149181666D01*
X109477710Y-149001303D01*
X109575886Y-148934932D01*
X109694717Y-148927666D01*
X109987658Y-148864908D01*
X110181250Y-148692797D01*
X110235483Y-148546666D01*
X110295818Y-148431545D01*
X110454344Y-148364675D01*
X110646161Y-148335000D01*
X111027676Y-148292666D01*
X111054000Y-147829571D01*
X111046360Y-147494625D01*
X110958616Y-147287838D01*
X110763210Y-147180472D01*
X110432582Y-147143793D01*
X110395553Y-147142982D01*
X110191128Y-147131180D01*
X110101575Y-147108550D01*
X110114465Y-147093593D01*
X110182242Y-146979488D01*
X110216796Y-146715138D01*
X110220652Y-146549944D01*
X110238632Y-146233302D01*
X110290947Y-146074619D01*
X110375160Y-146077067D01*
X110475502Y-146218333D01*
X110550377Y-146310784D01*
X110678579Y-146362452D01*
X110903126Y-146384280D01*
X111141099Y-146387666D01*
X111469500Y-146372759D01*
X111713461Y-146332715D01*
X111817709Y-146286066D01*
X111884988Y-146129789D01*
X111915064Y-145879862D01*
X111907936Y-145607861D01*
X111863605Y-145385361D01*
X111817709Y-145303933D01*
X111668414Y-145235161D01*
X111439924Y-145202712D01*
X111413394Y-145202333D01*
X111141531Y-145154619D01*
X111008214Y-145038264D01*
X110827800Y-144901236D01*
X110584268Y-144847764D01*
X110365863Y-144811081D01*
X110264427Y-144725748D01*
X110233750Y-144609666D01*
X110156999Y-144358637D01*
X109992683Y-144226402D01*
X109706765Y-144186391D01*
X109691463Y-144186333D01*
X109475819Y-144173831D01*
X109395117Y-144125809D01*
X109404540Y-144052408D01*
X109451636Y-143845662D01*
X109456002Y-143777241D01*
X109477292Y-143710119D01*
X109561704Y-143668006D01*
X109739873Y-143645395D01*
X110042437Y-143636780D01*
X110241788Y-143636000D01*
X111027676Y-143636000D01*
X111053353Y-143191500D01*
X111079029Y-142747000D01*
X111371914Y-142747000D01*
X111669452Y-142686152D01*
X111834699Y-142577666D01*
X112069020Y-142443349D01*
X112284933Y-142408333D01*
X112556987Y-142366915D01*
X112710166Y-142226039D01*
X112767226Y-141960775D01*
X112769147Y-141877833D01*
X112750229Y-141565820D01*
X112672803Y-141371014D01*
X112505864Y-141266938D01*
X112218403Y-141227112D01*
X112002330Y-141223000D01*
X111677205Y-141230479D01*
X111478204Y-141259945D01*
X111361938Y-141321938D01*
X111305285Y-141392333D01*
X111149638Y-141522166D01*
X110882805Y-141561666D01*
X110622907Y-141605058D01*
X110467109Y-141750319D01*
X110398021Y-142020077D01*
X110390552Y-142202178D01*
X110390552Y-142515155D01*
X110071990Y-142462676D01*
X109824322Y-142427490D01*
X109632937Y-142409737D01*
X109614408Y-142409265D01*
X109493447Y-142330256D01*
X109438590Y-142158455D01*
X109427375Y-141998571D01*
X109485479Y-141922042D01*
X109655843Y-141890543D01*
X109746876Y-141883288D01*
X109992800Y-141841698D01*
X110135965Y-141739040D01*
X110203416Y-141625166D01*
X110329337Y-141452743D01*
X110522424Y-141394318D01*
X110590572Y-141392333D01*
X110814275Y-141362744D01*
X110967422Y-141291511D01*
X110968211Y-141290733D01*
X111035490Y-141134455D01*
X111065566Y-140884529D01*
X111058438Y-140612528D01*
X111014106Y-140390028D01*
X110968211Y-140308599D01*
X110832636Y-140256006D01*
X110587396Y-140221265D01*
X110292021Y-140206850D01*
X110006044Y-140215237D01*
X109788996Y-140248900D01*
X109760376Y-140258391D01*
X109645838Y-140376530D01*
X109626003Y-140465061D01*
X109582808Y-140633852D01*
X109482481Y-140664077D01*
X109372427Y-140548038D01*
X109251236Y-140425313D01*
X109033598Y-140378582D01*
X108943416Y-140376333D01*
X108697963Y-140362402D01*
X108605553Y-140326739D01*
X108652189Y-140278535D01*
X108823871Y-140226984D01*
X109106602Y-140181276D01*
X109264967Y-140165180D01*
X109674818Y-140128776D01*
X109945634Y-140090497D01*
X110107401Y-140031268D01*
X110190106Y-139932019D01*
X110223734Y-139773676D01*
X110237782Y-139546427D01*
X110263127Y-139064000D01*
X110911659Y-139093388D01*
X111343050Y-139099981D01*
X111633166Y-139063706D01*
X111808255Y-138969924D01*
X111894564Y-138803991D01*
X111918340Y-138551269D01*
X111918348Y-138531854D01*
X111904423Y-138271896D01*
X111870744Y-138077309D01*
X111851654Y-138030110D01*
X111730751Y-137973197D01*
X111461583Y-137929065D01*
X111065523Y-137901090D01*
X111024694Y-137899492D01*
X110263127Y-137871431D01*
X110236604Y-137621048D01*
X110139700Y-137347268D01*
X109923627Y-137192972D01*
X109694717Y-137159000D01*
X109523414Y-137134893D01*
X109461930Y-137026870D01*
X109456104Y-136913006D01*
X109456104Y-136667012D01*
X110133769Y-136713305D01*
X110538629Y-136729010D01*
X110800498Y-136708801D01*
X110940792Y-136652599D01*
X111022042Y-136500428D01*
X111064200Y-136255158D01*
X111064479Y-136204381D01*
X111244388Y-136204381D01*
X111252611Y-136473934D01*
X111312626Y-136679597D01*
X111341990Y-136718733D01*
X111481307Y-136774155D01*
X111741038Y-136810321D01*
X112004599Y-136820333D01*
X112325661Y-136805164D01*
X112565865Y-136764673D01*
X112667207Y-136718733D01*
X112743702Y-136547655D01*
X112767650Y-136289969D01*
X112741497Y-136019282D01*
X112667683Y-135809207D01*
X112635655Y-135768047D01*
X112447666Y-135675501D01*
X112115650Y-135636674D01*
X112004599Y-135635000D01*
X111632977Y-135660438D01*
X111409150Y-135738802D01*
X111373543Y-135768047D01*
X111285512Y-135944549D01*
X111244388Y-136204381D01*
X111064479Y-136204381D01*
X111065684Y-135984835D01*
X111024916Y-135757502D01*
X110963963Y-135654749D01*
X110833794Y-135607962D01*
X110581909Y-135559453D01*
X110256172Y-135517894D01*
X110156940Y-135508570D01*
X109807846Y-135473433D01*
X109596278Y-135435463D01*
X109490009Y-135384774D01*
X109456811Y-135311480D01*
X109456104Y-135293568D01*
X109398765Y-135109736D01*
X109322611Y-135006047D01*
X109257378Y-134924854D01*
X109295401Y-134885699D01*
X109464574Y-134873611D01*
X109570513Y-134873000D01*
X109917685Y-134855083D01*
X110123170Y-134794574D01*
X110212034Y-134681330D01*
X110220652Y-134609941D01*
X110268994Y-134477558D01*
X110331019Y-134449666D01*
X110405917Y-134518178D01*
X110408465Y-134730627D01*
X110407804Y-134736360D01*
X110412179Y-134990379D01*
X110469681Y-135200818D01*
X110470326Y-135202027D01*
X110540512Y-135295606D01*
X110653495Y-135349722D01*
X110851005Y-135374732D01*
X111174771Y-135380993D01*
X111191475Y-135381000D01*
X111543075Y-135373417D01*
X111758275Y-135331124D01*
X111870491Y-135224800D01*
X111913135Y-135025125D01*
X111919649Y-134742054D01*
X111879611Y-134446873D01*
X111743112Y-134274479D01*
X111485579Y-134201905D01*
X111335024Y-134195666D01*
X111185595Y-134186100D01*
X111106351Y-134129027D01*
X111070321Y-133981886D01*
X111053353Y-133751166D01*
X111027676Y-133306666D01*
X110368575Y-133281925D01*
X110036416Y-133272184D01*
X109834111Y-133280878D01*
X109721792Y-133318669D01*
X109659593Y-133396220D01*
X109624084Y-133481032D01*
X109533178Y-133636770D01*
X109414989Y-133649608D01*
X109391211Y-133640237D01*
X109209312Y-133587086D01*
X108958690Y-133542269D01*
X108925167Y-133538071D01*
X108688078Y-133486600D01*
X108615717Y-133422752D01*
X108706777Y-133369333D01*
X108936003Y-133349000D01*
X109179624Y-133318690D01*
X109350568Y-133243197D01*
X109367368Y-133226545D01*
X109512396Y-133143218D01*
X109748153Y-133086361D01*
X109823757Y-133078379D01*
X110178177Y-133052666D01*
X110229131Y-132079000D01*
X110559874Y-132079000D01*
X110845008Y-132037765D01*
X111005294Y-131915821D01*
X111194714Y-131781610D01*
X111456098Y-131725321D01*
X111713975Y-131672837D01*
X111852854Y-131554293D01*
X111872204Y-131516473D01*
X112009904Y-131368993D01*
X112277652Y-131291470D01*
X112287959Y-131290059D01*
X112569600Y-131218205D01*
X112718307Y-131075603D01*
X112767124Y-130827670D01*
X112767846Y-130787833D01*
X112790254Y-130626658D01*
X112889894Y-130563435D01*
X113045234Y-130553703D01*
X113273399Y-130531864D01*
X113433950Y-130481239D01*
X113527249Y-130340563D01*
X113584887Y-130101351D01*
X113599035Y-129832112D01*
X113561862Y-129601357D01*
X113540250Y-129551205D01*
X113466550Y-129453337D01*
X113348522Y-129398289D01*
X113142333Y-129374335D01*
X112861510Y-129369666D01*
X112501380Y-129382907D01*
X112275461Y-129436279D01*
X112149212Y-129550252D01*
X112088092Y-129745299D01*
X112075828Y-129835333D01*
X112037195Y-130002535D01*
X111936630Y-130086594D01*
X111721439Y-130129880D01*
X111707274Y-130131666D01*
X111443460Y-130198491D01*
X111300480Y-130330635D01*
X111283619Y-130364500D01*
X111164431Y-130508739D01*
X110949053Y-130554698D01*
X110921750Y-130555000D01*
X110646588Y-130614184D01*
X110501992Y-130719996D01*
X110355386Y-130837838D01*
X110260257Y-130795694D01*
X110221347Y-130596378D01*
X110220652Y-130552982D01*
X110150341Y-130312402D01*
X109946457Y-130169751D01*
X109683705Y-130131666D01*
X109528245Y-130096851D01*
X109453688Y-129960316D01*
X109436913Y-129870395D01*
X109422427Y-129692920D01*
X109477961Y-129640577D01*
X109618408Y-129666816D01*
X110017998Y-129743016D01*
X110411067Y-129769639D01*
X110734754Y-129744198D01*
X110840792Y-129715190D01*
X110974421Y-129653065D01*
X111042301Y-129565595D01*
X111062295Y-129404175D01*
X111053167Y-129137317D01*
X111027676Y-128650000D01*
X110645401Y-128623488D01*
X110395924Y-128590852D01*
X110218181Y-128539931D01*
X110182425Y-128517654D01*
X110050184Y-128465538D01*
X109828173Y-128439137D01*
X109781902Y-128438333D01*
X109527142Y-128405001D01*
X109384784Y-128292264D01*
X109371154Y-128269000D01*
X109248900Y-128147477D01*
X109027362Y-128101613D01*
X108943416Y-128099666D01*
X108697963Y-128085736D01*
X108605553Y-128050072D01*
X108652189Y-128001869D01*
X108823871Y-127950317D01*
X109106602Y-127904610D01*
X109264967Y-127888514D01*
X109672635Y-127850499D01*
X109942940Y-127812804D01*
X110108078Y-127765066D01*
X110200248Y-127696922D01*
X110251646Y-127598009D01*
X110261760Y-127567695D01*
X110305876Y-127454317D01*
X110340605Y-127479993D01*
X110384800Y-127641390D01*
X110448498Y-127857379D01*
X110509434Y-128001223D01*
X110625630Y-128056284D01*
X110855507Y-128088933D01*
X111144361Y-128099302D01*
X111437486Y-128087522D01*
X111680177Y-128053726D01*
X111817709Y-127998066D01*
X111884988Y-127841789D01*
X111915064Y-127591862D01*
X111907936Y-127319861D01*
X111863605Y-127097361D01*
X111817709Y-127015933D01*
X111670305Y-126949055D01*
X111438739Y-126915315D01*
X111392960Y-126914333D01*
X111182027Y-126902553D01*
X111091006Y-126842245D01*
X111070272Y-126695957D01*
X111070151Y-126670700D01*
X111035753Y-126452776D01*
X110915415Y-126319687D01*
X110683416Y-126257661D01*
X110314034Y-126252927D01*
X110291782Y-126253934D01*
X109988328Y-126276278D01*
X109809934Y-126317732D01*
X109711797Y-126393840D01*
X109669572Y-126469833D01*
X109520878Y-126629346D01*
X109361629Y-126660333D01*
X109108177Y-126677779D01*
X108872074Y-126713250D01*
X108669897Y-126727083D01*
X108606605Y-126670916D01*
X108681134Y-126607454D01*
X108863934Y-126576313D01*
X108897862Y-126575666D01*
X109173124Y-126523202D01*
X109374821Y-126387229D01*
X109456020Y-126199879D01*
X109456104Y-126193487D01*
X109537793Y-126104487D01*
X109777591Y-126054613D01*
X109817141Y-126051368D01*
X110178177Y-126025333D01*
X110203854Y-125580833D01*
X110224296Y-125322329D01*
X110264783Y-125190457D01*
X110352285Y-125142655D01*
X110485526Y-125136333D01*
X110816596Y-125087894D01*
X110834935Y-125074030D01*
X111241547Y-125074030D01*
X111267701Y-125344717D01*
X111341514Y-125554792D01*
X111373543Y-125595952D01*
X111561531Y-125688498D01*
X111893547Y-125727325D01*
X112004599Y-125729000D01*
X112376221Y-125703561D01*
X112600048Y-125625197D01*
X112635655Y-125595952D01*
X112723685Y-125419450D01*
X112764810Y-125159618D01*
X112756586Y-124890065D01*
X112696571Y-124684402D01*
X112667207Y-124645266D01*
X112527890Y-124589844D01*
X112268160Y-124553678D01*
X112004599Y-124543666D01*
X111683537Y-124558835D01*
X111443333Y-124599326D01*
X111341990Y-124645266D01*
X111265496Y-124816344D01*
X111241547Y-125074030D01*
X110834935Y-125074030D01*
X111010525Y-124941288D01*
X111070151Y-124710021D01*
X111084999Y-124546099D01*
X111162715Y-124475364D01*
X111353053Y-124459126D01*
X111392960Y-124459000D01*
X111630806Y-124433725D01*
X111800444Y-124371498D01*
X111817709Y-124357399D01*
X111884988Y-124201122D01*
X111915064Y-123951196D01*
X111907936Y-123679195D01*
X111863605Y-123456694D01*
X111817709Y-123375266D01*
X111677791Y-123319850D01*
X111415145Y-123283822D01*
X111141099Y-123273666D01*
X110775787Y-123292915D01*
X110548365Y-123364031D01*
X110429848Y-123507073D01*
X110391250Y-123742097D01*
X110390552Y-123793033D01*
X110369745Y-123920394D01*
X110320519Y-123913762D01*
X110262668Y-123801517D01*
X110215985Y-123612039D01*
X110205471Y-123527666D01*
X110176197Y-123340581D01*
X110100196Y-123250251D01*
X109926224Y-123214135D01*
X109817141Y-123205298D01*
X109577952Y-123170424D01*
X109471429Y-123099986D01*
X109456104Y-123031731D01*
X109385326Y-122822682D01*
X109172870Y-122706819D01*
X108922336Y-122681000D01*
X108697635Y-122660765D01*
X108626778Y-122597280D01*
X108631382Y-122575166D01*
X108732341Y-122499089D01*
X108787124Y-122503216D01*
X109153430Y-122590991D01*
X109567094Y-122661058D01*
X109988532Y-122710212D01*
X110378162Y-122735249D01*
X110696402Y-122732964D01*
X110903668Y-122700154D01*
X110946333Y-122678016D01*
X111024944Y-122526316D01*
X111064596Y-122279059D01*
X111063759Y-122005860D01*
X111020905Y-121776335D01*
X110968211Y-121681933D01*
X110820358Y-121614605D01*
X110589496Y-121581148D01*
X110548475Y-121580333D01*
X110330042Y-121562304D01*
X110195754Y-121517788D01*
X110184759Y-121506280D01*
X110080780Y-121455493D01*
X109888508Y-121411000D01*
X112089549Y-121411000D01*
X112110514Y-121667793D01*
X112163353Y-121858845D01*
X112191488Y-121902066D01*
X112323492Y-121949486D01*
X112580772Y-121982732D01*
X112919306Y-122001804D01*
X113295065Y-122006702D01*
X113664025Y-121997426D01*
X113982161Y-121973976D01*
X114205445Y-121936352D01*
X114281254Y-121902066D01*
X114342999Y-121760427D01*
X114379221Y-121522451D01*
X114383194Y-121411000D01*
X114362228Y-121154206D01*
X114309389Y-120963154D01*
X114281254Y-120919933D01*
X114135085Y-120866946D01*
X113825151Y-120833067D01*
X113356558Y-120818793D01*
X113236371Y-120818333D01*
X112734545Y-120828354D01*
X112390287Y-120858086D01*
X112208704Y-120907033D01*
X112191488Y-120919933D01*
X112129744Y-121061572D01*
X112093522Y-121299548D01*
X112089549Y-121411000D01*
X109888508Y-121411000D01*
X109863742Y-121405269D01*
X109691284Y-121380044D01*
X109207496Y-121318474D01*
X108876786Y-121263351D01*
X108682625Y-121211136D01*
X108608487Y-121158289D01*
X108606605Y-121147736D01*
X108681837Y-121099908D01*
X108869104Y-121073906D01*
X108936003Y-121072333D01*
X109189583Y-121039620D01*
X109360750Y-120956491D01*
X109371154Y-120945333D01*
X109530466Y-120857596D01*
X109784752Y-120818732D01*
X109814258Y-120818333D01*
X110048141Y-120798579D01*
X110163876Y-120724938D01*
X110196038Y-120649000D01*
X110269303Y-120505186D01*
X110387943Y-120508877D01*
X110560452Y-120649000D01*
X110741730Y-120765240D01*
X111010481Y-120814191D01*
X111160685Y-120818333D01*
X111541370Y-120792392D01*
X111780110Y-120706707D01*
X111897906Y-120549480D01*
X111919649Y-120392021D01*
X111934498Y-120228099D01*
X112012214Y-120157364D01*
X112202551Y-120141126D01*
X112242458Y-120141000D01*
X112535811Y-120104243D01*
X112700906Y-119975469D01*
X112765298Y-119726924D01*
X112769147Y-119610500D01*
X112749489Y-119295656D01*
X112669751Y-119100216D01*
X112498789Y-118997006D01*
X112205457Y-118958853D01*
X112018600Y-118955666D01*
X111645579Y-118971534D01*
X111410907Y-119030746D01*
X111285034Y-119150715D01*
X111238412Y-119348855D01*
X111235594Y-119417100D01*
X111231139Y-119675333D01*
X111097808Y-119484833D01*
X111009348Y-119385690D01*
X110887602Y-119328189D01*
X110688478Y-119301394D01*
X110367888Y-119294369D01*
X110329762Y-119294333D01*
X110000959Y-119299228D01*
X109804108Y-119320198D01*
X109701394Y-119366673D01*
X109654999Y-119448081D01*
X109650618Y-119463666D01*
X109561406Y-119601319D01*
X109479582Y-119633000D01*
X109392600Y-119578741D01*
X109404540Y-119499075D01*
X109450296Y-119295109D01*
X109456104Y-119207610D01*
X109492842Y-119102076D01*
X109629664Y-119045791D01*
X109817141Y-119024034D01*
X110178177Y-118998000D01*
X110229531Y-118109000D01*
X110547901Y-118109000D01*
X110823629Y-118077471D01*
X110985169Y-117962977D01*
X111058107Y-117735653D01*
X111070151Y-117499399D01*
X111070151Y-117093000D01*
X111443336Y-117093000D01*
X111685775Y-117075929D01*
X111828961Y-117001850D01*
X111898264Y-116836456D01*
X111919057Y-116545444D01*
X111919649Y-116448979D01*
X111905877Y-116205294D01*
X111846534Y-116073005D01*
X111714579Y-115995184D01*
X111701744Y-115990237D01*
X111477069Y-115937798D01*
X111187294Y-115909354D01*
X111107095Y-115907666D01*
X110742466Y-115961472D01*
X110508872Y-116123019D01*
X110406118Y-116392498D01*
X110405962Y-116593889D01*
X110405112Y-116818919D01*
X110360713Y-116895904D01*
X110296549Y-116832267D01*
X110236404Y-116635432D01*
X110220652Y-116536048D01*
X110181189Y-116321804D01*
X110099695Y-116221764D01*
X109920697Y-116183700D01*
X109838756Y-116176482D01*
X109559098Y-116113298D01*
X109354147Y-115993357D01*
X109346985Y-115985982D01*
X109118348Y-115855072D01*
X108841156Y-115823000D01*
X108624828Y-115808072D01*
X108560468Y-115770262D01*
X108633471Y-115720034D01*
X108829231Y-115667847D01*
X109116304Y-115625911D01*
X109451674Y-115610646D01*
X109670152Y-115654631D01*
X109748427Y-115699767D01*
X109952293Y-115779366D01*
X110248000Y-115817070D01*
X110564144Y-115811984D01*
X110829318Y-115763214D01*
X110931576Y-115714595D01*
X111020845Y-115607291D01*
X111057907Y-115426744D01*
X111054000Y-115143095D01*
X111027676Y-114680000D01*
X110697216Y-114653015D01*
X110421656Y-114600059D01*
X110184732Y-114506241D01*
X110163007Y-114492974D01*
X110010899Y-114423639D01*
X109800098Y-114392157D01*
X109486810Y-114394206D01*
X109282931Y-114406119D01*
X108960335Y-114419275D01*
X108724118Y-114411561D01*
X108611239Y-114384641D01*
X108606605Y-114375660D01*
X108682093Y-114328072D01*
X108871119Y-114301210D01*
X108953784Y-114299000D01*
X109185197Y-114283484D01*
X109311171Y-114212724D01*
X109395103Y-114050403D01*
X109397157Y-114045000D01*
X109486933Y-113873715D01*
X109622962Y-113802975D01*
X109811538Y-113791000D01*
X110066106Y-113757160D01*
X110208270Y-113642960D01*
X110220652Y-113621666D01*
X110304621Y-113522515D01*
X110450864Y-113470820D01*
X110706099Y-113453064D01*
X110805820Y-113452333D01*
X111300060Y-113452333D01*
X111259289Y-113875229D01*
X111248259Y-114189631D01*
X111306380Y-114389927D01*
X111460662Y-114500680D01*
X111738116Y-114546453D01*
X112004599Y-114553000D01*
X112379088Y-114536879D01*
X112612412Y-114472140D01*
X112731582Y-114334221D01*
X112763609Y-114098557D01*
X112749908Y-113875229D01*
X112709137Y-113452333D01*
X113075953Y-113452333D01*
X113372979Y-113407304D01*
X113546613Y-113261912D01*
X113608227Y-113000694D01*
X113592155Y-112750592D01*
X113539546Y-112508343D01*
X113437459Y-112363379D01*
X113248818Y-112291637D01*
X112936551Y-112269053D01*
X112849096Y-112268296D01*
X112476793Y-112288945D01*
X112244461Y-112368695D01*
X112126080Y-112530538D01*
X112095630Y-112797463D01*
X112101534Y-112928825D01*
X112109619Y-113194933D01*
X112080936Y-113329476D01*
X112007693Y-113367742D01*
X112004599Y-113367771D01*
X111929837Y-113331947D01*
X111899878Y-113200950D01*
X111906931Y-112939492D01*
X111907663Y-112928825D01*
X111913673Y-112671214D01*
X111873766Y-112490488D01*
X111763663Y-112373179D01*
X111559085Y-112305815D01*
X111235755Y-112274926D01*
X110769393Y-112267041D01*
X110714835Y-112267000D01*
X110304131Y-112269912D01*
X110030001Y-112282320D01*
X109859164Y-112309728D01*
X109758342Y-112357643D01*
X109694255Y-112431569D01*
X109691239Y-112436333D01*
X109568127Y-112583737D01*
X109488732Y-112567889D01*
X109456622Y-112390074D01*
X109456104Y-112351666D01*
X109478648Y-112170447D01*
X109575925Y-112104034D01*
X109674063Y-112097666D01*
X109975017Y-112055094D01*
X110148760Y-111912520D01*
X110217307Y-111647660D01*
X110220652Y-111544354D01*
X110227522Y-111311405D01*
X110271051Y-111201534D01*
X110385624Y-111168504D01*
X110501740Y-111166333D01*
X110797703Y-111132165D01*
X110973719Y-111012572D01*
X111050613Y-110781913D01*
X111054000Y-110486428D01*
X111027676Y-110023333D01*
X110645401Y-109981000D01*
X110410117Y-109947028D01*
X110294645Y-109883667D01*
X110249687Y-109745220D01*
X110235561Y-109601098D01*
X110197205Y-109373253D01*
X110136029Y-109225423D01*
X110117824Y-109207987D01*
X109995888Y-109175725D01*
X109750542Y-109138607D01*
X109427887Y-109103225D01*
X109317129Y-109093454D01*
X108931621Y-109051474D01*
X108697981Y-109003852D01*
X108620689Y-108953505D01*
X108704227Y-108903352D01*
X108953015Y-108856320D01*
X109203954Y-108790052D01*
X109392553Y-108683682D01*
X109420301Y-108654672D01*
X109518773Y-108548469D01*
X109585796Y-108578575D01*
X109630287Y-108647500D01*
X109773002Y-108756864D01*
X110042474Y-108795347D01*
X110078456Y-108795666D01*
X110437517Y-108795666D01*
X110406009Y-109124954D01*
X110400786Y-109446340D01*
X110475933Y-109651738D01*
X110656529Y-109764577D01*
X110967655Y-109808287D01*
X111141099Y-109811666D01*
X111513593Y-109796037D01*
X111747502Y-109736988D01*
X111872254Y-109616279D01*
X111917274Y-109415670D01*
X111919649Y-109329066D01*
X111934504Y-109140351D01*
X112013994Y-109063970D01*
X112210509Y-109049666D01*
X112210905Y-109049666D01*
X112450673Y-109012177D01*
X112630590Y-108921474D01*
X112635655Y-108916619D01*
X112723685Y-108740117D01*
X112764810Y-108480285D01*
X112756586Y-108210732D01*
X112696571Y-108005068D01*
X112667207Y-107965933D01*
X112522706Y-107908157D01*
X112268685Y-107874773D01*
X111963749Y-107865779D01*
X111666506Y-107881176D01*
X111435564Y-107920964D01*
X111341990Y-107965933D01*
X111270751Y-108116958D01*
X111240075Y-108340668D01*
X111240050Y-108346933D01*
X111217517Y-108535966D01*
X111162524Y-108625268D01*
X111155100Y-108626333D01*
X111105795Y-108550366D01*
X111075145Y-108356902D01*
X111070151Y-108219933D01*
X111043013Y-107897791D01*
X110944859Y-107709035D01*
X110750580Y-107624019D01*
X110553863Y-107610333D01*
X110314400Y-107577129D01*
X110146758Y-107495070D01*
X110135702Y-107483333D01*
X109981745Y-107397057D01*
X109744533Y-107356839D01*
X109715264Y-107356333D01*
X109510170Y-107346401D01*
X109430503Y-107289519D01*
X109431912Y-107145058D01*
X109437983Y-107102333D01*
X109442171Y-107088039D01*
X112955606Y-107088039D01*
X112958737Y-107382622D01*
X112998879Y-107599706D01*
X113029720Y-107659539D01*
X113171867Y-107727954D01*
X113421791Y-107768642D01*
X113719517Y-107780716D01*
X114005069Y-107763287D01*
X114218474Y-107715468D01*
X114281254Y-107678066D01*
X114351791Y-107518382D01*
X114380883Y-107268304D01*
X114369776Y-106997186D01*
X114319716Y-106774383D01*
X114263416Y-106685324D01*
X114103335Y-106631300D01*
X113812195Y-106607989D01*
X113562580Y-106611457D01*
X112981522Y-106636666D01*
X112955606Y-107088039D01*
X109442171Y-107088039D01*
X109491397Y-106920035D01*
X109614659Y-106854099D01*
X109720595Y-106848333D01*
X109964427Y-106789775D01*
X110135702Y-106679000D01*
X110349996Y-106551539D01*
X110560452Y-106509666D01*
X110809886Y-106452254D01*
X110985201Y-106340333D01*
X111219521Y-106206016D01*
X111435435Y-106171000D01*
X111660539Y-106141900D01*
X111815363Y-106071668D01*
X111817709Y-106069400D01*
X111884988Y-105913122D01*
X111915064Y-105663196D01*
X111907936Y-105391195D01*
X111863605Y-105168694D01*
X111817709Y-105087266D01*
X111677791Y-105031850D01*
X111415145Y-104995822D01*
X111141099Y-104985666D01*
X110823353Y-104993101D01*
X110632113Y-105022702D01*
X110524360Y-105085414D01*
X110475502Y-105155000D01*
X110348503Y-105278841D01*
X110118235Y-105323269D01*
X110058125Y-105324333D01*
X109796048Y-105358168D01*
X109632449Y-105476602D01*
X109605529Y-105513687D01*
X109522196Y-105627455D01*
X109479525Y-105618850D01*
X109452050Y-105468056D01*
X109442326Y-105386687D01*
X109426782Y-105179967D01*
X109475329Y-105091318D01*
X109631493Y-105070721D01*
X109717610Y-105070333D01*
X109981819Y-105037460D01*
X110138270Y-104917480D01*
X110217060Y-104678355D01*
X110235560Y-104518926D01*
X110265495Y-104300532D01*
X110293044Y-104262054D01*
X112089549Y-104262054D01*
X112098190Y-104570570D01*
X112146389Y-104759400D01*
X112267561Y-104857865D01*
X112495120Y-104895284D01*
X112817722Y-104901000D01*
X113151110Y-104894521D01*
X113355330Y-104868894D01*
X113470824Y-104814827D01*
X113530707Y-104737232D01*
X113612920Y-104446068D01*
X113586657Y-104140346D01*
X113459204Y-103895824D01*
X113448746Y-103885000D01*
X113267467Y-103768759D01*
X112998716Y-103719808D01*
X112848512Y-103715666D01*
X112480827Y-103735827D01*
X112251027Y-103810069D01*
X112130445Y-103959030D01*
X112090414Y-104203348D01*
X112089549Y-104262054D01*
X110293044Y-104262054D01*
X110338681Y-104198313D01*
X110502260Y-104159155D01*
X110560110Y-104153248D01*
X110839477Y-104097894D01*
X110996432Y-103973659D01*
X111061905Y-103743737D01*
X111070151Y-103546333D01*
X111043734Y-103237825D01*
X110943866Y-103056457D01*
X110739615Y-102965424D01*
X110560110Y-102939417D01*
X110372506Y-102909567D01*
X110281962Y-102833212D01*
X110245764Y-102659121D01*
X110237025Y-102551896D01*
X110201615Y-102338414D01*
X110113863Y-102200389D01*
X109945947Y-102126664D01*
X109670042Y-102106086D01*
X109258328Y-102127499D01*
X109191961Y-102132903D01*
X108881269Y-102148152D01*
X108675336Y-102136206D01*
X108606605Y-102102073D01*
X108682040Y-102052381D01*
X108870735Y-102024513D01*
X108950506Y-102022333D01*
X109183537Y-102005165D01*
X109313236Y-101929872D01*
X109397920Y-101776966D01*
X109476600Y-101612445D01*
X109552201Y-101586530D01*
X109687399Y-101681686D01*
X109700555Y-101692299D01*
X109932203Y-101812411D01*
X110145113Y-101853000D01*
X110327406Y-101881927D01*
X110389002Y-101988114D01*
X110390552Y-102022333D01*
X110466512Y-102246212D01*
X110658579Y-102429143D01*
X110913032Y-102525231D01*
X110985201Y-102530333D01*
X111144477Y-102542233D01*
X111218149Y-102609230D01*
X111239081Y-102778273D01*
X111240050Y-102894400D01*
X111262471Y-103143887D01*
X111318536Y-103326901D01*
X111341990Y-103360066D01*
X111481908Y-103415482D01*
X111744554Y-103451510D01*
X112018600Y-103461666D01*
X112379463Y-103444515D01*
X112603470Y-103374946D01*
X112721765Y-103225785D01*
X112765495Y-102969861D01*
X112769147Y-102806832D01*
X112732654Y-102511357D01*
X112604806Y-102345068D01*
X112358046Y-102280210D01*
X112242458Y-102276333D01*
X111919649Y-102276333D01*
X111918348Y-101916500D01*
X111898912Y-101615583D01*
X111822493Y-101442794D01*
X111657828Y-101358881D01*
X111451322Y-101330140D01*
X111230941Y-101299261D01*
X111124834Y-101223160D01*
X111077392Y-101054594D01*
X111070151Y-101006333D01*
X111027192Y-100812919D01*
X110935733Y-100722455D01*
X110739685Y-100686754D01*
X110693579Y-100682799D01*
X110415727Y-100622237D01*
X110175139Y-100509759D01*
X110151186Y-100492299D01*
X109918395Y-100371961D01*
X109699497Y-100329000D01*
X109526810Y-100306638D01*
X109463226Y-100203874D01*
X109456104Y-100075000D01*
X109477532Y-99894787D01*
X109576004Y-99828432D01*
X109699497Y-99821000D01*
X109943729Y-99767935D01*
X110158883Y-99651666D01*
X110395381Y-99528571D01*
X110627161Y-99482333D01*
X110883829Y-99430301D01*
X111031909Y-99260001D01*
X111083248Y-99059000D01*
X111129109Y-98917735D01*
X111248724Y-98848081D01*
X111451322Y-98819859D01*
X111705206Y-98777618D01*
X111846777Y-98676716D01*
X111907302Y-98477899D01*
X111918348Y-98233500D01*
X111919649Y-97873666D01*
X112242458Y-97873666D01*
X112529644Y-97839235D01*
X112693860Y-97716613D01*
X112762314Y-97476808D01*
X112769147Y-97312447D01*
X112737143Y-97010106D01*
X112623430Y-96819788D01*
X112401454Y-96719819D01*
X112044662Y-96688522D01*
X112004599Y-96688333D01*
X111632569Y-96715462D01*
X111398116Y-96810146D01*
X111275768Y-96992331D01*
X111240057Y-97281962D01*
X111240050Y-97287047D01*
X111229504Y-97501683D01*
X111172878Y-97596121D01*
X111032693Y-97619279D01*
X110985201Y-97619666D01*
X110723135Y-97684558D01*
X110509002Y-97848638D01*
X110396523Y-98066013D01*
X110390552Y-98127666D01*
X110355449Y-98246458D01*
X110220192Y-98292707D01*
X110106394Y-98297000D01*
X109814764Y-98360650D01*
X109666429Y-98468590D01*
X109556348Y-98577312D01*
X109489705Y-98564702D01*
X109415373Y-98414355D01*
X109402514Y-98383923D01*
X109309233Y-98216184D01*
X109177419Y-98143248D01*
X108950506Y-98127666D01*
X108736197Y-98110175D01*
X108616007Y-98066422D01*
X108606605Y-98047926D01*
X108685237Y-98012172D01*
X108899246Y-98002000D01*
X109191961Y-98017096D01*
X109524954Y-98034305D01*
X109819295Y-98031180D01*
X109998984Y-98010556D01*
X110137448Y-97956329D01*
X110202228Y-97850599D01*
X110220276Y-97640491D01*
X110220652Y-97575720D01*
X110227451Y-97342227D01*
X110270645Y-97231896D01*
X110384433Y-97198569D01*
X110501740Y-97196333D01*
X110797703Y-97162165D01*
X110973719Y-97042572D01*
X111050613Y-96811913D01*
X111054000Y-96516428D01*
X111027676Y-96053333D01*
X110645401Y-96011000D01*
X110410117Y-95977028D01*
X110294645Y-95913667D01*
X110285894Y-95886717D01*
X112089549Y-95886717D01*
X112115361Y-96150282D01*
X112212654Y-96314201D01*
X112411217Y-96400317D01*
X112740835Y-96430471D01*
X112832860Y-96431758D01*
X113150558Y-96411813D01*
X113358300Y-96337484D01*
X113448746Y-96265000D01*
X113581905Y-96026417D01*
X113614302Y-95722193D01*
X113538651Y-95428084D01*
X113530707Y-95412767D01*
X113459566Y-95326328D01*
X113334958Y-95276426D01*
X113116439Y-95253772D01*
X112817722Y-95249000D01*
X112466119Y-95256591D01*
X112250916Y-95298873D01*
X112138699Y-95405108D01*
X112096057Y-95604559D01*
X112089549Y-95886717D01*
X110285894Y-95886717D01*
X110249688Y-95775217D01*
X110235560Y-95631073D01*
X110182519Y-95326271D01*
X110065646Y-95155346D01*
X109854626Y-95086169D01*
X109715264Y-95079666D01*
X109510170Y-95069734D01*
X109430503Y-95012852D01*
X109431912Y-94868391D01*
X109437983Y-94825666D01*
X109493847Y-94627867D01*
X109570989Y-94578711D01*
X109652507Y-94688013D01*
X109656723Y-94698666D01*
X109783588Y-94794912D01*
X110045098Y-94825666D01*
X110302620Y-94853680D01*
X110447332Y-94950746D01*
X110475502Y-94995000D01*
X110550377Y-95087451D01*
X110678579Y-95139118D01*
X110903126Y-95160946D01*
X111141099Y-95164333D01*
X111469500Y-95149426D01*
X111713461Y-95109382D01*
X111817709Y-95062733D01*
X111878500Y-94922026D01*
X111914969Y-94682969D01*
X111919649Y-94557712D01*
X111882898Y-94245640D01*
X111755580Y-94063981D01*
X111512100Y-93986685D01*
X111351019Y-93979000D01*
X111111624Y-93913908D01*
X111004915Y-93809666D01*
X110857856Y-93683434D01*
X110604096Y-93640700D01*
X110568820Y-93640333D01*
X110305593Y-93606102D01*
X110189932Y-93513333D01*
X110062803Y-93417087D01*
X109798569Y-93386333D01*
X109574110Y-93371716D01*
X109474711Y-93314161D01*
X109456104Y-93223924D01*
X109429148Y-93011320D01*
X109404540Y-92927591D01*
X109403092Y-92864039D01*
X112955606Y-92864039D01*
X112958737Y-93158622D01*
X112998879Y-93375706D01*
X113029720Y-93435539D01*
X113171867Y-93503954D01*
X113421791Y-93544642D01*
X113719517Y-93556716D01*
X114005069Y-93539287D01*
X114218474Y-93491468D01*
X114281254Y-93454066D01*
X114351791Y-93294382D01*
X114380883Y-93044304D01*
X114369776Y-92773186D01*
X114319716Y-92550383D01*
X114263416Y-92461324D01*
X114103335Y-92407300D01*
X113812195Y-92383989D01*
X113562580Y-92387457D01*
X112981522Y-92412666D01*
X112955606Y-92864039D01*
X109403092Y-92864039D01*
X109402553Y-92840365D01*
X109508815Y-92801120D01*
X109691463Y-92793666D01*
X109952483Y-92761230D01*
X110125521Y-92677629D01*
X110135702Y-92666666D01*
X110293586Y-92573585D01*
X110491488Y-92539666D01*
X110799549Y-92504874D01*
X110980002Y-92382122D01*
X111059621Y-92143850D01*
X111070151Y-91944021D01*
X111085533Y-91703511D01*
X111124836Y-91551390D01*
X111155100Y-91523666D01*
X111212575Y-91597777D01*
X111239726Y-91778651D01*
X111240050Y-91803066D01*
X111266008Y-92035848D01*
X111363521Y-92181311D01*
X111562051Y-92258050D01*
X111891059Y-92284662D01*
X112004599Y-92285666D01*
X112373379Y-92269281D01*
X112603825Y-92207728D01*
X112725397Y-92082412D01*
X112767557Y-91874735D01*
X112769147Y-91803066D01*
X112788947Y-91613994D01*
X112837269Y-91524722D01*
X112843759Y-91523666D01*
X112952406Y-91482481D01*
X113191451Y-91364722D01*
X113544505Y-91179083D01*
X113995180Y-90934258D01*
X114527086Y-90638941D01*
X114786706Y-90492950D01*
X115232692Y-90241239D01*
X115232692Y-107621052D01*
X115232489Y-109727189D01*
X115231857Y-111669434D01*
X115230764Y-113453229D01*
X115229179Y-115084017D01*
X115227069Y-116567239D01*
X115224402Y-117908336D01*
X115221146Y-119112750D01*
X115217269Y-120185924D01*
X115212739Y-121133297D01*
X115207524Y-121960314D01*
X115201591Y-122672414D01*
X115194908Y-123275040D01*
X115187444Y-123773633D01*
X115179167Y-124173635D01*
X115170043Y-124480488D01*
X115160041Y-124699634D01*
X115149130Y-124836513D01*
X115137276Y-124896569D01*
X115130753Y-124899266D01*
X114964451Y-124814093D01*
X114854666Y-124798462D01*
X114714733Y-124840194D01*
X114462389Y-124952879D01*
X114129697Y-125118755D01*
X113748721Y-125320058D01*
X113351526Y-125539024D01*
X112970177Y-125757891D01*
X112636738Y-125958894D01*
X112383273Y-126124271D01*
X112241846Y-126236258D01*
X112227835Y-126253698D01*
X112184465Y-126480318D01*
X112221399Y-126632198D01*
X112284540Y-126741038D01*
X112412599Y-126864362D01*
X112626109Y-127016418D01*
X112945599Y-127211454D01*
X113391602Y-127463715D01*
X113527925Y-127538847D01*
X113987181Y-127788827D01*
X114324347Y-127964861D01*
X114564835Y-128077037D01*
X114734058Y-128135445D01*
X114857426Y-128150175D01*
X114960351Y-128131316D01*
X114992146Y-128120202D01*
X115232692Y-128029708D01*
X115232692Y-132002405D01*
X115232559Y-132924496D01*
X115231757Y-133691143D01*
X115229683Y-134316237D01*
X115225734Y-134813667D01*
X115219304Y-135197322D01*
X115209792Y-135481093D01*
X115196593Y-135678870D01*
X115179104Y-135804541D01*
X115156721Y-135871998D01*
X115128840Y-135895129D01*
X115094859Y-135887824D01*
X115064599Y-135870475D01*
X114886020Y-135808897D01*
X114664524Y-135853339D01*
X114639850Y-135862403D01*
X114383194Y-135958957D01*
X114383194Y-135595679D01*
X114361325Y-135330854D01*
X114276343Y-135164909D01*
X114099187Y-135078855D01*
X113800798Y-135053703D01*
X113562580Y-135059457D01*
X112981522Y-135084666D01*
X112955606Y-135536039D01*
X112959138Y-135879683D01*
X113034013Y-136090067D01*
X113204288Y-136196572D01*
X113494025Y-136228581D01*
X113522860Y-136228803D01*
X113915970Y-136229940D01*
X113116399Y-136673303D01*
X112701691Y-136910696D01*
X112421021Y-137095487D01*
X112255338Y-137248517D01*
X112185589Y-137390625D01*
X112192723Y-137542650D01*
X112225976Y-137647279D01*
X112273326Y-137848906D01*
X112216143Y-137978483D01*
X112202941Y-137991437D01*
X112132951Y-138140262D01*
X112093616Y-138394096D01*
X112089549Y-138514025D01*
X112113698Y-138799250D01*
X112206031Y-138977248D01*
X112396374Y-139071294D01*
X112714551Y-139104666D01*
X112848512Y-139106333D01*
X113185234Y-139062993D01*
X113447307Y-138946814D01*
X113597329Y-138778557D01*
X113618646Y-138678856D01*
X113685810Y-138674396D01*
X113863854Y-138742382D01*
X114117605Y-138868745D01*
X114182897Y-138904541D01*
X114483733Y-139065094D01*
X114686293Y-139148097D01*
X114836125Y-139166146D01*
X114978779Y-139131836D01*
X114989920Y-139127706D01*
X115232692Y-139036375D01*
X115232692Y-148151651D01*
X114446906Y-147701299D01*
X114095329Y-147496037D01*
X113864587Y-147346012D01*
X113726412Y-147225287D01*
X113652534Y-147107926D01*
X113614682Y-146967992D01*
X113608457Y-146932056D01*
X113515679Y-146646216D01*
X113334561Y-146474126D01*
X113037985Y-146396769D01*
X112832276Y-146387666D01*
X112454847Y-146419568D01*
X112202376Y-146510468D01*
X112092756Y-146653155D01*
X112089549Y-146686978D01*
X112026314Y-146776141D01*
X111823326Y-146810143D01*
X111766739Y-146811000D01*
X111479553Y-146845431D01*
X111315337Y-146968053D01*
X111246883Y-147207857D01*
X111240050Y-147372219D01*
X111285967Y-147701685D01*
X111434270Y-147901888D01*
X111700793Y-147989278D01*
X111840767Y-147996333D01*
X112174498Y-147996333D01*
X112174498Y-148927666D01*
X112177946Y-149347148D01*
X112191903Y-149632492D01*
X112221790Y-149818816D01*
X112273029Y-149941239D01*
X112344398Y-150028333D01*
X112542439Y-150156125D01*
X112716271Y-150197666D01*
X112919410Y-150248235D01*
X113023997Y-150324666D01*
X113169359Y-150396730D01*
X113422098Y-150440188D01*
X113721925Y-150453824D01*
X114008554Y-150436418D01*
X114221698Y-150386754D01*
X114281254Y-150350066D01*
X114338167Y-150213249D01*
X114375488Y-149970193D01*
X114383909Y-149778566D01*
X114384623Y-149308666D01*
X114808658Y-149085025D01*
X115232692Y-148861383D01*
X115232692Y-164337000D01*
X118970485Y-164337000D01*
X118970485Y-35813000D01*
X115232692Y-35813000D01*
X115232692Y-51112266D01*
X115232461Y-53082881D01*
X115231740Y-54889955D01*
X115230492Y-56539281D01*
X115228677Y-58036653D01*
X115226256Y-59387861D01*
X115223192Y-60598700D01*
X115219443Y-61674960D01*
X115214973Y-62622436D01*
X115209742Y-63446918D01*
X115203711Y-64154201D01*
X115196841Y-64750075D01*
X115189094Y-65240335D01*
X115180431Y-65630772D01*
X115170812Y-65927178D01*
X115160199Y-66135347D01*
X115148554Y-66261070D01*
X115135836Y-66310141D01*
X115130753Y-66309933D01*
X115019939Y-66237374D01*
X114871003Y-66221804D01*
X114662038Y-66270205D01*
X114371137Y-66389561D01*
X113976394Y-66586854D01*
X113564281Y-66809251D01*
X113072414Y-67082484D01*
X112711248Y-67291847D01*
X112461062Y-67452199D01*
X112302135Y-67578395D01*
X112214747Y-67685293D01*
X112179178Y-67787749D01*
X112174498Y-67856273D01*
X112190023Y-67988653D01*
X112250175Y-68111377D01*
X112375320Y-68240881D01*
X112585825Y-68393602D01*
X112902056Y-68585976D01*
X113344380Y-68834438D01*
X113476175Y-68906765D01*
X113955925Y-69167782D01*
X114311460Y-69355178D01*
X114566771Y-69478123D01*
X114745849Y-69545788D01*
X114872685Y-69567345D01*
X114971272Y-69551965D01*
X115059584Y-69512044D01*
X115099648Y-69493078D01*
X115132997Y-69491981D01*
X115160249Y-69522652D01*
X115182018Y-69598985D01*
X115198921Y-69734878D01*
X115211573Y-69944227D01*
X115220589Y-70240927D01*
X115226586Y-70638876D01*
X115230179Y-71151969D01*
X115231984Y-71794103D01*
X115232617Y-72579174D01*
X115232692Y-73418954D01*
X115231790Y-74382508D01*
X115228891Y-75187728D01*
X115223708Y-75845605D01*
X115215954Y-76367131D01*
X115205340Y-76763297D01*
X115191581Y-77045093D01*
X115174387Y-77223512D01*
X115153472Y-77309543D01*
X115130753Y-77316599D01*
X114997499Y-77236521D01*
X114813628Y-77230693D01*
X114556440Y-77305342D01*
X114203231Y-77466694D01*
X113803360Y-77680666D01*
X113371841Y-77910187D01*
X113046708Y-78055530D01*
X112795170Y-78129637D01*
X112623567Y-78146333D01*
X112337693Y-78180834D01*
X112171685Y-78301706D01*
X112104572Y-78534999D01*
X112105862Y-78789495D01*
X112129893Y-79023587D01*
X112189965Y-79170835D01*
X112325755Y-79286199D01*
X112556773Y-79414097D01*
X112804900Y-79544987D01*
X113153446Y-79730205D01*
X113553335Y-79943619D01*
X113900922Y-80129803D01*
X114296325Y-80338256D01*
X114574558Y-80472695D01*
X114765594Y-80543767D01*
X114899404Y-80562118D01*
X115005960Y-80538392D01*
X115026507Y-80529594D01*
X115232692Y-80435963D01*
X115232692Y-84963815D01*
X115232166Y-85821680D01*
X115230655Y-86626416D01*
X115228257Y-87362521D01*
X115225072Y-88014496D01*
X115221199Y-88566840D01*
X115216738Y-89004053D01*
X115211788Y-89310634D01*
X115206448Y-89471084D01*
X115203680Y-89491666D01*
X115123271Y-89452909D01*
X114920387Y-89345967D01*
X114621107Y-89184832D01*
X114251506Y-88983500D01*
X114020362Y-88856666D01*
X113607830Y-88636272D01*
X113234783Y-88449092D01*
X112931945Y-88309637D01*
X112730041Y-88232414D01*
X112675628Y-88221666D01*
X112461759Y-88277547D01*
X112329850Y-88361788D01*
X112269824Y-88432762D01*
X112227405Y-88538049D01*
X112199629Y-88705117D01*
X112183531Y-88961435D01*
X112176146Y-89334472D01*
X112174498Y-89801122D01*
X112172260Y-90304591D01*
X112164022Y-90662069D01*
X112147500Y-90896854D01*
X112120407Y-91032248D01*
X112080458Y-91091551D01*
X112047074Y-91100333D01*
X111950218Y-91031891D01*
X111919649Y-90820933D01*
X111891876Y-90583709D01*
X111788919Y-90437169D01*
X111581323Y-90361921D01*
X111239630Y-90338569D01*
X111186653Y-90338333D01*
X110808747Y-90361179D01*
X110568790Y-90444508D01*
X110439235Y-90610499D01*
X110392533Y-90881338D01*
X110390552Y-90979380D01*
X110390552Y-91354333D01*
X110054974Y-91354333D01*
X109776457Y-91391585D01*
X109637189Y-91500737D01*
X109565627Y-91598610D01*
X109483095Y-91577539D01*
X109392667Y-91500737D01*
X109190121Y-91397364D01*
X108924368Y-91354356D01*
X108918478Y-91354333D01*
X108716215Y-91336662D01*
X108610890Y-91292959D01*
X108606605Y-91280814D01*
X108664386Y-91228466D01*
X108847035Y-91173535D01*
X109168510Y-91112954D01*
X109642770Y-91043660D01*
X109753428Y-91028977D01*
X110178177Y-90973333D01*
X110263127Y-90211333D01*
X110645401Y-90169000D01*
X111027676Y-90126666D01*
X111053592Y-89675293D01*
X111048253Y-89328561D01*
X110970568Y-89115780D01*
X110800846Y-89009904D01*
X110550050Y-88983666D01*
X110220652Y-88983666D01*
X110220652Y-88605645D01*
X110178597Y-88300990D01*
X110037756Y-88125109D01*
X109776114Y-88055719D01*
X109674063Y-88052333D01*
X109518557Y-88026060D01*
X109461568Y-87912698D01*
X109456104Y-87798333D01*
X109481191Y-87597565D01*
X109554073Y-87558582D01*
X109671179Y-87682668D01*
X109691239Y-87713666D01*
X109752451Y-87787462D01*
X109847287Y-87836184D01*
X110008021Y-87864933D01*
X110266933Y-87878806D01*
X110656298Y-87882904D01*
X110763144Y-87883000D01*
X111233248Y-87877877D01*
X111558494Y-87852690D01*
X111763837Y-87792710D01*
X111874235Y-87683209D01*
X111914644Y-87509457D01*
X111910021Y-87256726D01*
X111906776Y-87208060D01*
X111899606Y-86946598D01*
X111930629Y-86816448D01*
X112004599Y-86782228D01*
X112080281Y-86819008D01*
X112109918Y-86952914D01*
X112102422Y-87208060D01*
X112101001Y-87532526D01*
X112170467Y-87734391D01*
X112339069Y-87840904D01*
X112635055Y-87879315D01*
X112800786Y-87881703D01*
X113096248Y-87869941D01*
X113330531Y-87840769D01*
X113433950Y-87809239D01*
X113527249Y-87668563D01*
X113584887Y-87429351D01*
X113599035Y-87160112D01*
X113561862Y-86929357D01*
X113540250Y-86879205D01*
X113432629Y-86757224D01*
X113248639Y-86704820D01*
X113075953Y-86697666D01*
X112709137Y-86697666D01*
X112749908Y-86274770D01*
X112760938Y-85960368D01*
X112702818Y-85760072D01*
X112548536Y-85649319D01*
X112271081Y-85603546D01*
X112004599Y-85596999D01*
X111630109Y-85613120D01*
X111396785Y-85677859D01*
X111277616Y-85815778D01*
X111245588Y-86051442D01*
X111259289Y-86274770D01*
X111300060Y-86697666D01*
X110805820Y-86697666D01*
X110510770Y-86687139D01*
X110338089Y-86646544D01*
X110241061Y-86562364D01*
X110220652Y-86528333D01*
X110098398Y-86406811D01*
X109876860Y-86360946D01*
X109792914Y-86359000D01*
X109552905Y-86335590D01*
X109458948Y-86261093D01*
X109456104Y-86238047D01*
X109379443Y-86045628D01*
X109179969Y-85906043D01*
X108903440Y-85851020D01*
X108897862Y-85851000D01*
X108703729Y-85831714D01*
X108608559Y-85784418D01*
X108606605Y-85775702D01*
X108684703Y-85746208D01*
X108892847Y-85733020D01*
X109191812Y-85737889D01*
X109311696Y-85744247D01*
X109682349Y-85760556D01*
X109922785Y-85751009D01*
X110071270Y-85711559D01*
X110149680Y-85655640D01*
X110314642Y-85567115D01*
X110566104Y-85506237D01*
X110655124Y-85496595D01*
X111027676Y-85470000D01*
X111053592Y-85018627D01*
X111050461Y-84724043D01*
X111010318Y-84506959D01*
X110979478Y-84447127D01*
X110828253Y-84371171D01*
X110570899Y-84330901D01*
X110267299Y-84325985D01*
X109977335Y-84356089D01*
X109760890Y-84420878D01*
X109710737Y-84454194D01*
X109581250Y-84525714D01*
X109378553Y-84548637D01*
X109057038Y-84527977D01*
X109048003Y-84527041D01*
X108754487Y-84480300D01*
X108602646Y-84424169D01*
X108598925Y-84371591D01*
X108749765Y-84335510D01*
X108948429Y-84327000D01*
X109207623Y-84295959D01*
X109351199Y-84191188D01*
X109368550Y-84162516D01*
X109512128Y-84035071D01*
X109785038Y-83974634D01*
X109817525Y-83972016D01*
X110044055Y-83947406D01*
X110152076Y-83883449D01*
X110192415Y-83729440D01*
X110204299Y-83586166D01*
X110243651Y-83351838D01*
X110311330Y-83233185D01*
X110333969Y-83226333D01*
X110402721Y-83304156D01*
X110407596Y-83538141D01*
X110405888Y-83556881D01*
X110429874Y-83881714D01*
X110579144Y-84099643D01*
X110860489Y-84216835D01*
X111160685Y-84242333D01*
X111526731Y-84223126D01*
X111755262Y-84150496D01*
X111875808Y-84001924D01*
X111917900Y-83754894D01*
X111919649Y-83663621D01*
X111892347Y-83342718D01*
X111793313Y-83154982D01*
X111596856Y-83070585D01*
X111397199Y-83057000D01*
X111078629Y-83056999D01*
X111053152Y-82570166D01*
X111027676Y-82083333D01*
X110645401Y-82041000D01*
X110263127Y-81998666D01*
X110178177Y-81152000D01*
X109817141Y-81125965D01*
X109581359Y-81092931D01*
X109474981Y-81025557D01*
X109456104Y-80942389D01*
X109428242Y-80730228D01*
X109404540Y-80650924D01*
X109411899Y-80536815D01*
X109479582Y-80517000D01*
X109601133Y-80588012D01*
X109650618Y-80686333D01*
X109691891Y-80773710D01*
X109783889Y-80824760D01*
X109964428Y-80848909D01*
X110271324Y-80855588D01*
X110329762Y-80855666D01*
X110664096Y-80849943D01*
X110872800Y-80825481D01*
X110999966Y-80771346D01*
X111089684Y-80676601D01*
X111097808Y-80665166D01*
X111231139Y-80474666D01*
X111235594Y-80732900D01*
X111266076Y-80954820D01*
X111367931Y-81093927D01*
X111570709Y-81167635D01*
X111903956Y-81193356D01*
X112018600Y-81194333D01*
X112379463Y-81177182D01*
X112603470Y-81107612D01*
X112721765Y-80958452D01*
X112765495Y-80702527D01*
X112769147Y-80539499D01*
X112732654Y-80244024D01*
X112604806Y-80077735D01*
X112358046Y-80012877D01*
X112242458Y-80009000D01*
X112031734Y-79997604D01*
X111940805Y-79937062D01*
X111919840Y-79787841D01*
X111919649Y-79752904D01*
X111879777Y-79543801D01*
X111732711Y-79426729D01*
X111701744Y-79414237D01*
X111372422Y-79338597D01*
X111026438Y-79335960D01*
X110726381Y-79401570D01*
X110560452Y-79500999D01*
X110380626Y-79644813D01*
X110264721Y-79641122D01*
X110196038Y-79501000D01*
X110126563Y-79386203D01*
X109967155Y-79337809D01*
X109814258Y-79331666D01*
X109554163Y-79299195D01*
X109381359Y-79215649D01*
X109371154Y-79204666D01*
X109214818Y-79117719D01*
X108970252Y-79078118D01*
X108941017Y-79077666D01*
X108679084Y-79055805D01*
X108580035Y-79002878D01*
X108645314Y-78937871D01*
X108876366Y-78879769D01*
X108925428Y-78872821D01*
X109273588Y-78827693D01*
X109633481Y-78781359D01*
X109710953Y-78771441D01*
X109960032Y-78725895D01*
X110137754Y-78668656D01*
X110173930Y-78646124D01*
X110307143Y-78594927D01*
X110527229Y-78570105D01*
X110560452Y-78569666D01*
X110793227Y-78542991D01*
X110957050Y-78477793D01*
X110968211Y-78468066D01*
X111039248Y-78314512D01*
X111071438Y-78075463D01*
X111066668Y-77810981D01*
X111026824Y-77581125D01*
X110953794Y-77445956D01*
X110935778Y-77435725D01*
X110759913Y-77401539D01*
X110498047Y-77385953D01*
X110203978Y-77387554D01*
X109931504Y-77404931D01*
X109734421Y-77436670D01*
X109668478Y-77469000D01*
X109551730Y-77533832D01*
X109402547Y-77553666D01*
X109257483Y-77542481D01*
X109261432Y-77486148D01*
X109322611Y-77420619D01*
X109432203Y-77243152D01*
X109456104Y-77129153D01*
X109492364Y-77023188D01*
X109627917Y-76966747D01*
X109817141Y-76944701D01*
X110044926Y-76918390D01*
X110154144Y-76854963D01*
X110196040Y-76711879D01*
X110205471Y-76622333D01*
X110242960Y-76411388D01*
X110298972Y-76267130D01*
X110353714Y-76217940D01*
X110387393Y-76292196D01*
X110390552Y-76356966D01*
X110418368Y-76609756D01*
X110521140Y-76767129D01*
X110727852Y-76849141D01*
X111067490Y-76875849D01*
X111141099Y-76876333D01*
X111469500Y-76861426D01*
X111713461Y-76821382D01*
X111817709Y-76774733D01*
X111878500Y-76634026D01*
X111914969Y-76394969D01*
X111919649Y-76269712D01*
X111883961Y-75959937D01*
X111758768Y-75779071D01*
X111516876Y-75700398D01*
X111330585Y-75691000D01*
X111147398Y-75671050D01*
X111078798Y-75576637D01*
X111070151Y-75439978D01*
X111003724Y-75198560D01*
X110802675Y-75057146D01*
X110485526Y-75013666D01*
X110336097Y-75004100D01*
X110317049Y-74990381D01*
X111244388Y-74990381D01*
X111252611Y-75259934D01*
X111312626Y-75465597D01*
X111341990Y-75504733D01*
X111486491Y-75562508D01*
X111740513Y-75595893D01*
X112045449Y-75604887D01*
X112342691Y-75589489D01*
X112573633Y-75549701D01*
X112667207Y-75504733D01*
X112743702Y-75333655D01*
X112767650Y-75075969D01*
X112741497Y-74805282D01*
X112667683Y-74595207D01*
X112635655Y-74554047D01*
X112447666Y-74461501D01*
X112115650Y-74422674D01*
X112004599Y-74421000D01*
X111632977Y-74446438D01*
X111409150Y-74524802D01*
X111373543Y-74554047D01*
X111285512Y-74730549D01*
X111244388Y-74990381D01*
X110317049Y-74990381D01*
X110256853Y-74947027D01*
X110220823Y-74799886D01*
X110203854Y-74569166D01*
X110178177Y-74124666D01*
X109835569Y-74099529D01*
X109580731Y-74052844D01*
X109441348Y-73944372D01*
X109410820Y-73887862D01*
X109278627Y-73739626D01*
X109025016Y-73663021D01*
X108995520Y-73659000D01*
X108726105Y-73601101D01*
X108617316Y-73531832D01*
X108663331Y-73473778D01*
X108858328Y-73449522D01*
X109046611Y-73460825D01*
X109364243Y-73518572D01*
X109566764Y-73620813D01*
X109654326Y-73711542D01*
X109766112Y-73825545D01*
X109911381Y-73886631D01*
X110142762Y-73910303D01*
X110338172Y-73912999D01*
X110700981Y-73893737D01*
X110925199Y-73824693D01*
X111038897Y-73688984D01*
X111070151Y-73472733D01*
X111086493Y-73317724D01*
X111168512Y-73250837D01*
X111365694Y-73235728D01*
X111392960Y-73235666D01*
X111674031Y-73203419D01*
X111837328Y-73086836D01*
X111909295Y-72856160D01*
X111919649Y-72642999D01*
X111898683Y-72386206D01*
X111845844Y-72195154D01*
X111817709Y-72151933D01*
X111679181Y-72097923D01*
X111431614Y-72064500D01*
X111134759Y-72052939D01*
X110848369Y-72064517D01*
X110632195Y-72100510D01*
X110573206Y-72125352D01*
X110477276Y-72252617D01*
X110398581Y-72464491D01*
X110393983Y-72483888D01*
X110346390Y-72661255D01*
X110306468Y-72689287D01*
X110260001Y-72600666D01*
X110149660Y-72418518D01*
X109978514Y-72329499D01*
X109701572Y-72305629D01*
X109374383Y-72291663D01*
X109058891Y-72257297D01*
X108798753Y-72209794D01*
X108637629Y-72156416D01*
X108606605Y-72123491D01*
X108681986Y-72077632D01*
X108870242Y-72052170D01*
X108945685Y-72050333D01*
X109214075Y-72018256D01*
X109370897Y-71909846D01*
X109390868Y-71881000D01*
X109556496Y-71747184D01*
X109799347Y-71711666D01*
X110023902Y-71690902D01*
X110173044Y-71640133D01*
X110182425Y-71632345D01*
X110311054Y-71578547D01*
X110539779Y-71536553D01*
X110645401Y-71526511D01*
X111027676Y-71500000D01*
X111052998Y-71018324D01*
X111059370Y-70735537D01*
X111031870Y-70571538D01*
X110957135Y-70477017D01*
X110896120Y-70439463D01*
X110694002Y-70390578D01*
X110384429Y-70380502D01*
X110024854Y-70407293D01*
X109672728Y-70469009D01*
X109618408Y-70482658D01*
X109468428Y-70508558D01*
X109421326Y-70446044D01*
X109436913Y-70279604D01*
X109492437Y-70091057D01*
X109611356Y-70022765D01*
X109683705Y-70018333D01*
X109990312Y-69963163D01*
X110172115Y-69803186D01*
X110220652Y-69597017D01*
X110250698Y-69374308D01*
X110337675Y-69308347D01*
X110476842Y-69401950D01*
X110501992Y-69430003D01*
X110720861Y-69564472D01*
X110932685Y-69594999D01*
X111142353Y-69619277D01*
X111244644Y-69715751D01*
X111273713Y-69801817D01*
X111336842Y-69938307D01*
X111470578Y-70006924D01*
X111686434Y-70034651D01*
X111915669Y-70062682D01*
X112026297Y-70127270D01*
X112069612Y-70265301D01*
X112075828Y-70314666D01*
X112122463Y-70542511D01*
X112222284Y-70682203D01*
X112409832Y-70754214D01*
X112719647Y-70779016D01*
X112861510Y-70780333D01*
X113226471Y-70762441D01*
X113453939Y-70693744D01*
X113573936Y-70551709D01*
X113616484Y-70313804D01*
X113618646Y-70212071D01*
X113553891Y-69892507D01*
X113372038Y-69680152D01*
X113091703Y-69595632D01*
X113061655Y-69595000D01*
X112863798Y-69579901D01*
X112783512Y-69505966D01*
X112769147Y-69351366D01*
X112716940Y-69106655D01*
X112545550Y-68950201D01*
X112241065Y-68862828D01*
X111982371Y-68764773D01*
X111872448Y-68634092D01*
X111754299Y-68497445D01*
X111527944Y-68432035D01*
X111456098Y-68424678D01*
X111162118Y-68354614D01*
X111005294Y-68234178D01*
X110832902Y-68107799D01*
X110559874Y-68071000D01*
X110229131Y-68071000D01*
X110203654Y-67584166D01*
X110178177Y-67097333D01*
X109805626Y-67070737D01*
X109547087Y-67027597D01*
X109350013Y-66951762D01*
X109311096Y-66922571D01*
X109145300Y-66838473D01*
X108910599Y-66801113D01*
X108897862Y-66801000D01*
X108703763Y-66779323D01*
X108608570Y-66726161D01*
X108606605Y-66716333D01*
X108681895Y-66662991D01*
X108869661Y-66633636D01*
X108941391Y-66631666D01*
X109167590Y-66611985D01*
X109312578Y-66563102D01*
X109328679Y-66547000D01*
X109440069Y-66465128D01*
X109556495Y-66540986D01*
X109627367Y-66677574D01*
X109677487Y-66785462D01*
X109751995Y-66847679D01*
X109890609Y-66874434D01*
X110133048Y-66875935D01*
X110368575Y-66868074D01*
X111027676Y-66843333D01*
X111053353Y-66398833D01*
X111073795Y-66140329D01*
X111114282Y-66008457D01*
X111201784Y-65960655D01*
X111335024Y-65954333D01*
X111648856Y-65918660D01*
X111831753Y-65793829D01*
X111910708Y-65553120D01*
X111919649Y-65375621D01*
X111899404Y-65114865D01*
X111848182Y-64919491D01*
X111817709Y-64870599D01*
X111677791Y-64815184D01*
X111415145Y-64779155D01*
X111141099Y-64768999D01*
X110825586Y-64775906D01*
X110635742Y-64804443D01*
X110527627Y-64866332D01*
X110470326Y-64947972D01*
X110412456Y-65157557D01*
X110407580Y-65411709D01*
X110407804Y-65413639D01*
X110401428Y-65625993D01*
X110334596Y-65697068D01*
X110233902Y-65615778D01*
X110177084Y-65509833D01*
X110082967Y-65382951D01*
X109911328Y-65317301D01*
X109703669Y-65294095D01*
X109314111Y-65268857D01*
X109493169Y-64698687D01*
X110175472Y-64639794D01*
X110509138Y-64601936D01*
X110782351Y-64554333D01*
X110946355Y-64505925D01*
X110963963Y-64495250D01*
X111037877Y-64347522D01*
X111068785Y-64104455D01*
X111059194Y-63860030D01*
X111241547Y-63860030D01*
X111267701Y-64130717D01*
X111341514Y-64340792D01*
X111373543Y-64381952D01*
X111561531Y-64474498D01*
X111893547Y-64513325D01*
X112004599Y-64515000D01*
X112376221Y-64489561D01*
X112586218Y-64416039D01*
X112955606Y-64416039D01*
X112958737Y-64710622D01*
X112998879Y-64927706D01*
X113029720Y-64987539D01*
X113171867Y-65055954D01*
X113421791Y-65096642D01*
X113719517Y-65108716D01*
X114005069Y-65091287D01*
X114218474Y-65043468D01*
X114281254Y-65006066D01*
X114351791Y-64846382D01*
X114380883Y-64596304D01*
X114369776Y-64325186D01*
X114319716Y-64102383D01*
X114263416Y-64013324D01*
X114103335Y-63959300D01*
X113812195Y-63935989D01*
X113562580Y-63939457D01*
X112981522Y-63964666D01*
X112955606Y-64416039D01*
X112586218Y-64416039D01*
X112600048Y-64411197D01*
X112635655Y-64381952D01*
X112723685Y-64205450D01*
X112764810Y-63945618D01*
X112756586Y-63676065D01*
X112696571Y-63470402D01*
X112667207Y-63431266D01*
X112527890Y-63375844D01*
X112268160Y-63339678D01*
X112004599Y-63329666D01*
X111683537Y-63344835D01*
X111443333Y-63385326D01*
X111341990Y-63431266D01*
X111265496Y-63602344D01*
X111241547Y-63860030D01*
X111059194Y-63860030D01*
X111058178Y-63834131D01*
X111007546Y-63604635D01*
X110942148Y-63498521D01*
X110785380Y-63440342D01*
X110492222Y-63420391D01*
X110135124Y-63431820D01*
X109456104Y-63470996D01*
X109456104Y-63230998D01*
X109475201Y-63067488D01*
X109567037Y-63001989D01*
X109743026Y-62991000D01*
X110009644Y-62948780D01*
X110163330Y-62802936D01*
X110234373Y-62525333D01*
X110263127Y-62271333D01*
X111024006Y-62247999D01*
X111441483Y-62223419D01*
X111722136Y-62180802D01*
X111849880Y-62122617D01*
X111850966Y-62120999D01*
X111900463Y-61945821D01*
X111914958Y-61685041D01*
X111913328Y-61662459D01*
X112089549Y-61662459D01*
X112099352Y-61926567D01*
X112124516Y-62116258D01*
X112146182Y-62172555D01*
X112253293Y-62200116D01*
X112482902Y-62220218D01*
X112787645Y-62228910D01*
X112822792Y-62229000D01*
X113154771Y-62222406D01*
X113357778Y-62196361D01*
X113472436Y-62141465D01*
X113530707Y-62065232D01*
X113612920Y-61774068D01*
X113586657Y-61468346D01*
X113459204Y-61223824D01*
X113448746Y-61213000D01*
X113231358Y-61095798D01*
X112917549Y-61043003D01*
X112569907Y-61059374D01*
X112307453Y-61126237D01*
X112179821Y-61192287D01*
X112114738Y-61298447D01*
X112091711Y-61495145D01*
X112089549Y-61662459D01*
X111913328Y-61662459D01*
X111895717Y-61418485D01*
X111844009Y-61225980D01*
X111836550Y-61213000D01*
X111740560Y-61144519D01*
X111537921Y-61097289D01*
X111203235Y-61066619D01*
X110988353Y-61056409D01*
X110220652Y-61026818D01*
X110220652Y-60578634D01*
X110213654Y-60338738D01*
X110173034Y-60181041D01*
X110069359Y-60088315D01*
X109873191Y-60043332D01*
X109555097Y-60028866D01*
X109279256Y-60027666D01*
X108945211Y-60017670D01*
X108710777Y-59990416D01*
X108608528Y-59950003D01*
X108606605Y-59943000D01*
X108680511Y-59883896D01*
X108858954Y-59858358D01*
X108865316Y-59858333D01*
X109155803Y-59781172D01*
X109330658Y-59652391D01*
X109537289Y-59446449D01*
X109646135Y-59673557D01*
X109722531Y-59799414D01*
X109831078Y-59871364D01*
X110019455Y-59908031D01*
X110292558Y-59926065D01*
X110661228Y-59926559D01*
X110893191Y-59871301D01*
X111018181Y-59738526D01*
X111065932Y-59506468D01*
X111070151Y-59356899D01*
X111041204Y-59036265D01*
X110939145Y-58849251D01*
X110741146Y-58767728D01*
X110583834Y-58757666D01*
X110364627Y-58725668D01*
X110246790Y-58607344D01*
X110225057Y-58557547D01*
X110082294Y-58355010D01*
X109835053Y-58260878D01*
X109661530Y-58249666D01*
X109511979Y-58219076D01*
X109459481Y-58093696D01*
X109456104Y-58006814D01*
X109476269Y-57843601D01*
X109569580Y-57761941D01*
X109774666Y-57718823D01*
X110026918Y-57673034D01*
X110224651Y-57620426D01*
X110241890Y-57613950D01*
X110336076Y-57599595D01*
X110379611Y-57681159D01*
X110390538Y-57894271D01*
X110390552Y-57907507D01*
X110419372Y-58257435D01*
X110517638Y-58470568D01*
X110703064Y-58571401D01*
X110882805Y-58588333D01*
X111150296Y-58628097D01*
X111305285Y-58757666D01*
X111390394Y-58850521D01*
X111528403Y-58902310D01*
X111763318Y-58923942D01*
X111988329Y-58927000D01*
X112359525Y-58912142D01*
X112592586Y-58853887D01*
X112717716Y-58731714D01*
X112765123Y-58525098D01*
X112769147Y-58396500D01*
X112735949Y-58051339D01*
X112626324Y-57843123D01*
X112425230Y-57750904D01*
X112298934Y-57741666D01*
X111999751Y-57680765D01*
X111834699Y-57572333D01*
X111589700Y-57434889D01*
X111367475Y-57403000D01*
X111070151Y-57403000D01*
X111070151Y-56982645D01*
X111055703Y-56711993D01*
X111000014Y-56556450D01*
X110888364Y-56465326D01*
X110699052Y-56419468D01*
X110408022Y-56405015D01*
X110080051Y-56419647D01*
X109779918Y-56461046D01*
X109604766Y-56511287D01*
X109492572Y-56525465D01*
X109456880Y-56410887D01*
X109456104Y-56370658D01*
X109416022Y-56169005D01*
X109354164Y-56065266D01*
X109326371Y-56001712D01*
X109424112Y-55970303D01*
X109630251Y-55962370D01*
X109938774Y-55944024D01*
X110117984Y-55875454D01*
X110206457Y-55732389D01*
X110234224Y-55582391D01*
X110273517Y-55412992D01*
X110375556Y-55333868D01*
X110584268Y-55302235D01*
X110868333Y-55230550D01*
X111008214Y-55111735D01*
X111178416Y-54980444D01*
X111413394Y-54947666D01*
X111645137Y-54920687D01*
X111807764Y-54854852D01*
X111817709Y-54846066D01*
X111884988Y-54689789D01*
X111915064Y-54439862D01*
X111907936Y-54167861D01*
X111863605Y-53945361D01*
X111817709Y-53863933D01*
X111679565Y-53808534D01*
X111425253Y-53772106D01*
X111179754Y-53762333D01*
X110858260Y-53773796D01*
X110656579Y-53816306D01*
X110525679Y-53902046D01*
X110498266Y-53931666D01*
X110358877Y-54067436D01*
X110273826Y-54070147D01*
X110231596Y-53927937D01*
X110220652Y-53645700D01*
X110199850Y-53321654D01*
X110117038Y-53127542D01*
X109941611Y-53026882D01*
X109666335Y-52984987D01*
X109327725Y-52958000D01*
X109426559Y-52661666D01*
X109487870Y-52494473D01*
X109534707Y-52454743D01*
X109588583Y-52554152D01*
X109667192Y-52792251D01*
X109720195Y-52859126D01*
X109848636Y-52895006D01*
X110086219Y-52904979D01*
X110368028Y-52898084D01*
X111027676Y-52873333D01*
X111033108Y-52777780D01*
X111240050Y-52777780D01*
X111272363Y-53083795D01*
X111387440Y-53258777D01*
X111612490Y-53331719D01*
X111766739Y-53339000D01*
X111999843Y-53363759D01*
X112087752Y-53442592D01*
X112089549Y-53461792D01*
X112169167Y-53619830D01*
X112407958Y-53718874D01*
X112805824Y-53758887D01*
X112870517Y-53759758D01*
X113164090Y-53750121D01*
X113341851Y-53706603D01*
X113456938Y-53613191D01*
X113486404Y-53574161D01*
X113599763Y-53284930D01*
X113601514Y-52954287D01*
X113530707Y-52740767D01*
X113405455Y-52621990D01*
X113173787Y-52578269D01*
X113105958Y-52577000D01*
X112894263Y-52559415D01*
X112777274Y-52515531D01*
X112769147Y-52498380D01*
X112690590Y-52325432D01*
X112466120Y-52208778D01*
X112112541Y-52155995D01*
X112004599Y-52153666D01*
X111634226Y-52179792D01*
X111401085Y-52272618D01*
X111278621Y-52453821D01*
X111240282Y-52745076D01*
X111240050Y-52777780D01*
X111033108Y-52777780D01*
X111054000Y-52410237D01*
X111043656Y-52067151D01*
X110951520Y-51856564D01*
X110757186Y-51753081D01*
X110507649Y-51730333D01*
X110307542Y-51705453D01*
X110220567Y-51608864D01*
X110205323Y-51539833D01*
X110144623Y-51403257D01*
X109982509Y-51313586D01*
X109817141Y-51269572D01*
X109589155Y-51206038D01*
X109484125Y-51123299D01*
X109456413Y-50981218D01*
X109456104Y-50952072D01*
X109483572Y-50777404D01*
X109594076Y-50717425D01*
X109657860Y-50714333D01*
X109891872Y-50697228D01*
X110125084Y-50661416D01*
X110308212Y-50639074D01*
X110379496Y-50695261D01*
X110390552Y-50824702D01*
X110436820Y-51061569D01*
X110588980Y-51212620D01*
X110867065Y-51289991D01*
X111186653Y-51306999D01*
X111490925Y-51291212D01*
X111722678Y-51249717D01*
X111817709Y-51205399D01*
X111884988Y-51049122D01*
X111915064Y-50799196D01*
X111907936Y-50527195D01*
X111870204Y-50337815D01*
X112935843Y-50337815D01*
X112960650Y-50586569D01*
X113023936Y-50761584D01*
X113040987Y-50782066D01*
X113178181Y-50837418D01*
X113428341Y-50874053D01*
X113661120Y-50883666D01*
X113959495Y-50867656D01*
X114188328Y-50825815D01*
X114281254Y-50782066D01*
X114342999Y-50640427D01*
X114379221Y-50402451D01*
X114383194Y-50291000D01*
X114362228Y-50034206D01*
X114309389Y-49843154D01*
X114281254Y-49799933D01*
X114145680Y-49747339D01*
X113900439Y-49712598D01*
X113605065Y-49698184D01*
X113319088Y-49706571D01*
X113102040Y-49740234D01*
X113073419Y-49749725D01*
X112994114Y-49859332D01*
X112947627Y-50075382D01*
X112935843Y-50337815D01*
X111870204Y-50337815D01*
X111863605Y-50304694D01*
X111817709Y-50223266D01*
X111670305Y-50156389D01*
X111438739Y-50122648D01*
X111392960Y-50121666D01*
X111182027Y-50109886D01*
X111091006Y-50049579D01*
X111070272Y-49903290D01*
X111070151Y-49878033D01*
X111042174Y-49669518D01*
X110941037Y-49536515D01*
X110740926Y-49467434D01*
X110416027Y-49450687D01*
X110142173Y-49461413D01*
X109804967Y-49477721D01*
X109597534Y-49473222D01*
X109480217Y-49439671D01*
X109413357Y-49368820D01*
X109380024Y-49302925D01*
X109282203Y-49169274D01*
X109114945Y-49113315D01*
X108948226Y-49105666D01*
X108734761Y-49087681D01*
X108615592Y-49042725D01*
X108606605Y-49024177D01*
X108685320Y-48986293D01*
X108896537Y-48952098D01*
X109202861Y-48926627D01*
X109392391Y-48918343D01*
X110178177Y-48894000D01*
X110220652Y-48597666D01*
X110259706Y-48413507D01*
X110341542Y-48319488D01*
X110517626Y-48274575D01*
X110645401Y-48259000D01*
X110881875Y-48223341D01*
X110998240Y-48159522D01*
X111043920Y-48028291D01*
X111054871Y-47933811D01*
X111085195Y-47745839D01*
X111155966Y-47688405D01*
X111309720Y-47721599D01*
X111576321Y-47774460D01*
X111895666Y-47795870D01*
X112216735Y-47787880D01*
X112488511Y-47752538D01*
X112659976Y-47691892D01*
X112686068Y-47666333D01*
X112745822Y-47481519D01*
X112765523Y-47227343D01*
X112746943Y-46973707D01*
X112691854Y-46790513D01*
X112662960Y-46754890D01*
X112474888Y-46674541D01*
X112142498Y-46609068D01*
X111690995Y-46562105D01*
X111155100Y-46537494D01*
X110517977Y-46523333D01*
X110436697Y-46798500D01*
X110354759Y-47010691D01*
X110287648Y-47058435D01*
X110241145Y-46946378D01*
X110221035Y-46679166D01*
X110220652Y-46624933D01*
X110202438Y-46351571D01*
X110155835Y-46142574D01*
X110118712Y-46074600D01*
X110093450Y-46013555D01*
X110190276Y-45982131D01*
X110432449Y-45973005D01*
X110441522Y-45972999D01*
X110708756Y-45953765D01*
X110910866Y-45904846D01*
X110968211Y-45871399D01*
X111034943Y-45718144D01*
X111065275Y-45473572D01*
X111059528Y-45206212D01*
X111018022Y-44984590D01*
X110963622Y-44889617D01*
X110809625Y-44821341D01*
X110580307Y-44775155D01*
X110563449Y-44773417D01*
X110347560Y-44724729D01*
X110252464Y-44618333D01*
X112089549Y-44618333D01*
X112110514Y-44875127D01*
X112163353Y-45066178D01*
X112191488Y-45109400D01*
X112329612Y-45163160D01*
X112576794Y-45196635D01*
X112873261Y-45208484D01*
X113159238Y-45197369D01*
X113374951Y-45161950D01*
X113433950Y-45137239D01*
X113527249Y-44996563D01*
X113584887Y-44757351D01*
X113599035Y-44488112D01*
X113561862Y-44257357D01*
X113540250Y-44207205D01*
X113465968Y-44108844D01*
X113346841Y-44053771D01*
X113138724Y-44030064D01*
X112868098Y-44025666D01*
X112539698Y-44040573D01*
X112295736Y-44080617D01*
X112191488Y-44127266D01*
X112129744Y-44268905D01*
X112093522Y-44506882D01*
X112089549Y-44618333D01*
X110252464Y-44618333D01*
X110243472Y-44608273D01*
X110220606Y-44533666D01*
X110157727Y-44390657D01*
X110021604Y-44321166D01*
X109833312Y-44296917D01*
X109606132Y-44262875D01*
X109484832Y-44174736D01*
X109406230Y-43988474D01*
X109317243Y-43705114D01*
X109832660Y-43663288D01*
X110132399Y-43647470D01*
X110312756Y-43667002D01*
X110422188Y-43730927D01*
X110464626Y-43781231D01*
X110558206Y-43867474D01*
X110709653Y-43916630D01*
X110961025Y-43937851D01*
X111198848Y-43940999D01*
X111548835Y-43932635D01*
X111762416Y-43889687D01*
X111872904Y-43785375D01*
X111913613Y-43592917D01*
X111918348Y-43362575D01*
X111890908Y-43069521D01*
X111788562Y-42898337D01*
X111576643Y-42806377D01*
X111445551Y-42780947D01*
X111205444Y-42713999D01*
X111033736Y-42616129D01*
X111012914Y-42593447D01*
X110923604Y-42525658D01*
X110756742Y-42484123D01*
X110479677Y-42463772D01*
X110149536Y-42459333D01*
X109803479Y-42452677D01*
X109523657Y-42434872D01*
X109352346Y-42409160D01*
X109321879Y-42395833D01*
X109201946Y-42354620D01*
X108986493Y-42333192D01*
X108932246Y-42332333D01*
X108724754Y-42312794D01*
X108612897Y-42264220D01*
X108606605Y-42247666D01*
X108679965Y-42186451D01*
X108842553Y-42162999D01*
X109087732Y-42118759D01*
X109252413Y-42041593D01*
X109445859Y-41959256D01*
X109716056Y-41902151D01*
X109801844Y-41893426D01*
X110038216Y-41865381D01*
X110156859Y-41802486D01*
X110209942Y-41669762D01*
X110220616Y-41612666D01*
X110226876Y-41592697D01*
X111241547Y-41592697D01*
X111267701Y-41863383D01*
X111341514Y-42073459D01*
X111373543Y-42114619D01*
X111561531Y-42207165D01*
X111893547Y-42245991D01*
X112004599Y-42247666D01*
X112376221Y-42222228D01*
X112600048Y-42143864D01*
X112635655Y-42114619D01*
X112723685Y-41938117D01*
X112764810Y-41678285D01*
X112756586Y-41408732D01*
X112696571Y-41203068D01*
X112667207Y-41163933D01*
X112527890Y-41108511D01*
X112268160Y-41072345D01*
X112004599Y-41062333D01*
X111683537Y-41077502D01*
X111443333Y-41117993D01*
X111341990Y-41163933D01*
X111265496Y-41335010D01*
X111241547Y-41592697D01*
X110226876Y-41592697D01*
X110276091Y-41435691D01*
X110399711Y-41355579D01*
X110560482Y-41330582D01*
X110837529Y-41276062D01*
X110994184Y-41153790D01*
X111060781Y-40927028D01*
X111070151Y-40713299D01*
X111070151Y-40300333D01*
X111392960Y-40300333D01*
X111671402Y-40268988D01*
X111834283Y-40154970D01*
X111907632Y-39928297D01*
X111919649Y-39693712D01*
X111901560Y-39420978D01*
X111836458Y-39266209D01*
X111755334Y-39202645D01*
X111564097Y-39149598D01*
X111281594Y-39122335D01*
X110974921Y-39121462D01*
X110711169Y-39147585D01*
X110570089Y-39191938D01*
X110494749Y-39313793D01*
X110432693Y-39542604D01*
X110410619Y-39698642D01*
X110364827Y-39991394D01*
X110307416Y-40124057D01*
X110249771Y-40104314D01*
X110203275Y-39939848D01*
X110179313Y-39638344D01*
X110178177Y-39541750D01*
X110178177Y-38952919D01*
X110602926Y-38928126D01*
X111027676Y-38903333D01*
X111053167Y-38416016D01*
X111061791Y-38138341D01*
X111039598Y-37981332D01*
X110970046Y-37896924D01*
X110856500Y-37844516D01*
X110610294Y-37779342D01*
X110433139Y-37760333D01*
X110276628Y-37719557D01*
X110210426Y-37566887D01*
X110205057Y-37527500D01*
X110168726Y-37378414D01*
X110071699Y-37304561D01*
X109863363Y-37272165D01*
X109817141Y-37268631D01*
X109596547Y-37237254D01*
X109468833Y-37189145D01*
X109456104Y-37168846D01*
X109380480Y-37015191D01*
X109190798Y-36891101D01*
X108942844Y-36830536D01*
X108897862Y-36828999D01*
X108703763Y-36807323D01*
X108608570Y-36754161D01*
X108606605Y-36744333D01*
X108690701Y-36718668D01*
X108939679Y-36697426D01*
X109348576Y-36680756D01*
X109912429Y-36668810D01*
X110626274Y-36661738D01*
X111392960Y-36659666D01*
X112221172Y-36657845D01*
X112891366Y-36652102D01*
X113415388Y-36642022D01*
X113805083Y-36627188D01*
X114072298Y-36607183D01*
X114228878Y-36581590D01*
X114281254Y-36558066D01*
X114348533Y-36401789D01*
X114378609Y-36151862D01*
X114371481Y-35879861D01*
X114327150Y-35657361D01*
X114281254Y-35575933D01*
X114172107Y-35549984D01*
X113913442Y-35527502D01*
X113525070Y-35508456D01*
X113026801Y-35492816D01*
X112438447Y-35480552D01*
X111779818Y-35471634D01*
X111070724Y-35466033D01*
X110330977Y-35463717D01*
X109580388Y-35464657D01*
X108838766Y-35468823D01*
X108125924Y-35476185D01*
X107461672Y-35486713D01*
X106865820Y-35500377D01*
X106358179Y-35517146D01*
X105958561Y-35536992D01*
X105686775Y-35559883D01*
X105562633Y-35585789D01*
X105558550Y-35589157D01*
X105552569Y-35680279D01*
X105546769Y-35935713D01*
X105541151Y-36350443D01*
X105535713Y-36919448D01*
X105530456Y-37637708D01*
X105525380Y-38500205D01*
X105520484Y-39501918D01*
X105515770Y-40637830D01*
X105511236Y-41902920D01*
X105506883Y-43292169D01*
X105502711Y-44800557D01*
X105498720Y-46423066D01*
X105494909Y-48154675D01*
X105491278Y-49990366D01*
X105487829Y-51925119D01*
X105484559Y-53953915D01*
X105481471Y-56071734D01*
X105478563Y-58273558D01*
X105475835Y-60554366D01*
X105473288Y-62909139D01*
X105470921Y-65332858D01*
X105468734Y-67820504D01*
X105466728Y-70367057D01*
X105464902Y-72967498D01*
X105463256Y-75616808D01*
X105461791Y-78309966D01*
X105460506Y-81041955D01*
X105459401Y-83807753D01*
X105458476Y-86602343D01*
X105457731Y-89420705D01*
X105457167Y-92257818D01*
X105456782Y-95108665D01*
X105456577Y-97968225D01*
X105456553Y-100831480D01*
X91276840Y-100831480D01*
X91276840Y-35051000D01*
X131458110Y-35051000D01*
G37*
G36*
X109602091Y-159492542D02*
G01*
X109626003Y-159588741D01*
X109652959Y-159801346D01*
X109677567Y-159885075D01*
X109671597Y-159999611D01*
X109613404Y-160019000D01*
X109514737Y-159946151D01*
X109419657Y-159766510D01*
X109404615Y-159722666D01*
X109352822Y-159527112D01*
X109371751Y-159443674D01*
X109468779Y-159426333D01*
X109602091Y-159492542D01*
G37*
G36*
X108760296Y-50335204D02*
G01*
X108776505Y-50375666D01*
X108715534Y-50457909D01*
X108696569Y-50460333D01*
X108581518Y-50398789D01*
X108564130Y-50375666D01*
X108583389Y-50303183D01*
X108644067Y-50291000D01*
X108760296Y-50335204D01*
G37*
G36*
X108826972Y-119758712D02*
G01*
X108818980Y-119802333D01*
X108710375Y-119883770D01*
X108686542Y-119887000D01*
X108608893Y-119822421D01*
X108606605Y-119802333D01*
X108675751Y-119728028D01*
X108739044Y-119717666D01*
X108826972Y-119758712D01*
G37*
G36*
X109557468Y-96312234D02*
G01*
X109588248Y-96373726D01*
X109619870Y-96585866D01*
X109563933Y-96756162D01*
X109455128Y-96821513D01*
X109294095Y-96819161D01*
X109047522Y-96803339D01*
X108967642Y-96796451D01*
X108724042Y-96752194D01*
X108617839Y-96690916D01*
X108656617Y-96634427D01*
X108847958Y-96604539D01*
X108900621Y-96603666D01*
X109215134Y-96533642D01*
X109365379Y-96421005D01*
X109490916Y-96304451D01*
X109557468Y-96312234D01*
G37*
G36*
X108774036Y-74908762D02*
G01*
X108776505Y-74929000D01*
X108711860Y-75011206D01*
X108691555Y-75013666D01*
X108609074Y-74949237D01*
X108606605Y-74929000D01*
X108671250Y-74846793D01*
X108691555Y-74844333D01*
X108774036Y-74908762D01*
G37*
G36*
X108748188Y-106199222D02*
G01*
X108736527Y-106249556D01*
X108691555Y-106255666D01*
X108621632Y-106224688D01*
X108634922Y-106199222D01*
X108735738Y-106189089D01*
X108748188Y-106199222D01*
G37*
G36*
X108898980Y-65309593D02*
G01*
X108903930Y-65361666D01*
X108781018Y-65439570D01*
X108729017Y-65446333D01*
X108619224Y-65398994D01*
X108606605Y-65361666D01*
X108677969Y-65293541D01*
X108781519Y-65277000D01*
X108898980Y-65309593D01*
G37*
G36*
X108691555Y-153796000D02*
G01*
X108772596Y-153872082D01*
X108776505Y-153885663D01*
X108710780Y-153922029D01*
X108691555Y-153923000D01*
X108609870Y-153857912D01*
X108606605Y-153833336D01*
X108658649Y-153782770D01*
X108691555Y-153796000D01*
G37*
G36*
X108774036Y-46291429D02*
G01*
X108776505Y-46311666D01*
X108711860Y-46393873D01*
X108691555Y-46396333D01*
X108609074Y-46331904D01*
X108606605Y-46311666D01*
X108671250Y-46229460D01*
X108691555Y-46227000D01*
X108774036Y-46291429D01*
G37*
G36*
X108774036Y-129349429D02*
G01*
X108776505Y-129369666D01*
X108711860Y-129451873D01*
X108691555Y-129454333D01*
X108609074Y-129389904D01*
X108606605Y-129369666D01*
X108671250Y-129287460D01*
X108691555Y-129285000D01*
X108774036Y-129349429D01*
G37*
G36*
X108774217Y-87100912D02*
G01*
X108776505Y-87121000D01*
X108707359Y-87195304D01*
X108644067Y-87205666D01*
X108556139Y-87164620D01*
X108564130Y-87121000D01*
X108672735Y-87039562D01*
X108696569Y-87036333D01*
X108774217Y-87100912D01*
G37*
G36*
X108774036Y-160676095D02*
G01*
X108776505Y-160696333D01*
X108711860Y-160778539D01*
X108691555Y-160781000D01*
X108609074Y-160716570D01*
X108606605Y-160696333D01*
X108671250Y-160614126D01*
X108691555Y-160611666D01*
X108774036Y-160676095D01*
G37*
G36*
X109612462Y-45535106D02*
G01*
X109626003Y-45617400D01*
X109679787Y-45805209D01*
X109727943Y-45871400D01*
X109771776Y-45948875D01*
X109668235Y-45972739D01*
X109642993Y-45973000D01*
X109507918Y-45939347D01*
X109459241Y-45806619D01*
X109456104Y-45719000D01*
X109480710Y-45540658D01*
X109539997Y-45465019D01*
X109541054Y-45465000D01*
X109612462Y-45535106D01*
G37*
G36*
X108774036Y-107590095D02*
G01*
X108776505Y-107610333D01*
X108711860Y-107692539D01*
X108691555Y-107695000D01*
X108609074Y-107630570D01*
X108606605Y-107610333D01*
X108671250Y-107528126D01*
X108691555Y-107525666D01*
X108774036Y-107590095D01*
G37*
G36*
X108801592Y-68047877D02*
G01*
X108818980Y-68071000D01*
X108799722Y-68143483D01*
X108739044Y-68155666D01*
X108622814Y-68111462D01*
X108606605Y-68071000D01*
X108667576Y-67988756D01*
X108686542Y-67986333D01*
X108801592Y-68047877D01*
G37*
G36*
X109598260Y-117422823D02*
G01*
X109626003Y-117601000D01*
X109604178Y-117779381D01*
X109551596Y-117854981D01*
X109550695Y-117855000D01*
X109487001Y-117781464D01*
X109438471Y-117604272D01*
X109437983Y-117601000D01*
X109438658Y-117404428D01*
X109513291Y-117347000D01*
X109598260Y-117422823D01*
G37*
G36*
X108760296Y-81661871D02*
G01*
X108776505Y-81702333D01*
X108715534Y-81784576D01*
X108696569Y-81787000D01*
X108581518Y-81725455D01*
X108564130Y-81702333D01*
X108583389Y-81629850D01*
X108644067Y-81617666D01*
X108760296Y-81661871D01*
G37*
G36*
X108774036Y-51710095D02*
G01*
X108776505Y-51730333D01*
X108711860Y-51812539D01*
X108691555Y-51815000D01*
X108609074Y-51750570D01*
X108606605Y-51730333D01*
X108671250Y-51648126D01*
X108691555Y-51645666D01*
X108774036Y-51710095D01*
G37*
G36*
X108774036Y-125285429D02*
G01*
X108776505Y-125305666D01*
X108711860Y-125387873D01*
X108691555Y-125390333D01*
X108609074Y-125325904D01*
X108606605Y-125305666D01*
X108671250Y-125223460D01*
X108691555Y-125221000D01*
X108774036Y-125285429D01*
G37*
G36*
X109615162Y-131479268D02*
G01*
X109628528Y-131659205D01*
X109587949Y-131826600D01*
X109500221Y-131908907D01*
X109489490Y-131909666D01*
X109393545Y-131859172D01*
X109404540Y-131775741D01*
X109449325Y-131574730D01*
X109456104Y-131474411D01*
X109489943Y-131361765D01*
X109541054Y-131359333D01*
X109615162Y-131479268D01*
G37*
G36*
X108774036Y-99377429D02*
G01*
X108776505Y-99397666D01*
X108711860Y-99479873D01*
X108691555Y-99482333D01*
X108609074Y-99417904D01*
X108606605Y-99397666D01*
X108671250Y-99315460D01*
X108691555Y-99313000D01*
X108774036Y-99377429D01*
G37*
G36*
X108774036Y-104796095D02*
G01*
X108776505Y-104816333D01*
X108711860Y-104898539D01*
X108691555Y-104901000D01*
X108609074Y-104836570D01*
X108606605Y-104816333D01*
X108671250Y-104734126D01*
X108691555Y-104731666D01*
X108774036Y-104796095D01*
G37*
G36*
X108801592Y-80324544D02*
G01*
X108818980Y-80347666D01*
X108799722Y-80420149D01*
X108739044Y-80432333D01*
X108622814Y-80388128D01*
X108606605Y-80347666D01*
X108667576Y-80265423D01*
X108686542Y-80263000D01*
X108801592Y-80324544D01*
G37*
G36*
X108774036Y-142980762D02*
G01*
X108776505Y-143001000D01*
X108711860Y-143083206D01*
X108691555Y-143085666D01*
X108609074Y-143021237D01*
X108606605Y-143001000D01*
X108671250Y-142918793D01*
X108691555Y-142916333D01*
X108774036Y-142980762D01*
G37*
G36*
X108900804Y-53033736D02*
G01*
X108903930Y-53085000D01*
X108784457Y-53155403D01*
X108681528Y-53169666D01*
X108567256Y-53136263D01*
X108564130Y-53085000D01*
X108683603Y-53014596D01*
X108786532Y-53000333D01*
X108900804Y-53033736D01*
G37*
G36*
X108774036Y-95313429D02*
G01*
X108776505Y-95333666D01*
X108711860Y-95415873D01*
X108691555Y-95418333D01*
X108609074Y-95353904D01*
X108606605Y-95333666D01*
X108671250Y-95251460D01*
X108691555Y-95249000D01*
X108774036Y-95313429D01*
G37*
G36*
X109600700Y-40289239D02*
G01*
X109625997Y-40466506D01*
X109626003Y-40469666D01*
X109601242Y-40653246D01*
X109503583Y-40719402D01*
X109439114Y-40723666D01*
X109315092Y-40705236D01*
X109340733Y-40635931D01*
X109354164Y-40622066D01*
X109443933Y-40452189D01*
X109456104Y-40368066D01*
X109495182Y-40239959D01*
X109541054Y-40215666D01*
X109600700Y-40289239D01*
G37*
G36*
X108747304Y-155244869D02*
G01*
X108734030Y-155277666D01*
X108657694Y-155358437D01*
X108644067Y-155362333D01*
X108607579Y-155296827D01*
X108606605Y-155277666D01*
X108671911Y-155196253D01*
X108696569Y-155193000D01*
X108747304Y-155244869D01*
G37*
G36*
X109754434Y-154203217D02*
G01*
X109732191Y-154233073D01*
X109650081Y-154341331D01*
X109626003Y-154480388D01*
X109596013Y-154636096D01*
X109541054Y-154685000D01*
X109481407Y-154611427D01*
X109456110Y-154434160D01*
X109456104Y-154431000D01*
X109479270Y-154249477D01*
X109573289Y-154186259D01*
X109647241Y-154183684D01*
X109754434Y-154203217D01*
G37*
G36*
X109642126Y-152695333D02*
G01*
X109642003Y-152909750D01*
X109571104Y-152972786D01*
X109425683Y-152885295D01*
X109310477Y-152771060D01*
X109062690Y-152604698D01*
X108817002Y-152568333D01*
X108622091Y-152548454D01*
X108559091Y-152495773D01*
X108564130Y-152483666D01*
X108671261Y-152437990D01*
X108894241Y-152407249D01*
X109112024Y-152399000D01*
X109607415Y-152399000D01*
X109642126Y-152695333D01*
G37*
G36*
X109541054Y-89280000D02*
G01*
X109603103Y-89394875D01*
X109626003Y-89572804D01*
X109609858Y-89725882D01*
X109530162Y-89803515D01*
X109340024Y-89841670D01*
X109264967Y-89849739D01*
X109001590Y-89887969D01*
X108792489Y-89938033D01*
X108755268Y-89951990D01*
X108634188Y-89967723D01*
X108606605Y-89881725D01*
X108655898Y-89787084D01*
X108825640Y-89748503D01*
X108929415Y-89745666D01*
X109242647Y-89699053D01*
X109416155Y-89558079D01*
X109456104Y-89385069D01*
X109491737Y-89279059D01*
X109541054Y-89280000D01*
G37*
G36*
X108774036Y-111654095D02*
G01*
X108776505Y-111674333D01*
X108711860Y-111756539D01*
X108691555Y-111759000D01*
X108609074Y-111694570D01*
X108606605Y-111674333D01*
X108671250Y-111592126D01*
X108691555Y-111589666D01*
X108774036Y-111654095D01*
G37*
G36*
X108691555Y-39411333D02*
G01*
X108772596Y-39487415D01*
X108776505Y-39500996D01*
X108710780Y-39537362D01*
X108691555Y-39538333D01*
X108609870Y-39473245D01*
X108606605Y-39448669D01*
X108658649Y-39398103D01*
X108691555Y-39411333D01*
G37*
G36*
X108774036Y-117072762D02*
G01*
X108776505Y-117093000D01*
X108711860Y-117175206D01*
X108691555Y-117177666D01*
X108609074Y-117113237D01*
X108606605Y-117093000D01*
X108671250Y-117010793D01*
X108691555Y-117008333D01*
X108774036Y-117072762D01*
G37*
G36*
X108774036Y-148399429D02*
G01*
X108776505Y-148419666D01*
X108711860Y-148501873D01*
X108691555Y-148504333D01*
X108609074Y-148439904D01*
X108606605Y-148419666D01*
X108671250Y-148337460D01*
X108691555Y-148335000D01*
X108774036Y-148399429D01*
G37*
G36*
X108691555Y-136100666D02*
G01*
X108772596Y-136176748D01*
X108776505Y-136190330D01*
X108710780Y-136226695D01*
X108691555Y-136227666D01*
X108609870Y-136162578D01*
X108606605Y-136138003D01*
X108658649Y-136087437D01*
X108691555Y-136100666D01*
G37*
G36*
X108774036Y-137477429D02*
G01*
X108776505Y-137497666D01*
X108711860Y-137579873D01*
X108691555Y-137582333D01*
X108609074Y-137517904D01*
X108606605Y-137497666D01*
X108671250Y-137415460D01*
X108691555Y-137413000D01*
X108774036Y-137477429D01*
G37*
G36*
X108846235Y-147018114D02*
G01*
X108903930Y-147065000D01*
X108878613Y-147132267D01*
X108786532Y-147149666D01*
X108621826Y-147111885D01*
X108564130Y-147065000D01*
X108589448Y-146997732D01*
X108681528Y-146980333D01*
X108846235Y-147018114D01*
G37*
G36*
X108898980Y-77586259D02*
G01*
X108903930Y-77638333D01*
X108781018Y-77716237D01*
X108729017Y-77723000D01*
X108619224Y-77675661D01*
X108606605Y-77638333D01*
X108677969Y-77570208D01*
X108781519Y-77553666D01*
X108898980Y-77586259D01*
G37*
G36*
X108793495Y-55777400D02*
G01*
X108835310Y-55853224D01*
X108732442Y-55878382D01*
X108691555Y-55879000D01*
X108556531Y-55861925D01*
X108570102Y-55798084D01*
X108589615Y-55777400D01*
X108705214Y-55719394D01*
X108793495Y-55777400D01*
G37*
G36*
X108774036Y-44936762D02*
G01*
X108776505Y-44957000D01*
X108711860Y-45039206D01*
X108691555Y-45041666D01*
X108609074Y-44977237D01*
X108606605Y-44957000D01*
X108671250Y-44874793D01*
X108691555Y-44872333D01*
X108774036Y-44936762D01*
G37*
G36*
X109611027Y-38508266D02*
G01*
X109626003Y-38600075D01*
X109652959Y-38812679D01*
X109677567Y-38896408D01*
X109669680Y-39009606D01*
X109592617Y-39030333D01*
X109494152Y-38976695D01*
X109457298Y-38796062D01*
X109456104Y-38734000D01*
X109477440Y-38538132D01*
X109529905Y-38440226D01*
X109541054Y-38437666D01*
X109611027Y-38508266D01*
G37*
G36*
X108774036Y-83036762D02*
G01*
X108776505Y-83057000D01*
X108711860Y-83139206D01*
X108691555Y-83141666D01*
X108609074Y-83077237D01*
X108606605Y-83057000D01*
X108671250Y-82974793D01*
X108691555Y-82972333D01*
X108774036Y-83036762D01*
G37*
G36*
X108812140Y-144302821D02*
G01*
X108818980Y-144355666D01*
X108714282Y-144437032D01*
X108691555Y-144440333D01*
X108581542Y-144379035D01*
X108564130Y-144355666D01*
X108590811Y-144289638D01*
X108691555Y-144271000D01*
X108812140Y-144302821D01*
G37*
G36*
X108774036Y-76263429D02*
G01*
X108776505Y-76283666D01*
X108711860Y-76365873D01*
X108691555Y-76368333D01*
X108609074Y-76303904D01*
X108606605Y-76283666D01*
X108671250Y-76201460D01*
X108691555Y-76199000D01*
X108774036Y-76263429D01*
G37*
G36*
X108748188Y-57177222D02*
G01*
X108736527Y-57227556D01*
X108691555Y-57233666D01*
X108621632Y-57202688D01*
X108634922Y-57177222D01*
X108735738Y-57167089D01*
X108748188Y-57177222D01*
G37*
G36*
X108847118Y-40766733D02*
G01*
X108861455Y-40803336D01*
X108805247Y-40913895D01*
X108696296Y-40940372D01*
X108660929Y-40918920D01*
X108609252Y-40796016D01*
X108700176Y-40726124D01*
X108734030Y-40723666D01*
X108847118Y-40766733D01*
G37*
G36*
X108774036Y-69405429D02*
G01*
X108776505Y-69425666D01*
X108711860Y-69507873D01*
X108691555Y-69510333D01*
X108609074Y-69445904D01*
X108606605Y-69425666D01*
X108671250Y-69343460D01*
X108691555Y-69341000D01*
X108774036Y-69405429D01*
G37*
G36*
X108774036Y-162030762D02*
G01*
X108776505Y-162051000D01*
X108711860Y-162133206D01*
X108691555Y-162135666D01*
X108609074Y-162071237D01*
X108606605Y-162051000D01*
X108671250Y-161968793D01*
X108691555Y-161966333D01*
X108774036Y-162030762D01*
G37*
G36*
X108747304Y-58555536D02*
G01*
X108734030Y-58588333D01*
X108657694Y-58669103D01*
X108644067Y-58673000D01*
X108607579Y-58607494D01*
X108606605Y-58588333D01*
X108671911Y-58506920D01*
X108696569Y-58503666D01*
X108747304Y-58555536D01*
G37*
G36*
X108774217Y-118427578D02*
G01*
X108776505Y-118447666D01*
X108707359Y-118521971D01*
X108644067Y-118532333D01*
X108556139Y-118491287D01*
X108564130Y-118447666D01*
X108672735Y-118366229D01*
X108696569Y-118363000D01*
X108774217Y-118427578D01*
G37*
G36*
X109597203Y-47232762D02*
G01*
X109625270Y-47415776D01*
X109626003Y-47454666D01*
X109626003Y-47751000D01*
X109121318Y-47751000D01*
X108843080Y-47737771D01*
X108638678Y-47703486D01*
X108564130Y-47666333D01*
X108602050Y-47610474D01*
X108780663Y-47583100D01*
X108850374Y-47581666D01*
X109133967Y-47537890D01*
X109350629Y-47424399D01*
X109453344Y-47267949D01*
X109456104Y-47236952D01*
X109520929Y-47160576D01*
X109541054Y-47158333D01*
X109597203Y-47232762D01*
G37*
G36*
X108774036Y-70760095D02*
G01*
X108776505Y-70780333D01*
X108711860Y-70862539D01*
X108691555Y-70865000D01*
X108609074Y-70800570D01*
X108606605Y-70780333D01*
X108671250Y-70698126D01*
X108691555Y-70695666D01*
X108774036Y-70760095D01*
G37*
G36*
X109588116Y-138437118D02*
G01*
X109623989Y-138618970D01*
X109626003Y-138697111D01*
X109609558Y-138854741D01*
X109527011Y-138922486D01*
X109328546Y-138938041D01*
X109307442Y-138938156D01*
X109038975Y-138952698D01*
X108812849Y-138986561D01*
X108797743Y-138990364D01*
X108646513Y-138997867D01*
X108606605Y-138909409D01*
X108665383Y-138814225D01*
X108858149Y-138761864D01*
X108965655Y-138751368D01*
X109228751Y-138706005D01*
X109377976Y-138602145D01*
X109419225Y-138535335D01*
X109516070Y-138406273D01*
X109588116Y-138437118D01*
G37*
G36*
X109398444Y-61216447D02*
G01*
X109550728Y-61239830D01*
X109613202Y-61302713D01*
X109625910Y-61424658D01*
X109626003Y-61462003D01*
X109597864Y-61680549D01*
X109525736Y-61753599D01*
X109428055Y-61671242D01*
X109385397Y-61591345D01*
X109288060Y-61450882D01*
X109129195Y-61391526D01*
X108948226Y-61382333D01*
X108734771Y-61363648D01*
X108615598Y-61316944D01*
X108606605Y-61297666D01*
X108683983Y-61252568D01*
X108886120Y-61221993D01*
X109116304Y-61213000D01*
X109398444Y-61216447D01*
G37*
G36*
X109600700Y-124447905D02*
G01*
X109625997Y-124625173D01*
X109626003Y-124628333D01*
X109601397Y-124806675D01*
X109542110Y-124882313D01*
X109541054Y-124882333D01*
X109481407Y-124808760D01*
X109456110Y-124631493D01*
X109456104Y-124628333D01*
X109480710Y-124449991D01*
X109539997Y-124374352D01*
X109541054Y-124374333D01*
X109600700Y-124447905D01*
G37*
G36*
X108826972Y-132035379D02*
G01*
X108818980Y-132079000D01*
X108710375Y-132160437D01*
X108686542Y-132163666D01*
X108608893Y-132099087D01*
X108606605Y-132079000D01*
X108675751Y-132004695D01*
X108739044Y-131994333D01*
X108826972Y-132035379D01*
G37*
G36*
X108801592Y-92601210D02*
G01*
X108818980Y-92624333D01*
X108799722Y-92696816D01*
X108739044Y-92709000D01*
X108622814Y-92664795D01*
X108606605Y-92624333D01*
X108667576Y-92542090D01*
X108686542Y-92539666D01*
X108801592Y-92601210D01*
G37*
G36*
X109600700Y-75341239D02*
G01*
X109625997Y-75518506D01*
X109626003Y-75521666D01*
X109601397Y-75700008D01*
X109542110Y-75775647D01*
X109541054Y-75775666D01*
X109481407Y-75702094D01*
X109456110Y-75524826D01*
X109456104Y-75521666D01*
X109480710Y-75343324D01*
X109539997Y-75267686D01*
X109541054Y-75267666D01*
X109600700Y-75341239D01*
G37*
G36*
X109603584Y-82368612D02*
G01*
X109625998Y-82545961D01*
X109626003Y-82549000D01*
X109592357Y-82740479D01*
X109513291Y-82803000D01*
X109435893Y-82736246D01*
X109437983Y-82549000D01*
X109486043Y-82370695D01*
X109549722Y-82295020D01*
X109550695Y-82295000D01*
X109603584Y-82368612D01*
G37*
G36*
X108760296Y-112988537D02*
G01*
X108776505Y-113029000D01*
X108715534Y-113111243D01*
X108696569Y-113113666D01*
X108581518Y-113052122D01*
X108564130Y-113029000D01*
X108583389Y-112956516D01*
X108644067Y-112944333D01*
X108760296Y-112988537D01*
G37*
G36*
X108774036Y-63986762D02*
G01*
X108776505Y-64007000D01*
X108711860Y-64089206D01*
X108691555Y-64091666D01*
X108609074Y-64027237D01*
X108606605Y-64007000D01*
X108671250Y-63924793D01*
X108691555Y-63922333D01*
X108774036Y-63986762D01*
G37*
G36*
X108774036Y-130704095D02*
G01*
X108776505Y-130724333D01*
X108711860Y-130806539D01*
X108691555Y-130809000D01*
X108609074Y-130744570D01*
X108606605Y-130724333D01*
X108671250Y-130642126D01*
X108691555Y-130639666D01*
X108774036Y-130704095D01*
G37*
G36*
X108774036Y-38078762D02*
G01*
X108776505Y-38099000D01*
X108711860Y-38181206D01*
X108691555Y-38183666D01*
X108609074Y-38119237D01*
X108606605Y-38099000D01*
X108671250Y-38016793D01*
X108691555Y-38014333D01*
X108774036Y-38078762D01*
G37*
G36*
X109617441Y-147152241D02*
G01*
X109803731Y-147161874D01*
X109839715Y-147193510D01*
X109774666Y-147241115D01*
X109650484Y-147385571D01*
X109626003Y-147487543D01*
X109597262Y-147654602D01*
X109527180Y-147670650D01*
X109439967Y-147540898D01*
X109402561Y-147439458D01*
X109311554Y-147149666D01*
X109617441Y-147152241D01*
G37*
G36*
X109598148Y-54239015D02*
G01*
X109613304Y-54417888D01*
X109610148Y-54454313D01*
X109560038Y-54647528D01*
X109476144Y-54757631D01*
X109391394Y-54753698D01*
X109356585Y-54692438D01*
X109260191Y-54623965D01*
X109056099Y-54564963D01*
X108965816Y-54550056D01*
X108713630Y-54495930D01*
X108617553Y-54433543D01*
X108679819Y-54380736D01*
X108902662Y-54355355D01*
X108941391Y-54355000D01*
X109167590Y-54335318D01*
X109312578Y-54286435D01*
X109328679Y-54270333D01*
X109451199Y-54193342D01*
X109508974Y-54185666D01*
X109598148Y-54239015D01*
G37*
G36*
X109646214Y-161271087D02*
G01*
X109644124Y-161458333D01*
X109596064Y-161636637D01*
X109532385Y-161712312D01*
X109531412Y-161712333D01*
X109478524Y-161638720D01*
X109456109Y-161461372D01*
X109456104Y-161458333D01*
X109489750Y-161266854D01*
X109568816Y-161204333D01*
X109646214Y-161271087D01*
G37*
G36*
X108774036Y-93958762D02*
G01*
X108776505Y-93979000D01*
X108711860Y-94061206D01*
X108691555Y-94063666D01*
X108609074Y-93999237D01*
X108606605Y-93979000D01*
X108671250Y-93896793D01*
X108691555Y-93894333D01*
X108774036Y-93958762D01*
G37*
G36*
X108872074Y-110266750D02*
G01*
X109152083Y-110306220D01*
X109381773Y-110319666D01*
X109556206Y-110342590D01*
X109619467Y-110447208D01*
X109626003Y-110568669D01*
X109599950Y-110787986D01*
X109533159Y-110853484D01*
X109442680Y-110758929D01*
X109395169Y-110653082D01*
X109311986Y-110491279D01*
X109186318Y-110420197D01*
X108955168Y-110404333D01*
X108953784Y-110404333D01*
X108728963Y-110383288D01*
X108613127Y-110328723D01*
X108606605Y-110309083D01*
X108680371Y-110251246D01*
X108872074Y-110266750D01*
G37*
G36*
X108873648Y-134755266D02*
G01*
X108903930Y-134788333D01*
X108877919Y-134854973D01*
X108781519Y-134873000D01*
X108640778Y-134838456D01*
X108606605Y-134788333D01*
X108675048Y-134712394D01*
X108729017Y-134703666D01*
X108873648Y-134755266D01*
G37*
G36*
X108774036Y-100732095D02*
G01*
X108776505Y-100752333D01*
X108711860Y-100834539D01*
X108691555Y-100837000D01*
X108609074Y-100772570D01*
X108606605Y-100752333D01*
X108671250Y-100670126D01*
X108691555Y-100667666D01*
X108774036Y-100732095D01*
G37*
G36*
X108873648Y-159308600D02*
G01*
X108903930Y-159341666D01*
X108877919Y-159408307D01*
X108781519Y-159426333D01*
X108640778Y-159391789D01*
X108606605Y-159341666D01*
X108675048Y-159265727D01*
X108729017Y-159257000D01*
X108873648Y-159308600D01*
G37*
G36*
X108826972Y-156588712D02*
G01*
X108818980Y-156632333D01*
X108710375Y-156713770D01*
X108686542Y-156717000D01*
X108608893Y-156652421D01*
X108606605Y-156632333D01*
X108675751Y-156558028D01*
X108739044Y-156547666D01*
X108826972Y-156588712D01*
G37*
%TD*%
D10*
%TO.C,*%
X108650000Y-52775000D03*
%TD*%
D11*
%TO.C,*%
X111200000Y-161325000D03*
%TD*%
D12*
%TO.C,*%
X108225000Y-137475000D03*
%TD*%
%TO.C,*%
X108175000Y-89875000D03*
%TD*%
D11*
%TO.C,*%
X111175000Y-38800000D03*
%TD*%
D12*
%TO.C,*%
X108175000Y-78875000D03*
%TD*%
%TO.C,*%
X108200000Y-148475000D03*
%TD*%
%TO.C,*%
X108200000Y-126450000D03*
%TD*%
D10*
%TO.C,*%
X108650000Y-111375000D03*
%TD*%
D12*
%TO.C,*%
X108175000Y-67850000D03*
%TD*%
M02*
