%TF.GenerationSoftware,KiCad,Pcbnew,(6.0.2-0)*%
%TF.CreationDate,2022-07-30T11:22:51+02:00*%
%TF.ProjectId,blindeTaube,626c696e-6465-4546-9175-62652e6b6963,rev?*%
%TF.SameCoordinates,Original*%
%TF.FileFunction,Paste,Bot*%
%TF.FilePolarity,Positive*%
%FSLAX46Y46*%
G04 Gerber Fmt 4.6, Leading zero omitted, Abs format (unit mm)*
G04 Created by KiCad (PCBNEW (6.0.2-0)) date 2022-07-30 11:22:51*
%MOMM*%
%LPD*%
G01*
G04 APERTURE LIST*
G04 Aperture macros list*
%AMRoundRect*
0 Rectangle with rounded corners*
0 $1 Rounding radius*
0 $2 $3 $4 $5 $6 $7 $8 $9 X,Y pos of 4 corners*
0 Add a 4 corners polygon primitive as box body*
4,1,4,$2,$3,$4,$5,$6,$7,$8,$9,$2,$3,0*
0 Add four circle primitives for the rounded corners*
1,1,$1+$1,$2,$3*
1,1,$1+$1,$4,$5*
1,1,$1+$1,$6,$7*
1,1,$1+$1,$8,$9*
0 Add four rect primitives between the rounded corners*
20,1,$1+$1,$2,$3,$4,$5,0*
20,1,$1+$1,$4,$5,$6,$7,0*
20,1,$1+$1,$6,$7,$8,$9,0*
20,1,$1+$1,$8,$9,$2,$3,0*%
G04 Aperture macros list end*
%ADD10RoundRect,0.250000X-0.350000X-0.450000X0.350000X-0.450000X0.350000X0.450000X-0.350000X0.450000X0*%
%ADD11RoundRect,0.250000X0.450000X-0.350000X0.450000X0.350000X-0.450000X0.350000X-0.450000X-0.350000X0*%
%ADD12RoundRect,0.250000X0.350000X0.450000X-0.350000X0.450000X-0.350000X-0.450000X0.350000X-0.450000X0*%
%ADD13RoundRect,0.250000X-0.450000X0.350000X-0.450000X-0.350000X0.450000X-0.350000X0.450000X0.350000X0*%
%ADD14RoundRect,0.250000X0.475000X-0.337500X0.475000X0.337500X-0.475000X0.337500X-0.475000X-0.337500X0*%
%ADD15RoundRect,0.250000X-0.337500X-0.475000X0.337500X-0.475000X0.337500X0.475000X-0.337500X0.475000X0*%
%ADD16R,1.900000X0.800000*%
%ADD17RoundRect,0.250000X0.337500X0.475000X-0.337500X0.475000X-0.337500X-0.475000X0.337500X-0.475000X0*%
%ADD18RoundRect,0.250000X-0.475000X0.337500X-0.475000X-0.337500X0.475000X-0.337500X0.475000X0.337500X0*%
%ADD19RoundRect,0.150000X-0.150000X0.825000X-0.150000X-0.825000X0.150000X-0.825000X0.150000X0.825000X0*%
%ADD20RoundRect,0.150000X0.150000X-0.825000X0.150000X0.825000X-0.150000X0.825000X-0.150000X-0.825000X0*%
G04 APERTURE END LIST*
D10*
%TO.C,R14*%
X66310000Y-76962000D03*
X68310000Y-76962000D03*
%TD*%
D11*
%TO.C,R35*%
X69550000Y-130375000D03*
X69550000Y-128375000D03*
%TD*%
D12*
%TO.C,R36*%
X59000000Y-114400000D03*
X57000000Y-114400000D03*
%TD*%
%TO.C,R23*%
X66900000Y-44775000D03*
X64900000Y-44775000D03*
%TD*%
D13*
%TO.C,R31*%
X67056000Y-96282000D03*
X67056000Y-98282000D03*
%TD*%
%TO.C,R27*%
X57404000Y-46752000D03*
X57404000Y-48752000D03*
%TD*%
D11*
%TO.C,R44*%
X67325000Y-111900000D03*
X67325000Y-109900000D03*
%TD*%
D14*
%TO.C,C33*%
X62300000Y-104537500D03*
X62300000Y-102462500D03*
%TD*%
D11*
%TO.C,R22*%
X64008000Y-77200000D03*
X64008000Y-75200000D03*
%TD*%
D13*
%TO.C,R50*%
X75950000Y-110100000D03*
X75950000Y-112100000D03*
%TD*%
D12*
%TO.C,R5*%
X59166000Y-62484000D03*
X57166000Y-62484000D03*
%TD*%
D15*
%TO.C,C18*%
X57128500Y-96520000D03*
X59203500Y-96520000D03*
%TD*%
D16*
%TO.C,D11*%
X68875000Y-94025000D03*
X68875000Y-92125000D03*
X71875000Y-93075000D03*
%TD*%
D13*
%TO.C,R11*%
X71150000Y-51350000D03*
X71150000Y-53350000D03*
%TD*%
D15*
%TO.C,C27*%
X70062500Y-86525000D03*
X72137500Y-86525000D03*
%TD*%
D17*
%TO.C,C1*%
X67331500Y-55118000D03*
X65256500Y-55118000D03*
%TD*%
D11*
%TO.C,R48*%
X66850000Y-89625000D03*
X66850000Y-87625000D03*
%TD*%
D13*
%TO.C,R24*%
X57404000Y-50816000D03*
X57404000Y-52816000D03*
%TD*%
D18*
%TO.C,C30*%
X61700000Y-62716500D03*
X61700000Y-64791500D03*
%TD*%
D15*
%TO.C,C5*%
X57262500Y-57404000D03*
X59337500Y-57404000D03*
%TD*%
D19*
%TO.C,U5*%
X57150000Y-106999000D03*
X58420000Y-106999000D03*
X59690000Y-106999000D03*
X60960000Y-106999000D03*
X62230000Y-106999000D03*
X63500000Y-106999000D03*
X64770000Y-106999000D03*
X64770000Y-111949000D03*
X63500000Y-111949000D03*
X62230000Y-111949000D03*
X60960000Y-111949000D03*
X59690000Y-111949000D03*
X58420000Y-111949000D03*
X57150000Y-111949000D03*
%TD*%
D13*
%TO.C,R43*%
X72225000Y-104450000D03*
X72225000Y-106450000D03*
%TD*%
%TO.C,R2*%
X64100000Y-57420000D03*
X64100000Y-59420000D03*
%TD*%
%TO.C,R47*%
X62300000Y-98400000D03*
X62300000Y-100400000D03*
%TD*%
D12*
%TO.C,R55*%
X61960000Y-79756000D03*
X59960000Y-79756000D03*
%TD*%
D16*
%TO.C,D12*%
X70250000Y-90350000D03*
X70250000Y-88450000D03*
X73250000Y-89400000D03*
%TD*%
D17*
%TO.C,C38*%
X63337500Y-114850000D03*
X61262500Y-114850000D03*
%TD*%
D15*
%TO.C,C23*%
X74087500Y-92375000D03*
X76162500Y-92375000D03*
%TD*%
D10*
%TO.C,R109*%
X74050000Y-86500000D03*
X76050000Y-86500000D03*
%TD*%
D11*
%TO.C,R18*%
X69000000Y-53150000D03*
X69000000Y-51150000D03*
%TD*%
D10*
%TO.C,R28*%
X56925000Y-44800000D03*
X58925000Y-44800000D03*
%TD*%
D13*
%TO.C,R3*%
X62050000Y-57450000D03*
X62050000Y-59450000D03*
%TD*%
D10*
%TO.C,R4*%
X57166000Y-64770000D03*
X59166000Y-64770000D03*
%TD*%
D12*
%TO.C,R34*%
X59200000Y-102300000D03*
X57200000Y-102300000D03*
%TD*%
D13*
%TO.C,R40*%
X73975000Y-110125000D03*
X73975000Y-112125000D03*
%TD*%
%TO.C,R32*%
X65024000Y-96282000D03*
X65024000Y-98282000D03*
%TD*%
%TO.C,R54*%
X57150000Y-81042000D03*
X57150000Y-83042000D03*
%TD*%
D10*
%TO.C,R33*%
X57200000Y-104648000D03*
X59200000Y-104648000D03*
%TD*%
D11*
%TO.C,R42*%
X75250000Y-131750000D03*
X75250000Y-129750000D03*
%TD*%
%TO.C,R13*%
X72250000Y-47225000D03*
X72250000Y-45225000D03*
%TD*%
%TO.C,R19*%
X61976000Y-77200000D03*
X61976000Y-75200000D03*
%TD*%
D19*
%TO.C,U2*%
X56642000Y-67375000D03*
X57912000Y-67375000D03*
X59182000Y-67375000D03*
X60452000Y-67375000D03*
X61722000Y-67375000D03*
X62992000Y-67375000D03*
X64262000Y-67375000D03*
X64262000Y-72325000D03*
X62992000Y-72325000D03*
X61722000Y-72325000D03*
X60452000Y-72325000D03*
X59182000Y-72325000D03*
X57912000Y-72325000D03*
X56642000Y-72325000D03*
%TD*%
D15*
%TO.C,C25*%
X74112500Y-94700000D03*
X76187500Y-94700000D03*
%TD*%
D10*
%TO.C,R6*%
X70250000Y-75750000D03*
X72250000Y-75750000D03*
%TD*%
D11*
%TO.C,R52*%
X69225000Y-119325000D03*
X69225000Y-117325000D03*
%TD*%
D17*
%TO.C,C14*%
X65807500Y-94234000D03*
X63732500Y-94234000D03*
%TD*%
D18*
%TO.C,C2*%
X66575000Y-66912500D03*
X66575000Y-68987500D03*
%TD*%
D12*
%TO.C,R12*%
X71866000Y-79502000D03*
X69866000Y-79502000D03*
%TD*%
D20*
%TO.C,U1*%
X67056000Y-52125000D03*
X65786000Y-52125000D03*
X64516000Y-52125000D03*
X63246000Y-52125000D03*
X61976000Y-52125000D03*
X60706000Y-52125000D03*
X59436000Y-52125000D03*
X59436000Y-47175000D03*
X60706000Y-47175000D03*
X61976000Y-47175000D03*
X63246000Y-47175000D03*
X64516000Y-47175000D03*
X65786000Y-47175000D03*
X67056000Y-47175000D03*
%TD*%
D10*
%TO.C,R21*%
X57300000Y-55118000D03*
X59300000Y-55118000D03*
%TD*%
D13*
%TO.C,R8*%
X57404000Y-75200000D03*
X57404000Y-77200000D03*
%TD*%
D12*
%TO.C,R39*%
X66278000Y-104140000D03*
X64278000Y-104140000D03*
%TD*%
D15*
%TO.C,C26*%
X71172500Y-99240000D03*
X73247500Y-99240000D03*
%TD*%
%TO.C,C24*%
X71142500Y-97050000D03*
X73217500Y-97050000D03*
%TD*%
D12*
%TO.C,R17*%
X59250000Y-60198000D03*
X57250000Y-60198000D03*
%TD*%
%TO.C,R10*%
X65900000Y-64775000D03*
X63900000Y-64775000D03*
%TD*%
%TO.C,R7*%
X66024000Y-79502000D03*
X64024000Y-79502000D03*
%TD*%
D10*
%TO.C,R51*%
X57166000Y-94488000D03*
X59166000Y-94488000D03*
%TD*%
D20*
%TO.C,U4*%
X65024000Y-91629000D03*
X63754000Y-91629000D03*
X62484000Y-91629000D03*
X61214000Y-91629000D03*
X59944000Y-91629000D03*
X58674000Y-91629000D03*
X57404000Y-91629000D03*
X57404000Y-86679000D03*
X58674000Y-86679000D03*
X59944000Y-86679000D03*
X61214000Y-86679000D03*
X62484000Y-86679000D03*
X63754000Y-86679000D03*
X65024000Y-86679000D03*
%TD*%
D17*
%TO.C,C15*%
X66315500Y-102108000D03*
X64240500Y-102108000D03*
%TD*%
D18*
%TO.C,C35*%
X59944000Y-75162500D03*
X59944000Y-77237500D03*
%TD*%
D11*
%TO.C,R25*%
X68775000Y-68950000D03*
X68775000Y-66950000D03*
%TD*%
%TO.C,R29*%
X59400000Y-100400000D03*
X59400000Y-98400000D03*
%TD*%
D14*
%TO.C,C28*%
X75775000Y-90462500D03*
X75775000Y-88387500D03*
%TD*%
D15*
%TO.C,C34*%
X60812500Y-44775000D03*
X62887500Y-44775000D03*
%TD*%
D14*
%TO.C,C37*%
X61214000Y-83841500D03*
X61214000Y-81766500D03*
%TD*%
D13*
%TO.C,R20*%
X74775000Y-51800000D03*
X74775000Y-53800000D03*
%TD*%
%TO.C,R108*%
X75975000Y-96650000D03*
X75975000Y-98650000D03*
%TD*%
%TO.C,R53*%
X63500000Y-81804000D03*
X63500000Y-83804000D03*
%TD*%
D15*
%TO.C,C29*%
X61192500Y-55118000D03*
X63267500Y-55118000D03*
%TD*%
D12*
%TO.C,R49*%
X67225000Y-114875000D03*
X65225000Y-114875000D03*
%TD*%
D11*
%TO.C,R26*%
X64425000Y-118950000D03*
X64425000Y-116950000D03*
%TD*%
D14*
%TO.C,C32*%
X61468000Y-96541500D03*
X61468000Y-94466500D03*
%TD*%
D13*
%TO.C,R56*%
X59182000Y-81804000D03*
X59182000Y-83804000D03*
%TD*%
M02*
