M48
; DRILL file {KiCad (6.0.2-0)} date 2022 July 30, Saturday 11:22:37
; FORMAT={-:-/ absolute / inch / decimal}
; #@! TF.CreationDate,2022-07-30T11:22:37+02:00
; #@! TF.GenerationSoftware,Kicad,Pcbnew,(6.0.2-0)
; #@! TF.FileFunction,Plated,1,2,PTH
FMAT,2
INCH
; #@! TA.AperFunction,Plated,PTH,ViaDrill
T1C0.0157
; #@! TA.AperFunction,Plated,PTH,ComponentDrill
T2C0.0236
; #@! TA.AperFunction,Plated,PTH,ComponentDrill
T3C0.0315
; #@! TA.AperFunction,Plated,PTH,ComponentDrill
T4C0.0394
%
G90
G05
T1
X2.2421Y-1.7106
X2.2423Y-3.0806
X2.251Y-4.3524
X2.253Y-3.8691
X2.2539Y-2.3161
X2.259Y-3.9085
X2.26Y-3.47
X2.2798Y-2.6998
X2.3155Y-3.5379
X2.3171Y-3.1415
X2.32Y-3.19
X2.34Y-1.91
X2.3515Y-3.3469
X2.354Y-2.9219
X2.38Y-2.0
X2.3825Y-2.7014
X2.3828Y-4.0957
X2.3961Y-1.9012
X2.3967Y-1.7156
X2.3996Y-4.0384
X2.4016Y-4.4498
X2.4035Y-2.2618
X2.412Y-3.3382
X2.4134Y-4.564
X2.42Y-4.34
X2.4419Y-4.2785
X2.4429Y-3.4861
X2.4488Y-2.439
X2.46Y-3.37
X2.4675Y-4.5965
X2.4908Y-2.1168
X2.503Y-4.753
X2.51Y-3.35
X2.53Y-2.9
X2.5659Y-2.6063
X2.5984Y-3.935
X2.623Y-1.9311
X2.63Y-2.21
X2.6319Y-2.9587
X2.6339Y-3.6063
X2.65Y-3.56
X2.6752Y-3.1969
X2.6969Y-2.9921
X2.7089Y-3.9026
X2.7146Y-4.4331
X2.7163Y-3.9413
X2.72Y-3.22
X2.7293Y-5.0128
X2.7521Y-3.8389
X2.7559Y-4.3307
X2.7697Y-3.7717
X2.789Y-3.9746
X2.8199Y-3.4921
X2.8287Y-4.2165
X2.8356Y-3.9616
X2.8474Y-4.2766
X2.8484Y-1.7362
X2.8504Y-4.0384
X2.8652Y-4.8494
X2.8661Y-3.7579
X2.8986Y-4.5197
X2.9193Y-3.1831
X2.936Y-3.8701
X2.937Y-3.9183
X2.939Y-5.0256
X2.9744Y-3.3671
X2.9783Y-4.622
X2.9783Y-4.8878
X3.0157Y-4.5787
X3.0217Y-4.9764
X3.0295Y-3.7008
X3.0344Y-5.0443
X3.0413Y-1.7677
X3.0453Y-3.5079
X3.0699Y-4.06
X3.0736Y-4.0128
T3
X2.3337Y-4.6435
X2.3337Y-4.7419
X2.3396Y-5.5549
X2.3396Y-5.6533
T4
X2.2702Y-4.9398
X2.2702Y-5.0398
X2.2702Y-5.1398
X2.2702Y-5.2398
X2.2702Y-5.3398
X2.3702Y-4.9398
X2.3702Y-5.0398
X2.3702Y-5.1398
X2.3702Y-5.2398
X2.3702Y-5.3398
X2.7451Y-1.7205
X2.7451Y-1.8189
X2.7451Y-1.9173
X2.7461Y-4.0315
X2.7461Y-4.1299
X2.7461Y-4.2283
X2.7835Y-2.189
X2.81Y-4.4252
X2.812Y-2.626
X2.9419Y-1.7205
X2.9419Y-1.8189
X2.9419Y-1.9173
X2.9429Y-4.0315
X2.9429Y-4.1299
X2.9429Y-4.2283
T2
G00X2.6273Y-3.3169
M15
G01X2.6273Y-3.2421
M16
G05
G00X2.628Y-5.6358
M15
G01X2.628Y-5.561
M16
G05
G00X2.6292Y-2.4469
M15
G01X2.6292Y-2.372
M16
G05
G00X2.6292Y-5.1949
M15
G01X2.6292Y-5.1201
M16
G05
G00X2.6299Y-2.8819
M15
G01X2.6299Y-2.8071
M16
G05
G00X2.6299Y-4.7559
M15
G01X2.6299Y-4.6811
M16
G05
G00X2.8556Y-3.3169
M15
G01X2.8556Y-3.2421
M16
G05
G00X2.8563Y-5.6358
M15
G01X2.8563Y-5.561
M16
G05
G00X2.8576Y-2.4469
M15
G01X2.8576Y-2.372
M16
G05
G00X2.8576Y-5.1949
M15
G01X2.8576Y-5.1201
M16
G05
G00X2.8583Y-2.8819
M15
G01X2.8583Y-2.8071
M16
G05
G00X2.8583Y-4.7559
M15
G01X2.8583Y-4.6811
M16
G05
G00X3.0643Y-3.3169
M15
G01X3.0643Y-3.2421
M16
G05
G00X3.065Y-5.6358
M15
G01X3.065Y-5.561
M16
G05
G00X3.0662Y-2.4469
M15
G01X3.0662Y-2.372
M16
G05
G00X3.0662Y-5.1949
M15
G01X3.0662Y-5.1201
M16
G05
G00X3.0669Y-2.8819
M15
G01X3.0669Y-2.8071
M16
G05
G00X3.0669Y-4.7559
M15
G01X3.0669Y-4.6811
M16
G05
T0
M30
