%TF.GenerationSoftware,KiCad,Pcbnew,(6.0.2-0)*%
%TF.CreationDate,2022-07-30T11:22:52+02:00*%
%TF.ProjectId,blindeTaube,626c696e-6465-4546-9175-62652e6b6963,rev?*%
%TF.SameCoordinates,Original*%
%TF.FileFunction,Soldermask,Bot*%
%TF.FilePolarity,Negative*%
%FSLAX46Y46*%
G04 Gerber Fmt 4.6, Leading zero omitted, Abs format (unit mm)*
G04 Created by KiCad (PCBNEW (6.0.2-0)) date 2022-07-30 11:22:52*
%MOMM*%
%LPD*%
G01*
G04 APERTURE LIST*
G04 Aperture macros list*
%AMRoundRect*
0 Rectangle with rounded corners*
0 $1 Rounding radius*
0 $2 $3 $4 $5 $6 $7 $8 $9 X,Y pos of 4 corners*
0 Add a 4 corners polygon primitive as box body*
4,1,4,$2,$3,$4,$5,$6,$7,$8,$9,$2,$3,0*
0 Add four circle primitives for the rounded corners*
1,1,$1+$1,$2,$3*
1,1,$1+$1,$4,$5*
1,1,$1+$1,$6,$7*
1,1,$1+$1,$8,$9*
0 Add four rect primitives between the rounded corners*
20,1,$1+$1,$2,$3,$4,$5,0*
20,1,$1+$1,$4,$5,$6,$7,0*
20,1,$1+$1,$6,$7,$8,$9,0*
20,1,$1+$1,$8,$9,$2,$3,0*%
G04 Aperture macros list end*
%ADD10R,1.600000X3.500000*%
%ADD11O,1.600000X3.500000*%
%ADD12R,1.700000X1.700000*%
%ADD13R,1.600000X1.600000*%
%ADD14C,1.600000*%
%ADD15C,1.800000*%
%ADD16O,1.700000X1.700000*%
%ADD17RoundRect,0.250000X-0.350000X-0.450000X0.350000X-0.450000X0.350000X0.450000X-0.350000X0.450000X0*%
%ADD18RoundRect,0.250000X0.450000X-0.350000X0.450000X0.350000X-0.450000X0.350000X-0.450000X-0.350000X0*%
%ADD19RoundRect,0.250000X0.350000X0.450000X-0.350000X0.450000X-0.350000X-0.450000X0.350000X-0.450000X0*%
%ADD20RoundRect,0.250000X-0.450000X0.350000X-0.450000X-0.350000X0.450000X-0.350000X0.450000X0.350000X0*%
%ADD21RoundRect,0.250000X0.475000X-0.337500X0.475000X0.337500X-0.475000X0.337500X-0.475000X-0.337500X0*%
%ADD22RoundRect,0.250000X-0.337500X-0.475000X0.337500X-0.475000X0.337500X0.475000X-0.337500X0.475000X0*%
%ADD23R,1.900000X0.800000*%
%ADD24RoundRect,0.250000X0.337500X0.475000X-0.337500X0.475000X-0.337500X-0.475000X0.337500X-0.475000X0*%
%ADD25RoundRect,0.250000X-0.475000X0.337500X-0.475000X-0.337500X0.475000X-0.337500X0.475000X0.337500X0*%
%ADD26RoundRect,0.150000X-0.150000X0.825000X-0.150000X-0.825000X0.150000X-0.825000X0.150000X0.825000X0*%
%ADD27RoundRect,0.150000X0.150000X-0.825000X0.150000X0.825000X-0.150000X0.825000X-0.150000X-0.825000X0*%
G04 APERTURE END LIST*
%TO.C,G\u002A\u002A\u002A*%
G36*
X65850427Y-133662259D02*
G01*
X65909617Y-133686209D01*
X65997988Y-133723552D01*
X66111006Y-133772262D01*
X66244140Y-133830311D01*
X66392858Y-133895673D01*
X66552628Y-133966320D01*
X66718917Y-134040225D01*
X66887193Y-134115361D01*
X67052924Y-134189700D01*
X67211577Y-134261216D01*
X67358622Y-134327881D01*
X67489525Y-134387668D01*
X67599754Y-134438549D01*
X67684777Y-134478498D01*
X67740062Y-134505488D01*
X67761078Y-134517491D01*
X67774171Y-134552735D01*
X67785704Y-134613439D01*
X67793130Y-134684184D01*
X67795576Y-134752038D01*
X67792167Y-134804072D01*
X67782029Y-134827356D01*
X67768140Y-134839241D01*
X67783224Y-134867249D01*
X67785440Y-134870547D01*
X67796748Y-134911643D01*
X67805992Y-134991657D01*
X67813271Y-135111725D01*
X67818684Y-135272987D01*
X67827951Y-135647164D01*
X67110181Y-134944252D01*
X66874289Y-134712971D01*
X66652899Y-134495260D01*
X66460257Y-134305038D01*
X66295428Y-134141356D01*
X66157473Y-134003265D01*
X66045455Y-133889815D01*
X65958438Y-133800056D01*
X65895482Y-133733038D01*
X65855652Y-133687811D01*
X65838010Y-133663426D01*
X65841618Y-133658933D01*
X65850427Y-133662259D01*
G37*
G36*
X67873681Y-133035239D02*
G01*
X67912980Y-133058243D01*
X67925379Y-133101276D01*
X67906245Y-133148433D01*
X67879418Y-133171360D01*
X67836948Y-133173711D01*
X67800443Y-133135469D01*
X67797265Y-133128955D01*
X67793007Y-133079082D01*
X67821257Y-133043792D01*
X67873242Y-133035175D01*
X67873681Y-133035239D01*
G37*
G36*
X65322602Y-135669814D02*
G01*
X65338078Y-135670327D01*
X65454315Y-135673882D01*
X65599945Y-135677944D01*
X65769451Y-135682388D01*
X65957311Y-135687091D01*
X66158009Y-135691931D01*
X66366023Y-135696783D01*
X66575836Y-135701526D01*
X66781928Y-135706036D01*
X66978780Y-135710190D01*
X67160873Y-135713865D01*
X67322688Y-135716938D01*
X67458706Y-135719285D01*
X67563407Y-135720783D01*
X67631273Y-135721310D01*
X67822352Y-135721310D01*
X67822352Y-136121723D01*
X67562844Y-136110835D01*
X67518604Y-136108980D01*
X67426958Y-136105849D01*
X67369067Y-136106904D01*
X67345733Y-136114371D01*
X67357757Y-136130478D01*
X67405942Y-136157450D01*
X67491088Y-136197514D01*
X67613999Y-136252896D01*
X67620101Y-136255638D01*
X67712459Y-136297742D01*
X67789993Y-136334157D01*
X67844729Y-136361069D01*
X67868689Y-136374664D01*
X67875169Y-136393537D01*
X67885360Y-136447321D01*
X67896824Y-136526419D01*
X67908095Y-136621643D01*
X67915587Y-136684914D01*
X67933112Y-136805920D01*
X67953311Y-136921128D01*
X67973149Y-137012321D01*
X67977144Y-137028382D01*
X67992829Y-137102690D01*
X68000063Y-137158274D01*
X67997295Y-137184113D01*
X67983408Y-137191617D01*
X67935144Y-137213529D01*
X67859390Y-137246153D01*
X67763012Y-137286543D01*
X67652877Y-137331758D01*
X67572796Y-137364603D01*
X67471126Y-137407205D01*
X67387848Y-137443163D01*
X67329944Y-137469448D01*
X67304395Y-137483027D01*
X67306432Y-137485605D01*
X67339369Y-137490472D01*
X67406187Y-137494649D01*
X67501199Y-137497912D01*
X67618715Y-137500035D01*
X67753047Y-137500793D01*
X68221823Y-137500793D01*
X68322227Y-137633195D01*
X68323445Y-137634800D01*
X68382503Y-137712061D01*
X68441152Y-137787822D01*
X68486864Y-137845902D01*
X68551098Y-137926206D01*
X67684654Y-138794828D01*
X67843536Y-138727687D01*
X67857971Y-138721574D01*
X67934615Y-138688908D01*
X68039353Y-138644053D01*
X68163642Y-138590678D01*
X68298938Y-138532450D01*
X68436697Y-138473037D01*
X68870976Y-138285527D01*
X68985624Y-138399949D01*
X69100273Y-138514370D01*
X68800966Y-139167423D01*
X68501660Y-139820476D01*
X69468102Y-138841482D01*
X69531515Y-138875516D01*
X69625978Y-138935044D01*
X69687026Y-138995440D01*
X69707756Y-139052220D01*
X69704773Y-139070127D01*
X69685387Y-139126907D01*
X69651573Y-139207354D01*
X69607555Y-139302940D01*
X69557555Y-139405139D01*
X69505797Y-139505423D01*
X69456504Y-139595267D01*
X69413899Y-139666143D01*
X69382205Y-139709525D01*
X69333500Y-139749115D01*
X69260955Y-139767515D01*
X69193448Y-139767515D01*
X69205126Y-139638726D01*
X69216805Y-139509936D01*
X69075352Y-139644022D01*
X69047920Y-139670037D01*
X69014826Y-139701457D01*
X68976297Y-139738076D01*
X68930230Y-139781897D01*
X68874523Y-139834923D01*
X68807074Y-139899158D01*
X68725780Y-139976605D01*
X68628538Y-140069267D01*
X68513247Y-140179147D01*
X68377803Y-140308249D01*
X68220106Y-140458574D01*
X68038051Y-140632128D01*
X67829537Y-140830913D01*
X67592461Y-141056931D01*
X67519583Y-141126228D01*
X67405177Y-141234226D01*
X67302933Y-141329781D01*
X67216527Y-141409509D01*
X67149637Y-141470028D01*
X67105941Y-141507954D01*
X67089116Y-141519906D01*
X67092870Y-141509153D01*
X67113244Y-141463729D01*
X67149901Y-141385621D01*
X67201356Y-141277892D01*
X67266128Y-141143601D01*
X67342733Y-140985808D01*
X67429690Y-140807575D01*
X67525515Y-140611961D01*
X67628726Y-140402027D01*
X67737840Y-140180835D01*
X67817234Y-140020024D01*
X67922312Y-139806771D01*
X68020486Y-139607055D01*
X68110267Y-139423927D01*
X68190165Y-139260442D01*
X68258692Y-139119653D01*
X68314361Y-139004614D01*
X68355681Y-138918377D01*
X68381165Y-138863995D01*
X68389324Y-138844523D01*
X68387703Y-138844791D01*
X68357794Y-138855403D01*
X68292787Y-138880221D01*
X68196000Y-138917930D01*
X68070752Y-138967218D01*
X67920359Y-139026773D01*
X67748141Y-139095280D01*
X67557415Y-139171428D01*
X67351499Y-139253903D01*
X67133710Y-139341392D01*
X67091853Y-139358229D01*
X66872419Y-139446459D01*
X66663144Y-139530536D01*
X66467670Y-139609003D01*
X66289640Y-139680399D01*
X66132698Y-139743265D01*
X66000485Y-139796142D01*
X65896646Y-139837571D01*
X65824822Y-139866091D01*
X65788657Y-139880243D01*
X65693328Y-139916337D01*
X65790148Y-139826038D01*
X65793906Y-139822534D01*
X65831757Y-139787296D01*
X65897144Y-139726462D01*
X65987119Y-139642773D01*
X66098734Y-139538971D01*
X66229042Y-139417797D01*
X66375092Y-139281994D01*
X66533939Y-139134302D01*
X66702632Y-138977464D01*
X66878224Y-138814221D01*
X67869480Y-137892703D01*
X66537784Y-137877719D01*
X66506399Y-137877364D01*
X66270582Y-137874612D01*
X66045404Y-137871833D01*
X65834830Y-137869085D01*
X65642825Y-137866427D01*
X65473357Y-137863918D01*
X65330391Y-137861616D01*
X65217894Y-137859579D01*
X65139830Y-137857866D01*
X65100167Y-137856534D01*
X65091529Y-137855914D01*
X65075688Y-137853344D01*
X65069193Y-137848412D01*
X65074563Y-137840051D01*
X65094316Y-137827193D01*
X65130968Y-137808770D01*
X65187037Y-137783714D01*
X65265042Y-137750958D01*
X65367498Y-137709432D01*
X65496925Y-137658071D01*
X65655839Y-137595806D01*
X65846758Y-137521568D01*
X66072200Y-137434291D01*
X66334681Y-137332906D01*
X66466068Y-137282079D01*
X66685111Y-137196835D01*
X66889908Y-137116505D01*
X67077294Y-137042363D01*
X67244101Y-136975689D01*
X67387164Y-136917757D01*
X67503315Y-136869846D01*
X67589390Y-136833232D01*
X67642221Y-136809191D01*
X67658643Y-136799002D01*
X67654807Y-136796753D01*
X67619074Y-136780030D01*
X67548828Y-136748802D01*
X67447358Y-136704487D01*
X67317953Y-136648500D01*
X67163905Y-136582256D01*
X66988502Y-136507173D01*
X66795034Y-136424666D01*
X66586791Y-136336152D01*
X66367064Y-136243046D01*
X66286648Y-136209012D01*
X66069752Y-136117097D01*
X65864983Y-136030153D01*
X65675705Y-135949619D01*
X65505282Y-135876931D01*
X65357076Y-135813529D01*
X65234451Y-135760850D01*
X65140770Y-135720331D01*
X65079397Y-135693412D01*
X65053695Y-135681530D01*
X65048610Y-135676951D01*
X65062223Y-135669978D01*
X65110810Y-135666534D01*
X65196795Y-135666515D01*
X65322602Y-135669814D01*
G37*
G36*
X73283373Y-133636908D02*
G01*
X73231279Y-133811359D01*
X73186605Y-133962068D01*
X73150348Y-134085681D01*
X73123503Y-134178843D01*
X73107068Y-134238201D01*
X73102039Y-134260399D01*
X73107847Y-134258512D01*
X73144776Y-134238828D01*
X73213207Y-134199643D01*
X73310183Y-134142727D01*
X73432749Y-134069848D01*
X73577946Y-133982776D01*
X73742820Y-133883279D01*
X73924414Y-133773128D01*
X74119773Y-133654091D01*
X74325938Y-133527938D01*
X74438578Y-133458917D01*
X74639372Y-133336107D01*
X74827773Y-133221167D01*
X75000821Y-133115888D01*
X75155552Y-133022061D01*
X75289004Y-132941477D01*
X75398216Y-132875927D01*
X75480226Y-132827201D01*
X75532071Y-132797091D01*
X75550789Y-132787387D01*
X75547445Y-132793091D01*
X75522249Y-132827792D01*
X75474198Y-132891585D01*
X75405398Y-132981737D01*
X75317957Y-133095516D01*
X75213982Y-133230190D01*
X75095580Y-133383026D01*
X74964859Y-133551291D01*
X74823925Y-133732254D01*
X74674886Y-133923181D01*
X74590206Y-134031695D01*
X74445984Y-134217254D01*
X74311405Y-134391345D01*
X74188539Y-134551237D01*
X74079455Y-134694202D01*
X73986222Y-134817512D01*
X73910909Y-134918438D01*
X73855585Y-134994250D01*
X73822319Y-135042221D01*
X73813180Y-135059620D01*
X73818070Y-135059503D01*
X73857931Y-135054164D01*
X73934545Y-135042127D01*
X74044401Y-135023995D01*
X74183986Y-135000369D01*
X74349788Y-134971853D01*
X74538295Y-134939047D01*
X74745996Y-134902556D01*
X74969377Y-134862980D01*
X75204928Y-134820923D01*
X75302109Y-134803530D01*
X75533045Y-134762400D01*
X75750333Y-134723979D01*
X75950470Y-134688871D01*
X76129948Y-134657679D01*
X76285262Y-134631008D01*
X76412907Y-134609460D01*
X76509376Y-134593639D01*
X76571164Y-134584150D01*
X76594765Y-134581596D01*
X76591083Y-134585458D01*
X76557698Y-134608229D01*
X76492376Y-134649821D01*
X76398029Y-134708458D01*
X76277570Y-134782365D01*
X76133910Y-134869767D01*
X75969963Y-134968888D01*
X75788641Y-135077952D01*
X75592857Y-135195184D01*
X75385522Y-135318808D01*
X75272140Y-135386317D01*
X75069836Y-135507002D01*
X74880200Y-135620421D01*
X74706204Y-135724781D01*
X74550820Y-135818289D01*
X74417018Y-135899150D01*
X74307772Y-135965571D01*
X74226051Y-136015758D01*
X74174828Y-136047919D01*
X74157074Y-136060259D01*
X74162375Y-136062231D01*
X74202439Y-136071875D01*
X74278955Y-136088583D01*
X74388522Y-136111662D01*
X74527740Y-136140414D01*
X74693207Y-136174146D01*
X74881522Y-136212161D01*
X75089286Y-136253764D01*
X75313098Y-136298261D01*
X75549555Y-136344956D01*
X75668809Y-136368461D01*
X75900099Y-136414249D01*
X76117412Y-136457528D01*
X76317297Y-136497598D01*
X76496304Y-136533756D01*
X76650983Y-136565300D01*
X76777882Y-136591529D01*
X76873550Y-136611741D01*
X76934537Y-136625234D01*
X76957393Y-136631306D01*
X76953686Y-136633171D01*
X76916624Y-136641759D01*
X76842794Y-136656284D01*
X76735575Y-136676150D01*
X76598348Y-136700762D01*
X76434493Y-136729523D01*
X76247392Y-136761837D01*
X76040424Y-136797108D01*
X75816971Y-136834740D01*
X75580412Y-136874136D01*
X75468968Y-136892622D01*
X75236266Y-136931402D01*
X75017282Y-136968138D01*
X74815527Y-137002225D01*
X74634512Y-137033063D01*
X74477749Y-137060047D01*
X74348749Y-137082575D01*
X74251023Y-137100044D01*
X74188082Y-137111851D01*
X74163439Y-137117394D01*
X74168331Y-137125507D01*
X74203290Y-137154167D01*
X74267322Y-137200653D01*
X74356490Y-137262257D01*
X74466853Y-137336272D01*
X74594475Y-137419988D01*
X74735416Y-137510697D01*
X74750244Y-137520155D01*
X74930557Y-137635175D01*
X75134210Y-137765106D01*
X75349866Y-137902711D01*
X75566184Y-138040756D01*
X75771826Y-138172004D01*
X75955454Y-138289221D01*
X76083246Y-138371069D01*
X76216366Y-138456951D01*
X76333156Y-138532964D01*
X76429725Y-138596544D01*
X76502184Y-138645130D01*
X76546642Y-138676155D01*
X76559208Y-138687058D01*
X76551245Y-138685701D01*
X76507003Y-138676932D01*
X76427829Y-138660777D01*
X76317901Y-138638110D01*
X76181397Y-138609809D01*
X76022495Y-138576751D01*
X75845373Y-138539811D01*
X75654209Y-138499867D01*
X75453180Y-138457794D01*
X75246466Y-138414470D01*
X75038243Y-138370770D01*
X74832691Y-138327571D01*
X74633986Y-138285751D01*
X74446306Y-138246184D01*
X74273831Y-138209749D01*
X74120737Y-138177320D01*
X73991203Y-138149775D01*
X73889406Y-138127991D01*
X73819525Y-138112843D01*
X73785738Y-138105209D01*
X73784129Y-138104731D01*
X73751734Y-138079914D01*
X73708735Y-138028841D01*
X73663946Y-137961885D01*
X73619444Y-137888203D01*
X73574600Y-137815183D01*
X73541373Y-137762381D01*
X73498223Y-137695612D01*
X73589020Y-137715894D01*
X73624418Y-137723850D01*
X73700591Y-137741066D01*
X73802378Y-137764131D01*
X73920878Y-137791026D01*
X74047189Y-137819735D01*
X74152927Y-137843669D01*
X74259362Y-137867494D01*
X74345039Y-137886378D01*
X74403112Y-137898815D01*
X74426733Y-137903295D01*
X74424430Y-137900892D01*
X74395577Y-137879387D01*
X74336922Y-137837617D01*
X74252044Y-137778076D01*
X74144518Y-137703256D01*
X74017922Y-137615650D01*
X73875833Y-137517752D01*
X73721827Y-137412053D01*
X73583602Y-137317236D01*
X73430505Y-137211702D01*
X73307590Y-137126089D01*
X73212048Y-137058253D01*
X73141069Y-137006054D01*
X73091845Y-136967350D01*
X73061564Y-136939997D01*
X73047419Y-136921854D01*
X73046599Y-136910779D01*
X73056295Y-136904630D01*
X73068384Y-136901586D01*
X73120713Y-136890667D01*
X73206511Y-136874005D01*
X73320316Y-136852620D01*
X73456665Y-136827533D01*
X73610096Y-136799764D01*
X73775146Y-136770334D01*
X73850443Y-136756987D01*
X74016416Y-136727431D01*
X74171444Y-136699647D01*
X74309369Y-136674748D01*
X74424035Y-136653848D01*
X74509286Y-136638061D01*
X74558966Y-136628502D01*
X74675479Y-136604785D01*
X73851553Y-136428348D01*
X73792698Y-136415730D01*
X73615904Y-136377647D01*
X73453844Y-136342471D01*
X73310971Y-136311188D01*
X73191734Y-136284779D01*
X73100586Y-136264230D01*
X73041978Y-136250524D01*
X73020361Y-136244645D01*
X73023446Y-136241447D01*
X73054510Y-136219019D01*
X73115892Y-136177341D01*
X73203917Y-136118831D01*
X73314911Y-136045909D01*
X73445199Y-135960996D01*
X73591106Y-135866511D01*
X73748958Y-135764873D01*
X73830489Y-135712384D01*
X73979719Y-135615552D01*
X74113477Y-135527762D01*
X74228383Y-135451297D01*
X74321055Y-135388435D01*
X74388113Y-135341457D01*
X74426175Y-135312645D01*
X74431860Y-135304278D01*
X74419511Y-135307002D01*
X74351848Y-135321108D01*
X74255167Y-135340452D01*
X74134899Y-135364013D01*
X73996476Y-135390770D01*
X73845331Y-135419702D01*
X73686896Y-135449786D01*
X73526603Y-135480003D01*
X73369883Y-135509329D01*
X73222170Y-135536746D01*
X73088895Y-135561230D01*
X72975491Y-135581761D01*
X72887389Y-135597317D01*
X72830022Y-135606877D01*
X72808822Y-135609420D01*
X72810745Y-135604897D01*
X72832025Y-135571870D01*
X72874584Y-135509970D01*
X72935862Y-135422801D01*
X73013299Y-135313971D01*
X73104335Y-135187084D01*
X73206412Y-135045746D01*
X73316969Y-134893564D01*
X73369852Y-134820906D01*
X73476864Y-134673435D01*
X73574302Y-134538567D01*
X73659591Y-134419901D01*
X73730159Y-134321037D01*
X73783432Y-134245572D01*
X73816836Y-134197105D01*
X73827799Y-134179235D01*
X73825322Y-134180134D01*
X73795823Y-134197554D01*
X73736080Y-134235095D01*
X73649867Y-134290319D01*
X73540954Y-134360788D01*
X73413116Y-134444066D01*
X73270124Y-134537713D01*
X73115751Y-134639294D01*
X73060505Y-134675659D01*
X72909747Y-134774152D01*
X72771611Y-134863330D01*
X72649867Y-134940830D01*
X72548287Y-135004286D01*
X72470642Y-135051332D01*
X72420705Y-135079604D01*
X72402247Y-135086736D01*
X72402588Y-135081856D01*
X72411121Y-135042990D01*
X72429681Y-134969557D01*
X72457082Y-134865958D01*
X72492136Y-134736591D01*
X72533655Y-134585858D01*
X72580452Y-134418159D01*
X72631339Y-134237892D01*
X72652531Y-134163064D01*
X72701712Y-133988019D01*
X72746214Y-133827696D01*
X72784869Y-133686428D01*
X72816508Y-133568548D01*
X72839962Y-133478392D01*
X72854064Y-133420291D01*
X72857644Y-133398581D01*
X72857097Y-133398799D01*
X72840262Y-133419087D01*
X72802533Y-133468843D01*
X72747054Y-133543704D01*
X72676968Y-133639310D01*
X72595419Y-133751298D01*
X72505552Y-133875305D01*
X72410510Y-134006971D01*
X72313438Y-134141932D01*
X72217478Y-134275827D01*
X72125775Y-134404295D01*
X72041474Y-134522972D01*
X71967717Y-134627496D01*
X71907648Y-134713507D01*
X71864413Y-134776641D01*
X71858199Y-134784155D01*
X71840648Y-134788586D01*
X71839099Y-134780545D01*
X71834502Y-134735729D01*
X71827775Y-134655549D01*
X71819243Y-134544407D01*
X71809232Y-134406707D01*
X71798065Y-134246850D01*
X71786067Y-134069238D01*
X71773561Y-133878274D01*
X71766333Y-133766546D01*
X71754360Y-133583188D01*
X71743303Y-133415935D01*
X71733459Y-133269151D01*
X71725124Y-133147198D01*
X71718593Y-133054438D01*
X71714164Y-132995236D01*
X71712133Y-132973954D01*
X71710414Y-132978531D01*
X71699300Y-133016263D01*
X71678920Y-133088582D01*
X71650438Y-133191269D01*
X71615015Y-133320106D01*
X71573814Y-133470874D01*
X71527995Y-133639354D01*
X71478722Y-133821327D01*
X71455184Y-133908299D01*
X71406679Y-134086618D01*
X71361740Y-134250630D01*
X71321602Y-134395900D01*
X71287502Y-134517993D01*
X71260674Y-134612472D01*
X71242354Y-134674901D01*
X71233777Y-134700844D01*
X71232560Y-134701432D01*
X71217448Y-134681010D01*
X71187528Y-134624843D01*
X71144078Y-134535659D01*
X71088375Y-134416189D01*
X71021696Y-134269159D01*
X70945319Y-134097301D01*
X70860521Y-133903341D01*
X70816242Y-133801438D01*
X70743065Y-133633566D01*
X70676172Y-133480782D01*
X70617319Y-133347052D01*
X70568260Y-133236345D01*
X70530747Y-133152627D01*
X70506536Y-133099865D01*
X70497381Y-133082028D01*
X70497245Y-133082755D01*
X70498288Y-133110583D01*
X70502306Y-133175274D01*
X70508969Y-133272213D01*
X70517945Y-133396783D01*
X70528902Y-133544368D01*
X70541508Y-133710353D01*
X70555433Y-133890123D01*
X70557015Y-133910374D01*
X70571069Y-134091914D01*
X70583980Y-134261500D01*
X70595378Y-134414086D01*
X70604896Y-134544623D01*
X70612164Y-134648066D01*
X70616814Y-134719368D01*
X70618477Y-134753480D01*
X70618682Y-134813090D01*
X70492720Y-134724733D01*
X70480031Y-134715522D01*
X70412617Y-134660899D01*
X70328150Y-134586036D01*
X70236165Y-134499583D01*
X70146191Y-134410193D01*
X70141677Y-134405564D01*
X70063085Y-134324093D01*
X70002253Y-134257425D01*
X69953121Y-134196749D01*
X69909626Y-134133254D01*
X69865706Y-134058129D01*
X69815299Y-133962563D01*
X69752344Y-133837746D01*
X69699983Y-133731372D01*
X69653518Y-133633397D01*
X69618044Y-133554627D01*
X69596335Y-133501231D01*
X69591167Y-133479378D01*
X69602967Y-133484889D01*
X69640654Y-133515338D01*
X69698928Y-133567783D01*
X69772671Y-133637586D01*
X69856765Y-133720108D01*
X69924154Y-133786413D01*
X69998368Y-133857018D01*
X70057326Y-133910320D01*
X70096225Y-133942005D01*
X70110258Y-133947758D01*
X70109893Y-133941374D01*
X70106654Y-133898309D01*
X70100306Y-133818196D01*
X70091139Y-133704584D01*
X70079444Y-133561022D01*
X70065512Y-133391058D01*
X70049633Y-133198240D01*
X70032097Y-132986116D01*
X70013195Y-132758236D01*
X69993218Y-132518148D01*
X69984029Y-132407577D01*
X69964660Y-132172406D01*
X69946654Y-131950947D01*
X69930288Y-131746763D01*
X69915838Y-131563417D01*
X69903580Y-131404473D01*
X69893791Y-131273495D01*
X69886748Y-131174044D01*
X69882725Y-131109684D01*
X69882000Y-131083979D01*
X69886175Y-131088386D01*
X69906407Y-131124893D01*
X69942071Y-131194905D01*
X69991713Y-131295406D01*
X70053878Y-131423377D01*
X70127112Y-131575802D01*
X70209961Y-131749662D01*
X70300969Y-131941940D01*
X70398684Y-132149618D01*
X70501650Y-132369679D01*
X70566095Y-132507704D01*
X70666101Y-132721565D01*
X70759899Y-132921754D01*
X70846031Y-133105177D01*
X70923037Y-133268743D01*
X70989458Y-133409360D01*
X71043836Y-133523934D01*
X71084710Y-133609374D01*
X71110623Y-133662588D01*
X71120116Y-133680482D01*
X71122574Y-133673170D01*
X71135597Y-133630328D01*
X71158911Y-133552058D01*
X71191543Y-133441673D01*
X71232519Y-133302489D01*
X71280864Y-133137820D01*
X71335605Y-132950981D01*
X71395769Y-132745287D01*
X71460380Y-132524052D01*
X71528466Y-132290592D01*
X71568497Y-132153323D01*
X71634780Y-131926435D01*
X71697092Y-131713639D01*
X71754451Y-131518260D01*
X71805875Y-131343622D01*
X71850384Y-131193048D01*
X71886995Y-131069863D01*
X71914728Y-130977392D01*
X71932601Y-130918958D01*
X71939632Y-130897885D01*
X71940660Y-130897355D01*
X71943296Y-130901138D01*
X71946266Y-130914341D01*
X71949784Y-130939701D01*
X71954064Y-130979958D01*
X71959320Y-131037847D01*
X71965767Y-131116106D01*
X71973618Y-131217472D01*
X71983089Y-131344684D01*
X71994392Y-131500477D01*
X72007744Y-131687591D01*
X72023357Y-131908761D01*
X72041446Y-132166725D01*
X72062225Y-132464221D01*
X72064540Y-132497334D01*
X72080819Y-132726562D01*
X72096578Y-132942294D01*
X72111526Y-133140931D01*
X72125371Y-133318878D01*
X72137824Y-133472537D01*
X72148593Y-133598311D01*
X72157389Y-133692602D01*
X72163921Y-133751815D01*
X72167897Y-133772352D01*
X72172646Y-133767816D01*
X72200132Y-133734878D01*
X72249990Y-133672393D01*
X72320085Y-133583116D01*
X72408280Y-133469805D01*
X72493833Y-133359258D01*
X72864220Y-133359258D01*
X72874812Y-133369850D01*
X72885404Y-133359258D01*
X72874812Y-133348666D01*
X72864220Y-133359258D01*
X72493833Y-133359258D01*
X72512440Y-133335215D01*
X72630429Y-133182103D01*
X72760111Y-133013223D01*
X72899351Y-132831334D01*
X73046012Y-132639190D01*
X73124427Y-132536385D01*
X73267125Y-132349704D01*
X73401118Y-132174922D01*
X73524290Y-132014771D01*
X73634526Y-131871979D01*
X73729713Y-131749277D01*
X73807734Y-131649395D01*
X73866476Y-131575064D01*
X73903822Y-131529014D01*
X73917658Y-131513975D01*
X73916714Y-131520119D01*
X73905980Y-131560996D01*
X73884350Y-131637315D01*
X73852811Y-131745743D01*
X73812353Y-131882947D01*
X73763967Y-132045593D01*
X73708641Y-132230350D01*
X73647365Y-132433883D01*
X73581129Y-132652859D01*
X73510922Y-132883947D01*
X73474214Y-133004644D01*
X73405837Y-133230197D01*
X73366885Y-133359258D01*
X73341892Y-133442069D01*
X73283373Y-133636908D01*
G37*
G36*
X71579908Y-139880150D02*
G01*
X71626014Y-139893706D01*
X71695504Y-139918753D01*
X71793691Y-139956718D01*
X71925888Y-140009027D01*
X72311575Y-140162199D01*
X72449861Y-140372655D01*
X72451964Y-140375853D01*
X72504923Y-140454693D01*
X72548210Y-140516013D01*
X72577414Y-140553771D01*
X72588123Y-140561927D01*
X72587924Y-140559118D01*
X72581041Y-140523191D01*
X72566320Y-140460223D01*
X72546455Y-140381860D01*
X72541787Y-140364017D01*
X72522926Y-140291236D01*
X72509601Y-140238681D01*
X72504450Y-140216722D01*
X72505516Y-140214996D01*
X72531966Y-140215640D01*
X72586952Y-140226578D01*
X72661181Y-140245131D01*
X72745360Y-140268620D01*
X72830197Y-140294365D01*
X72906397Y-140319687D01*
X72964667Y-140341908D01*
X72995714Y-140358348D01*
X72997199Y-140361094D01*
X73008618Y-140395183D01*
X73029084Y-140464064D01*
X73057327Y-140563009D01*
X73092079Y-140687290D01*
X73132073Y-140832181D01*
X73176038Y-140992953D01*
X73222707Y-141164879D01*
X73270810Y-141343232D01*
X73319081Y-141523285D01*
X73366249Y-141700310D01*
X73411047Y-141869579D01*
X73452205Y-142026365D01*
X73488456Y-142165940D01*
X73518531Y-142283578D01*
X73541161Y-142374550D01*
X73555078Y-142434130D01*
X73559013Y-142457590D01*
X73554611Y-142453744D01*
X73528943Y-142421302D01*
X73482134Y-142358463D01*
X73416174Y-142268003D01*
X73333055Y-142152701D01*
X73234768Y-142015334D01*
X73123304Y-141858679D01*
X73000654Y-141685515D01*
X72868810Y-141498618D01*
X72729761Y-141300766D01*
X72652343Y-141190495D01*
X72516614Y-140997596D01*
X72389015Y-140816800D01*
X72271565Y-140650933D01*
X72166282Y-140502825D01*
X72075183Y-140375304D01*
X72000284Y-140271197D01*
X71943604Y-140193333D01*
X71907160Y-140144541D01*
X71892970Y-140127648D01*
X71891792Y-140130518D01*
X71886000Y-140165771D01*
X71876693Y-140238402D01*
X71864246Y-140344909D01*
X71849040Y-140481793D01*
X71831451Y-140645552D01*
X71811858Y-140832687D01*
X71790639Y-141039695D01*
X71768172Y-141263078D01*
X71744835Y-141499333D01*
X71737476Y-141574450D01*
X71714279Y-141810470D01*
X71692151Y-142034542D01*
X71671471Y-142242887D01*
X71652617Y-142431730D01*
X71635970Y-142597291D01*
X71621908Y-142735793D01*
X71610811Y-142843458D01*
X71603059Y-142916509D01*
X71599031Y-142951169D01*
X71596587Y-142967241D01*
X71588076Y-143010794D01*
X71581836Y-143025314D01*
X71575571Y-143004938D01*
X71559410Y-142945304D01*
X71533906Y-142848393D01*
X71499558Y-142716149D01*
X71456863Y-142550516D01*
X71406322Y-142353438D01*
X71348431Y-142126859D01*
X71283691Y-141872725D01*
X71212599Y-141592979D01*
X71135653Y-141289566D01*
X71053354Y-140964429D01*
X71016934Y-140820696D01*
X70976479Y-140661713D01*
X70940031Y-140519207D01*
X70908860Y-140398100D01*
X70884232Y-140303312D01*
X70867415Y-140239767D01*
X70859676Y-140212386D01*
X70852690Y-140204828D01*
X70830668Y-140222982D01*
X70796354Y-140281650D01*
X70778317Y-140315835D01*
X70751727Y-140356480D01*
X70729288Y-140368932D01*
X70702595Y-140360235D01*
X70692184Y-140354327D01*
X70678095Y-140339887D01*
X70680556Y-140317420D01*
X70702155Y-140278036D01*
X70745477Y-140212843D01*
X70747833Y-140209381D01*
X70792494Y-140146188D01*
X70829486Y-140098042D01*
X70851008Y-140075121D01*
X70855844Y-140072690D01*
X70896496Y-140078012D01*
X70949998Y-140117411D01*
X71013325Y-140186528D01*
X71083454Y-140281003D01*
X71157360Y-140396478D01*
X71232019Y-140528594D01*
X71304406Y-140672991D01*
X71371497Y-140825311D01*
X71418652Y-140940404D01*
X71431224Y-140857087D01*
X71431318Y-140856463D01*
X71437068Y-140808492D01*
X71445390Y-140726699D01*
X71455508Y-140619314D01*
X71466647Y-140494563D01*
X71478030Y-140360676D01*
X71478863Y-140350664D01*
X71490217Y-140220640D01*
X71501405Y-140103359D01*
X71511654Y-140006195D01*
X71520187Y-139936523D01*
X71526232Y-139901719D01*
X71528753Y-139894163D01*
X71536591Y-139881805D01*
X71551871Y-139876659D01*
X71579908Y-139880150D01*
G37*
G36*
X70571719Y-140433002D02*
G01*
X70636168Y-140440593D01*
X70684427Y-140452997D01*
X70703419Y-140468539D01*
X70703383Y-140468813D01*
X70693041Y-140492682D01*
X70665462Y-140550917D01*
X70622272Y-140640206D01*
X70565100Y-140757237D01*
X70495574Y-140898696D01*
X70415321Y-141061271D01*
X70325969Y-141241650D01*
X70229147Y-141436520D01*
X70126482Y-141642568D01*
X70117613Y-141660341D01*
X70015531Y-141864437D01*
X69919247Y-142056112D01*
X69830391Y-142232175D01*
X69750592Y-142389434D01*
X69681481Y-142524700D01*
X69624687Y-142634779D01*
X69581841Y-142716482D01*
X69554572Y-142766616D01*
X69544511Y-142781991D01*
X69545693Y-142759197D01*
X69551182Y-142698318D01*
X69560565Y-142603619D01*
X69573405Y-142479290D01*
X69589262Y-142329523D01*
X69607697Y-142158509D01*
X69628271Y-141970439D01*
X69650545Y-141769504D01*
X69761613Y-140773912D01*
X69824718Y-140743404D01*
X69862870Y-140729814D01*
X69937280Y-140716322D01*
X70021161Y-140710996D01*
X70101749Y-140713819D01*
X70166280Y-140724776D01*
X70201989Y-140743853D01*
X70220198Y-140761236D01*
X70251816Y-140769047D01*
X70253567Y-140768570D01*
X70290206Y-140773338D01*
X70340798Y-140793668D01*
X70345148Y-140795907D01*
X70399845Y-140820841D01*
X70419625Y-140821872D01*
X70404432Y-140799174D01*
X70354207Y-140752919D01*
X70269799Y-140680699D01*
X70326200Y-140565700D01*
X70344841Y-140529024D01*
X70377520Y-140477653D01*
X70411124Y-140450434D01*
X70456231Y-140436888D01*
X70504156Y-140431898D01*
X70571719Y-140433002D01*
G37*
G36*
X73218870Y-125442311D02*
G01*
X73168977Y-125557358D01*
X73143549Y-125594123D01*
X73060471Y-125669948D01*
X72953535Y-125712118D01*
X72913521Y-125718686D01*
X72786588Y-125711353D01*
X72655304Y-125662771D01*
X72521180Y-125573425D01*
X72453723Y-125518694D01*
X72420978Y-125582018D01*
X72391913Y-125628958D01*
X72338786Y-125685072D01*
X72284112Y-125714655D01*
X72236831Y-125711424D01*
X72205197Y-125692006D01*
X72167849Y-125653045D01*
X72150110Y-125599578D01*
X72149912Y-125523045D01*
X72165186Y-125414882D01*
X72176288Y-125334187D01*
X72187212Y-125207082D01*
X72194454Y-125060676D01*
X72195693Y-124991992D01*
X72476426Y-124991992D01*
X72477322Y-125041990D01*
X72484212Y-125109733D01*
X72495626Y-125183716D01*
X72510094Y-125252432D01*
X72526148Y-125304373D01*
X72528686Y-125310109D01*
X72569333Y-125368240D01*
X72624434Y-125415512D01*
X72638188Y-125423482D01*
X72729755Y-125456106D01*
X72813056Y-125453507D01*
X72881150Y-125418917D01*
X72927097Y-125355568D01*
X72943955Y-125266694D01*
X72939650Y-125217441D01*
X72916165Y-125159952D01*
X72867279Y-125112292D01*
X72787427Y-125069572D01*
X72671048Y-125026904D01*
X72641002Y-125017237D01*
X72565587Y-124993706D01*
X72509667Y-124977328D01*
X72483605Y-124971184D01*
X72482991Y-124971248D01*
X72476426Y-124991992D01*
X72195693Y-124991992D01*
X72197215Y-124907631D01*
X72197365Y-124869766D01*
X72201324Y-124696599D01*
X72211915Y-124559245D01*
X72230915Y-124452406D01*
X72260103Y-124370786D01*
X72301256Y-124309088D01*
X72356151Y-124262017D01*
X72426566Y-124224275D01*
X72496802Y-124202400D01*
X72602268Y-124186425D01*
X72716619Y-124181628D01*
X72823438Y-124188572D01*
X72906307Y-124207820D01*
X72962556Y-124234645D01*
X73050486Y-124298708D01*
X73120666Y-124377747D01*
X73169402Y-124464368D01*
X73193001Y-124551177D01*
X73187772Y-124630782D01*
X73150021Y-124695788D01*
X73139514Y-124705638D01*
X73082176Y-124735906D01*
X73029575Y-124724363D01*
X72984857Y-124671474D01*
X72971623Y-124647807D01*
X72895546Y-124540959D01*
X72813148Y-124474564D01*
X72721841Y-124447104D01*
X72619038Y-124457064D01*
X72598171Y-124463570D01*
X72544645Y-124498480D01*
X72509262Y-124560123D01*
X72487111Y-124655903D01*
X72475699Y-124732532D01*
X72701642Y-124799720D01*
X72773678Y-124821532D01*
X72900856Y-124863261D01*
X72996319Y-124900750D01*
X73066685Y-124937182D01*
X73118572Y-124975744D01*
X73158598Y-125019620D01*
X73191535Y-125072609D01*
X73229913Y-125187715D01*
X73235615Y-125266694D01*
X73239104Y-125315023D01*
X73218870Y-125442311D01*
G37*
G36*
X70603225Y-125251144D02*
G01*
X70601004Y-125405051D01*
X70597652Y-125521614D01*
X70593193Y-125599163D01*
X70587654Y-125636028D01*
X70561425Y-125677927D01*
X70518177Y-125710717D01*
X70483604Y-125719533D01*
X70449020Y-125717518D01*
X70446101Y-125715933D01*
X70376349Y-125655303D01*
X70340691Y-125569554D01*
X70326862Y-125495843D01*
X70276369Y-125560362D01*
X70237508Y-125604146D01*
X70136493Y-125677986D01*
X70024545Y-125714166D01*
X69908266Y-125712319D01*
X69794254Y-125672076D01*
X69689110Y-125593070D01*
X69611019Y-125489023D01*
X69549784Y-125352191D01*
X69508335Y-125191771D01*
X69488162Y-125016240D01*
X69785365Y-125016240D01*
X69804114Y-125164208D01*
X69845992Y-125279848D01*
X69910504Y-125361260D01*
X69914052Y-125364195D01*
X69995323Y-125407505D01*
X70078665Y-125411780D01*
X70158052Y-125379411D01*
X70227459Y-125312790D01*
X70280861Y-125214308D01*
X70294840Y-125171426D01*
X70306523Y-125106668D01*
X70310232Y-125024572D01*
X70307036Y-124912826D01*
X70301450Y-124823931D01*
X70289349Y-124729900D01*
X70268960Y-124659136D01*
X70236765Y-124600594D01*
X70189242Y-124543231D01*
X70135384Y-124498833D01*
X70055911Y-124471846D01*
X69976309Y-124483354D01*
X69903032Y-124531994D01*
X69842534Y-124616406D01*
X69821993Y-124665196D01*
X69799302Y-124760515D01*
X69786663Y-124887239D01*
X69785365Y-125016240D01*
X69488162Y-125016240D01*
X69488070Y-125015437D01*
X69490384Y-124830861D01*
X69516675Y-124645717D01*
X69547594Y-124531710D01*
X69610919Y-124393040D01*
X69694625Y-124289304D01*
X69797558Y-124221807D01*
X69918566Y-124191850D01*
X69941884Y-124190284D01*
X70065083Y-124198406D01*
X70166835Y-124238678D01*
X70255557Y-124314156D01*
X70329694Y-124396216D01*
X70336396Y-124050331D01*
X70336537Y-124043127D01*
X70339595Y-123913878D01*
X70343464Y-123819860D01*
X70348964Y-123754266D01*
X70356915Y-123710283D01*
X70368138Y-123681104D01*
X70383454Y-123659917D01*
X70436348Y-123623206D01*
X70498756Y-123621487D01*
X70556954Y-123659962D01*
X70565511Y-123670786D01*
X70573735Y-123686935D01*
X70580485Y-123710814D01*
X70585945Y-123746273D01*
X70590294Y-123797161D01*
X70593714Y-123867325D01*
X70596387Y-123960615D01*
X70598495Y-124080879D01*
X70600217Y-124231966D01*
X70601737Y-124417724D01*
X70603234Y-124642002D01*
X70604163Y-124837987D01*
X70604266Y-125024572D01*
X70604286Y-125061566D01*
X70603225Y-125251144D01*
G37*
G36*
X69304092Y-125039996D02*
G01*
X69291191Y-125177167D01*
X69266311Y-125288949D01*
X69250009Y-125334363D01*
X69176399Y-125477634D01*
X69080849Y-125590344D01*
X68966813Y-125669094D01*
X68837748Y-125710487D01*
X68727125Y-125719516D01*
X68580286Y-125700344D01*
X68451286Y-125643542D01*
X68342078Y-125549745D01*
X68321252Y-125524758D01*
X68262141Y-125428211D01*
X68238945Y-125336641D01*
X68253327Y-125255551D01*
X68282329Y-125216503D01*
X68330228Y-125204028D01*
X68389121Y-125229629D01*
X68456044Y-125292763D01*
X68490679Y-125331515D01*
X68571913Y-125405043D01*
X68648981Y-125445700D01*
X68729820Y-125458284D01*
X68751783Y-125457473D01*
X68843347Y-125430943D01*
X68916190Y-125366793D01*
X68970488Y-125264807D01*
X69006420Y-125124770D01*
X69018019Y-125055921D01*
X68737856Y-125055416D01*
X68615477Y-125054398D01*
X68482280Y-125049285D01*
X68383021Y-125037640D01*
X68312877Y-125017008D01*
X68267024Y-124984935D01*
X68240640Y-124938970D01*
X68228901Y-124876657D01*
X68227630Y-124822894D01*
X68510655Y-124822894D01*
X69013608Y-124822894D01*
X68995183Y-124724266D01*
X68985187Y-124679363D01*
X68942256Y-124569504D01*
X68880845Y-124493066D01*
X68803562Y-124452576D01*
X68713012Y-124450563D01*
X68654331Y-124470608D01*
X68609700Y-124501022D01*
X68598414Y-124514756D01*
X68555478Y-124589585D01*
X68523315Y-124678455D01*
X68510655Y-124758660D01*
X68510655Y-124822894D01*
X68227630Y-124822894D01*
X68226984Y-124795544D01*
X68232089Y-124706545D01*
X68264915Y-124550486D01*
X68329454Y-124418614D01*
X68427549Y-124306434D01*
X68515076Y-124241699D01*
X68638563Y-124189562D01*
X68765008Y-124174961D01*
X68889327Y-124196098D01*
X69006438Y-124251176D01*
X69111260Y-124338398D01*
X69198710Y-124455967D01*
X69263705Y-124602087D01*
X69271491Y-124628463D01*
X69294184Y-124750411D01*
X69299731Y-124822894D01*
X69305070Y-124892666D01*
X69304092Y-125039996D01*
G37*
G36*
X67404878Y-124203376D02*
G01*
X67454176Y-124251023D01*
X67472623Y-124321287D01*
X67463009Y-124366536D01*
X67431813Y-124446277D01*
X67380761Y-124554123D01*
X67311655Y-124686287D01*
X67226297Y-124838981D01*
X67186635Y-124908028D01*
X67340221Y-125201706D01*
X67372644Y-125264419D01*
X67432996Y-125388194D01*
X67472287Y-125483660D01*
X67491604Y-125556089D01*
X67492035Y-125610752D01*
X67474669Y-125652920D01*
X67440595Y-125687864D01*
X67402783Y-125713240D01*
X67365286Y-125723976D01*
X67328495Y-125713384D01*
X67288673Y-125678056D01*
X67242086Y-125614583D01*
X67184997Y-125519559D01*
X67113673Y-125389574D01*
X67074584Y-125317684D01*
X67035364Y-125247913D01*
X67007168Y-125200508D01*
X66994360Y-125183027D01*
X66986935Y-125192619D01*
X66963695Y-125233054D01*
X66929277Y-125297821D01*
X66887990Y-125378982D01*
X66866336Y-125421949D01*
X66804275Y-125538475D01*
X66753154Y-125621352D01*
X66709544Y-125675035D01*
X66670014Y-125703978D01*
X66631136Y-125712635D01*
X66566108Y-125696727D01*
X66516671Y-125649206D01*
X66498144Y-125579194D01*
X66499047Y-125569919D01*
X66514709Y-125516900D01*
X66547716Y-125435442D01*
X66595296Y-125332025D01*
X66654679Y-125213128D01*
X66811214Y-124910384D01*
X66676316Y-124670684D01*
X66620968Y-124570080D01*
X66569349Y-124467305D01*
X66538150Y-124388978D01*
X66525586Y-124329055D01*
X66529870Y-124281488D01*
X66549218Y-124240231D01*
X66567239Y-124218914D01*
X66624592Y-124189917D01*
X66689687Y-124193234D01*
X66747735Y-124229653D01*
X66761762Y-124247672D01*
X66796787Y-124301826D01*
X66840869Y-124376994D01*
X66887701Y-124462680D01*
X66918133Y-124519729D01*
X66956086Y-124588730D01*
X66983516Y-124635929D01*
X66995935Y-124653419D01*
X66999456Y-124649862D01*
X67019526Y-124618698D01*
X67052345Y-124562344D01*
X67092926Y-124489241D01*
X67111025Y-124456193D01*
X67173819Y-124346650D01*
X67224164Y-124269782D01*
X67265973Y-124220803D01*
X67303158Y-124194926D01*
X67339631Y-124187364D01*
X67404878Y-124203376D01*
G37*
G36*
X64833089Y-124208843D02*
G01*
X64962596Y-124211151D01*
X65058187Y-124217101D01*
X65124963Y-124228274D01*
X65168023Y-124246249D01*
X65192466Y-124272607D01*
X65203392Y-124308927D01*
X65205901Y-124356790D01*
X65205503Y-124371246D01*
X65196521Y-124425560D01*
X65179420Y-124456214D01*
X65177603Y-124457150D01*
X65142294Y-124464468D01*
X65074767Y-124471922D01*
X64983948Y-124478689D01*
X64878764Y-124483945D01*
X64604589Y-124494537D01*
X64918310Y-124958702D01*
X65013693Y-125100755D01*
X65099517Y-125231971D01*
X65163994Y-125336529D01*
X65208843Y-125418588D01*
X65235782Y-125482305D01*
X65246533Y-125531835D01*
X65242814Y-125571336D01*
X65226345Y-125604966D01*
X65198845Y-125636880D01*
X65144274Y-125691451D01*
X64698440Y-125691451D01*
X64634074Y-125691422D01*
X64500287Y-125690930D01*
X64400672Y-125689433D01*
X64329373Y-125686423D01*
X64280535Y-125681391D01*
X64248303Y-125673829D01*
X64226822Y-125663228D01*
X64210238Y-125649082D01*
X64175689Y-125589092D01*
X64171659Y-125514198D01*
X64200847Y-125441953D01*
X64205120Y-125436013D01*
X64220715Y-125419342D01*
X64243029Y-125407909D01*
X64279190Y-125400729D01*
X64336330Y-125396818D01*
X64421577Y-125395193D01*
X64542062Y-125394870D01*
X64610074Y-125394731D01*
X64711816Y-125393448D01*
X64779842Y-125390335D01*
X64819838Y-125384802D01*
X64837494Y-125376259D01*
X64838498Y-125364115D01*
X64830549Y-125349788D01*
X64801152Y-125303038D01*
X64753648Y-125230135D01*
X64691469Y-125136282D01*
X64618047Y-125026685D01*
X64536812Y-124906547D01*
X64488251Y-124834796D01*
X64403325Y-124707336D01*
X64339200Y-124607389D01*
X64293180Y-124530315D01*
X64262571Y-124471472D01*
X64244677Y-124426218D01*
X64236803Y-124389912D01*
X64236724Y-124389208D01*
X64233996Y-124328375D01*
X64247812Y-124289708D01*
X64284868Y-124254320D01*
X64305565Y-124239486D01*
X64331098Y-124227158D01*
X64365647Y-124218619D01*
X64415880Y-124213178D01*
X64488469Y-124210146D01*
X64590085Y-124208833D01*
X64727397Y-124208548D01*
X64833089Y-124208843D01*
G37*
G36*
X66284564Y-124194642D02*
G01*
X66341275Y-124231966D01*
X66358201Y-124255066D01*
X66370713Y-124287575D01*
X66375288Y-124330742D01*
X66371159Y-124388792D01*
X66357564Y-124465948D01*
X66333737Y-124566436D01*
X66298913Y-124694480D01*
X66252330Y-124854305D01*
X66193221Y-125050137D01*
X66180551Y-125091797D01*
X66135198Y-125242658D01*
X66094602Y-125380379D01*
X66060319Y-125499493D01*
X66033904Y-125594534D01*
X66016914Y-125660037D01*
X66010905Y-125690534D01*
X66011029Y-125695097D01*
X66022723Y-125753712D01*
X66048389Y-125828174D01*
X66080818Y-125900064D01*
X66112804Y-125950959D01*
X66126736Y-125963631D01*
X66176137Y-125982338D01*
X66257062Y-125988031D01*
X66327053Y-125991304D01*
X66368554Y-126003760D01*
X66391477Y-126029007D01*
X66409618Y-126076240D01*
X66410139Y-126155455D01*
X66374932Y-126223619D01*
X66307485Y-126270699D01*
X66279131Y-126275824D01*
X66218547Y-126278846D01*
X66143535Y-126277770D01*
X66142218Y-126277712D01*
X66036227Y-126264301D01*
X65957064Y-126230282D01*
X65894075Y-126168505D01*
X65836605Y-126071822D01*
X65830421Y-126058166D01*
X65807523Y-125997506D01*
X65776203Y-125905205D01*
X65738080Y-125786809D01*
X65694774Y-125647861D01*
X65647905Y-125493907D01*
X65599093Y-125330492D01*
X65549957Y-125163160D01*
X65502117Y-124997456D01*
X65457193Y-124838924D01*
X65416806Y-124693110D01*
X65382573Y-124565558D01*
X65356116Y-124461812D01*
X65339054Y-124387419D01*
X65333007Y-124347921D01*
X65334084Y-124323726D01*
X65355777Y-124249150D01*
X65401761Y-124203224D01*
X65467296Y-124191470D01*
X65468847Y-124191623D01*
X65495280Y-124195710D01*
X65517698Y-124205144D01*
X65537945Y-124224380D01*
X65557863Y-124257873D01*
X65579295Y-124310078D01*
X65604084Y-124385451D01*
X65634075Y-124488445D01*
X65671108Y-124623518D01*
X65717029Y-124795122D01*
X65740562Y-124883238D01*
X65774878Y-125010880D01*
X65804618Y-125120475D01*
X65828215Y-125206296D01*
X65844101Y-125262615D01*
X65850710Y-125283704D01*
X65854657Y-125273649D01*
X65868068Y-125228339D01*
X65889424Y-125151592D01*
X65917231Y-125048884D01*
X65949993Y-124925692D01*
X65986215Y-124787490D01*
X66011900Y-124690211D01*
X66048790Y-124555237D01*
X66082820Y-124436074D01*
X66112121Y-124339042D01*
X66134826Y-124270459D01*
X66149065Y-124236647D01*
X66165769Y-124216893D01*
X66221215Y-124189735D01*
X66284564Y-124194642D01*
G37*
G36*
X73830868Y-123698212D02*
G01*
X73837575Y-123703796D01*
X73857553Y-123725300D01*
X73870780Y-123754321D01*
X73879066Y-123799571D01*
X73884220Y-123869763D01*
X73888050Y-123973608D01*
X73888965Y-124002726D01*
X73892784Y-124096109D01*
X73897901Y-124156150D01*
X73905784Y-124190082D01*
X73917899Y-124205137D01*
X73935715Y-124208548D01*
X73950754Y-124210135D01*
X74003424Y-124237940D01*
X74044429Y-124289343D01*
X74060946Y-124349875D01*
X74044525Y-124415866D01*
X74001052Y-124464942D01*
X73941149Y-124483945D01*
X73891472Y-124483945D01*
X73891472Y-124963430D01*
X73890790Y-125099505D01*
X73887889Y-125255374D01*
X73882871Y-125380714D01*
X73875904Y-125471588D01*
X73867161Y-125524060D01*
X73829969Y-125605184D01*
X73759593Y-125675506D01*
X73664201Y-125712331D01*
X73584860Y-125720800D01*
X73477750Y-125712109D01*
X73388899Y-125681050D01*
X73324122Y-125631103D01*
X73289234Y-125565746D01*
X73290049Y-125488459D01*
X73298597Y-125462677D01*
X73329195Y-125425141D01*
X73383189Y-125409216D01*
X73468781Y-125411363D01*
X73513554Y-125415099D01*
X73554825Y-125412963D01*
X73575258Y-125396555D01*
X73587641Y-125360392D01*
X73592649Y-125321754D01*
X73597214Y-125247971D01*
X73600917Y-125147411D01*
X73603470Y-125027963D01*
X73604584Y-124897518D01*
X73605484Y-124495494D01*
X73527153Y-124482643D01*
X73519535Y-124481337D01*
X73440448Y-124456571D01*
X73396583Y-124414491D01*
X73383048Y-124350617D01*
X73383214Y-124341905D01*
X73402875Y-124268986D01*
X73453967Y-124223950D01*
X73534622Y-124208548D01*
X73616076Y-124208548D01*
X73616076Y-123985150D01*
X73616094Y-123961568D01*
X73617133Y-123868136D01*
X73621066Y-123805694D01*
X73629677Y-123764785D01*
X73644751Y-123735957D01*
X73668074Y-123709754D01*
X73672286Y-123705592D01*
X73725682Y-123666072D01*
X73774369Y-123663908D01*
X73830868Y-123698212D01*
G37*
G36*
X71821482Y-124197409D02*
G01*
X71873177Y-124244775D01*
X71880619Y-124257431D01*
X71890669Y-124282617D01*
X71898215Y-124317810D01*
X71903598Y-124368403D01*
X71907159Y-124439789D01*
X71909238Y-124537362D01*
X71910175Y-124666515D01*
X71910313Y-124832640D01*
X71910155Y-124917600D01*
X71908874Y-125082831D01*
X71905655Y-125213675D01*
X71899691Y-125315672D01*
X71890177Y-125394361D01*
X71876304Y-125455282D01*
X71857267Y-125503974D01*
X71832259Y-125545976D01*
X71800473Y-125586828D01*
X71742957Y-125643645D01*
X71646169Y-125695981D01*
X71529420Y-125712635D01*
X71491915Y-125711323D01*
X71401511Y-125692261D01*
X71320432Y-125645735D01*
X71236544Y-125565655D01*
X71197112Y-125522923D01*
X71171274Y-125500291D01*
X71160716Y-125504139D01*
X71158695Y-125531511D01*
X71149522Y-125595124D01*
X71116351Y-125664253D01*
X71066549Y-125707188D01*
X71018136Y-125719861D01*
X70959670Y-125703060D01*
X70913362Y-125645770D01*
X70905587Y-125626666D01*
X70898162Y-125594312D01*
X70892637Y-125547273D01*
X70888846Y-125480939D01*
X70886626Y-125390696D01*
X70885810Y-125271931D01*
X70886233Y-125120033D01*
X70887730Y-124930388D01*
X70889437Y-124761812D01*
X70891425Y-124611478D01*
X70893819Y-124494567D01*
X70896933Y-124406382D01*
X70901079Y-124342226D01*
X70906571Y-124297400D01*
X70913721Y-124267206D01*
X70922842Y-124246947D01*
X70934246Y-124231925D01*
X70954045Y-124213675D01*
X71016529Y-124188036D01*
X71079999Y-124198619D01*
X71131726Y-124244607D01*
X71140793Y-124260705D01*
X71151617Y-124291139D01*
X71159993Y-124334891D01*
X71166463Y-124397772D01*
X71171572Y-124485590D01*
X71175863Y-124604157D01*
X71179879Y-124759281D01*
X71183327Y-124895956D01*
X71187431Y-125018027D01*
X71192249Y-125108884D01*
X71198358Y-125174485D01*
X71206334Y-125220785D01*
X71216753Y-125253742D01*
X71230192Y-125279311D01*
X71255088Y-125314660D01*
X71325092Y-125381963D01*
X71399222Y-125414308D01*
X71471531Y-125409987D01*
X71536073Y-125367288D01*
X71546885Y-125354511D01*
X71573237Y-125307703D01*
X71593420Y-125241905D01*
X71608049Y-125152465D01*
X71617737Y-125034728D01*
X71623099Y-124884042D01*
X71624750Y-124695753D01*
X71624992Y-124565683D01*
X71626192Y-124458841D01*
X71628983Y-124381900D01*
X71633995Y-124328361D01*
X71641857Y-124291727D01*
X71653201Y-124265500D01*
X71668656Y-124243182D01*
X71697718Y-124213962D01*
X71759526Y-124187111D01*
X71821482Y-124197409D01*
G37*
G36*
X67941268Y-125322246D02*
G01*
X67996433Y-125363428D01*
X68033065Y-125427789D01*
X68049636Y-125504541D01*
X68044618Y-125582899D01*
X68016484Y-125652074D01*
X67963704Y-125701281D01*
X67933623Y-125717735D01*
X67903519Y-125729763D01*
X67876833Y-125724451D01*
X67832483Y-125701902D01*
X67821337Y-125695547D01*
X67770517Y-125644103D01*
X67743933Y-125575726D01*
X67739706Y-125499959D01*
X67755960Y-125426348D01*
X67790816Y-125364438D01*
X67842395Y-125323773D01*
X67908821Y-125313898D01*
X67941268Y-125322246D01*
G37*
%TD*%
D10*
%TO.C,J5*%
X77900000Y-119850000D03*
D11*
X72600000Y-119850000D03*
X66800000Y-119850000D03*
%TD*%
D12*
%TO.C,J4*%
X71425000Y-66700000D03*
%TD*%
D13*
%TO.C,C22*%
X59275000Y-117944888D03*
D14*
X59275000Y-120444888D03*
%TD*%
D10*
%TO.C,J3*%
X77882200Y-131000000D03*
D11*
X72582200Y-131000000D03*
X66782200Y-131000000D03*
%TD*%
D13*
%TO.C,C21*%
X59425000Y-141094888D03*
D14*
X59425000Y-143594888D03*
%TD*%
D15*
%TO.C,RV1*%
X74725000Y-48700000D03*
X74725000Y-46200000D03*
X74725000Y-43700000D03*
X69725000Y-48700000D03*
X69725000Y-46200000D03*
X69725000Y-43700000D03*
%TD*%
D12*
%TO.C,J9*%
X70700000Y-55600000D03*
%TD*%
%TO.C,J8*%
X71375000Y-112400000D03*
%TD*%
D10*
%TO.C,J7*%
X77850000Y-142200000D03*
D11*
X72550000Y-142200000D03*
X66750000Y-142200000D03*
%TD*%
D15*
%TO.C,RV2*%
X74750000Y-107400000D03*
X74750000Y-104900000D03*
X74750000Y-102400000D03*
X69750000Y-107400000D03*
X69750000Y-104900000D03*
X69750000Y-102400000D03*
%TD*%
D12*
%TO.C,J13*%
X60203000Y-135631000D03*
D16*
X57663000Y-135631000D03*
X60203000Y-133091000D03*
X57663000Y-133091000D03*
X60203000Y-130551000D03*
X57663000Y-130551000D03*
X60203000Y-128011000D03*
X57663000Y-128011000D03*
X60203000Y-125471000D03*
X57663000Y-125471000D03*
%TD*%
D10*
%TO.C,J2*%
X77882200Y-61200000D03*
D11*
X72582200Y-61200000D03*
X66782200Y-61200000D03*
%TD*%
D10*
%TO.C,J1*%
X77900000Y-72250000D03*
D11*
X72600000Y-72250000D03*
X66800000Y-72250000D03*
%TD*%
D10*
%TO.C,J6*%
X77832200Y-83300000D03*
D11*
X72532200Y-83300000D03*
X66732200Y-83300000D03*
%TD*%
D17*
%TO.C,R14*%
X66310000Y-76962000D03*
X68310000Y-76962000D03*
%TD*%
D18*
%TO.C,R35*%
X69550000Y-130375000D03*
X69550000Y-128375000D03*
%TD*%
D19*
%TO.C,R36*%
X59000000Y-114400000D03*
X57000000Y-114400000D03*
%TD*%
%TO.C,R23*%
X66900000Y-44775000D03*
X64900000Y-44775000D03*
%TD*%
D20*
%TO.C,R31*%
X67056000Y-96282000D03*
X67056000Y-98282000D03*
%TD*%
%TO.C,R27*%
X57404000Y-46752000D03*
X57404000Y-48752000D03*
%TD*%
D18*
%TO.C,R44*%
X67325000Y-111900000D03*
X67325000Y-109900000D03*
%TD*%
D21*
%TO.C,C33*%
X62300000Y-104537500D03*
X62300000Y-102462500D03*
%TD*%
D18*
%TO.C,R22*%
X64008000Y-77200000D03*
X64008000Y-75200000D03*
%TD*%
D20*
%TO.C,R50*%
X75950000Y-110100000D03*
X75950000Y-112100000D03*
%TD*%
D19*
%TO.C,R5*%
X59166000Y-62484000D03*
X57166000Y-62484000D03*
%TD*%
D22*
%TO.C,C18*%
X57128500Y-96520000D03*
X59203500Y-96520000D03*
%TD*%
D23*
%TO.C,D11*%
X68875000Y-94025000D03*
X68875000Y-92125000D03*
X71875000Y-93075000D03*
%TD*%
D20*
%TO.C,R11*%
X71150000Y-51350000D03*
X71150000Y-53350000D03*
%TD*%
D22*
%TO.C,C27*%
X70062500Y-86525000D03*
X72137500Y-86525000D03*
%TD*%
D24*
%TO.C,C1*%
X67331500Y-55118000D03*
X65256500Y-55118000D03*
%TD*%
D18*
%TO.C,R48*%
X66850000Y-89625000D03*
X66850000Y-87625000D03*
%TD*%
D20*
%TO.C,R24*%
X57404000Y-50816000D03*
X57404000Y-52816000D03*
%TD*%
D25*
%TO.C,C30*%
X61700000Y-62716500D03*
X61700000Y-64791500D03*
%TD*%
D22*
%TO.C,C5*%
X57262500Y-57404000D03*
X59337500Y-57404000D03*
%TD*%
D26*
%TO.C,U5*%
X57150000Y-106999000D03*
X58420000Y-106999000D03*
X59690000Y-106999000D03*
X60960000Y-106999000D03*
X62230000Y-106999000D03*
X63500000Y-106999000D03*
X64770000Y-106999000D03*
X64770000Y-111949000D03*
X63500000Y-111949000D03*
X62230000Y-111949000D03*
X60960000Y-111949000D03*
X59690000Y-111949000D03*
X58420000Y-111949000D03*
X57150000Y-111949000D03*
%TD*%
D20*
%TO.C,R43*%
X72225000Y-104450000D03*
X72225000Y-106450000D03*
%TD*%
%TO.C,R2*%
X64100000Y-57420000D03*
X64100000Y-59420000D03*
%TD*%
%TO.C,R47*%
X62300000Y-98400000D03*
X62300000Y-100400000D03*
%TD*%
D19*
%TO.C,R55*%
X61960000Y-79756000D03*
X59960000Y-79756000D03*
%TD*%
D23*
%TO.C,D12*%
X70250000Y-90350000D03*
X70250000Y-88450000D03*
X73250000Y-89400000D03*
%TD*%
D24*
%TO.C,C38*%
X63337500Y-114850000D03*
X61262500Y-114850000D03*
%TD*%
D22*
%TO.C,C23*%
X74087500Y-92375000D03*
X76162500Y-92375000D03*
%TD*%
D17*
%TO.C,R109*%
X74050000Y-86500000D03*
X76050000Y-86500000D03*
%TD*%
D18*
%TO.C,R18*%
X69000000Y-53150000D03*
X69000000Y-51150000D03*
%TD*%
D17*
%TO.C,R28*%
X56925000Y-44800000D03*
X58925000Y-44800000D03*
%TD*%
D20*
%TO.C,R3*%
X62050000Y-57450000D03*
X62050000Y-59450000D03*
%TD*%
D17*
%TO.C,R4*%
X57166000Y-64770000D03*
X59166000Y-64770000D03*
%TD*%
D19*
%TO.C,R34*%
X59200000Y-102300000D03*
X57200000Y-102300000D03*
%TD*%
D20*
%TO.C,R40*%
X73975000Y-110125000D03*
X73975000Y-112125000D03*
%TD*%
%TO.C,R32*%
X65024000Y-96282000D03*
X65024000Y-98282000D03*
%TD*%
%TO.C,R54*%
X57150000Y-81042000D03*
X57150000Y-83042000D03*
%TD*%
D17*
%TO.C,R33*%
X57200000Y-104648000D03*
X59200000Y-104648000D03*
%TD*%
D18*
%TO.C,R42*%
X75250000Y-131750000D03*
X75250000Y-129750000D03*
%TD*%
%TO.C,R13*%
X72250000Y-47225000D03*
X72250000Y-45225000D03*
%TD*%
%TO.C,R19*%
X61976000Y-77200000D03*
X61976000Y-75200000D03*
%TD*%
D26*
%TO.C,U2*%
X56642000Y-67375000D03*
X57912000Y-67375000D03*
X59182000Y-67375000D03*
X60452000Y-67375000D03*
X61722000Y-67375000D03*
X62992000Y-67375000D03*
X64262000Y-67375000D03*
X64262000Y-72325000D03*
X62992000Y-72325000D03*
X61722000Y-72325000D03*
X60452000Y-72325000D03*
X59182000Y-72325000D03*
X57912000Y-72325000D03*
X56642000Y-72325000D03*
%TD*%
D22*
%TO.C,C25*%
X74112500Y-94700000D03*
X76187500Y-94700000D03*
%TD*%
D17*
%TO.C,R6*%
X70250000Y-75750000D03*
X72250000Y-75750000D03*
%TD*%
D18*
%TO.C,R52*%
X69225000Y-119325000D03*
X69225000Y-117325000D03*
%TD*%
D24*
%TO.C,C14*%
X65807500Y-94234000D03*
X63732500Y-94234000D03*
%TD*%
D25*
%TO.C,C2*%
X66575000Y-66912500D03*
X66575000Y-68987500D03*
%TD*%
D19*
%TO.C,R12*%
X71866000Y-79502000D03*
X69866000Y-79502000D03*
%TD*%
D27*
%TO.C,U1*%
X67056000Y-52125000D03*
X65786000Y-52125000D03*
X64516000Y-52125000D03*
X63246000Y-52125000D03*
X61976000Y-52125000D03*
X60706000Y-52125000D03*
X59436000Y-52125000D03*
X59436000Y-47175000D03*
X60706000Y-47175000D03*
X61976000Y-47175000D03*
X63246000Y-47175000D03*
X64516000Y-47175000D03*
X65786000Y-47175000D03*
X67056000Y-47175000D03*
%TD*%
D17*
%TO.C,R21*%
X57300000Y-55118000D03*
X59300000Y-55118000D03*
%TD*%
D20*
%TO.C,R8*%
X57404000Y-75200000D03*
X57404000Y-77200000D03*
%TD*%
D19*
%TO.C,R39*%
X66278000Y-104140000D03*
X64278000Y-104140000D03*
%TD*%
D22*
%TO.C,C26*%
X71172500Y-99240000D03*
X73247500Y-99240000D03*
%TD*%
%TO.C,C24*%
X71142500Y-97050000D03*
X73217500Y-97050000D03*
%TD*%
D19*
%TO.C,R17*%
X59250000Y-60198000D03*
X57250000Y-60198000D03*
%TD*%
%TO.C,R10*%
X65900000Y-64775000D03*
X63900000Y-64775000D03*
%TD*%
%TO.C,R7*%
X66024000Y-79502000D03*
X64024000Y-79502000D03*
%TD*%
D17*
%TO.C,R51*%
X57166000Y-94488000D03*
X59166000Y-94488000D03*
%TD*%
D27*
%TO.C,U4*%
X65024000Y-91629000D03*
X63754000Y-91629000D03*
X62484000Y-91629000D03*
X61214000Y-91629000D03*
X59944000Y-91629000D03*
X58674000Y-91629000D03*
X57404000Y-91629000D03*
X57404000Y-86679000D03*
X58674000Y-86679000D03*
X59944000Y-86679000D03*
X61214000Y-86679000D03*
X62484000Y-86679000D03*
X63754000Y-86679000D03*
X65024000Y-86679000D03*
%TD*%
D24*
%TO.C,C15*%
X66315500Y-102108000D03*
X64240500Y-102108000D03*
%TD*%
D25*
%TO.C,C35*%
X59944000Y-75162500D03*
X59944000Y-77237500D03*
%TD*%
D18*
%TO.C,R25*%
X68775000Y-68950000D03*
X68775000Y-66950000D03*
%TD*%
%TO.C,R29*%
X59400000Y-100400000D03*
X59400000Y-98400000D03*
%TD*%
D21*
%TO.C,C28*%
X75775000Y-90462500D03*
X75775000Y-88387500D03*
%TD*%
D22*
%TO.C,C34*%
X60812500Y-44775000D03*
X62887500Y-44775000D03*
%TD*%
D21*
%TO.C,C37*%
X61214000Y-83841500D03*
X61214000Y-81766500D03*
%TD*%
D20*
%TO.C,R20*%
X74775000Y-51800000D03*
X74775000Y-53800000D03*
%TD*%
%TO.C,R108*%
X75975000Y-96650000D03*
X75975000Y-98650000D03*
%TD*%
%TO.C,R53*%
X63500000Y-81804000D03*
X63500000Y-83804000D03*
%TD*%
D22*
%TO.C,C29*%
X61192500Y-55118000D03*
X63267500Y-55118000D03*
%TD*%
D19*
%TO.C,R49*%
X67225000Y-114875000D03*
X65225000Y-114875000D03*
%TD*%
D18*
%TO.C,R26*%
X64425000Y-118950000D03*
X64425000Y-116950000D03*
%TD*%
D21*
%TO.C,C32*%
X61468000Y-96541500D03*
X61468000Y-94466500D03*
%TD*%
D20*
%TO.C,R56*%
X59182000Y-81804000D03*
X59182000Y-83804000D03*
%TD*%
M02*
