%TF.GenerationSoftware,KiCad,Pcbnew,(6.0.2-0)*%
%TF.CreationDate,2022-07-30T11:22:51+02:00*%
%TF.ProjectId,blindeTaube,626c696e-6465-4546-9175-62652e6b6963,rev?*%
%TF.SameCoordinates,Original*%
%TF.FileFunction,Legend,Top*%
%TF.FilePolarity,Positive*%
%FSLAX46Y46*%
G04 Gerber Fmt 4.6, Leading zero omitted, Abs format (unit mm)*
G04 Created by KiCad (PCBNEW (6.0.2-0)) date 2022-07-30 11:22:51*
%MOMM*%
%LPD*%
G01*
G04 APERTURE LIST*
%ADD10C,0.200000*%
%ADD11C,0.250000*%
%ADD12C,0.300000*%
%ADD13C,0.150000*%
%ADD14C,0.120000*%
G04 APERTURE END LIST*
D10*
X63317857Y-115535714D02*
X63203571Y-115592857D01*
X62975000Y-115592857D01*
X62860714Y-115535714D01*
X62803571Y-115478571D01*
X62746428Y-115364285D01*
X62746428Y-115021428D01*
X62803571Y-114907142D01*
X62860714Y-114850000D01*
X62975000Y-114792857D01*
X63203571Y-114792857D01*
X63317857Y-114850000D01*
X63832142Y-115592857D02*
X63832142Y-114392857D01*
X64346428Y-115592857D02*
X64346428Y-114964285D01*
X64289285Y-114850000D01*
X64175000Y-114792857D01*
X64003571Y-114792857D01*
X63889285Y-114850000D01*
X63832142Y-114907142D01*
X65432142Y-115592857D02*
X65432142Y-114964285D01*
X65375000Y-114850000D01*
X65260714Y-114792857D01*
X65032142Y-114792857D01*
X64917857Y-114850000D01*
X65432142Y-115535714D02*
X65317857Y-115592857D01*
X65032142Y-115592857D01*
X64917857Y-115535714D01*
X64860714Y-115421428D01*
X64860714Y-115307142D01*
X64917857Y-115192857D01*
X65032142Y-115135714D01*
X65317857Y-115135714D01*
X65432142Y-115078571D01*
X66003571Y-115592857D02*
X66003571Y-114792857D01*
X66003571Y-114392857D02*
X65946428Y-114450000D01*
X66003571Y-114507142D01*
X66060714Y-114450000D01*
X66003571Y-114392857D01*
X66003571Y-114507142D01*
X66575000Y-114792857D02*
X66575000Y-115592857D01*
X66575000Y-114907142D02*
X66632142Y-114850000D01*
X66746428Y-114792857D01*
X66917857Y-114792857D01*
X67032142Y-114850000D01*
X67089285Y-114964285D01*
X67089285Y-115592857D01*
X68746428Y-115592857D02*
X68632142Y-115535714D01*
X68575000Y-115478571D01*
X68517857Y-115364285D01*
X68517857Y-115021428D01*
X68575000Y-114907142D01*
X68632142Y-114850000D01*
X68746428Y-114792857D01*
X68917857Y-114792857D01*
X69032142Y-114850000D01*
X69089285Y-114907142D01*
X69146428Y-115021428D01*
X69146428Y-115364285D01*
X69089285Y-115478571D01*
X69032142Y-115535714D01*
X68917857Y-115592857D01*
X68746428Y-115592857D01*
X70175000Y-114792857D02*
X70175000Y-115592857D01*
X69660714Y-114792857D02*
X69660714Y-115421428D01*
X69717857Y-115535714D01*
X69832142Y-115592857D01*
X70003571Y-115592857D01*
X70117857Y-115535714D01*
X70175000Y-115478571D01*
X70575000Y-114792857D02*
X71032142Y-114792857D01*
X70746428Y-114392857D02*
X70746428Y-115421428D01*
X70803571Y-115535714D01*
X70917857Y-115592857D01*
X71032142Y-115592857D01*
X71260714Y-114507142D02*
X71489285Y-114335714D01*
X71717857Y-114507142D01*
D11*
X57971428Y-113307142D02*
X57828571Y-113378571D01*
X57542857Y-113378571D01*
X57400000Y-113307142D01*
X57328571Y-113235714D01*
X57257142Y-113092857D01*
X57257142Y-112664285D01*
X57328571Y-112521428D01*
X57400000Y-112450000D01*
X57542857Y-112378571D01*
X57828571Y-112378571D01*
X57971428Y-112450000D01*
X58614285Y-113378571D02*
X58614285Y-111878571D01*
X59257142Y-113378571D02*
X59257142Y-112592857D01*
X59185714Y-112450000D01*
X59042857Y-112378571D01*
X58828571Y-112378571D01*
X58685714Y-112450000D01*
X58614285Y-112521428D01*
X60614285Y-113378571D02*
X60614285Y-112592857D01*
X60542857Y-112450000D01*
X60400000Y-112378571D01*
X60114285Y-112378571D01*
X59971428Y-112450000D01*
X60614285Y-113307142D02*
X60471428Y-113378571D01*
X60114285Y-113378571D01*
X59971428Y-113307142D01*
X59900000Y-113164285D01*
X59900000Y-113021428D01*
X59971428Y-112878571D01*
X60114285Y-112807142D01*
X60471428Y-112807142D01*
X60614285Y-112735714D01*
X61328571Y-112378571D02*
X61328571Y-113378571D01*
X61328571Y-112521428D02*
X61400000Y-112450000D01*
X61542857Y-112378571D01*
X61757142Y-112378571D01*
X61900000Y-112450000D01*
X61971428Y-112592857D01*
X61971428Y-113378571D01*
X62685714Y-112378571D02*
X62685714Y-113378571D01*
X62685714Y-112521428D02*
X62757142Y-112450000D01*
X62900000Y-112378571D01*
X63114285Y-112378571D01*
X63257142Y-112450000D01*
X63328571Y-112592857D01*
X63328571Y-113378571D01*
X64614285Y-113307142D02*
X64471428Y-113378571D01*
X64185714Y-113378571D01*
X64042857Y-113307142D01*
X63971428Y-113164285D01*
X63971428Y-112592857D01*
X64042857Y-112450000D01*
X64185714Y-112378571D01*
X64471428Y-112378571D01*
X64614285Y-112450000D01*
X64685714Y-112592857D01*
X64685714Y-112735714D01*
X63971428Y-112878571D01*
X65542857Y-113378571D02*
X65400000Y-113307142D01*
X65328571Y-113164285D01*
X65328571Y-111878571D01*
X67185714Y-112021428D02*
X67257142Y-111950000D01*
X67400000Y-111878571D01*
X67757142Y-111878571D01*
X67900000Y-111950000D01*
X67971428Y-112021428D01*
X68042857Y-112164285D01*
X68042857Y-112307142D01*
X67971428Y-112521428D01*
X67114285Y-113378571D01*
X68042857Y-113378571D01*
D10*
X56409523Y-138192857D02*
X57400000Y-138192857D01*
X56904761Y-138688095D02*
X56904761Y-137697619D01*
X58700000Y-138688095D02*
X57957142Y-138688095D01*
X58328571Y-138688095D02*
X58328571Y-137388095D01*
X58204761Y-137573809D01*
X58080952Y-137697619D01*
X57957142Y-137759523D01*
X59195238Y-137511904D02*
X59257142Y-137450000D01*
X59380952Y-137388095D01*
X59690476Y-137388095D01*
X59814285Y-137450000D01*
X59876190Y-137511904D01*
X59938095Y-137635714D01*
X59938095Y-137759523D01*
X59876190Y-137945238D01*
X59133333Y-138688095D01*
X59938095Y-138688095D01*
X60309523Y-137388095D02*
X60742857Y-138688095D01*
X61176190Y-137388095D01*
X64717857Y-55275000D02*
X64603571Y-55217857D01*
X64432142Y-55217857D01*
X64260714Y-55275000D01*
X64146428Y-55389285D01*
X64089285Y-55503571D01*
X64032142Y-55732142D01*
X64032142Y-55903571D01*
X64089285Y-56132142D01*
X64146428Y-56246428D01*
X64260714Y-56360714D01*
X64432142Y-56417857D01*
X64546428Y-56417857D01*
X64717857Y-56360714D01*
X64775000Y-56303571D01*
X64775000Y-55903571D01*
X64546428Y-55903571D01*
X65289285Y-56417857D02*
X65289285Y-55217857D01*
X65975000Y-56417857D01*
X65975000Y-55217857D01*
X66546428Y-56417857D02*
X66546428Y-55217857D01*
X66832142Y-55217857D01*
X67003571Y-55275000D01*
X67117857Y-55389285D01*
X67175000Y-55503571D01*
X67232142Y-55732142D01*
X67232142Y-55903571D01*
X67175000Y-56132142D01*
X67117857Y-56246428D01*
X67003571Y-56360714D01*
X66832142Y-56417857D01*
X66546428Y-56417857D01*
X67746428Y-55617857D02*
X68660714Y-55960714D01*
X67746428Y-56303571D01*
D11*
X61521428Y-53082142D02*
X61378571Y-53153571D01*
X61092857Y-53153571D01*
X60950000Y-53082142D01*
X60878571Y-53010714D01*
X60807142Y-52867857D01*
X60807142Y-52439285D01*
X60878571Y-52296428D01*
X60950000Y-52225000D01*
X61092857Y-52153571D01*
X61378571Y-52153571D01*
X61521428Y-52225000D01*
X62164285Y-53153571D02*
X62164285Y-51653571D01*
X62807142Y-53153571D02*
X62807142Y-52367857D01*
X62735714Y-52225000D01*
X62592857Y-52153571D01*
X62378571Y-52153571D01*
X62235714Y-52225000D01*
X62164285Y-52296428D01*
X64164285Y-53153571D02*
X64164285Y-52367857D01*
X64092857Y-52225000D01*
X63950000Y-52153571D01*
X63664285Y-52153571D01*
X63521428Y-52225000D01*
X64164285Y-53082142D02*
X64021428Y-53153571D01*
X63664285Y-53153571D01*
X63521428Y-53082142D01*
X63450000Y-52939285D01*
X63450000Y-52796428D01*
X63521428Y-52653571D01*
X63664285Y-52582142D01*
X64021428Y-52582142D01*
X64164285Y-52510714D01*
X64878571Y-52153571D02*
X64878571Y-53153571D01*
X64878571Y-52296428D02*
X64950000Y-52225000D01*
X65092857Y-52153571D01*
X65307142Y-52153571D01*
X65450000Y-52225000D01*
X65521428Y-52367857D01*
X65521428Y-53153571D01*
X66235714Y-52153571D02*
X66235714Y-53153571D01*
X66235714Y-52296428D02*
X66307142Y-52225000D01*
X66450000Y-52153571D01*
X66664285Y-52153571D01*
X66807142Y-52225000D01*
X66878571Y-52367857D01*
X66878571Y-53153571D01*
X68164285Y-53082142D02*
X68021428Y-53153571D01*
X67735714Y-53153571D01*
X67592857Y-53082142D01*
X67521428Y-52939285D01*
X67521428Y-52367857D01*
X67592857Y-52225000D01*
X67735714Y-52153571D01*
X68021428Y-52153571D01*
X68164285Y-52225000D01*
X68235714Y-52367857D01*
X68235714Y-52510714D01*
X67521428Y-52653571D01*
X69092857Y-53153571D02*
X68950000Y-53082142D01*
X68878571Y-52939285D01*
X68878571Y-51653571D01*
X71592857Y-53153571D02*
X70735714Y-53153571D01*
X71164285Y-53153571D02*
X71164285Y-51653571D01*
X71021428Y-51867857D01*
X70878571Y-52010714D01*
X70735714Y-52082142D01*
D10*
X61867857Y-67485714D02*
X61753571Y-67542857D01*
X61525000Y-67542857D01*
X61410714Y-67485714D01*
X61353571Y-67428571D01*
X61296428Y-67314285D01*
X61296428Y-66971428D01*
X61353571Y-66857142D01*
X61410714Y-66800000D01*
X61525000Y-66742857D01*
X61753571Y-66742857D01*
X61867857Y-66800000D01*
X62382142Y-67542857D02*
X62382142Y-66342857D01*
X62896428Y-67542857D02*
X62896428Y-66914285D01*
X62839285Y-66800000D01*
X62725000Y-66742857D01*
X62553571Y-66742857D01*
X62439285Y-66800000D01*
X62382142Y-66857142D01*
X63982142Y-67542857D02*
X63982142Y-66914285D01*
X63925000Y-66800000D01*
X63810714Y-66742857D01*
X63582142Y-66742857D01*
X63467857Y-66800000D01*
X63982142Y-67485714D02*
X63867857Y-67542857D01*
X63582142Y-67542857D01*
X63467857Y-67485714D01*
X63410714Y-67371428D01*
X63410714Y-67257142D01*
X63467857Y-67142857D01*
X63582142Y-67085714D01*
X63867857Y-67085714D01*
X63982142Y-67028571D01*
X64553571Y-67542857D02*
X64553571Y-66742857D01*
X64553571Y-66342857D02*
X64496428Y-66400000D01*
X64553571Y-66457142D01*
X64610714Y-66400000D01*
X64553571Y-66342857D01*
X64553571Y-66457142D01*
X65125000Y-66742857D02*
X65125000Y-67542857D01*
X65125000Y-66857142D02*
X65182142Y-66800000D01*
X65296428Y-66742857D01*
X65467857Y-66742857D01*
X65582142Y-66800000D01*
X65639285Y-66914285D01*
X65639285Y-67542857D01*
X67125000Y-67542857D02*
X67125000Y-66742857D01*
X67125000Y-66342857D02*
X67067857Y-66400000D01*
X67125000Y-66457142D01*
X67182142Y-66400000D01*
X67125000Y-66342857D01*
X67125000Y-66457142D01*
X67696428Y-66742857D02*
X67696428Y-67542857D01*
X67696428Y-66857142D02*
X67753571Y-66800000D01*
X67867857Y-66742857D01*
X68039285Y-66742857D01*
X68153571Y-66800000D01*
X68210714Y-66914285D01*
X68210714Y-67542857D01*
X68782142Y-66742857D02*
X69696428Y-67085714D01*
X68782142Y-67428571D01*
X56259523Y-123342857D02*
X57250000Y-123342857D01*
X58550000Y-123838095D02*
X57807142Y-123838095D01*
X58178571Y-123838095D02*
X58178571Y-122538095D01*
X58054761Y-122723809D01*
X57930952Y-122847619D01*
X57807142Y-122909523D01*
X59045238Y-122661904D02*
X59107142Y-122600000D01*
X59230952Y-122538095D01*
X59540476Y-122538095D01*
X59664285Y-122600000D01*
X59726190Y-122661904D01*
X59788095Y-122785714D01*
X59788095Y-122909523D01*
X59726190Y-123095238D01*
X58983333Y-123838095D01*
X59788095Y-123838095D01*
X60159523Y-122538095D02*
X60592857Y-123838095D01*
X61026190Y-122538095D01*
D12*
X59228571Y-66714285D02*
X58228571Y-66714285D01*
X58371428Y-66714285D02*
X58300000Y-66642857D01*
X58228571Y-66499999D01*
X58228571Y-66285714D01*
X58300000Y-66142857D01*
X58442857Y-66071428D01*
X59228571Y-66071428D01*
X58442857Y-66071428D02*
X58300000Y-65999999D01*
X58228571Y-65857142D01*
X58228571Y-65642857D01*
X58300000Y-65499999D01*
X58442857Y-65428571D01*
X59228571Y-65428571D01*
X58228571Y-64071428D02*
X59228571Y-64071428D01*
X58228571Y-64714285D02*
X59014285Y-64714285D01*
X59157142Y-64642857D01*
X59228571Y-64499999D01*
X59228571Y-64285714D01*
X59157142Y-64142857D01*
X59085714Y-64071428D01*
X58228571Y-63571428D02*
X58228571Y-62999999D01*
X57728571Y-63357142D02*
X59014285Y-63357142D01*
X59157142Y-63285714D01*
X59228571Y-63142857D01*
X59228571Y-62999999D01*
X59228571Y-61857142D02*
X58442857Y-61857142D01*
X58300000Y-61928571D01*
X58228571Y-62071428D01*
X58228571Y-62357142D01*
X58300000Y-62499999D01*
X59157142Y-61857142D02*
X59228571Y-61999999D01*
X59228571Y-62357142D01*
X59157142Y-62499999D01*
X59014285Y-62571428D01*
X58871428Y-62571428D01*
X58728571Y-62499999D01*
X58657142Y-62357142D01*
X58657142Y-61999999D01*
X58585714Y-61857142D01*
X59228571Y-61142857D02*
X57728571Y-61142857D01*
X58300000Y-61142857D02*
X58228571Y-60999999D01*
X58228571Y-60714285D01*
X58300000Y-60571428D01*
X58371428Y-60499999D01*
X58514285Y-60428571D01*
X58942857Y-60428571D01*
X59085714Y-60499999D01*
X59157142Y-60571428D01*
X59228571Y-60714285D01*
X59228571Y-60999999D01*
X59157142Y-61142857D01*
X59228571Y-59571428D02*
X59157142Y-59714285D01*
X59014285Y-59785714D01*
X57728571Y-59785714D01*
X59157142Y-58428571D02*
X59228571Y-58571428D01*
X59228571Y-58857142D01*
X59157142Y-58999999D01*
X59014285Y-59071428D01*
X58442857Y-59071428D01*
X58300000Y-58999999D01*
X58228571Y-58857142D01*
X58228571Y-58571428D01*
X58300000Y-58428571D01*
X58442857Y-58357142D01*
X58585714Y-58357142D01*
X58728571Y-59071428D01*
X59228571Y-56571428D02*
X57728571Y-56571428D01*
X58300000Y-56571428D02*
X58228571Y-56428571D01*
X58228571Y-56142857D01*
X58300000Y-56000000D01*
X58371428Y-55928571D01*
X58514285Y-55857142D01*
X58942857Y-55857142D01*
X59085714Y-55928571D01*
X59157142Y-56000000D01*
X59228571Y-56142857D01*
X59228571Y-56428571D01*
X59157142Y-56571428D01*
X59228571Y-55000000D02*
X59157142Y-55142857D01*
X59014285Y-55214285D01*
X57728571Y-55214285D01*
X59228571Y-54428571D02*
X58228571Y-54428571D01*
X57728571Y-54428571D02*
X57800000Y-54500000D01*
X57871428Y-54428571D01*
X57800000Y-54357142D01*
X57728571Y-54428571D01*
X57871428Y-54428571D01*
X58228571Y-53714285D02*
X59228571Y-53714285D01*
X58371428Y-53714285D02*
X58300000Y-53642857D01*
X58228571Y-53500000D01*
X58228571Y-53285714D01*
X58300000Y-53142857D01*
X58442857Y-53071428D01*
X59228571Y-53071428D01*
X59228571Y-51714285D02*
X57728571Y-51714285D01*
X59157142Y-51714285D02*
X59228571Y-51857142D01*
X59228571Y-52142857D01*
X59157142Y-52285714D01*
X59085714Y-52357142D01*
X58942857Y-52428571D01*
X58514285Y-52428571D01*
X58371428Y-52357142D01*
X58300000Y-52285714D01*
X58228571Y-52142857D01*
X58228571Y-51857142D01*
X58300000Y-51714285D01*
X59157142Y-51071428D02*
X59228571Y-50928571D01*
X59228571Y-50642857D01*
X59157142Y-50500000D01*
X59014285Y-50428571D01*
X58942857Y-50428571D01*
X58800000Y-50500000D01*
X58728571Y-50642857D01*
X58728571Y-50857142D01*
X58657142Y-51000000D01*
X58514285Y-51071428D01*
X58442857Y-51071428D01*
X58300000Y-51000000D01*
X58228571Y-50857142D01*
X58228571Y-50642857D01*
X58300000Y-50500000D01*
X59157142Y-48000000D02*
X59228571Y-48142857D01*
X59228571Y-48428571D01*
X59157142Y-48571428D01*
X59085714Y-48642857D01*
X58942857Y-48714285D01*
X58514285Y-48714285D01*
X58371428Y-48642857D01*
X58300000Y-48571428D01*
X58228571Y-48428571D01*
X58228571Y-48142857D01*
X58300000Y-48000000D01*
X59228571Y-47142857D02*
X59157142Y-47285714D01*
X59014285Y-47357142D01*
X57728571Y-47357142D01*
X59228571Y-46357142D02*
X59157142Y-46500000D01*
X59085714Y-46571428D01*
X58942857Y-46642857D01*
X58514285Y-46642857D01*
X58371428Y-46571428D01*
X58300000Y-46500000D01*
X58228571Y-46357142D01*
X58228571Y-46142857D01*
X58300000Y-46000000D01*
X58371428Y-45928571D01*
X58514285Y-45857142D01*
X58942857Y-45857142D01*
X59085714Y-45928571D01*
X59157142Y-46000000D01*
X59228571Y-46142857D01*
X59228571Y-46357142D01*
X58228571Y-45214285D02*
X59228571Y-45214285D01*
X58371428Y-45214285D02*
X58300000Y-45142857D01*
X58228571Y-45000000D01*
X58228571Y-44785714D01*
X58300000Y-44642857D01*
X58442857Y-44571428D01*
X59228571Y-44571428D01*
X59157142Y-43285714D02*
X59228571Y-43428571D01*
X59228571Y-43714285D01*
X59157142Y-43857142D01*
X59014285Y-43928571D01*
X58442857Y-43928571D01*
X58300000Y-43857142D01*
X58228571Y-43714285D01*
X58228571Y-43428571D01*
X58300000Y-43285714D01*
X58442857Y-43214285D01*
X58585714Y-43214285D01*
X58728571Y-43928571D01*
D10*
X63250000Y-130484523D02*
X63311904Y-130360714D01*
X63311904Y-130175000D01*
X63250000Y-129989285D01*
X63126190Y-129865476D01*
X63002380Y-129803571D01*
X62754761Y-129741666D01*
X62569047Y-129741666D01*
X62321428Y-129803571D01*
X62197619Y-129865476D01*
X62073809Y-129989285D01*
X62011904Y-130175000D01*
X62011904Y-130298809D01*
X62073809Y-130484523D01*
X62135714Y-130546428D01*
X62569047Y-130546428D01*
X62569047Y-130298809D01*
X62011904Y-131103571D02*
X63311904Y-131103571D01*
X62011904Y-131846428D01*
X63311904Y-131846428D01*
X62011904Y-132465476D02*
X63311904Y-132465476D01*
X63311904Y-132775000D01*
X63250000Y-132960714D01*
X63126190Y-133084523D01*
X63002380Y-133146428D01*
X62754761Y-133208333D01*
X62569047Y-133208333D01*
X62321428Y-133146428D01*
X62197619Y-133084523D01*
X62073809Y-132960714D01*
X62011904Y-132775000D01*
X62011904Y-132465476D01*
D13*
%TO.C,C4*%
X61583333Y-87407142D02*
X61535714Y-87454761D01*
X61392857Y-87502380D01*
X61297619Y-87502380D01*
X61154761Y-87454761D01*
X61059523Y-87359523D01*
X61011904Y-87264285D01*
X60964285Y-87073809D01*
X60964285Y-86930952D01*
X61011904Y-86740476D01*
X61059523Y-86645238D01*
X61154761Y-86550000D01*
X61297619Y-86502380D01*
X61392857Y-86502380D01*
X61535714Y-86550000D01*
X61583333Y-86597619D01*
X62440476Y-86835714D02*
X62440476Y-87502380D01*
X62202380Y-86454761D02*
X61964285Y-87169047D01*
X62583333Y-87169047D01*
%TO.C,C3*%
X65633333Y-88357142D02*
X65585714Y-88404761D01*
X65442857Y-88452380D01*
X65347619Y-88452380D01*
X65204761Y-88404761D01*
X65109523Y-88309523D01*
X65061904Y-88214285D01*
X65014285Y-88023809D01*
X65014285Y-87880952D01*
X65061904Y-87690476D01*
X65109523Y-87595238D01*
X65204761Y-87500000D01*
X65347619Y-87452380D01*
X65442857Y-87452380D01*
X65585714Y-87500000D01*
X65633333Y-87547619D01*
X65966666Y-87452380D02*
X66585714Y-87452380D01*
X66252380Y-87833333D01*
X66395238Y-87833333D01*
X66490476Y-87880952D01*
X66538095Y-87928571D01*
X66585714Y-88023809D01*
X66585714Y-88261904D01*
X66538095Y-88357142D01*
X66490476Y-88404761D01*
X66395238Y-88452380D01*
X66109523Y-88452380D01*
X66014285Y-88404761D01*
X65966666Y-88357142D01*
%TO.C,R46*%
X67027380Y-103892857D02*
X66551190Y-104226190D01*
X67027380Y-104464285D02*
X66027380Y-104464285D01*
X66027380Y-104083333D01*
X66075000Y-103988095D01*
X66122619Y-103940476D01*
X66217857Y-103892857D01*
X66360714Y-103892857D01*
X66455952Y-103940476D01*
X66503571Y-103988095D01*
X66551190Y-104083333D01*
X66551190Y-104464285D01*
X66360714Y-103035714D02*
X67027380Y-103035714D01*
X65979761Y-103273809D02*
X66694047Y-103511904D01*
X66694047Y-102892857D01*
X66027380Y-102083333D02*
X66027380Y-102273809D01*
X66075000Y-102369047D01*
X66122619Y-102416666D01*
X66265476Y-102511904D01*
X66455952Y-102559523D01*
X66836904Y-102559523D01*
X66932142Y-102511904D01*
X66979761Y-102464285D01*
X67027380Y-102369047D01*
X67027380Y-102178571D01*
X66979761Y-102083333D01*
X66932142Y-102035714D01*
X66836904Y-101988095D01*
X66598809Y-101988095D01*
X66503571Y-102035714D01*
X66455952Y-102083333D01*
X66408333Y-102178571D01*
X66408333Y-102369047D01*
X66455952Y-102464285D01*
X66503571Y-102511904D01*
X66598809Y-102559523D01*
%TO.C,D6*%
X76902380Y-78588095D02*
X75902380Y-78588095D01*
X75902380Y-78350000D01*
X75950000Y-78207142D01*
X76045238Y-78111904D01*
X76140476Y-78064285D01*
X76330952Y-78016666D01*
X76473809Y-78016666D01*
X76664285Y-78064285D01*
X76759523Y-78111904D01*
X76854761Y-78207142D01*
X76902380Y-78350000D01*
X76902380Y-78588095D01*
X75902380Y-77159523D02*
X75902380Y-77350000D01*
X75950000Y-77445238D01*
X75997619Y-77492857D01*
X76140476Y-77588095D01*
X76330952Y-77635714D01*
X76711904Y-77635714D01*
X76807142Y-77588095D01*
X76854761Y-77540476D01*
X76902380Y-77445238D01*
X76902380Y-77254761D01*
X76854761Y-77159523D01*
X76807142Y-77111904D01*
X76711904Y-77064285D01*
X76473809Y-77064285D01*
X76378571Y-77111904D01*
X76330952Y-77159523D01*
X76283333Y-77254761D01*
X76283333Y-77445238D01*
X76330952Y-77540476D01*
X76378571Y-77588095D01*
X76473809Y-77635714D01*
%TO.C,J4*%
X71041666Y-63527380D02*
X71041666Y-64241666D01*
X70994047Y-64384523D01*
X70898809Y-64479761D01*
X70755952Y-64527380D01*
X70660714Y-64527380D01*
X71946428Y-63860714D02*
X71946428Y-64527380D01*
X71708333Y-63479761D02*
X71470238Y-64194047D01*
X72089285Y-64194047D01*
%TO.C,D3*%
X76455225Y-112775096D02*
X75589200Y-112275096D01*
X75708247Y-112068900D01*
X75820915Y-111968991D01*
X75951013Y-111934132D01*
X76057301Y-111940511D01*
X76246068Y-111994510D01*
X76369786Y-112065939D01*
X76510934Y-112202416D01*
X76569603Y-112291275D01*
X76604462Y-112421372D01*
X76574273Y-112568900D01*
X76455225Y-112775096D01*
X76041581Y-111491549D02*
X76351105Y-110955438D01*
X76514352Y-111434590D01*
X76585781Y-111310872D01*
X76674639Y-111252203D01*
X76739688Y-111234773D01*
X76845976Y-111241153D01*
X77052173Y-111360200D01*
X77110842Y-111449059D01*
X77128272Y-111514108D01*
X77121892Y-111620396D01*
X76979035Y-111867831D01*
X76890176Y-111926501D01*
X76825128Y-111943930D01*
%TO.C,U3*%
X60758095Y-97867380D02*
X60758095Y-98676904D01*
X60805714Y-98772142D01*
X60853333Y-98819761D01*
X60948571Y-98867380D01*
X61139047Y-98867380D01*
X61234285Y-98819761D01*
X61281904Y-98772142D01*
X61329523Y-98676904D01*
X61329523Y-97867380D01*
X61710476Y-97867380D02*
X62329523Y-97867380D01*
X61996190Y-98248333D01*
X62139047Y-98248333D01*
X62234285Y-98295952D01*
X62281904Y-98343571D01*
X62329523Y-98438809D01*
X62329523Y-98676904D01*
X62281904Y-98772142D01*
X62234285Y-98819761D01*
X62139047Y-98867380D01*
X61853333Y-98867380D01*
X61758095Y-98819761D01*
X61710476Y-98772142D01*
%TO.C,D10*%
X68660714Y-123202380D02*
X68660714Y-122202380D01*
X68898809Y-122202380D01*
X69041666Y-122250000D01*
X69136904Y-122345238D01*
X69184523Y-122440476D01*
X69232142Y-122630952D01*
X69232142Y-122773809D01*
X69184523Y-122964285D01*
X69136904Y-123059523D01*
X69041666Y-123154761D01*
X68898809Y-123202380D01*
X68660714Y-123202380D01*
X70184523Y-123202380D02*
X69613095Y-123202380D01*
X69898809Y-123202380D02*
X69898809Y-122202380D01*
X69803571Y-122345238D01*
X69708333Y-122440476D01*
X69613095Y-122488095D01*
X70803571Y-122202380D02*
X70898809Y-122202380D01*
X70994047Y-122250000D01*
X71041666Y-122297619D01*
X71089285Y-122392857D01*
X71136904Y-122583333D01*
X71136904Y-122821428D01*
X71089285Y-123011904D01*
X71041666Y-123107142D01*
X70994047Y-123154761D01*
X70898809Y-123202380D01*
X70803571Y-123202380D01*
X70708333Y-123154761D01*
X70660714Y-123107142D01*
X70613095Y-123011904D01*
X70565476Y-122821428D01*
X70565476Y-122583333D01*
X70613095Y-122392857D01*
X70660714Y-122297619D01*
X70708333Y-122250000D01*
X70803571Y-122202380D01*
%TO.C,C17*%
X63957142Y-111332142D02*
X63909523Y-111379761D01*
X63766666Y-111427380D01*
X63671428Y-111427380D01*
X63528571Y-111379761D01*
X63433333Y-111284523D01*
X63385714Y-111189285D01*
X63338095Y-110998809D01*
X63338095Y-110855952D01*
X63385714Y-110665476D01*
X63433333Y-110570238D01*
X63528571Y-110475000D01*
X63671428Y-110427380D01*
X63766666Y-110427380D01*
X63909523Y-110475000D01*
X63957142Y-110522619D01*
X64909523Y-111427380D02*
X64338095Y-111427380D01*
X64623809Y-111427380D02*
X64623809Y-110427380D01*
X64528571Y-110570238D01*
X64433333Y-110665476D01*
X64338095Y-110713095D01*
X65242857Y-110427380D02*
X65909523Y-110427380D01*
X65480952Y-111427380D01*
%TO.C,R16*%
X62371380Y-93086857D02*
X61895190Y-93420190D01*
X62371380Y-93658285D02*
X61371380Y-93658285D01*
X61371380Y-93277333D01*
X61419000Y-93182095D01*
X61466619Y-93134476D01*
X61561857Y-93086857D01*
X61704714Y-93086857D01*
X61799952Y-93134476D01*
X61847571Y-93182095D01*
X61895190Y-93277333D01*
X61895190Y-93658285D01*
X62371380Y-92134476D02*
X62371380Y-92705904D01*
X62371380Y-92420190D02*
X61371380Y-92420190D01*
X61514238Y-92515428D01*
X61609476Y-92610666D01*
X61657095Y-92705904D01*
X61371380Y-91277333D02*
X61371380Y-91467809D01*
X61419000Y-91563047D01*
X61466619Y-91610666D01*
X61609476Y-91705904D01*
X61799952Y-91753523D01*
X62180904Y-91753523D01*
X62276142Y-91705904D01*
X62323761Y-91658285D01*
X62371380Y-91563047D01*
X62371380Y-91372571D01*
X62323761Y-91277333D01*
X62276142Y-91229714D01*
X62180904Y-91182095D01*
X61942809Y-91182095D01*
X61847571Y-91229714D01*
X61799952Y-91277333D01*
X61752333Y-91372571D01*
X61752333Y-91563047D01*
X61799952Y-91658285D01*
X61847571Y-91705904D01*
X61942809Y-91753523D01*
%TO.C,C22*%
X63282142Y-119292857D02*
X63329761Y-119340476D01*
X63377380Y-119483333D01*
X63377380Y-119578571D01*
X63329761Y-119721428D01*
X63234523Y-119816666D01*
X63139285Y-119864285D01*
X62948809Y-119911904D01*
X62805952Y-119911904D01*
X62615476Y-119864285D01*
X62520238Y-119816666D01*
X62425000Y-119721428D01*
X62377380Y-119578571D01*
X62377380Y-119483333D01*
X62425000Y-119340476D01*
X62472619Y-119292857D01*
X62472619Y-118911904D02*
X62425000Y-118864285D01*
X62377380Y-118769047D01*
X62377380Y-118530952D01*
X62425000Y-118435714D01*
X62472619Y-118388095D01*
X62567857Y-118340476D01*
X62663095Y-118340476D01*
X62805952Y-118388095D01*
X63377380Y-118959523D01*
X63377380Y-118340476D01*
X62472619Y-117959523D02*
X62425000Y-117911904D01*
X62377380Y-117816666D01*
X62377380Y-117578571D01*
X62425000Y-117483333D01*
X62472619Y-117435714D01*
X62567857Y-117388095D01*
X62663095Y-117388095D01*
X62805952Y-117435714D01*
X63377380Y-118007142D01*
X63377380Y-117388095D01*
%TO.C,R45*%
X56157142Y-108002380D02*
X55823809Y-107526190D01*
X55585714Y-108002380D02*
X55585714Y-107002380D01*
X55966666Y-107002380D01*
X56061904Y-107050000D01*
X56109523Y-107097619D01*
X56157142Y-107192857D01*
X56157142Y-107335714D01*
X56109523Y-107430952D01*
X56061904Y-107478571D01*
X55966666Y-107526190D01*
X55585714Y-107526190D01*
X57014285Y-107335714D02*
X57014285Y-108002380D01*
X56776190Y-106954761D02*
X56538095Y-107669047D01*
X57157142Y-107669047D01*
X58014285Y-107002380D02*
X57538095Y-107002380D01*
X57490476Y-107478571D01*
X57538095Y-107430952D01*
X57633333Y-107383333D01*
X57871428Y-107383333D01*
X57966666Y-107430952D01*
X58014285Y-107478571D01*
X58061904Y-107573809D01*
X58061904Y-107811904D01*
X58014285Y-107907142D01*
X57966666Y-107954761D01*
X57871428Y-108002380D01*
X57633333Y-108002380D01*
X57538095Y-107954761D01*
X57490476Y-107907142D01*
%TO.C,R9*%
X56877380Y-92616666D02*
X56401190Y-92950000D01*
X56877380Y-93188095D02*
X55877380Y-93188095D01*
X55877380Y-92807142D01*
X55925000Y-92711904D01*
X55972619Y-92664285D01*
X56067857Y-92616666D01*
X56210714Y-92616666D01*
X56305952Y-92664285D01*
X56353571Y-92711904D01*
X56401190Y-92807142D01*
X56401190Y-93188095D01*
X56877380Y-92140476D02*
X56877380Y-91950000D01*
X56829761Y-91854761D01*
X56782142Y-91807142D01*
X56639285Y-91711904D01*
X56448809Y-91664285D01*
X56067857Y-91664285D01*
X55972619Y-91711904D01*
X55925000Y-91759523D01*
X55877380Y-91854761D01*
X55877380Y-92045238D01*
X55925000Y-92140476D01*
X55972619Y-92188095D01*
X56067857Y-92235714D01*
X56305952Y-92235714D01*
X56401190Y-92188095D01*
X56448809Y-92140476D01*
X56496428Y-92045238D01*
X56496428Y-91854761D01*
X56448809Y-91759523D01*
X56401190Y-91711904D01*
X56305952Y-91664285D01*
%TO.C,C31*%
X73007142Y-97007142D02*
X72959523Y-97054761D01*
X72816666Y-97102380D01*
X72721428Y-97102380D01*
X72578571Y-97054761D01*
X72483333Y-96959523D01*
X72435714Y-96864285D01*
X72388095Y-96673809D01*
X72388095Y-96530952D01*
X72435714Y-96340476D01*
X72483333Y-96245238D01*
X72578571Y-96150000D01*
X72721428Y-96102380D01*
X72816666Y-96102380D01*
X72959523Y-96150000D01*
X73007142Y-96197619D01*
X73340476Y-96102380D02*
X73959523Y-96102380D01*
X73626190Y-96483333D01*
X73769047Y-96483333D01*
X73864285Y-96530952D01*
X73911904Y-96578571D01*
X73959523Y-96673809D01*
X73959523Y-96911904D01*
X73911904Y-97007142D01*
X73864285Y-97054761D01*
X73769047Y-97102380D01*
X73483333Y-97102380D01*
X73388095Y-97054761D01*
X73340476Y-97007142D01*
X74911904Y-97102380D02*
X74340476Y-97102380D01*
X74626190Y-97102380D02*
X74626190Y-96102380D01*
X74530952Y-96245238D01*
X74435714Y-96340476D01*
X74340476Y-96388095D01*
%TO.C,D5*%
X76652380Y-67488095D02*
X75652380Y-67488095D01*
X75652380Y-67250000D01*
X75700000Y-67107142D01*
X75795238Y-67011904D01*
X75890476Y-66964285D01*
X76080952Y-66916666D01*
X76223809Y-66916666D01*
X76414285Y-66964285D01*
X76509523Y-67011904D01*
X76604761Y-67107142D01*
X76652380Y-67250000D01*
X76652380Y-67488095D01*
X75652380Y-66011904D02*
X75652380Y-66488095D01*
X76128571Y-66535714D01*
X76080952Y-66488095D01*
X76033333Y-66392857D01*
X76033333Y-66154761D01*
X76080952Y-66059523D01*
X76128571Y-66011904D01*
X76223809Y-65964285D01*
X76461904Y-65964285D01*
X76557142Y-66011904D01*
X76604761Y-66059523D01*
X76652380Y-66154761D01*
X76652380Y-66392857D01*
X76604761Y-66488095D01*
X76557142Y-66535714D01*
%TO.C,L2*%
X62983333Y-121674380D02*
X62507142Y-121674380D01*
X62507142Y-120674380D01*
X63269047Y-120769619D02*
X63316666Y-120722000D01*
X63411904Y-120674380D01*
X63650000Y-120674380D01*
X63745238Y-120722000D01*
X63792857Y-120769619D01*
X63840476Y-120864857D01*
X63840476Y-120960095D01*
X63792857Y-121102952D01*
X63221428Y-121674380D01*
X63840476Y-121674380D01*
%TO.C,L1*%
X62852380Y-139566666D02*
X62852380Y-140042857D01*
X61852380Y-140042857D01*
X62852380Y-138709523D02*
X62852380Y-139280952D01*
X62852380Y-138995238D02*
X61852380Y-138995238D01*
X61995238Y-139090476D01*
X62090476Y-139185714D01*
X62138095Y-139280952D01*
%TO.C,R41*%
X72007142Y-93052380D02*
X71673809Y-92576190D01*
X71435714Y-93052380D02*
X71435714Y-92052380D01*
X71816666Y-92052380D01*
X71911904Y-92100000D01*
X71959523Y-92147619D01*
X72007142Y-92242857D01*
X72007142Y-92385714D01*
X71959523Y-92480952D01*
X71911904Y-92528571D01*
X71816666Y-92576190D01*
X71435714Y-92576190D01*
X72864285Y-92385714D02*
X72864285Y-93052380D01*
X72626190Y-92004761D02*
X72388095Y-92719047D01*
X73007142Y-92719047D01*
X73911904Y-93052380D02*
X73340476Y-93052380D01*
X73626190Y-93052380D02*
X73626190Y-92052380D01*
X73530952Y-92195238D01*
X73435714Y-92290476D01*
X73340476Y-92338095D01*
%TO.C,C21*%
X63257142Y-144142857D02*
X63304761Y-144190476D01*
X63352380Y-144333333D01*
X63352380Y-144428571D01*
X63304761Y-144571428D01*
X63209523Y-144666666D01*
X63114285Y-144714285D01*
X62923809Y-144761904D01*
X62780952Y-144761904D01*
X62590476Y-144714285D01*
X62495238Y-144666666D01*
X62400000Y-144571428D01*
X62352380Y-144428571D01*
X62352380Y-144333333D01*
X62400000Y-144190476D01*
X62447619Y-144142857D01*
X62447619Y-143761904D02*
X62400000Y-143714285D01*
X62352380Y-143619047D01*
X62352380Y-143380952D01*
X62400000Y-143285714D01*
X62447619Y-143238095D01*
X62542857Y-143190476D01*
X62638095Y-143190476D01*
X62780952Y-143238095D01*
X63352380Y-143809523D01*
X63352380Y-143190476D01*
X63352380Y-142238095D02*
X63352380Y-142809523D01*
X63352380Y-142523809D02*
X62352380Y-142523809D01*
X62495238Y-142619047D01*
X62590476Y-142714285D01*
X62638095Y-142809523D01*
%TO.C,D2*%
X77110821Y-56180518D02*
X76244795Y-56680518D01*
X76125747Y-56474322D01*
X76095558Y-56326794D01*
X76130418Y-56196697D01*
X76189087Y-56107838D01*
X76330235Y-55971361D01*
X76453952Y-55899932D01*
X76642719Y-55845934D01*
X76749007Y-55839554D01*
X76879105Y-55874413D01*
X76991773Y-55974322D01*
X77110821Y-56180518D01*
X75851083Y-55808113D02*
X75786034Y-55790683D01*
X75697176Y-55732014D01*
X75578128Y-55525818D01*
X75571749Y-55419530D01*
X75589178Y-55354481D01*
X75647848Y-55265622D01*
X75730326Y-55218003D01*
X75877854Y-55187814D01*
X76658440Y-55396971D01*
X76348916Y-54860860D01*
%TO.C,RV1*%
X77252380Y-47220238D02*
X76776190Y-47553571D01*
X77252380Y-47791666D02*
X76252380Y-47791666D01*
X76252380Y-47410714D01*
X76300000Y-47315476D01*
X76347619Y-47267857D01*
X76442857Y-47220238D01*
X76585714Y-47220238D01*
X76680952Y-47267857D01*
X76728571Y-47315476D01*
X76776190Y-47410714D01*
X76776190Y-47791666D01*
X76252380Y-46934523D02*
X77252380Y-46601190D01*
X76252380Y-46267857D01*
X77252380Y-45410714D02*
X77252380Y-45982142D01*
X77252380Y-45696428D02*
X76252380Y-45696428D01*
X76395238Y-45791666D01*
X76490476Y-45886904D01*
X76538095Y-45982142D01*
%TO.C,D4*%
X77719031Y-114755517D02*
X76853005Y-115255517D01*
X76733957Y-115049321D01*
X76703768Y-114901793D01*
X76738628Y-114771696D01*
X76797297Y-114682837D01*
X76938445Y-114546360D01*
X77062162Y-114474931D01*
X77250929Y-114420933D01*
X77357217Y-114414553D01*
X77487315Y-114449412D01*
X77599983Y-114549321D01*
X77719031Y-114755517D01*
X76427395Y-113851671D02*
X77004745Y-113518338D01*
X76216528Y-114248344D02*
X76954165Y-114097398D01*
X76644641Y-113561287D01*
%TO.C,J9*%
X70141666Y-57927380D02*
X70141666Y-58641666D01*
X70094047Y-58784523D01*
X69998809Y-58879761D01*
X69855952Y-58927380D01*
X69760714Y-58927380D01*
X70665476Y-58927380D02*
X70855952Y-58927380D01*
X70951190Y-58879761D01*
X70998809Y-58832142D01*
X71094047Y-58689285D01*
X71141666Y-58498809D01*
X71141666Y-58117857D01*
X71094047Y-58022619D01*
X71046428Y-57975000D01*
X70951190Y-57927380D01*
X70760714Y-57927380D01*
X70665476Y-57975000D01*
X70617857Y-58022619D01*
X70570238Y-58117857D01*
X70570238Y-58355952D01*
X70617857Y-58451190D01*
X70665476Y-58498809D01*
X70760714Y-58546428D01*
X70951190Y-58546428D01*
X71046428Y-58498809D01*
X71094047Y-58451190D01*
X71141666Y-58355952D01*
%TO.C,D7*%
X77652380Y-126188095D02*
X76652380Y-126188095D01*
X76652380Y-125950000D01*
X76700000Y-125807142D01*
X76795238Y-125711904D01*
X76890476Y-125664285D01*
X77080952Y-125616666D01*
X77223809Y-125616666D01*
X77414285Y-125664285D01*
X77509523Y-125711904D01*
X77604761Y-125807142D01*
X77652380Y-125950000D01*
X77652380Y-126188095D01*
X76652380Y-125283333D02*
X76652380Y-124616666D01*
X77652380Y-125045238D01*
%TO.C,J8*%
X72016666Y-109952380D02*
X72016666Y-110666666D01*
X71969047Y-110809523D01*
X71873809Y-110904761D01*
X71730952Y-110952380D01*
X71635714Y-110952380D01*
X72635714Y-110380952D02*
X72540476Y-110333333D01*
X72492857Y-110285714D01*
X72445238Y-110190476D01*
X72445238Y-110142857D01*
X72492857Y-110047619D01*
X72540476Y-110000000D01*
X72635714Y-109952380D01*
X72826190Y-109952380D01*
X72921428Y-110000000D01*
X72969047Y-110047619D01*
X73016666Y-110142857D01*
X73016666Y-110190476D01*
X72969047Y-110285714D01*
X72921428Y-110333333D01*
X72826190Y-110380952D01*
X72635714Y-110380952D01*
X72540476Y-110428571D01*
X72492857Y-110476190D01*
X72445238Y-110571428D01*
X72445238Y-110761904D01*
X72492857Y-110857142D01*
X72540476Y-110904761D01*
X72635714Y-110952380D01*
X72826190Y-110952380D01*
X72921428Y-110904761D01*
X72969047Y-110857142D01*
X73016666Y-110761904D01*
X73016666Y-110571428D01*
X72969047Y-110476190D01*
X72921428Y-110428571D01*
X72826190Y-110380952D01*
%TO.C,RV2*%
X77202380Y-105620238D02*
X76726190Y-105953571D01*
X77202380Y-106191666D02*
X76202380Y-106191666D01*
X76202380Y-105810714D01*
X76250000Y-105715476D01*
X76297619Y-105667857D01*
X76392857Y-105620238D01*
X76535714Y-105620238D01*
X76630952Y-105667857D01*
X76678571Y-105715476D01*
X76726190Y-105810714D01*
X76726190Y-106191666D01*
X76202380Y-105334523D02*
X77202380Y-105001190D01*
X76202380Y-104667857D01*
X76297619Y-104382142D02*
X76250000Y-104334523D01*
X76202380Y-104239285D01*
X76202380Y-104001190D01*
X76250000Y-103905952D01*
X76297619Y-103858333D01*
X76392857Y-103810714D01*
X76488095Y-103810714D01*
X76630952Y-103858333D01*
X77202380Y-104429761D01*
X77202380Y-103810714D01*
%TO.C,R30*%
X60882142Y-104077380D02*
X60548809Y-103601190D01*
X60310714Y-104077380D02*
X60310714Y-103077380D01*
X60691666Y-103077380D01*
X60786904Y-103125000D01*
X60834523Y-103172619D01*
X60882142Y-103267857D01*
X60882142Y-103410714D01*
X60834523Y-103505952D01*
X60786904Y-103553571D01*
X60691666Y-103601190D01*
X60310714Y-103601190D01*
X61215476Y-103077380D02*
X61834523Y-103077380D01*
X61501190Y-103458333D01*
X61644047Y-103458333D01*
X61739285Y-103505952D01*
X61786904Y-103553571D01*
X61834523Y-103648809D01*
X61834523Y-103886904D01*
X61786904Y-103982142D01*
X61739285Y-104029761D01*
X61644047Y-104077380D01*
X61358333Y-104077380D01*
X61263095Y-104029761D01*
X61215476Y-103982142D01*
X62453571Y-103077380D02*
X62548809Y-103077380D01*
X62644047Y-103125000D01*
X62691666Y-103172619D01*
X62739285Y-103267857D01*
X62786904Y-103458333D01*
X62786904Y-103696428D01*
X62739285Y-103886904D01*
X62691666Y-103982142D01*
X62644047Y-104029761D01*
X62548809Y-104077380D01*
X62453571Y-104077380D01*
X62358333Y-104029761D01*
X62310714Y-103982142D01*
X62263095Y-103886904D01*
X62215476Y-103696428D01*
X62215476Y-103458333D01*
X62263095Y-103267857D01*
X62310714Y-103172619D01*
X62358333Y-103125000D01*
X62453571Y-103077380D01*
%TO.C,D1*%
X76130225Y-53765399D02*
X75264200Y-53265399D01*
X75383247Y-53059203D01*
X75495915Y-52959294D01*
X75626013Y-52924435D01*
X75732301Y-52930814D01*
X75921068Y-52984813D01*
X76044786Y-53056242D01*
X76185934Y-53192719D01*
X76244603Y-53281578D01*
X76279462Y-53411675D01*
X76249273Y-53559203D01*
X76130225Y-53765399D01*
X76892130Y-52445741D02*
X76606416Y-52940613D01*
X76749273Y-52693177D02*
X75883247Y-52193177D01*
X75959346Y-52347084D01*
X75994206Y-52477182D01*
X75987826Y-52583470D01*
%TO.C,C16*%
X56507142Y-109982142D02*
X56459523Y-110029761D01*
X56316666Y-110077380D01*
X56221428Y-110077380D01*
X56078571Y-110029761D01*
X55983333Y-109934523D01*
X55935714Y-109839285D01*
X55888095Y-109648809D01*
X55888095Y-109505952D01*
X55935714Y-109315476D01*
X55983333Y-109220238D01*
X56078571Y-109125000D01*
X56221428Y-109077380D01*
X56316666Y-109077380D01*
X56459523Y-109125000D01*
X56507142Y-109172619D01*
X57459523Y-110077380D02*
X56888095Y-110077380D01*
X57173809Y-110077380D02*
X57173809Y-109077380D01*
X57078571Y-109220238D01*
X56983333Y-109315476D01*
X56888095Y-109363095D01*
X58316666Y-109077380D02*
X58126190Y-109077380D01*
X58030952Y-109125000D01*
X57983333Y-109172619D01*
X57888095Y-109315476D01*
X57840476Y-109505952D01*
X57840476Y-109886904D01*
X57888095Y-109982142D01*
X57935714Y-110029761D01*
X58030952Y-110077380D01*
X58221428Y-110077380D01*
X58316666Y-110029761D01*
X58364285Y-109982142D01*
X58411904Y-109886904D01*
X58411904Y-109648809D01*
X58364285Y-109553571D01*
X58316666Y-109505952D01*
X58221428Y-109458333D01*
X58030952Y-109458333D01*
X57935714Y-109505952D01*
X57888095Y-109553571D01*
X57840476Y-109648809D01*
%TO.C,R38*%
X64602380Y-103917857D02*
X64126190Y-104251190D01*
X64602380Y-104489285D02*
X63602380Y-104489285D01*
X63602380Y-104108333D01*
X63650000Y-104013095D01*
X63697619Y-103965476D01*
X63792857Y-103917857D01*
X63935714Y-103917857D01*
X64030952Y-103965476D01*
X64078571Y-104013095D01*
X64126190Y-104108333D01*
X64126190Y-104489285D01*
X63602380Y-103584523D02*
X63602380Y-102965476D01*
X63983333Y-103298809D01*
X63983333Y-103155952D01*
X64030952Y-103060714D01*
X64078571Y-103013095D01*
X64173809Y-102965476D01*
X64411904Y-102965476D01*
X64507142Y-103013095D01*
X64554761Y-103060714D01*
X64602380Y-103155952D01*
X64602380Y-103441666D01*
X64554761Y-103536904D01*
X64507142Y-103584523D01*
X64030952Y-102394047D02*
X63983333Y-102489285D01*
X63935714Y-102536904D01*
X63840476Y-102584523D01*
X63792857Y-102584523D01*
X63697619Y-102536904D01*
X63650000Y-102489285D01*
X63602380Y-102394047D01*
X63602380Y-102203571D01*
X63650000Y-102108333D01*
X63697619Y-102060714D01*
X63792857Y-102013095D01*
X63840476Y-102013095D01*
X63935714Y-102060714D01*
X63983333Y-102108333D01*
X64030952Y-102203571D01*
X64030952Y-102394047D01*
X64078571Y-102489285D01*
X64126190Y-102536904D01*
X64221428Y-102584523D01*
X64411904Y-102584523D01*
X64507142Y-102536904D01*
X64554761Y-102489285D01*
X64602380Y-102394047D01*
X64602380Y-102203571D01*
X64554761Y-102108333D01*
X64507142Y-102060714D01*
X64411904Y-102013095D01*
X64221428Y-102013095D01*
X64126190Y-102060714D01*
X64078571Y-102108333D01*
X64030952Y-102203571D01*
%TO.C,D9*%
X68711904Y-134402380D02*
X68711904Y-133402380D01*
X68950000Y-133402380D01*
X69092857Y-133450000D01*
X69188095Y-133545238D01*
X69235714Y-133640476D01*
X69283333Y-133830952D01*
X69283333Y-133973809D01*
X69235714Y-134164285D01*
X69188095Y-134259523D01*
X69092857Y-134354761D01*
X68950000Y-134402380D01*
X68711904Y-134402380D01*
X69759523Y-134402380D02*
X69950000Y-134402380D01*
X70045238Y-134354761D01*
X70092857Y-134307142D01*
X70188095Y-134164285D01*
X70235714Y-133973809D01*
X70235714Y-133592857D01*
X70188095Y-133497619D01*
X70140476Y-133450000D01*
X70045238Y-133402380D01*
X69854761Y-133402380D01*
X69759523Y-133450000D01*
X69711904Y-133497619D01*
X69664285Y-133592857D01*
X69664285Y-133830952D01*
X69711904Y-133926190D01*
X69759523Y-133973809D01*
X69854761Y-134021428D01*
X70045238Y-134021428D01*
X70140476Y-133973809D01*
X70188095Y-133926190D01*
X70235714Y-133830952D01*
%TO.C,R15*%
X65857142Y-92252380D02*
X65523809Y-91776190D01*
X65285714Y-92252380D02*
X65285714Y-91252380D01*
X65666666Y-91252380D01*
X65761904Y-91300000D01*
X65809523Y-91347619D01*
X65857142Y-91442857D01*
X65857142Y-91585714D01*
X65809523Y-91680952D01*
X65761904Y-91728571D01*
X65666666Y-91776190D01*
X65285714Y-91776190D01*
X66809523Y-92252380D02*
X66238095Y-92252380D01*
X66523809Y-92252380D02*
X66523809Y-91252380D01*
X66428571Y-91395238D01*
X66333333Y-91490476D01*
X66238095Y-91538095D01*
X67714285Y-91252380D02*
X67238095Y-91252380D01*
X67190476Y-91728571D01*
X67238095Y-91680952D01*
X67333333Y-91633333D01*
X67571428Y-91633333D01*
X67666666Y-91680952D01*
X67714285Y-91728571D01*
X67761904Y-91823809D01*
X67761904Y-92061904D01*
X67714285Y-92157142D01*
X67666666Y-92204761D01*
X67571428Y-92252380D01*
X67333333Y-92252380D01*
X67238095Y-92204761D01*
X67190476Y-92157142D01*
%TO.C,D8*%
X77252380Y-137388095D02*
X76252380Y-137388095D01*
X76252380Y-137150000D01*
X76300000Y-137007142D01*
X76395238Y-136911904D01*
X76490476Y-136864285D01*
X76680952Y-136816666D01*
X76823809Y-136816666D01*
X77014285Y-136864285D01*
X77109523Y-136911904D01*
X77204761Y-137007142D01*
X77252380Y-137150000D01*
X77252380Y-137388095D01*
X76680952Y-136245238D02*
X76633333Y-136340476D01*
X76585714Y-136388095D01*
X76490476Y-136435714D01*
X76442857Y-136435714D01*
X76347619Y-136388095D01*
X76300000Y-136340476D01*
X76252380Y-136245238D01*
X76252380Y-136054761D01*
X76300000Y-135959523D01*
X76347619Y-135911904D01*
X76442857Y-135864285D01*
X76490476Y-135864285D01*
X76585714Y-135911904D01*
X76633333Y-135959523D01*
X76680952Y-136054761D01*
X76680952Y-136245238D01*
X76728571Y-136340476D01*
X76776190Y-136388095D01*
X76871428Y-136435714D01*
X77061904Y-136435714D01*
X77157142Y-136388095D01*
X77204761Y-136340476D01*
X77252380Y-136245238D01*
X77252380Y-136054761D01*
X77204761Y-135959523D01*
X77157142Y-135911904D01*
X77061904Y-135864285D01*
X76871428Y-135864285D01*
X76776190Y-135911904D01*
X76728571Y-135959523D01*
X76680952Y-136054761D01*
%TO.C,R1*%
X69133333Y-92302380D02*
X68800000Y-91826190D01*
X68561904Y-92302380D02*
X68561904Y-91302380D01*
X68942857Y-91302380D01*
X69038095Y-91350000D01*
X69085714Y-91397619D01*
X69133333Y-91492857D01*
X69133333Y-91635714D01*
X69085714Y-91730952D01*
X69038095Y-91778571D01*
X68942857Y-91826190D01*
X68561904Y-91826190D01*
X70085714Y-92302380D02*
X69514285Y-92302380D01*
X69800000Y-92302380D02*
X69800000Y-91302380D01*
X69704761Y-91445238D01*
X69609523Y-91540476D01*
X69514285Y-91588095D01*
%TO.C,C36*%
X54307142Y-105757142D02*
X54259523Y-105804761D01*
X54116666Y-105852380D01*
X54021428Y-105852380D01*
X53878571Y-105804761D01*
X53783333Y-105709523D01*
X53735714Y-105614285D01*
X53688095Y-105423809D01*
X53688095Y-105280952D01*
X53735714Y-105090476D01*
X53783333Y-104995238D01*
X53878571Y-104900000D01*
X54021428Y-104852380D01*
X54116666Y-104852380D01*
X54259523Y-104900000D01*
X54307142Y-104947619D01*
X54640476Y-104852380D02*
X55259523Y-104852380D01*
X54926190Y-105233333D01*
X55069047Y-105233333D01*
X55164285Y-105280952D01*
X55211904Y-105328571D01*
X55259523Y-105423809D01*
X55259523Y-105661904D01*
X55211904Y-105757142D01*
X55164285Y-105804761D01*
X55069047Y-105852380D01*
X54783333Y-105852380D01*
X54688095Y-105804761D01*
X54640476Y-105757142D01*
X56116666Y-104852380D02*
X55926190Y-104852380D01*
X55830952Y-104900000D01*
X55783333Y-104947619D01*
X55688095Y-105090476D01*
X55640476Y-105280952D01*
X55640476Y-105661904D01*
X55688095Y-105757142D01*
X55735714Y-105804761D01*
X55830952Y-105852380D01*
X56021428Y-105852380D01*
X56116666Y-105804761D01*
X56164285Y-105757142D01*
X56211904Y-105661904D01*
X56211904Y-105423809D01*
X56164285Y-105328571D01*
X56116666Y-105280952D01*
X56021428Y-105233333D01*
X55830952Y-105233333D01*
X55735714Y-105280952D01*
X55688095Y-105328571D01*
X55640476Y-105423809D01*
%TO.C,TH1*%
X64177380Y-131010714D02*
X64177380Y-130439285D01*
X65177380Y-130725000D02*
X64177380Y-130725000D01*
X65177380Y-130105952D02*
X64177380Y-130105952D01*
X64653571Y-130105952D02*
X64653571Y-129534523D01*
X65177380Y-129534523D02*
X64177380Y-129534523D01*
X65177380Y-128534523D02*
X65177380Y-129105952D01*
X65177380Y-128820238D02*
X64177380Y-128820238D01*
X64320238Y-128915476D01*
X64415476Y-129010714D01*
X64463095Y-129105952D01*
D14*
%TO.C,C4*%
X60425000Y-87368748D02*
X60425000Y-87891252D01*
X58955000Y-87368748D02*
X58955000Y-87891252D01*
%TO.C,C3*%
X64635000Y-88338748D02*
X64635000Y-88861252D01*
X63165000Y-88338748D02*
X63165000Y-88861252D01*
%TO.C,G\u002A\u002A\u002A*%
G36*
X63122940Y-44025098D02*
G01*
X63207167Y-44025715D01*
X63267039Y-44027336D01*
X63307043Y-44030449D01*
X63331669Y-44035538D01*
X63345406Y-44043090D01*
X63352741Y-44053590D01*
X63356304Y-44062500D01*
X63363935Y-44091464D01*
X63375871Y-44146607D01*
X63390760Y-44221261D01*
X63407252Y-44308756D01*
X63416230Y-44358334D01*
X63432978Y-44448935D01*
X63448902Y-44529256D01*
X63462660Y-44592940D01*
X63472908Y-44633633D01*
X63476577Y-44643939D01*
X63495451Y-44657806D01*
X63538897Y-44680702D01*
X63600325Y-44709821D01*
X63673144Y-44742355D01*
X63750765Y-44775498D01*
X63826598Y-44806442D01*
X63894054Y-44832380D01*
X63946544Y-44850505D01*
X63977476Y-44858010D01*
X63979233Y-44858067D01*
X63999135Y-44848898D01*
X64041444Y-44823635D01*
X64101307Y-44785366D01*
X64173872Y-44737183D01*
X64240958Y-44691400D01*
X64320798Y-44637228D01*
X64392431Y-44590431D01*
X64450896Y-44554108D01*
X64491232Y-44531357D01*
X64507401Y-44525000D01*
X64527913Y-44536508D01*
X64566417Y-44567978D01*
X64618343Y-44614837D01*
X64679123Y-44672507D01*
X64744189Y-44736414D01*
X64808972Y-44801981D01*
X64868904Y-44864633D01*
X64919417Y-44919794D01*
X64955942Y-44962888D01*
X64973910Y-44989339D01*
X64975000Y-44993355D01*
X64965357Y-45025788D01*
X64944650Y-45060253D01*
X64924587Y-45088031D01*
X64890113Y-45137306D01*
X64845475Y-45201950D01*
X64794918Y-45275836D01*
X64775253Y-45304744D01*
X64636205Y-45509487D01*
X64701436Y-45633026D01*
X64736912Y-45706103D01*
X64752543Y-45753291D01*
X64750000Y-45772889D01*
X64732180Y-45781990D01*
X64687894Y-45801930D01*
X64621483Y-45830890D01*
X64537287Y-45867052D01*
X64439644Y-45908598D01*
X64332894Y-45953710D01*
X64221379Y-46000571D01*
X64109436Y-46047362D01*
X64001407Y-46092265D01*
X63901630Y-46133461D01*
X63814446Y-46169134D01*
X63744195Y-46197466D01*
X63695216Y-46216637D01*
X63671848Y-46224830D01*
X63670767Y-46225000D01*
X63657790Y-46212355D01*
X63633544Y-46180088D01*
X63617169Y-46156104D01*
X63513980Y-46024940D01*
X63398461Y-45924730D01*
X63270524Y-45855421D01*
X63130080Y-45816962D01*
X63016666Y-45808334D01*
X62869626Y-45824369D01*
X62731704Y-45870644D01*
X62607206Y-45944417D01*
X62500436Y-46042944D01*
X62415700Y-46163482D01*
X62394667Y-46204699D01*
X62374430Y-46251316D01*
X62361379Y-46293673D01*
X62353980Y-46341344D01*
X62350700Y-46403901D01*
X62350000Y-46483334D01*
X62350674Y-46566561D01*
X62353886Y-46626395D01*
X62361415Y-46672767D01*
X62375044Y-46715608D01*
X62396552Y-46764849D01*
X62402906Y-46778346D01*
X62479598Y-46903703D01*
X62577794Y-47006394D01*
X62693214Y-47084874D01*
X62821576Y-47137599D01*
X62958598Y-47163026D01*
X63099999Y-47159610D01*
X63241498Y-47125807D01*
X63300374Y-47101973D01*
X63396726Y-47050182D01*
X63477353Y-46987587D01*
X63552647Y-46905465D01*
X63585584Y-46862500D01*
X63624547Y-46812991D01*
X63658293Y-46776234D01*
X63680585Y-46758888D01*
X63683149Y-46758334D01*
X63702746Y-46764497D01*
X63748668Y-46781781D01*
X63816521Y-46808381D01*
X63901916Y-46842489D01*
X64000462Y-46882299D01*
X64107767Y-46926005D01*
X64219441Y-46971799D01*
X64331092Y-47017875D01*
X64438330Y-47062427D01*
X64536764Y-47103648D01*
X64622001Y-47139731D01*
X64689653Y-47168870D01*
X64735326Y-47189259D01*
X64754631Y-47199090D01*
X64754787Y-47199233D01*
X64752563Y-47217773D01*
X64737778Y-47258387D01*
X64713298Y-47313600D01*
X64701960Y-47337033D01*
X64638859Y-47464559D01*
X64806929Y-47711922D01*
X64861022Y-47792635D01*
X64907881Y-47864655D01*
X64944489Y-47923173D01*
X64967830Y-47963379D01*
X64975000Y-47979866D01*
X64963688Y-47997482D01*
X64932160Y-48034489D01*
X64884024Y-48086964D01*
X64822890Y-48150987D01*
X64752366Y-48222635D01*
X64742354Y-48232648D01*
X64509708Y-48464848D01*
X64243968Y-48284379D01*
X63978229Y-48103910D01*
X63732847Y-48201615D01*
X63626364Y-48245446D01*
X63549494Y-48280508D01*
X63500021Y-48307926D01*
X63475724Y-48328822D01*
X63473392Y-48332993D01*
X63465626Y-48360755D01*
X63453649Y-48414680D01*
X63438842Y-48488072D01*
X63422586Y-48574233D01*
X63414938Y-48616667D01*
X63396769Y-48724662D01*
X63382658Y-48806048D01*
X63367946Y-48864481D01*
X63347974Y-48903619D01*
X63318084Y-48927118D01*
X63273616Y-48938634D01*
X63209912Y-48941824D01*
X63122314Y-48940345D01*
X63006162Y-48937852D01*
X63005730Y-48937846D01*
X62669231Y-48933334D01*
X62609615Y-48621347D01*
X62590121Y-48522918D01*
X62571515Y-48435542D01*
X62555049Y-48364605D01*
X62541977Y-48315489D01*
X62533549Y-48293579D01*
X62533333Y-48293351D01*
X62513078Y-48281654D01*
X62469110Y-48260315D01*
X62408260Y-48232317D01*
X62337362Y-48200648D01*
X62263247Y-48168293D01*
X62192747Y-48138238D01*
X62132697Y-48113470D01*
X62089926Y-48096973D01*
X62071843Y-48091667D01*
X62054591Y-48100727D01*
X62014450Y-48125964D01*
X61955851Y-48164461D01*
X61883230Y-48213300D01*
X61801019Y-48269567D01*
X61793149Y-48275000D01*
X61710337Y-48331791D01*
X61636771Y-48381425D01*
X61576871Y-48420990D01*
X61535054Y-48447571D01*
X61515738Y-48458252D01*
X61515242Y-48458334D01*
X61499366Y-48447077D01*
X61464784Y-48416248D01*
X61415927Y-48370263D01*
X61357229Y-48313534D01*
X61293123Y-48250477D01*
X61228041Y-48185504D01*
X61166416Y-48123031D01*
X61112680Y-48067472D01*
X61071267Y-48023240D01*
X61046609Y-47994750D01*
X61041666Y-47986744D01*
X61050671Y-47968940D01*
X61075724Y-47928289D01*
X61113880Y-47869340D01*
X61162194Y-47796640D01*
X61217724Y-47714735D01*
X61218710Y-47713295D01*
X61275005Y-47630151D01*
X61324717Y-47555026D01*
X61364727Y-47492773D01*
X61391917Y-47448240D01*
X61403144Y-47426377D01*
X61399598Y-47401513D01*
X61385162Y-47353382D01*
X61362655Y-47289101D01*
X61334896Y-47215785D01*
X61304705Y-47140551D01*
X61274902Y-47070516D01*
X61248307Y-47012796D01*
X61227738Y-46974507D01*
X61220098Y-46964387D01*
X61197787Y-46955402D01*
X61148319Y-46942195D01*
X61077409Y-46926075D01*
X60990769Y-46908353D01*
X60908333Y-46892885D01*
X60812015Y-46875337D01*
X60725729Y-46859256D01*
X60655404Y-46845774D01*
X60606968Y-46836026D01*
X60587500Y-46831542D01*
X60577614Y-46826024D01*
X60570237Y-46813376D01*
X60565007Y-46789283D01*
X60561563Y-46749428D01*
X60559544Y-46689494D01*
X60558588Y-46605166D01*
X60558334Y-46492126D01*
X60558333Y-46482966D01*
X60558333Y-46143178D01*
X60620833Y-46131865D01*
X60658338Y-46124922D01*
X60721445Y-46113072D01*
X60803012Y-46097662D01*
X60895899Y-46080041D01*
X60955971Y-46068610D01*
X61228608Y-46016667D01*
X61322254Y-45786664D01*
X61358322Y-45697239D01*
X61382865Y-45633065D01*
X61397277Y-45588666D01*
X61402951Y-45558563D01*
X61401280Y-45537279D01*
X61393657Y-45519337D01*
X61391283Y-45515234D01*
X61373956Y-45488121D01*
X61341387Y-45438979D01*
X61297222Y-45373245D01*
X61245111Y-45296354D01*
X61201043Y-45231764D01*
X61035420Y-44989721D01*
X61276271Y-44748871D01*
X61517121Y-44508020D01*
X61786204Y-44691510D01*
X61870227Y-44748179D01*
X61945471Y-44797740D01*
X62007403Y-44837305D01*
X62051493Y-44863984D01*
X62073207Y-44874888D01*
X62074029Y-44875000D01*
X62101666Y-44868360D01*
X62150912Y-44850426D01*
X62215208Y-44824177D01*
X62287996Y-44792593D01*
X62362716Y-44758654D01*
X62432808Y-44725338D01*
X62491714Y-44695626D01*
X62532875Y-44672497D01*
X62549730Y-44658931D01*
X62549736Y-44658911D01*
X62555355Y-44634563D01*
X62565787Y-44583469D01*
X62579843Y-44511675D01*
X62596334Y-44425225D01*
X62608856Y-44358334D01*
X62626415Y-44264812D01*
X62642437Y-44181335D01*
X62655717Y-44114045D01*
X62665049Y-44069086D01*
X62668592Y-44054167D01*
X62674119Y-44044189D01*
X62686854Y-44036770D01*
X62711158Y-44031536D01*
X62751395Y-44028115D01*
X62811926Y-44026134D01*
X62897114Y-44025220D01*
X63009868Y-44025000D01*
X63122940Y-44025098D01*
G37*
G36*
X66077076Y-46908764D02*
G01*
X66139597Y-46910442D01*
X66180162Y-46914200D01*
X66204458Y-46920809D01*
X66218170Y-46931038D01*
X66224413Y-46940571D01*
X66236571Y-46966434D01*
X66238063Y-46984721D01*
X66224719Y-46996740D01*
X66192368Y-47003800D01*
X66136840Y-47007208D01*
X66053966Y-47008272D01*
X66008333Y-47008334D01*
X65914480Y-47008742D01*
X65848043Y-47010459D01*
X65803111Y-47014223D01*
X65773773Y-47020774D01*
X65754115Y-47030851D01*
X65741666Y-47041667D01*
X65712403Y-47092020D01*
X65709395Y-47149799D01*
X65731945Y-47202966D01*
X65752247Y-47223791D01*
X65773906Y-47238271D01*
X65799764Y-47248068D01*
X65836432Y-47254071D01*
X65890522Y-47257172D01*
X65968648Y-47258262D01*
X66008637Y-47258334D01*
X66096105Y-47258584D01*
X66155891Y-47259970D01*
X66193641Y-47263442D01*
X66215007Y-47269954D01*
X66225637Y-47280457D01*
X66231161Y-47295834D01*
X66239210Y-47330428D01*
X66241439Y-47345834D01*
X66225589Y-47349285D01*
X66180913Y-47352371D01*
X66111919Y-47354954D01*
X66023113Y-47356896D01*
X65919001Y-47358057D01*
X65833761Y-47358334D01*
X65425856Y-47358334D01*
X65400000Y-47308334D01*
X65374143Y-47258334D01*
X65621839Y-47258334D01*
X65612819Y-47158867D01*
X65612603Y-47077183D01*
X65631835Y-47016413D01*
X65674488Y-46967949D01*
X65713405Y-46940934D01*
X65740141Y-46927302D01*
X65772075Y-46918032D01*
X65815907Y-46912327D01*
X65878338Y-46909389D01*
X65966067Y-46908423D01*
X65986913Y-46908396D01*
X66077076Y-46908764D01*
G37*
G36*
X66230246Y-47933899D02*
G01*
X66248176Y-47973300D01*
X66257808Y-47997971D01*
X66258333Y-48000566D01*
X66242669Y-48003398D01*
X66199691Y-48005804D01*
X66135414Y-48007575D01*
X66055856Y-48008498D01*
X66029166Y-48008580D01*
X65919053Y-48009909D01*
X65837798Y-48014533D01*
X65780983Y-48023805D01*
X65744188Y-48039083D01*
X65722994Y-48061723D01*
X65712982Y-48093079D01*
X65711327Y-48106106D01*
X65717829Y-48164534D01*
X65734744Y-48193226D01*
X65749831Y-48206242D01*
X65771337Y-48215165D01*
X65805198Y-48220747D01*
X65857351Y-48223736D01*
X65933733Y-48224883D01*
X65986328Y-48225000D01*
X66209158Y-48225000D01*
X66225412Y-48267752D01*
X66237627Y-48301728D01*
X66241494Y-48325928D01*
X66232805Y-48342010D01*
X66207353Y-48351634D01*
X66160928Y-48356457D01*
X66089324Y-48358137D01*
X65995573Y-48358334D01*
X65879476Y-48356964D01*
X65791363Y-48351652D01*
X65725953Y-48340589D01*
X65677964Y-48321969D01*
X65642116Y-48293985D01*
X65613129Y-48254830D01*
X65594794Y-48221206D01*
X65567381Y-48137797D01*
X65572686Y-48059889D01*
X65610910Y-47985650D01*
X65622133Y-47971543D01*
X65658110Y-47934714D01*
X65698439Y-47908343D01*
X65749247Y-47890814D01*
X65816660Y-47880510D01*
X65906805Y-47875815D01*
X65988044Y-47875000D01*
X66202159Y-47875000D01*
X66230246Y-47933899D01*
G37*
G36*
X65807361Y-49563607D02*
G01*
X65750955Y-49556550D01*
X65709585Y-49546338D01*
X65678677Y-49532056D01*
X65653657Y-49512790D01*
X65629951Y-49487623D01*
X65620542Y-49476567D01*
X65580465Y-49405341D01*
X65569499Y-49333334D01*
X65708333Y-49333334D01*
X65716257Y-49381411D01*
X65742748Y-49413892D01*
X65791882Y-49433025D01*
X65867736Y-49441058D01*
X65904804Y-49441667D01*
X65990097Y-49438205D01*
X66048520Y-49426433D01*
X66085947Y-49404273D01*
X66108217Y-49369744D01*
X66121150Y-49331171D01*
X66117404Y-49304835D01*
X66093394Y-49275311D01*
X66084090Y-49265910D01*
X66059483Y-49244912D01*
X66031571Y-49232595D01*
X65990961Y-49226716D01*
X65928260Y-49225032D01*
X65912799Y-49225000D01*
X65823951Y-49228889D01*
X65763447Y-49242051D01*
X65727044Y-49266734D01*
X65710502Y-49305186D01*
X65708333Y-49333334D01*
X65569499Y-49333334D01*
X65568507Y-49326819D01*
X65583093Y-49248855D01*
X65622650Y-49179303D01*
X65685606Y-49126018D01*
X65691406Y-49122800D01*
X65747721Y-49104119D01*
X65825477Y-49093036D01*
X65913657Y-49089569D01*
X66001243Y-49093737D01*
X66077216Y-49105559D01*
X66125260Y-49122067D01*
X66186002Y-49171204D01*
X66229619Y-49240738D01*
X66250697Y-49319856D01*
X66249815Y-49370834D01*
X66239624Y-49441667D01*
X66438047Y-49441667D01*
X66464857Y-49508671D01*
X66481193Y-49550284D01*
X66490705Y-49576032D01*
X66491691Y-49579504D01*
X66475815Y-49580250D01*
X66431292Y-49580244D01*
X66362797Y-49579542D01*
X66275004Y-49578200D01*
X66172590Y-49576272D01*
X66112524Y-49575000D01*
X65983572Y-49571917D01*
X65904804Y-49569171D01*
X65883375Y-49568424D01*
X65807361Y-49563607D01*
G37*
G36*
X65736647Y-50161024D02*
G01*
X65679805Y-50139740D01*
X65637448Y-50105474D01*
X65603432Y-50055646D01*
X65594794Y-50039013D01*
X65567045Y-49956635D01*
X65568206Y-49934423D01*
X65708512Y-49934423D01*
X65718341Y-49982703D01*
X65735916Y-50011188D01*
X65755563Y-50026467D01*
X65785661Y-50035758D01*
X65833751Y-50040384D01*
X65907377Y-50041666D01*
X65909706Y-50041667D01*
X65980650Y-50041028D01*
X66026443Y-50037778D01*
X66055260Y-50029916D01*
X66075278Y-50015442D01*
X66090748Y-49997382D01*
X66115133Y-49944926D01*
X66106221Y-49891671D01*
X66087586Y-49862500D01*
X66063432Y-49852632D01*
X66015296Y-49845814D01*
X65952397Y-49842140D01*
X65883957Y-49841705D01*
X65819193Y-49844605D01*
X65767327Y-49850935D01*
X65740570Y-49858920D01*
X65716055Y-49888781D01*
X65708512Y-49934423D01*
X65568206Y-49934423D01*
X65570956Y-49881782D01*
X65607163Y-49810743D01*
X65640545Y-49772484D01*
X65683522Y-49734791D01*
X65726690Y-49713378D01*
X65785269Y-49701204D01*
X65798366Y-49699483D01*
X65888598Y-49693539D01*
X65978436Y-49696825D01*
X66058612Y-49708282D01*
X66119858Y-49726851D01*
X66140636Y-49738583D01*
X66206140Y-49803658D01*
X66244317Y-49878468D01*
X66253526Y-49957347D01*
X66232125Y-50034628D01*
X66228448Y-50041667D01*
X66191790Y-50091695D01*
X66145509Y-50134798D01*
X66141675Y-50137500D01*
X66111971Y-50155041D01*
X66079467Y-50166141D01*
X66035768Y-50172211D01*
X65972480Y-50174658D01*
X65918368Y-50174975D01*
X65909706Y-50174720D01*
X65814120Y-50171908D01*
X65736647Y-50161024D01*
G37*
G36*
X65756393Y-43296561D02*
G01*
X65704346Y-43278551D01*
X65666118Y-43249493D01*
X65635592Y-43207670D01*
X65618532Y-43161769D01*
X65609034Y-43103164D01*
X65608536Y-43090029D01*
X65708333Y-43090029D01*
X65720003Y-43151694D01*
X65756444Y-43193275D01*
X65819804Y-43216892D01*
X65840373Y-43220274D01*
X65879689Y-43223558D01*
X65901315Y-43217144D01*
X65906037Y-43196118D01*
X65894641Y-43155565D01*
X65867914Y-43090573D01*
X65862960Y-43079167D01*
X65837805Y-43026907D01*
X65815251Y-42989521D01*
X65800131Y-42975003D01*
X65799999Y-42975000D01*
X65756074Y-42990043D01*
X65723160Y-43029096D01*
X65708517Y-43083050D01*
X65708333Y-43090029D01*
X65608536Y-43090029D01*
X65608333Y-43084684D01*
X65612856Y-43030113D01*
X65631039Y-42987844D01*
X65664289Y-42946785D01*
X65703706Y-42908636D01*
X65739983Y-42890412D01*
X65789154Y-42884771D01*
X65800286Y-42884530D01*
X65880327Y-42883334D01*
X65950470Y-43041667D01*
X65990112Y-43125106D01*
X66023141Y-43178610D01*
X66052391Y-43204211D01*
X66080698Y-43203941D01*
X66110898Y-43179829D01*
X66123076Y-43165327D01*
X66147457Y-43126276D01*
X66158299Y-43092979D01*
X66158333Y-43091667D01*
X66146559Y-43053313D01*
X66118043Y-43013327D01*
X66082987Y-42983541D01*
X66057710Y-42975000D01*
X66025620Y-42960713D01*
X66000106Y-42926825D01*
X65991666Y-42892763D01*
X66005301Y-42878208D01*
X66039585Y-42875904D01*
X66084590Y-42884833D01*
X66130386Y-42903981D01*
X66136594Y-42907600D01*
X66201820Y-42963607D01*
X66241098Y-43032799D01*
X66252253Y-43108649D01*
X66233108Y-43184631D01*
X66230650Y-43189642D01*
X66199610Y-43238520D01*
X66160388Y-43272426D01*
X66106864Y-43293756D01*
X66032922Y-43304904D01*
X65932443Y-43308265D01*
X65927571Y-43308272D01*
X65879689Y-43307043D01*
X65828666Y-43305733D01*
X65756393Y-43296561D01*
G37*
G36*
X65763132Y-45610154D02*
G01*
X65703222Y-45585522D01*
X65659099Y-45546197D01*
X65642093Y-45521837D01*
X65617369Y-45459444D01*
X65610691Y-45403518D01*
X65708588Y-45403518D01*
X65716121Y-45455546D01*
X65741915Y-45491395D01*
X65789895Y-45513311D01*
X65863985Y-45523539D01*
X65920905Y-45525000D01*
X66009470Y-45522259D01*
X66070881Y-45512769D01*
X66110962Y-45494631D01*
X66135538Y-45465947D01*
X66141550Y-45453078D01*
X66155964Y-45395124D01*
X66143695Y-45348489D01*
X66117424Y-45315910D01*
X66093373Y-45295264D01*
X66066216Y-45282988D01*
X66026836Y-45276965D01*
X65966116Y-45275077D01*
X65941328Y-45275000D01*
X65846284Y-45278649D01*
X65779709Y-45291149D01*
X65737381Y-45314832D01*
X65715080Y-45352027D01*
X65708588Y-45403518D01*
X65610691Y-45403518D01*
X65608944Y-45388892D01*
X65617979Y-45325272D01*
X65625586Y-45307238D01*
X65632395Y-45290314D01*
X65626026Y-45280654D01*
X65600369Y-45276236D01*
X65549316Y-45275036D01*
X65528261Y-45275000D01*
X65467068Y-45274037D01*
X65430522Y-45269313D01*
X65409955Y-45258082D01*
X65396695Y-45237595D01*
X65394341Y-45232550D01*
X65380205Y-45199114D01*
X65375000Y-45182550D01*
X65390850Y-45180296D01*
X65435134Y-45178313D01*
X65502955Y-45176708D01*
X65589414Y-45175586D01*
X65689612Y-45175055D01*
X65720833Y-45175026D01*
X65840616Y-45175386D01*
X65931970Y-45176680D01*
X65999794Y-45179264D01*
X66048986Y-45183491D01*
X66084445Y-45189717D01*
X66111070Y-45198296D01*
X66123815Y-45204193D01*
X66192367Y-45254629D01*
X66236138Y-45319885D01*
X66252726Y-45393485D01*
X66239728Y-45468949D01*
X66229964Y-45490482D01*
X66195247Y-45545017D01*
X66153831Y-45582212D01*
X66098635Y-45605423D01*
X66022581Y-45618008D01*
X65951882Y-45622338D01*
X65920905Y-45622196D01*
X65844220Y-45621843D01*
X65763132Y-45610154D01*
G37*
G36*
X65823967Y-43471735D02*
G01*
X65841080Y-43490571D01*
X65855619Y-43522457D01*
X65849050Y-43538213D01*
X65815860Y-43548337D01*
X65810061Y-43549621D01*
X65752166Y-43576058D01*
X65715915Y-43620138D01*
X65703982Y-43673708D01*
X65719037Y-43728612D01*
X65741666Y-43758334D01*
X65758575Y-43772148D01*
X65780848Y-43781548D01*
X65814689Y-43787365D01*
X65866306Y-43790427D01*
X65941905Y-43791563D01*
X65991238Y-43791667D01*
X66207477Y-43791667D01*
X66259189Y-43891667D01*
X66016267Y-43891667D01*
X65906017Y-43890568D01*
X65823271Y-43886304D01*
X65762243Y-43877423D01*
X65717148Y-43862476D01*
X65682200Y-43840009D01*
X65651615Y-43808574D01*
X65643138Y-43798086D01*
X65618496Y-43744981D01*
X65608734Y-43676419D01*
X65614618Y-43607138D01*
X65630881Y-43561496D01*
X65667162Y-43517967D01*
X65718145Y-43481239D01*
X65770143Y-43460349D01*
X65786913Y-43458444D01*
X65823967Y-43471735D01*
G37*
G36*
X66133963Y-46325694D02*
G01*
X66174505Y-46328495D01*
X66199318Y-46334673D01*
X66214258Y-46344809D01*
X66219774Y-46351432D01*
X66239376Y-46383254D01*
X66240474Y-46404469D01*
X66219443Y-46417130D01*
X66172660Y-46423288D01*
X66096502Y-46424995D01*
X66089859Y-46425000D01*
X65938053Y-46425000D01*
X65949255Y-46469634D01*
X65971948Y-46538379D01*
X66001924Y-46600096D01*
X66034438Y-46646824D01*
X66064746Y-46670601D01*
X66069780Y-46671855D01*
X66107231Y-46662448D01*
X66137364Y-46630142D01*
X66153188Y-46585371D01*
X66151471Y-46549931D01*
X66149847Y-46515669D01*
X66172336Y-46494030D01*
X66183038Y-46488769D01*
X66215087Y-46476368D01*
X66232557Y-46481247D01*
X66242893Y-46509369D01*
X66249086Y-46541667D01*
X66249138Y-46602239D01*
X66225139Y-46668193D01*
X66225032Y-46668405D01*
X66179209Y-46731843D01*
X66122887Y-46767082D01*
X66061289Y-46772843D01*
X65999643Y-46747851D01*
X65976366Y-46729167D01*
X65946393Y-46691445D01*
X65911989Y-46633463D01*
X65879684Y-46566442D01*
X65874548Y-46554167D01*
X65849072Y-46495181D01*
X65826980Y-46450331D01*
X65811938Y-46426839D01*
X65809025Y-46425000D01*
X65788284Y-46434396D01*
X65755197Y-46457246D01*
X65752247Y-46459544D01*
X65719991Y-46501826D01*
X65709531Y-46553440D01*
X65718543Y-46605196D01*
X65744706Y-46647903D01*
X65785696Y-46672372D01*
X65806702Y-46675000D01*
X65837248Y-46690802D01*
X65855835Y-46725000D01*
X65865559Y-46759424D01*
X65857821Y-46772807D01*
X65830818Y-46775000D01*
X65765540Y-46761896D01*
X65699014Y-46728004D01*
X65646574Y-46681451D01*
X65641338Y-46674540D01*
X65615588Y-46613597D01*
X65609294Y-46539414D01*
X65622923Y-46466148D01*
X65633615Y-46441122D01*
X65659831Y-46401577D01*
X65695071Y-46372481D01*
X65744555Y-46352138D01*
X65813500Y-46338855D01*
X65907125Y-46330936D01*
X65982274Y-46327904D01*
X66071838Y-46325690D01*
X66133963Y-46325694D01*
G37*
G36*
X65816556Y-45767584D02*
G01*
X65835926Y-45784062D01*
X65856427Y-45824677D01*
X65849499Y-45850391D01*
X65820375Y-45858334D01*
X65761675Y-45872321D01*
X65722899Y-45911337D01*
X65708350Y-45970961D01*
X65708333Y-45973362D01*
X65711128Y-46016918D01*
X65722574Y-46048342D01*
X65747260Y-46069576D01*
X65789776Y-46082560D01*
X65854712Y-46089233D01*
X65946657Y-46091535D01*
X65988225Y-46091667D01*
X66078090Y-46092066D01*
X66140332Y-46093781D01*
X66180655Y-46097591D01*
X66204766Y-46104276D01*
X66218370Y-46114613D01*
X66224413Y-46123905D01*
X66236299Y-46149005D01*
X66238145Y-46167000D01*
X66225867Y-46179069D01*
X66195384Y-46186389D01*
X66142610Y-46190142D01*
X66063463Y-46191504D01*
X65989705Y-46191667D01*
X65737745Y-46191667D01*
X65673039Y-46126961D01*
X65634719Y-46085229D01*
X65615466Y-46050003D01*
X65608878Y-46006281D01*
X65608333Y-45975295D01*
X65611246Y-45919189D01*
X65624031Y-45880657D01*
X65652754Y-45844159D01*
X65664017Y-45832650D01*
X65721810Y-45785690D01*
X65774208Y-45763562D01*
X65816556Y-45767584D01*
G37*
G36*
X66086267Y-44025439D02*
G01*
X66146197Y-44027313D01*
X66184537Y-44031461D01*
X66207154Y-44038723D01*
X66219919Y-44049936D01*
X66224413Y-44057238D01*
X66238046Y-44087691D01*
X66236760Y-44107389D01*
X66216042Y-44118637D01*
X66171377Y-44123738D01*
X66098251Y-44124997D01*
X66091666Y-44125000D01*
X66022519Y-44126682D01*
X65971218Y-44131263D01*
X65944217Y-44138047D01*
X65941666Y-44141192D01*
X65949413Y-44171897D01*
X65968954Y-44219702D01*
X65994739Y-44273240D01*
X66021216Y-44321147D01*
X66042835Y-44352055D01*
X66046239Y-44355324D01*
X66082257Y-44369040D01*
X66115800Y-44356127D01*
X66141246Y-44323140D01*
X66152971Y-44276632D01*
X66149048Y-44235477D01*
X66146429Y-44203048D01*
X66166182Y-44186863D01*
X66182484Y-44182058D01*
X66217649Y-44176601D01*
X66234822Y-44179267D01*
X66246830Y-44209078D01*
X66250878Y-44257197D01*
X66246888Y-44309546D01*
X66235752Y-44350000D01*
X66191691Y-44416607D01*
X66135405Y-44456774D01*
X66072187Y-44468394D01*
X66007334Y-44449361D01*
X65998720Y-44444315D01*
X65965509Y-44415218D01*
X65932900Y-44367327D01*
X65896972Y-44294605D01*
X65887442Y-44272835D01*
X65858297Y-44210608D01*
X65830773Y-44161440D01*
X65809152Y-44132604D01*
X65802246Y-44128142D01*
X65767176Y-44136068D01*
X65735134Y-44167644D01*
X65713440Y-44213465D01*
X65708333Y-44248791D01*
X65718852Y-44302117D01*
X65752247Y-44340457D01*
X65788126Y-44364292D01*
X65815213Y-44374960D01*
X65816239Y-44375000D01*
X65837080Y-44387769D01*
X65855158Y-44416730D01*
X65864086Y-44447869D01*
X65858089Y-44466818D01*
X65833310Y-44468933D01*
X65790845Y-44462298D01*
X65776906Y-44458847D01*
X65702893Y-44424724D01*
X65649514Y-44372000D01*
X65617423Y-44307201D01*
X65607279Y-44236851D01*
X65619736Y-44167476D01*
X65655451Y-44105599D01*
X65715080Y-44057747D01*
X65735596Y-44047981D01*
X65787455Y-44035455D01*
X65871575Y-44027810D01*
X65988304Y-44025015D01*
X65998878Y-44025000D01*
X66086267Y-44025439D01*
G37*
G36*
X65985998Y-44558509D02*
G01*
X66060018Y-44559498D01*
X66111597Y-44561994D01*
X66146181Y-44566690D01*
X66169216Y-44574279D01*
X66186147Y-44585455D01*
X66200079Y-44598565D01*
X66242570Y-44658977D01*
X66251914Y-44722342D01*
X66235296Y-44776072D01*
X66219131Y-44814749D01*
X66220448Y-44841167D01*
X66233686Y-44863895D01*
X66255755Y-44918978D01*
X66247005Y-44980175D01*
X66232353Y-45012081D01*
X66204163Y-45050712D01*
X66175782Y-45074581D01*
X66148131Y-45080689D01*
X66093752Y-45085808D01*
X66019247Y-45089538D01*
X65931216Y-45091480D01*
X65893348Y-45091667D01*
X65796433Y-45091357D01*
X65727559Y-45090003D01*
X65681436Y-45086967D01*
X65652774Y-45081613D01*
X65636283Y-45073303D01*
X65626674Y-45061402D01*
X65625586Y-45059430D01*
X65613761Y-45034497D01*
X65611841Y-45016568D01*
X65623890Y-45004492D01*
X65653971Y-44997116D01*
X65706147Y-44993290D01*
X65784481Y-44991860D01*
X65864625Y-44991667D01*
X65965589Y-44991148D01*
X66038280Y-44989271D01*
X66087751Y-44985556D01*
X66119050Y-44979525D01*
X66137229Y-44970699D01*
X66142826Y-44965270D01*
X66155726Y-44933191D01*
X66147242Y-44911103D01*
X66135713Y-44899977D01*
X66113904Y-44891918D01*
X66076665Y-44886287D01*
X66018842Y-44882450D01*
X65935284Y-44879770D01*
X65885126Y-44878718D01*
X65640500Y-44874103D01*
X65624416Y-44831800D01*
X65612525Y-44798143D01*
X65608333Y-44782249D01*
X65624051Y-44779756D01*
X65667412Y-44777633D01*
X65732725Y-44776041D01*
X65814301Y-44775142D01*
X65864625Y-44775000D01*
X65973873Y-44774105D01*
X66053660Y-44770697D01*
X66107828Y-44763693D01*
X66140217Y-44752010D01*
X66154671Y-44734564D01*
X66155031Y-44710274D01*
X66150837Y-44694306D01*
X66144319Y-44681607D01*
X66130651Y-44672481D01*
X66104618Y-44666132D01*
X66061006Y-44661765D01*
X65994599Y-44658585D01*
X65900183Y-44655796D01*
X65897920Y-44655738D01*
X65801916Y-44652840D01*
X65733753Y-44649396D01*
X65687938Y-44644617D01*
X65658978Y-44637709D01*
X65641383Y-44627882D01*
X65631793Y-44617380D01*
X65613428Y-44587148D01*
X65608333Y-44571815D01*
X65624084Y-44567334D01*
X65667682Y-44563484D01*
X65733641Y-44560532D01*
X65816475Y-44558746D01*
X65884090Y-44558334D01*
X65985998Y-44558509D01*
G37*
G36*
X65765503Y-48953144D02*
G01*
X65723421Y-48945111D01*
X65690931Y-48931942D01*
X65680072Y-48925734D01*
X65614430Y-48870285D01*
X65578057Y-48800185D01*
X65568647Y-48726393D01*
X65708333Y-48726393D01*
X65721945Y-48780574D01*
X65760813Y-48814316D01*
X65816939Y-48825000D01*
X65873165Y-48825000D01*
X65830874Y-48729167D01*
X65807841Y-48678200D01*
X65789969Y-48640900D01*
X65781894Y-48626492D01*
X65764640Y-48627883D01*
X65741890Y-48650166D01*
X65720929Y-48683446D01*
X65709043Y-48717830D01*
X65708333Y-48726393D01*
X65568647Y-48726393D01*
X65568589Y-48725942D01*
X65583180Y-48641035D01*
X65623562Y-48571206D01*
X65684646Y-48521321D01*
X65761345Y-48496241D01*
X65810243Y-48494921D01*
X65876945Y-48500000D01*
X65943568Y-48650000D01*
X65977981Y-48726490D01*
X66002645Y-48777003D01*
X66020986Y-48806181D01*
X66036430Y-48818665D01*
X66052405Y-48819099D01*
X66065274Y-48814895D01*
X66099371Y-48786896D01*
X66112897Y-48744232D01*
X66107320Y-48697244D01*
X66084109Y-48656274D01*
X66044734Y-48631662D01*
X66039052Y-48630311D01*
X65997319Y-48611002D01*
X65968292Y-48567822D01*
X65965960Y-48562407D01*
X65950252Y-48523308D01*
X65942022Y-48499889D01*
X65941666Y-48497965D01*
X65956526Y-48494130D01*
X65993892Y-48491935D01*
X66012500Y-48491729D01*
X66095525Y-48506009D01*
X66164995Y-48544733D01*
X66217029Y-48601963D01*
X66247747Y-48671760D01*
X66253268Y-48748184D01*
X66230039Y-48824668D01*
X66194975Y-48873627D01*
X66149012Y-48916553D01*
X66143368Y-48920502D01*
X66113793Y-48937784D01*
X66081953Y-48948882D01*
X66039710Y-48955114D01*
X65978925Y-48957796D01*
X65910035Y-48958272D01*
X65873165Y-48957789D01*
X65825075Y-48957158D01*
X65765503Y-48953144D01*
G37*
%TO.C,R46*%
X65115000Y-106399064D02*
X65115000Y-105944936D01*
X66585000Y-106399064D02*
X66585000Y-105944936D01*
%TO.C,J5*%
X79712000Y-116192400D02*
X65437200Y-116192400D01*
X79712000Y-122745600D02*
X84182400Y-122745600D01*
X84182400Y-122745600D02*
X84182400Y-116954400D01*
X65437200Y-116192400D02*
X65437200Y-123558400D01*
X84182400Y-116954400D02*
X79712000Y-116954400D01*
X79712000Y-123507600D02*
X65437200Y-123558400D01*
X79712000Y-116192400D02*
X79712000Y-123507600D01*
%TO.C,D6*%
X74043600Y-76073600D02*
X74043600Y-76683200D01*
X74856400Y-76683200D02*
X74856400Y-76073600D01*
X74856400Y-76073600D02*
X74043600Y-76073600D01*
%TO.C,J4*%
X70095000Y-68030000D02*
X72755000Y-68030000D01*
X70095000Y-65370000D02*
X71425000Y-65370000D01*
X70095000Y-67970000D02*
X70095000Y-68030000D01*
X70095000Y-67970000D02*
X72755000Y-67970000D01*
X72755000Y-67970000D02*
X72755000Y-68030000D01*
X70095000Y-66700000D02*
X70095000Y-65370000D01*
%TO.C,D3*%
X74768747Y-109904692D02*
X74463947Y-110432621D01*
X75167853Y-110839021D02*
X75472653Y-110311092D01*
X75472653Y-110311092D02*
X74768747Y-109904692D01*
%TO.C,U3*%
X66610000Y-98525000D02*
X66610000Y-95075000D01*
X56490000Y-98525000D02*
X56490000Y-100475000D01*
X66610000Y-98525000D02*
X66610000Y-100475000D01*
X56490000Y-98525000D02*
X56490000Y-96575000D01*
%TO.C,D10*%
X73750000Y-127050000D02*
X66850000Y-127050000D01*
X73750000Y-123750000D02*
X66850000Y-123750000D01*
X73750000Y-127050000D02*
X73750000Y-123750000D01*
%TO.C,C17*%
X64508748Y-108739000D02*
X65031252Y-108739000D01*
X64508748Y-110209000D02*
X65031252Y-110209000D01*
%TO.C,R16*%
X59640000Y-92222936D02*
X59640000Y-92677064D01*
X61110000Y-92222936D02*
X61110000Y-92677064D01*
%TO.C,C22*%
X61673000Y-120155888D02*
X60315000Y-120155888D01*
X58235000Y-120835888D02*
X57271000Y-120835888D01*
X60750000Y-116390113D02*
X60750000Y-116890113D01*
X58235000Y-119834888D02*
X56774000Y-119834888D01*
X58235000Y-120475888D02*
X57028000Y-120475888D01*
X58235000Y-120915888D02*
X57338000Y-120915888D01*
X61776000Y-119834888D02*
X60315000Y-119834888D01*
X58235000Y-119955888D02*
X56807000Y-119955888D01*
X61246000Y-120875888D02*
X60315000Y-120875888D01*
X58235000Y-119874888D02*
X56784000Y-119874888D01*
X61657000Y-120195888D02*
X60315000Y-120195888D01*
X60974000Y-121155888D02*
X60315000Y-121155888D01*
X58235000Y-120315888D02*
X56946000Y-120315888D01*
X60928000Y-121195888D02*
X60315000Y-121195888D01*
X60594000Y-121435888D02*
X60315000Y-121435888D01*
X61604000Y-120315888D02*
X60315000Y-120315888D01*
X58235000Y-121235888D02*
X57670000Y-121235888D01*
X58235000Y-121475888D02*
X58024000Y-121475888D01*
X61811000Y-119674888D02*
X60315000Y-119674888D01*
X58235000Y-119995888D02*
X56820000Y-119995888D01*
X61522000Y-120475888D02*
X60315000Y-120475888D01*
X60526000Y-121475888D02*
X60315000Y-121475888D01*
X61848000Y-119394888D02*
X56702000Y-119394888D01*
X60658000Y-121395888D02*
X60315000Y-121395888D01*
X58235000Y-121315888D02*
X57775000Y-121315888D01*
X58235000Y-121115888D02*
X57532000Y-121115888D01*
X61370000Y-120715888D02*
X60315000Y-120715888D01*
X58235000Y-119514888D02*
X56714000Y-119514888D01*
X61212000Y-120915888D02*
X60315000Y-120915888D01*
X61851000Y-119354888D02*
X56699000Y-119354888D01*
X58235000Y-120875888D02*
X57304000Y-120875888D01*
X61279000Y-120835888D02*
X60315000Y-120835888D01*
X58235000Y-119474888D02*
X56710000Y-119474888D01*
X58235000Y-120275888D02*
X56927000Y-120275888D01*
X58235000Y-120075888D02*
X56847000Y-120075888D01*
X58235000Y-120395888D02*
X56985000Y-120395888D01*
X58235000Y-120715888D02*
X57180000Y-120715888D01*
X58235000Y-120635888D02*
X57126000Y-120635888D01*
X61818000Y-119634888D02*
X60315000Y-119634888D01*
X58235000Y-120515888D02*
X57051000Y-120515888D01*
X58235000Y-119634888D02*
X56732000Y-119634888D01*
X60373000Y-121555888D02*
X58177000Y-121555888D01*
X58235000Y-121355888D02*
X57832000Y-121355888D01*
X61836000Y-119514888D02*
X60315000Y-119514888D01*
X61176000Y-120955888D02*
X60315000Y-120955888D01*
X61640000Y-120235888D02*
X60315000Y-120235888D01*
X61139000Y-120995888D02*
X60315000Y-120995888D01*
X61000000Y-116640113D02*
X60500000Y-116640113D01*
X61831000Y-119554888D02*
X60315000Y-119554888D01*
X61825000Y-119594888D02*
X60315000Y-119594888D01*
X61475000Y-120555888D02*
X60315000Y-120555888D01*
X61855000Y-119234888D02*
X56695000Y-119234888D01*
X61730000Y-119995888D02*
X60315000Y-119995888D01*
X58235000Y-120235888D02*
X56910000Y-120235888D01*
X61795000Y-119754888D02*
X60315000Y-119754888D01*
X58235000Y-120035888D02*
X56833000Y-120035888D01*
X61803000Y-119714888D02*
X60315000Y-119714888D01*
X61424000Y-120635888D02*
X60315000Y-120635888D01*
X58235000Y-120795888D02*
X57240000Y-120795888D01*
X58235000Y-120675888D02*
X57153000Y-120675888D01*
X61397000Y-120675888D02*
X60315000Y-120675888D01*
X61689000Y-120115888D02*
X60315000Y-120115888D01*
X60286000Y-121595888D02*
X58264000Y-121595888D01*
X61310000Y-120795888D02*
X60315000Y-120795888D01*
X58235000Y-119434888D02*
X56706000Y-119434888D01*
X58235000Y-121155888D02*
X57576000Y-121155888D01*
X58235000Y-120115888D02*
X56861000Y-120115888D01*
X60080000Y-121675888D02*
X58470000Y-121675888D01*
X58235000Y-121435888D02*
X57956000Y-121435888D01*
X58235000Y-120555888D02*
X57075000Y-120555888D01*
X58235000Y-120995888D02*
X57411000Y-120995888D01*
X58235000Y-119915888D02*
X56795000Y-119915888D01*
X61855000Y-119194888D02*
X56695000Y-119194888D01*
X61018000Y-121115888D02*
X60315000Y-121115888D01*
X61101000Y-121035888D02*
X60315000Y-121035888D01*
X59559000Y-121795888D02*
X58991000Y-121795888D01*
X60718000Y-121355888D02*
X60315000Y-121355888D01*
X60775000Y-121315888D02*
X60315000Y-121315888D01*
X61766000Y-119874888D02*
X60315000Y-119874888D01*
X58235000Y-119754888D02*
X56755000Y-119754888D01*
X61743000Y-119955888D02*
X60315000Y-119955888D01*
X58235000Y-120155888D02*
X56877000Y-120155888D01*
X61623000Y-120275888D02*
X60315000Y-120275888D01*
X58235000Y-120595888D02*
X57100000Y-120595888D01*
X60880000Y-121235888D02*
X60315000Y-121235888D01*
X58235000Y-121075888D02*
X57490000Y-121075888D01*
X59952000Y-121715888D02*
X58598000Y-121715888D01*
X61585000Y-120355888D02*
X60315000Y-120355888D01*
X61703000Y-120075888D02*
X60315000Y-120075888D01*
X61565000Y-120395888D02*
X60315000Y-120395888D01*
X58235000Y-120355888D02*
X56965000Y-120355888D01*
X60829000Y-121275888D02*
X60315000Y-121275888D01*
X61450000Y-120595888D02*
X60315000Y-120595888D01*
X61717000Y-120035888D02*
X60315000Y-120035888D01*
X61755000Y-119915888D02*
X60315000Y-119915888D01*
X58235000Y-119594888D02*
X56725000Y-119594888D01*
X58235000Y-119794888D02*
X56764000Y-119794888D01*
X61543000Y-120435888D02*
X60315000Y-120435888D01*
X58235000Y-119554888D02*
X56719000Y-119554888D01*
X61499000Y-120515888D02*
X60315000Y-120515888D01*
X58235000Y-120195888D02*
X56893000Y-120195888D01*
X61786000Y-119794888D02*
X60315000Y-119794888D01*
X61854000Y-119274888D02*
X56696000Y-119274888D01*
X58235000Y-120755888D02*
X57210000Y-120755888D01*
X58235000Y-119674888D02*
X56739000Y-119674888D01*
X61060000Y-121075888D02*
X60315000Y-121075888D01*
X58235000Y-121275888D02*
X57721000Y-121275888D01*
X58235000Y-121195888D02*
X57622000Y-121195888D01*
X60190000Y-121635888D02*
X58360000Y-121635888D01*
X61340000Y-120755888D02*
X60315000Y-120755888D01*
X61844000Y-119434888D02*
X60315000Y-119434888D01*
X61840000Y-119474888D02*
X60315000Y-119474888D01*
X58235000Y-119714888D02*
X56747000Y-119714888D01*
X59793000Y-121755888D02*
X58757000Y-121755888D01*
X58235000Y-120955888D02*
X57374000Y-120955888D01*
X58235000Y-121395888D02*
X57892000Y-121395888D01*
X60453000Y-121515888D02*
X58097000Y-121515888D01*
X61853000Y-119314888D02*
X56697000Y-119314888D01*
X58235000Y-121035888D02*
X57449000Y-121035888D01*
X58235000Y-120435888D02*
X57007000Y-120435888D01*
X61895000Y-119194888D02*
G75*
G03*
X61895000Y-119194888I-2620000J0D01*
G01*
%TO.C,R45*%
X59910000Y-106197936D02*
X59910000Y-106652064D01*
X58440000Y-106197936D02*
X58440000Y-106652064D01*
%TO.C,R9*%
X57340000Y-92677064D02*
X57340000Y-92222936D01*
X58810000Y-92677064D02*
X58810000Y-92222936D01*
%TO.C,C31*%
X70385000Y-97328748D02*
X70385000Y-97851252D01*
X71855000Y-97328748D02*
X71855000Y-97851252D01*
%TO.C,D5*%
X73693600Y-65023600D02*
X73693600Y-65633200D01*
X74506400Y-65633200D02*
X74506400Y-65023600D01*
X74506400Y-65023600D02*
X73693600Y-65023600D01*
%TO.C,L2*%
X62878733Y-123110000D02*
X63221267Y-123110000D01*
X62878733Y-122090000D02*
X63221267Y-122090000D01*
%TO.C,L1*%
X63390000Y-140028733D02*
X63390000Y-140371267D01*
X64410000Y-140028733D02*
X64410000Y-140371267D01*
%TO.C,R41*%
X70772936Y-93465000D02*
X71227064Y-93465000D01*
X70772936Y-94935000D02*
X71227064Y-94935000D01*
%TO.C,J3*%
X79694200Y-133895600D02*
X84164600Y-133895600D01*
X84164600Y-133895600D02*
X84164600Y-128104400D01*
X79694200Y-127342400D02*
X65419400Y-127342400D01*
X65419400Y-127342400D02*
X65419400Y-134708400D01*
X79694200Y-127342400D02*
X79694200Y-134657600D01*
X84164600Y-128104400D02*
X79694200Y-128104400D01*
X79694200Y-134657600D02*
X65419400Y-134708400D01*
%TO.C,C21*%
X61975000Y-142744888D02*
X60465000Y-142744888D01*
X58385000Y-143425888D02*
X57077000Y-143425888D01*
X58385000Y-142744888D02*
X56875000Y-142744888D01*
X58385000Y-143385888D02*
X57060000Y-143385888D01*
X58385000Y-144065888D02*
X57488000Y-144065888D01*
X62003000Y-142464888D02*
X56847000Y-142464888D01*
X60900000Y-139540113D02*
X60900000Y-140040113D01*
X58385000Y-144465888D02*
X57925000Y-144465888D01*
X61926000Y-142984888D02*
X60465000Y-142984888D01*
X61078000Y-144345888D02*
X60465000Y-144345888D01*
X60676000Y-144625888D02*
X60465000Y-144625888D01*
X58385000Y-143185888D02*
X56983000Y-143185888D01*
X60436000Y-144745888D02*
X58414000Y-144745888D01*
X60230000Y-144825888D02*
X58620000Y-144825888D01*
X61880000Y-143145888D02*
X60465000Y-143145888D01*
X60925000Y-144465888D02*
X60465000Y-144465888D01*
X58385000Y-144025888D02*
X57454000Y-144025888D01*
X58385000Y-144625888D02*
X58174000Y-144625888D01*
X61998000Y-142544888D02*
X56852000Y-142544888D01*
X61251000Y-144185888D02*
X60465000Y-144185888D01*
X58385000Y-143024888D02*
X56934000Y-143024888D01*
X61961000Y-142824888D02*
X60465000Y-142824888D01*
X58385000Y-142984888D02*
X56924000Y-142984888D01*
X58385000Y-143825888D02*
X57303000Y-143825888D01*
X58385000Y-142824888D02*
X56889000Y-142824888D01*
X61715000Y-143545888D02*
X60465000Y-143545888D01*
X60340000Y-144785888D02*
X58510000Y-144785888D01*
X58385000Y-144425888D02*
X57871000Y-144425888D01*
X61994000Y-142584888D02*
X60465000Y-142584888D01*
X58385000Y-144505888D02*
X57982000Y-144505888D01*
X58385000Y-144105888D02*
X57524000Y-144105888D01*
X61905000Y-143065888D02*
X60465000Y-143065888D01*
X61936000Y-142944888D02*
X60465000Y-142944888D01*
X62005000Y-142384888D02*
X56845000Y-142384888D01*
X61326000Y-144105888D02*
X60465000Y-144105888D01*
X58385000Y-143705888D02*
X57225000Y-143705888D01*
X61981000Y-142704888D02*
X60465000Y-142704888D01*
X61520000Y-143865888D02*
X60465000Y-143865888D01*
X58385000Y-144185888D02*
X57599000Y-144185888D01*
X58385000Y-143785888D02*
X57276000Y-143785888D01*
X61362000Y-144065888D02*
X60465000Y-144065888D01*
X61150000Y-139790113D02*
X60650000Y-139790113D01*
X61790000Y-143385888D02*
X60465000Y-143385888D01*
X58385000Y-143145888D02*
X56970000Y-143145888D01*
X58385000Y-142944888D02*
X56914000Y-142944888D01*
X61986000Y-142664888D02*
X60465000Y-142664888D01*
X58385000Y-143345888D02*
X57043000Y-143345888D01*
X58385000Y-144345888D02*
X57772000Y-144345888D01*
X61210000Y-144225888D02*
X60465000Y-144225888D01*
X58385000Y-144265888D02*
X57682000Y-144265888D01*
X61867000Y-143185888D02*
X60465000Y-143185888D01*
X58385000Y-142664888D02*
X56864000Y-142664888D01*
X58385000Y-143985888D02*
X57421000Y-143985888D01*
X61625000Y-143705888D02*
X60465000Y-143705888D01*
X61547000Y-143825888D02*
X60465000Y-143825888D01*
X58385000Y-142584888D02*
X56856000Y-142584888D01*
X58385000Y-144305888D02*
X57726000Y-144305888D01*
X58385000Y-143305888D02*
X57027000Y-143305888D01*
X58385000Y-144145888D02*
X57561000Y-144145888D01*
X60744000Y-144585888D02*
X60465000Y-144585888D01*
X58385000Y-143225888D02*
X56997000Y-143225888D01*
X58385000Y-143065888D02*
X56945000Y-143065888D01*
X58385000Y-143105888D02*
X56957000Y-143105888D01*
X60979000Y-144425888D02*
X60465000Y-144425888D01*
X61396000Y-144025888D02*
X60465000Y-144025888D01*
X58385000Y-144585888D02*
X58106000Y-144585888D01*
X58385000Y-143865888D02*
X57330000Y-143865888D01*
X61953000Y-142864888D02*
X60465000Y-142864888D01*
X61490000Y-143905888D02*
X60465000Y-143905888D01*
X61289000Y-144145888D02*
X60465000Y-144145888D01*
X58385000Y-143945888D02*
X57390000Y-143945888D01*
X61429000Y-143985888D02*
X60465000Y-143985888D01*
X61945000Y-142904888D02*
X60465000Y-142904888D01*
X61574000Y-143785888D02*
X60465000Y-143785888D01*
X58385000Y-144545888D02*
X58042000Y-144545888D01*
X58385000Y-143505888D02*
X57115000Y-143505888D01*
X62001000Y-142504888D02*
X56849000Y-142504888D01*
X61893000Y-143105888D02*
X60465000Y-143105888D01*
X61693000Y-143585888D02*
X60465000Y-143585888D01*
X58385000Y-142784888D02*
X56882000Y-142784888D01*
X61968000Y-142784888D02*
X60465000Y-142784888D01*
X58385000Y-143625888D02*
X57178000Y-143625888D01*
X62005000Y-142344888D02*
X56845000Y-142344888D01*
X58385000Y-143545888D02*
X57135000Y-143545888D01*
X59709000Y-144945888D02*
X59141000Y-144945888D01*
X58385000Y-143905888D02*
X57360000Y-143905888D01*
X58385000Y-143745888D02*
X57250000Y-143745888D01*
X58385000Y-143665888D02*
X57201000Y-143665888D01*
X58385000Y-142624888D02*
X56860000Y-142624888D01*
X60808000Y-144545888D02*
X60465000Y-144545888D01*
X61030000Y-144385888D02*
X60465000Y-144385888D01*
X58385000Y-144385888D02*
X57820000Y-144385888D01*
X61916000Y-143024888D02*
X60465000Y-143024888D01*
X61773000Y-143425888D02*
X60465000Y-143425888D01*
X61754000Y-143465888D02*
X60465000Y-143465888D01*
X61460000Y-143945888D02*
X60465000Y-143945888D01*
X58385000Y-143265888D02*
X57011000Y-143265888D01*
X60603000Y-144665888D02*
X58247000Y-144665888D01*
X61672000Y-143625888D02*
X60465000Y-143625888D01*
X62004000Y-142424888D02*
X56846000Y-142424888D01*
X61124000Y-144305888D02*
X60465000Y-144305888D01*
X58385000Y-142704888D02*
X56869000Y-142704888D01*
X58385000Y-144225888D02*
X57640000Y-144225888D01*
X61735000Y-143505888D02*
X60465000Y-143505888D01*
X60102000Y-144865888D02*
X58748000Y-144865888D01*
X61990000Y-142624888D02*
X60465000Y-142624888D01*
X58385000Y-142864888D02*
X56897000Y-142864888D01*
X58385000Y-143465888D02*
X57096000Y-143465888D01*
X58385000Y-143585888D02*
X57157000Y-143585888D01*
X61649000Y-143665888D02*
X60465000Y-143665888D01*
X61839000Y-143265888D02*
X60465000Y-143265888D01*
X61168000Y-144265888D02*
X60465000Y-144265888D01*
X61823000Y-143305888D02*
X60465000Y-143305888D01*
X61853000Y-143225888D02*
X60465000Y-143225888D01*
X59943000Y-144905888D02*
X58907000Y-144905888D01*
X61807000Y-143345888D02*
X60465000Y-143345888D01*
X60868000Y-144505888D02*
X60465000Y-144505888D01*
X61600000Y-143745888D02*
X60465000Y-143745888D01*
X60523000Y-144705888D02*
X58327000Y-144705888D01*
X58385000Y-142904888D02*
X56905000Y-142904888D01*
X62045000Y-142344888D02*
G75*
G03*
X62045000Y-142344888I-2620000J0D01*
G01*
%TO.C,D2*%
X73259847Y-54718895D02*
X73564647Y-55246824D01*
X73963753Y-54312495D02*
X73259847Y-54718895D01*
X74268553Y-54840424D02*
X73963753Y-54312495D01*
%TO.C,RV1*%
X84845000Y-43080000D02*
X84845000Y-49320000D01*
X79845000Y-42580000D02*
X84845000Y-42580000D01*
X67554000Y-41330000D02*
X67554000Y-51070000D01*
X79845000Y-42580000D02*
X79845000Y-49820000D01*
X84845000Y-42580000D02*
X84845000Y-49820000D01*
X90879400Y-44585200D02*
X98855000Y-44585200D01*
X84845000Y-49320000D02*
X90845000Y-49320000D01*
X98855000Y-47836400D02*
X90879400Y-47836400D01*
X67554000Y-41330000D02*
X79845000Y-41330000D01*
X67554000Y-51070000D02*
X79845000Y-51070000D01*
X79845000Y-49820000D02*
X84845000Y-49820000D01*
X90845000Y-43080000D02*
X90845000Y-49320000D01*
X79845000Y-41330000D02*
X79845000Y-51070000D01*
X84845000Y-43080000D02*
X90845000Y-43080000D01*
X98855000Y-44585200D02*
X98855000Y-47836400D01*
%TO.C,D4*%
X74626763Y-113515424D02*
X74321963Y-112987495D01*
X74321963Y-112987495D02*
X73618057Y-113393895D01*
X73618057Y-113393895D02*
X73922857Y-113921824D01*
%TO.C,J9*%
X69370000Y-54270000D02*
X70700000Y-54270000D01*
X72030000Y-56870000D02*
X72030000Y-56930000D01*
X69370000Y-56870000D02*
X69370000Y-56930000D01*
X69370000Y-55600000D02*
X69370000Y-54270000D01*
X69370000Y-56870000D02*
X72030000Y-56870000D01*
X69370000Y-56930000D02*
X72030000Y-56930000D01*
%TO.C,D7*%
X75306400Y-124383200D02*
X75306400Y-123773600D01*
X75306400Y-123773600D02*
X74493600Y-123773600D01*
X74493600Y-123773600D02*
X74493600Y-124383200D01*
%TO.C,J8*%
X70045000Y-113730000D02*
X72705000Y-113730000D01*
X70045000Y-113670000D02*
X72705000Y-113670000D01*
X70045000Y-113670000D02*
X70045000Y-113730000D01*
X70045000Y-112400000D02*
X70045000Y-111070000D01*
X72705000Y-113670000D02*
X72705000Y-113730000D01*
X70045000Y-111070000D02*
X71375000Y-111070000D01*
%TO.C,J7*%
X84132400Y-145095600D02*
X84132400Y-139304400D01*
X79662000Y-138542400D02*
X79662000Y-145857600D01*
X84132400Y-139304400D02*
X79662000Y-139304400D01*
X79662000Y-138542400D02*
X65387200Y-138542400D01*
X65387200Y-138542400D02*
X65387200Y-145908400D01*
X79662000Y-145857600D02*
X65387200Y-145908400D01*
X79662000Y-145095600D02*
X84132400Y-145095600D01*
%TO.C,RV2*%
X79870000Y-108520000D02*
X84870000Y-108520000D01*
X84870000Y-108020000D02*
X90870000Y-108020000D01*
X67579000Y-100030000D02*
X67579000Y-109770000D01*
X98880000Y-103285200D02*
X98880000Y-106536400D01*
X67579000Y-100030000D02*
X79870000Y-100030000D01*
X67579000Y-109770000D02*
X79870000Y-109770000D01*
X79870000Y-101280000D02*
X79870000Y-108520000D01*
X84870000Y-101280000D02*
X84870000Y-108520000D01*
X98880000Y-106536400D02*
X90904400Y-106536400D01*
X84870000Y-101780000D02*
X90870000Y-101780000D01*
X79870000Y-100030000D02*
X79870000Y-109770000D01*
X79870000Y-101280000D02*
X84870000Y-101280000D01*
X90904400Y-103285200D02*
X98880000Y-103285200D01*
X90870000Y-101780000D02*
X90870000Y-108020000D01*
X84870000Y-101780000D02*
X84870000Y-108020000D01*
%TO.C,R30*%
X60540000Y-105947936D02*
X60540000Y-106402064D01*
X62010000Y-105947936D02*
X62010000Y-106402064D01*
%TO.C,J13*%
X56333000Y-136961000D02*
X56333000Y-124141000D01*
X61533000Y-134361000D02*
X58933000Y-134361000D01*
X61533000Y-134361000D02*
X61533000Y-124141000D01*
X61533000Y-135631000D02*
X61533000Y-136961000D01*
X61533000Y-136961000D02*
X60203000Y-136961000D01*
X58933000Y-136961000D02*
X56333000Y-136961000D01*
X61533000Y-124141000D02*
X56333000Y-124141000D01*
X58933000Y-134361000D02*
X58933000Y-136961000D01*
%TO.C,D1*%
X74842853Y-52129324D02*
X75147653Y-51601395D01*
X75147653Y-51601395D02*
X74443747Y-51194995D01*
X74443747Y-51194995D02*
X74138947Y-51722924D01*
%TO.C,C16*%
X60713252Y-108739000D02*
X60190748Y-108739000D01*
X60713252Y-110209000D02*
X60190748Y-110209000D01*
%TO.C,R38*%
X63019000Y-105944936D02*
X63019000Y-106399064D01*
X64489000Y-105944936D02*
X64489000Y-106399064D01*
%TO.C,J2*%
X79694200Y-57542400D02*
X65419400Y-57542400D01*
X84164600Y-58304400D02*
X79694200Y-58304400D01*
X79694200Y-64095600D02*
X84164600Y-64095600D01*
X79694200Y-57542400D02*
X79694200Y-64857600D01*
X65419400Y-57542400D02*
X65419400Y-64908400D01*
X79694200Y-64857600D02*
X65419400Y-64908400D01*
X84164600Y-64095600D02*
X84164600Y-58304400D01*
%TO.C,D9*%
X71400000Y-138250000D02*
X64500000Y-138250000D01*
X71400000Y-134950000D02*
X64500000Y-134950000D01*
X71400000Y-138250000D02*
X71400000Y-134950000D01*
%TO.C,R15*%
X64997000Y-92683064D02*
X64997000Y-92228936D01*
X63527000Y-92683064D02*
X63527000Y-92228936D01*
%TO.C,D8*%
X75006400Y-134973600D02*
X74193600Y-134973600D01*
X75006400Y-135583200D02*
X75006400Y-134973600D01*
X74193600Y-134973600D02*
X74193600Y-135583200D01*
%TO.C,J1*%
X79712000Y-75145600D02*
X84182400Y-75145600D01*
X79712000Y-68592400D02*
X65437200Y-68592400D01*
X84182400Y-69354400D02*
X79712000Y-69354400D01*
X84182400Y-75145600D02*
X84182400Y-69354400D01*
X65437200Y-68592400D02*
X65437200Y-75958400D01*
X79712000Y-75907600D02*
X65437200Y-75958400D01*
X79712000Y-68592400D02*
X79712000Y-75907600D01*
%TO.C,R1*%
X66872936Y-94145000D02*
X67327064Y-94145000D01*
X66872936Y-92675000D02*
X67327064Y-92675000D01*
%TO.C,J6*%
X84114600Y-80404400D02*
X79644200Y-80404400D01*
X79644200Y-79642400D02*
X79644200Y-86957600D01*
X79644200Y-86957600D02*
X65369400Y-87008400D01*
X79644200Y-86195600D02*
X84114600Y-86195600D01*
X65369400Y-79642400D02*
X65369400Y-87008400D01*
X84114600Y-86195600D02*
X84114600Y-80404400D01*
X79644200Y-79642400D02*
X65369400Y-79642400D01*
%TO.C,C36*%
X56390000Y-104636252D02*
X56390000Y-104113748D01*
X57860000Y-104636252D02*
X57860000Y-104113748D01*
%TO.C,TH1*%
X64410000Y-127227064D02*
X64410000Y-125772936D01*
X62590000Y-127227064D02*
X62590000Y-125772936D01*
%TD*%
M02*
