%TF.GenerationSoftware,KiCad,Pcbnew,(6.0.2-0)*%
%TF.CreationDate,2022-07-30T11:22:51+02:00*%
%TF.ProjectId,blindeTaube,626c696e-6465-4546-9175-62652e6b6963,rev?*%
%TF.SameCoordinates,Original*%
%TF.FileFunction,Soldermask,Top*%
%TF.FilePolarity,Negative*%
%FSLAX46Y46*%
G04 Gerber Fmt 4.6, Leading zero omitted, Abs format (unit mm)*
G04 Created by KiCad (PCBNEW (6.0.2-0)) date 2022-07-30 11:22:51*
%MOMM*%
%LPD*%
G01*
G04 APERTURE LIST*
G04 Aperture macros list*
%AMRoundRect*
0 Rectangle with rounded corners*
0 $1 Rounding radius*
0 $2 $3 $4 $5 $6 $7 $8 $9 X,Y pos of 4 corners*
0 Add a 4 corners polygon primitive as box body*
4,1,4,$2,$3,$4,$5,$6,$7,$8,$9,$2,$3,0*
0 Add four circle primitives for the rounded corners*
1,1,$1+$1,$2,$3*
1,1,$1+$1,$4,$5*
1,1,$1+$1,$6,$7*
1,1,$1+$1,$8,$9*
0 Add four rect primitives between the rounded corners*
20,1,$1+$1,$2,$3,$4,$5,0*
20,1,$1+$1,$4,$5,$6,$7,0*
20,1,$1+$1,$6,$7,$8,$9,0*
20,1,$1+$1,$8,$9,$2,$3,0*%
%AMRotRect*
0 Rectangle, with rotation*
0 The origin of the aperture is its center*
0 $1 length*
0 $2 width*
0 $3 Rotation angle, in degrees counterclockwise*
0 Add horizontal line*
21,1,$1,$2,0,0,$3*%
G04 Aperture macros list end*
%ADD10RoundRect,0.250000X-0.475000X0.337500X-0.475000X-0.337500X0.475000X-0.337500X0.475000X0.337500X0*%
%ADD11RoundRect,0.250000X0.450000X-0.350000X0.450000X0.350000X-0.450000X0.350000X-0.450000X-0.350000X0*%
%ADD12R,1.600000X3.500000*%
%ADD13O,1.600000X3.500000*%
%ADD14R,0.500000X0.900000*%
%ADD15R,1.700000X1.700000*%
%ADD16RotRect,0.900000X0.500000X240.000000*%
%ADD17RoundRect,0.150000X-0.150000X0.825000X-0.150000X-0.825000X0.150000X-0.825000X0.150000X0.825000X0*%
%ADD18R,3.500000X1.800000*%
%ADD19RoundRect,0.250000X-0.337500X-0.475000X0.337500X-0.475000X0.337500X0.475000X-0.337500X0.475000X0*%
%ADD20RoundRect,0.250000X-0.450000X0.350000X-0.450000X-0.350000X0.450000X-0.350000X0.450000X0.350000X0*%
%ADD21R,1.600000X1.600000*%
%ADD22C,1.600000*%
%ADD23RoundRect,0.237500X-0.287500X-0.237500X0.287500X-0.237500X0.287500X0.237500X-0.287500X0.237500X0*%
%ADD24RoundRect,0.237500X-0.237500X0.287500X-0.237500X-0.287500X0.237500X-0.287500X0.237500X0.287500X0*%
%ADD25RoundRect,0.250000X-0.350000X-0.450000X0.350000X-0.450000X0.350000X0.450000X-0.350000X0.450000X0*%
%ADD26RotRect,0.900000X0.500000X300.000000*%
%ADD27C,1.800000*%
%ADD28O,1.700000X1.700000*%
%ADD29RoundRect,0.250000X0.337500X0.475000X-0.337500X0.475000X-0.337500X-0.475000X0.337500X-0.475000X0*%
%ADD30RoundRect,0.250000X0.475000X-0.337500X0.475000X0.337500X-0.475000X0.337500X-0.475000X-0.337500X0*%
%ADD31RoundRect,0.250000X0.625000X-0.400000X0.625000X0.400000X-0.625000X0.400000X-0.625000X-0.400000X0*%
G04 APERTURE END LIST*
D10*
%TO.C,C4*%
X59690000Y-86592500D03*
X59690000Y-88667500D03*
%TD*%
%TO.C,C3*%
X63900000Y-87562500D03*
X63900000Y-89637500D03*
%TD*%
D11*
%TO.C,R46*%
X65850000Y-107172000D03*
X65850000Y-105172000D03*
%TD*%
D12*
%TO.C,J5*%
X77900000Y-119850000D03*
D13*
X72600000Y-119850000D03*
X66800000Y-119850000D03*
%TD*%
D14*
%TO.C,D6*%
X74450000Y-76650000D03*
X74450000Y-78850000D03*
%TD*%
D15*
%TO.C,J4*%
X71425000Y-66700000D03*
%TD*%
D16*
%TO.C,D3*%
X74832500Y-110607069D03*
X73732500Y-112512325D03*
%TD*%
D17*
%TO.C,U3*%
X65995000Y-96050000D03*
X64725000Y-96050000D03*
X63455000Y-96050000D03*
X62185000Y-96050000D03*
X60915000Y-96050000D03*
X59645000Y-96050000D03*
X58375000Y-96050000D03*
X57105000Y-96050000D03*
X57105000Y-101000000D03*
X58375000Y-101000000D03*
X59645000Y-101000000D03*
X60915000Y-101000000D03*
X62185000Y-101000000D03*
X63455000Y-101000000D03*
X64725000Y-101000000D03*
X65995000Y-101000000D03*
%TD*%
D18*
%TO.C,D10*%
X71850000Y-125400000D03*
X66850000Y-125400000D03*
%TD*%
D19*
%TO.C,C17*%
X63732500Y-109474000D03*
X65807500Y-109474000D03*
%TD*%
D20*
%TO.C,R16*%
X60375000Y-91450000D03*
X60375000Y-93450000D03*
%TD*%
D21*
%TO.C,C22*%
X59275000Y-117944888D03*
D22*
X59275000Y-120444888D03*
%TD*%
D20*
%TO.C,R45*%
X59175000Y-105425000D03*
X59175000Y-107425000D03*
%TD*%
D11*
%TO.C,R9*%
X58075000Y-93450000D03*
X58075000Y-91450000D03*
%TD*%
D10*
%TO.C,C31*%
X71120000Y-96552500D03*
X71120000Y-98627500D03*
%TD*%
D14*
%TO.C,D5*%
X74100000Y-65600000D03*
X74100000Y-67800000D03*
%TD*%
D23*
%TO.C,L2*%
X62175000Y-122600000D03*
X63925000Y-122600000D03*
%TD*%
D24*
%TO.C,L1*%
X63900000Y-139325000D03*
X63900000Y-141075000D03*
%TD*%
D25*
%TO.C,R41*%
X70000000Y-94200000D03*
X72000000Y-94200000D03*
%TD*%
D12*
%TO.C,J3*%
X77882200Y-131000000D03*
D13*
X72582200Y-131000000D03*
X66782200Y-131000000D03*
%TD*%
D21*
%TO.C,C21*%
X59425000Y-141094888D03*
D22*
X59425000Y-143594888D03*
%TD*%
D26*
%TO.C,D2*%
X73900000Y-55014872D03*
X75000000Y-56920128D03*
%TD*%
D27*
%TO.C,RV1*%
X74725000Y-48700000D03*
X74725000Y-46200000D03*
X74725000Y-43700000D03*
X69725000Y-48700000D03*
X69725000Y-46200000D03*
X69725000Y-43700000D03*
%TD*%
D26*
%TO.C,D4*%
X74258210Y-113689872D03*
X75358210Y-115595128D03*
%TD*%
D15*
%TO.C,J9*%
X70700000Y-55600000D03*
%TD*%
D14*
%TO.C,D7*%
X74900000Y-124350000D03*
X74900000Y-126550000D03*
%TD*%
D15*
%TO.C,J8*%
X71375000Y-112400000D03*
%TD*%
D12*
%TO.C,J7*%
X77850000Y-142200000D03*
D13*
X72550000Y-142200000D03*
X66750000Y-142200000D03*
%TD*%
D27*
%TO.C,RV2*%
X74750000Y-107400000D03*
X74750000Y-104900000D03*
X74750000Y-102400000D03*
X69750000Y-107400000D03*
X69750000Y-104900000D03*
X69750000Y-102400000D03*
%TD*%
D20*
%TO.C,R30*%
X61275000Y-105175000D03*
X61275000Y-107175000D03*
%TD*%
D15*
%TO.C,J13*%
X60203000Y-135631000D03*
D28*
X57663000Y-135631000D03*
X60203000Y-133091000D03*
X57663000Y-133091000D03*
X60203000Y-130551000D03*
X57663000Y-130551000D03*
X60203000Y-128011000D03*
X57663000Y-128011000D03*
X60203000Y-125471000D03*
X57663000Y-125471000D03*
%TD*%
D16*
%TO.C,D1*%
X74507500Y-51897372D03*
X73407500Y-53802628D03*
%TD*%
D29*
%TO.C,C16*%
X61489500Y-109474000D03*
X59414500Y-109474000D03*
%TD*%
D20*
%TO.C,R38*%
X63754000Y-105172000D03*
X63754000Y-107172000D03*
%TD*%
D12*
%TO.C,J2*%
X77882200Y-61200000D03*
D13*
X72582200Y-61200000D03*
X66782200Y-61200000D03*
%TD*%
D18*
%TO.C,D9*%
X69500000Y-136600000D03*
X64500000Y-136600000D03*
%TD*%
D11*
%TO.C,R15*%
X64262000Y-93456000D03*
X64262000Y-91456000D03*
%TD*%
D14*
%TO.C,D8*%
X74600000Y-135550000D03*
X74600000Y-137750000D03*
%TD*%
D12*
%TO.C,J1*%
X77900000Y-72250000D03*
D13*
X72600000Y-72250000D03*
X66800000Y-72250000D03*
%TD*%
D25*
%TO.C,R1*%
X66100000Y-93410000D03*
X68100000Y-93410000D03*
%TD*%
D12*
%TO.C,J6*%
X77832200Y-83300000D03*
D13*
X72532200Y-83300000D03*
X66732200Y-83300000D03*
%TD*%
D30*
%TO.C,C36*%
X57125000Y-105412500D03*
X57125000Y-103337500D03*
%TD*%
D31*
%TO.C,TH1*%
X63500000Y-128050000D03*
X63500000Y-124950000D03*
%TD*%
M02*
